<svg xmlns="http://www.w3.org/2000/svg" width="211.735" height="42.135" viewBox="0 0 211.735 42.135">
  <g id="首页-logo" transform="translate(-299.974 -19.995)">
    <path id="路径_10357" data-name="路径 10357" d="M11.543-13.33h-2.1L3.721-6.953H3.643V-13.33h-1.8V0h1.8V-4.629L5.254-6.387,9.531,0H11.8L6.592-7.646Zm6.2,2.881A4.278,4.278,0,0,0,13.3-5.9v1.5A4.19,4.19,0,0,0,17.744.166a4.217,4.217,0,0,0,4.434-4.561V-5.9A4.229,4.229,0,0,0,17.744-10.449Zm.01,1.523c1.65,0,2.646,1.309,2.646,3.174v1.23c0,1.895-.947,3.174-2.646,3.174-1.719,0-2.686-1.279-2.686-3.174v-1.23C15.068-7.607,16.1-8.926,17.754-8.926ZM25.146,0h1.768V-5.723c0-1.768.879-3.154,2.686-3.154,1.4,0,2.227.82,2.227,2.432V0h1.768V-7.012a3.154,3.154,0,0,0-3.486-3.428,2.9,2.9,0,0,0-3.115,2.031h-.1v-1.865H25.146ZM40.732,2.266c-1.348,0-2.178-.605-2.314-1.328h-1.8c.137,1.494,1.426,2.822,4.053,2.822S45.2,2.529,45.2-.3v-9.971H43.506V-8.73h-.088a3.16,3.16,0,0,0-2.979-1.7A3.993,3.993,0,0,0,36.4-6.084v1.572A3.984,3.984,0,0,0,40.449-.186,3.059,3.059,0,0,0,43.33-1.8h.1V-.312A2.372,2.372,0,0,1,40.732,2.266ZM40.879-8.9a2.634,2.634,0,0,1,2.549,2.861V-4.5A2.581,2.581,0,0,1,40.9-1.689c-1.592,0-2.725-1.25-2.725-3.115v-.957C38.174-7.637,39.209-8.9,40.879-8.9ZM50.273,0V-9.658h.088l3.682,8.467h1.465L59.18-9.658h.1V0h1.631V-13.33H59.15L54.814-3.174h-.059L50.41-13.33H48.643V0ZM68.438.166c2.6,0,3.838-1.611,3.994-2.725H70.615a2.128,2.128,0,0,1-2.187,1.211A2.552,2.552,0,0,1,65.8-4.16v-.518h6.768v-1.23c0-2.773-1.777-4.541-4.268-4.541-2.461,0-4.258,1.729-4.258,4.541v1.543C64.043-1.582,65.674.166,68.438.166ZM65.8-5.957v-.166a2.52,2.52,0,0,1,2.51-2.812,2.513,2.513,0,0,1,2.5,2.813v.166ZM75-7.324c0,2.021,1.553,2.471,3.467,2.861,1.426.283,2.568.488,2.568,1.631,0,.879-.664,1.6-2.285,1.6-1.436,0-2.07-.566-2.207-1.475H74.814c0,1.846,1.572,2.871,3.857,2.871,2.461,0,4.1-1.162,4.1-3.213,0-1.992-1.592-2.529-3.516-2.871-1.162-.205-2.549-.371-2.549-1.592,0-.977.859-1.533,2.061-1.533,1.377,0,2.041.762,2.1,1.484H82.51c0-1.738-1.465-2.891-3.682-2.891C76.826-10.449,75-9.512,75-7.324Zm10.166,0c0,2.021,1.553,2.471,3.467,2.861,1.426.283,2.568.488,2.568,1.631,0,.879-.664,1.6-2.285,1.6-1.436,0-2.07-.566-2.207-1.475H84.98c0,1.846,1.572,2.871,3.857,2.871,2.461,0,4.1-1.162,4.1-3.213,0-1.992-1.592-2.529-3.516-2.871-1.162-.205-2.549-.371-2.549-1.592,0-.977.859-1.533,2.061-1.533,1.377,0,2.041.762,2.1,1.484h1.641c0-1.738-1.465-2.891-3.682-2.891C86.992-10.449,85.166-9.512,85.166-7.324ZM99.717.166c2.6,0,3.838-1.611,3.994-2.725h-1.816a2.128,2.128,0,0,1-2.187,1.211A2.552,2.552,0,0,1,97.08-4.16v-.518h6.768v-1.23c0-2.773-1.777-4.541-4.268-4.541-2.461,0-4.258,1.729-4.258,4.541v1.543C95.322-1.582,96.953.166,99.717.166ZM97.08-5.957v-.166a2.52,2.52,0,0,1,2.51-2.812,2.513,2.513,0,0,1,2.5,2.813v.166ZM106.768,0h1.768V-5.723c0-1.768.879-3.154,2.686-3.154,1.4,0,2.227.82,2.227,2.432V0h1.768V-7.012a3.154,3.154,0,0,0-3.486-3.428,2.9,2.9,0,0,0-3.115,2.031h-.1v-1.865h-1.748Zm15.586,2.266c-1.348,0-2.178-.605-2.314-1.328h-1.8c.137,1.494,1.426,2.822,4.053,2.822s4.521-1.23,4.521-4.062v-9.971h-1.689V-8.73h-.088a3.16,3.16,0,0,0-2.979-1.7,3.993,3.993,0,0,0-4.043,4.346v1.572A3.984,3.984,0,0,0,122.07-.186,3.059,3.059,0,0,0,124.951-1.8h.1V-.312A2.372,2.372,0,0,1,122.354,2.266ZM122.5-8.9a2.634,2.634,0,0,1,2.549,2.861V-4.5a2.581,2.581,0,0,1-2.529,2.813c-1.592,0-2.725-1.25-2.725-3.115v-.957C119.795-7.637,120.83-8.9,122.5-8.9ZM134.189.166c2.6,0,3.838-1.611,3.994-2.725h-1.816a2.128,2.128,0,0,1-2.187,1.211,2.552,2.552,0,0,1-2.627-2.812v-.518h6.768v-1.23c0-2.773-1.777-4.541-4.268-4.541-2.461,0-4.258,1.729-4.258,4.541v1.543C129.795-1.582,131.426.166,134.189.166Zm-2.637-6.123v-.166a2.52,2.52,0,0,1,2.51-2.812,2.513,2.513,0,0,1,2.5,2.813v.166ZM141.4,0h1.777V-6.338a2.407,2.407,0,0,1,2.705-2.471,4.615,4.615,0,0,1,.83.059v-1.631a4.542,4.542,0,0,0-.645-.049,2.759,2.759,0,0,0-2.812,1.738h-.088v-1.582H141.4Z" transform="translate(365 47.787)" fill="#fff"/>
    <path id="路径_229" data-name="路径 229" d="M-206.948,166.9v8.493a2.028,2.028,0,0,1-.336,1.166,2.667,2.667,0,0,1-2.37,1.067,3.1,3.1,0,0,1-2.232-.79,1.954,1.954,0,0,1-.573-1.442V149.419a1.916,1.916,0,0,1,.394-1.205,2.8,2.8,0,0,1,2.37-1.007,2.937,2.937,0,0,1,2.173.79,1.931,1.931,0,0,1,.573,1.422v10.923l12.464-12.208a2.867,2.867,0,0,1,2.093-.888,2.674,2.674,0,0,1,1.739.612,2.419,2.419,0,0,1,.948,1.995,2.311,2.311,0,0,1-.79,1.758l-9.2,8.573,11.279,13a2.746,2.746,0,0,1,.751,1.856,2.348,2.348,0,0,1-1.087,2,3.082,3.082,0,0,1-1.837.612,2.923,2.923,0,0,1-2.351-1.205l-10.568-12.859Z" transform="translate(512.433 -122.1)" fill="#fff"/>
    <g id="路径_224" data-name="路径 224" transform="translate(320.584 21.277)">
      <path id="路径_226" data-name="路径 226" d="M22.1,1.692C14.9-1.976,5.482.439,1.741,7.791-2.18,15.5.7,26.167,8.575,29.828A13.968,13.968,0,0,0,25.5,26.483l9.246.638-5.006-8.355a14.948,14.948,0,0,0,.149-7.663A15.184,15.184,0,0,0,22.1,1.692Z" transform="matrix(0.966, 0.259, -0.259, 0.966, 8.111, 0)" fill="#007aff" stroke="#fff" stroke-width="2"/>
      <path id="路径_281" data-name="路径 281" d="M129.024-226.777a.3.3,0,0,1-.051.174.342.342,0,0,1-.179.118,1.984,1.984,0,0,1-.327.075,3.5,3.5,0,0,1-.519.031,3.555,3.555,0,0,1-.506-.031,1.794,1.794,0,0,1-.333-.075.34.34,0,0,1-.173-.118.3.3,0,0,1-.051-.174V-240.8h-.025l-5.673,14.083a.425.425,0,0,1-.106.149.552.552,0,0,1-.2.106,1.471,1.471,0,0,1-.311.062,4.248,4.248,0,0,1-.429.019,3.451,3.451,0,0,1-.448-.025,1.611,1.611,0,0,1-.311-.068.554.554,0,0,1-.193-.106.321.321,0,0,1-.093-.137L113.672-240.8h-.013v14.021a.3.3,0,0,1-.051.174.342.342,0,0,1-.179.118,1.976,1.976,0,0,1-.333.075,3.632,3.632,0,0,1-.525.031,3.526,3.526,0,0,1-.513-.031,1.8,1.8,0,0,1-.327-.075.3.3,0,0,1-.167-.118.33.33,0,0,1-.045-.174v-14.8a.905.905,0,0,1,.278-.746.963.963,0,0,1,.619-.224h1.314a2.979,2.979,0,0,1,.707.075,1.543,1.543,0,0,1,.531.236,1.374,1.374,0,0,1,.379.411,2.918,2.918,0,0,1,.265.585l4.6,11.657h.062l4.79-11.62a3.458,3.458,0,0,1,.3-.635,1.642,1.642,0,0,1,.36-.417,1.243,1.243,0,0,1,.436-.224,2.04,2.04,0,0,1,.556-.068H128.1a1.148,1.148,0,0,1,.36.056.735.735,0,0,1,.291.174.908.908,0,0,1,.2.3,1.141,1.141,0,0,1,.076.442Z" transform="translate(-101.543 253.847)" fill="#fff" stroke="#fff" stroke-width="1"/>
    </g>
  </g>
</svg>
