<svg xmlns="http://www.w3.org/2000/svg" width="222" height="64" viewBox="0 0 222 64">
  <g id="APP_Store" data-name="APP Store" transform="translate(0.341 -0.496)">
    <g id="组_1069" data-name="组 1069" transform="translate(0 0)">
      <rect id="矩形_709" data-name="矩形 709" width="222" height="64" rx="10" transform="translate(-0.341 0.496)" fill="#092048"/>
      <g id="Page-1" transform="translate(15.211 11.817)">
        <g id="Group" transform="translate(0 0)">
          <path id="Shape" d="M27.46,15.794A9.3,9.3,0,0,1,31.8,8a9.29,9.29,0,0,0-7.359-4.049c-3.1-.332-6.1,1.885-7.675,1.885-1.608,0-4.037-1.853-6.654-1.8A9.776,9.776,0,0,0,1.87,9.16C-1.7,15.443.964,24.677,4.38,29.757c1.709,2.487,3.706,5.265,6.32,5.167,2.557-.107,3.513-1.659,6.6-1.659,3.058,0,3.955,1.659,6.621,1.6,2.745-.045,4.473-2.5,6.122-5.009a20.722,20.722,0,0,0,2.8-5.8,8.953,8.953,0,0,1-5.382-8.255Z" transform="translate(-0.176 5.936)" fill="#fff" fill-rule="evenodd"/>
          <path id="Shape-2" data-name="Shape" d="M12.428,6.683A9.247,9.247,0,0,0,14.483.134,9.1,9.1,0,0,0,8.569,3.247,8.794,8.794,0,0,0,6.46,9.555a7.5,7.5,0,0,0,5.968-2.872Z" transform="translate(9.82 -0.134)" fill="#fff" fill-rule="evenodd"/>
        </g>
      </g>
    </g>
    <g id="组_1070" data-name="组 1070" transform="translate(62.038 11.817)">
      <path id="路径_10362" data-name="路径 10362" d="M-47.883,0l1.149-3.7h4.9L-40.686,0H-37.6l-4.9-14.663H-45.9L-50.816,0Zm3.674-11.795,1.794,5.865h-3.717l1.794-5.865Zm14.749-2.868h-5.865V0h2.9V-4.855h2.943a4.637,4.637,0,0,0,4.974-4.877A4.672,4.672,0,0,0-29.46-14.663Zm2,4.931A2.328,2.328,0,0,1-30.019-7.2h-2.417v-5.07h2.417A2.319,2.319,0,0,1-27.462-9.732Zm11.43-4.931H-21.9V0H-19V-4.855h2.943a4.637,4.637,0,0,0,4.974-4.877A4.672,4.672,0,0,0-16.033-14.663Zm2,4.931A2.328,2.328,0,0,1-16.591-7.2h-2.417v-5.07h2.417A2.319,2.319,0,0,1-14.035-9.732Zm9.55,5.693C-4.356-1.719-2.551.279,1.176.279S6.988-1.6,6.988-4.351c0-2.492-1.568-3.631-3.942-4.157l-2.277-.5c-1.289-.269-2.009-.827-2.009-1.7,0-1.1.956-1.9,2.557-1.9a2.462,2.462,0,0,1,2.7,1.826h2.75c-.14-2.267-2.073-4.179-5.425-4.179-3.233,0-5.479,1.751-5.479,4.469,0,2.267,1.439,3.556,3.717,4.071l2.267.516C3.368-5.564,4.1-5.06,4.1-4.061c0,1.16-.956,1.966-2.761,1.966-1.729,0-2.825-.838-3.019-1.944ZM10.769-11.29H8.975v2.245H10.7v5.812c0,2.342.945,3.287,3.781,3.287a12.377,12.377,0,0,0,1.665-.118V-2.224c-.2.021-.623.043-.978.043-1.182,0-1.654-.344-1.654-1.461v-5.4h2.524V-11.29H13.519v-2.836h-2.75Zm12.751-.333a4.97,4.97,0,0,0-5.231,5.285v1.214C18.289-1.7,20.362.2,23.52.2c3.115,0,5.2-1.923,5.2-5.339V-6.349A4.915,4.915,0,0,0,23.52-11.623Zm0,2.267c1.568,0,2.342,1.375,2.342,3.072v1.16c0,1.654-.72,3.062-2.342,3.062S21.146-3.48,21.146-5.124v-1.16C21.146-7.971,21.941-9.356,23.52-9.356ZM31.673,0h2.89V-6.467a2.427,2.427,0,0,1,2.729-2.6,4.281,4.281,0,0,1,1.117.107v-2.535a3.763,3.763,0,0,0-.892-.086,2.866,2.866,0,0,0-2.879,1.955H34.5v-1.794H31.673ZM45.251.2c3.255,0,4.662-2.062,4.78-3.5H47.346c-.129.709-.945,1.257-2.105,1.257a2.312,2.312,0,0,1-2.417-2.481V-5.07h7.315v-1.3c0-3.244-2.073-5.253-5.027-5.253-2.836,0-5.06,1.837-5.06,5.253V-5.06C40.052-1.665,42.093.2,45.251.2ZM42.824-6.821v-.107a2.281,2.281,0,0,1,2.3-2.5,2.259,2.259,0,0,1,2.277,2.5v.107Z" transform="translate(50.621 36.679)" fill="#fff"/>
      <path id="路径_10361" data-name="路径 10361" d="M-47.972-8.658V0h2.653c2.533,0,3.8-1.5,3.8-4.329s-1.276-4.329-3.8-4.329Zm.927.844h1.695c1.93,0,2.875,1.187,2.875,3.485s-.933,3.479-2.875,3.479h-1.695ZM-36.9-6.754a2.713,2.713,0,0,0-2.806,2.907V-2.8A2.664,2.664,0,0,0-36.9.108,2.685,2.685,0,0,0-34.1-2.8V-3.847A2.688,2.688,0,0,0-36.9-6.754Zm.006.819c1.13,0,1.873.863,1.873,2.2v.844c0,1.365-.711,2.19-1.873,2.19s-1.9-.832-1.9-2.19v-.844A1.942,1.942,0,0,1-36.9-5.935Zm12.7-.711h-.92l-1.3,5.408h-.044l-1.606-5.408h-.876L-30.51-1.238h-.038L-31.83-6.646h-1.041L-30.992,0h.908l1.574-5.3h.025L-26.879,0h.9ZM-22.639,0h.914V-3.745c0-1.2.609-2.19,1.892-2.19a1.476,1.476,0,0,1,1.555,1.688V0h.92V-4.539A2.057,2.057,0,0,0-19.63-6.754a1.905,1.905,0,0,0-2.044,1.346h-.051V-6.646h-.914ZM-15,0h.92V-9.122H-15Zm5.8-6.754a2.713,2.713,0,0,0-2.806,2.907V-2.8A2.664,2.664,0,0,0-9.207.108,2.685,2.685,0,0,0-6.408-2.8V-3.847A2.688,2.688,0,0,0-9.207-6.754Zm.006.819c1.13,0,1.873.863,1.873,2.2v.844C-7.328-1.53-8.039-.7-9.2-.7s-1.9-.832-1.9-2.19v-.844A1.942,1.942,0,0,1-9.2-5.935Zm6.6,6.043A2.156,2.156,0,0,0-.651-.927h.044V0H.282V-4.589C.282-6.157-.8-6.754-2.123-6.754c-1.4,0-2.292.59-2.393,1.669h.9c.14-.47.521-.851,1.454-.851S-.644-5.51-.644-4.57v.717H-2.46c-1.517,0-2.317.787-2.317,1.93A1.992,1.992,0,0,0-2.606.108ZM-2.384-.7A1.272,1.272,0,0,1-3.824-1.942c0-.647.4-1.143,1.384-1.143h1.8v.806A1.628,1.628,0,0,1-2.384-.7ZM4.865-6.754a2.525,2.525,0,0,0-2.6,2.749v1.365A2.5,2.5,0,0,0,4.834.1,2.046,2.046,0,0,0,6.878-1.1h.044V0H7.8V-9.122h-.92v3.5H6.833A2,2,0,0,0,4.865-6.754Zm.114.819A1.851,1.851,0,0,1,6.878-4v1.225A1.854,1.854,0,0,1,5.011-.711c-1.117,0-1.822-.806-1.822-2.171v-.9C3.19-5.148,3.894-5.935,4.98-5.935ZM15.6-6.754a2.713,2.713,0,0,0-2.806,2.907V-2.8A2.664,2.664,0,0,0,15.6.108,2.685,2.685,0,0,0,18.4-2.8V-3.847A2.688,2.688,0,0,0,15.6-6.754Zm.006.819c1.13,0,1.873.863,1.873,2.2v.844c0,1.365-.711,2.19-1.873,2.19s-1.9-.832-1.9-2.19v-.844A1.942,1.942,0,0,1,15.606-5.935ZM20.424,0h.914V-3.745c0-1.2.609-2.19,1.892-2.19a1.476,1.476,0,0,1,1.555,1.688V0h.92V-4.539a2.057,2.057,0,0,0-2.272-2.215,1.905,1.905,0,0,0-2.044,1.346h-.051V-6.646h-.914ZM31.31-6.646H30.25v.768h1.06V-1.8c0,1.276.3,1.866,1.815,1.866a7.485,7.485,0,0,0,.768-.051V-.755c-.114.013-.387.032-.546.032-.857,0-1.124-.216-1.124-1.035v-4.12h1.562v-.768H32.224V-8.309H31.31ZM35.74,0h.914V-3.745c0-1.206.635-2.19,1.879-2.19a1.513,1.513,0,0,1,1.593,1.7V0h.92V-4.526A2.068,2.068,0,0,0,38.8-6.754a2.013,2.013,0,0,0-2.095,1.346h-.051V-9.122H35.74ZM45.808.108a2.338,2.338,0,0,0,2.507-1.688h-.971A1.494,1.494,0,0,1,45.8-.7a1.814,1.814,0,0,1-1.841-2.031v-.349h4.45v-.743a2.656,2.656,0,0,0-2.685-2.926A2.656,2.656,0,0,0,43.04-3.828V-2.8A2.623,2.623,0,0,0,45.808.108ZM43.961-3.8V-3.91a1.789,1.789,0,0,1,1.765-2.025A1.789,1.789,0,0,1,47.49-3.91V-3.8Z" transform="translate(48.621 11.679)" fill="#fff"/>
    </g>
  </g>
</svg>
