<svg xmlns="http://www.w3.org/2000/svg" width="222" height="64" viewBox="0 0 222 64">
  <g id="google-play" transform="translate(0.218 -0.496)">
    <g id="组_1069" data-name="组 1069" transform="translate(0 0)">
      <rect id="矩形_709" data-name="矩形 709" width="222" height="64" rx="10" transform="translate(-0.218 0.496)" fill="#092048"/>
    </g>
    <g id="组_1070" data-name="组 1070" transform="translate(62.038 11.817)">
      <path id="路径_10359" data-name="路径 10359" d="M13.267-10.227C13.02-12.783,11-14.942,7.509-14.942c-3.975,0-6.263,2.686-6.263,6.639v1.848C1.246-2.5,3.309.279,7.52.279c3.932,0,5.8-2.449,5.8-5.3V-7.928H7.541V-5.7H10.56v.881c0,1.418-1,2.578-3.008,2.578-2.31,0-3.373-1.719-3.373-4.222v-1.8c0-2.621,1.2-4.146,3.3-4.146a2.8,2.8,0,0,1,2.943,2.191Zm7.917-1.4a4.97,4.97,0,0,0-5.231,5.285v1.214C15.952-1.7,18.025.2,21.184.2c3.115,0,5.2-1.923,5.2-5.339V-6.349A4.915,4.915,0,0,0,21.184-11.623Zm0,2.267c1.568,0,2.342,1.375,2.342,3.072v1.16c0,1.654-.72,3.062-2.342,3.062S18.81-3.48,18.81-5.124v-1.16C18.81-7.971,19.6-9.356,21.184-9.356Zm12.751-2.267A4.97,4.97,0,0,0,28.7-6.338v1.214C28.7-1.7,30.776.2,33.935.2c3.115,0,5.2-1.923,5.2-5.339V-6.349A4.915,4.915,0,0,0,33.935-11.623Zm0,2.267c1.568,0,2.342,1.375,2.342,3.072v1.16c0,1.654-.72,3.062-2.342,3.062S31.561-3.48,31.561-5.124v-1.16C31.561-7.971,32.355-9.356,33.935-9.356ZM46.578,2.02c-1.214,0-2.041-.473-2.191-1.192h-2.75c.107,1.762,1.6,3.352,4.855,3.352,2.8,0,5.382-1.139,5.382-4.394v-11.2H49.1v1.762h-.14a3.3,3.3,0,0,0-3.244-1.9c-2.514,0-4.318,1.826-4.318,5.092V-5.3c0,3.266,1.815,5.081,4.318,5.081A3.314,3.314,0,0,0,48.909-2h.14V-.4A2.188,2.188,0,0,1,46.578,2.02Zm.15-11.236c1.439,0,2.32,1.182,2.32,2.793v1.257c0,1.59-.849,2.771-2.31,2.771C45.311-2.4,44.3-3.513,44.3-5.371v-.87C44.3-8.1,45.246-9.217,46.729-9.217ZM55.193,0h2.836V-15.437H55.193ZM66.15.2c3.255,0,4.662-2.062,4.78-3.5H68.245c-.129.709-.945,1.257-2.105,1.257a2.312,2.312,0,0,1-2.417-2.481V-5.07h7.315v-1.3c0-3.244-2.073-5.253-5.027-5.253-2.836,0-5.06,1.837-5.06,5.253V-5.06C60.951-1.665,62.992.2,66.15.2ZM63.723-6.821v-.107a2.281,2.281,0,0,1,2.3-2.5,2.259,2.259,0,0,1,2.277,2.5v.107Zm21.022-7.842H78.88V0h2.9V-4.855h2.943A4.637,4.637,0,0,0,89.7-9.732,4.672,4.672,0,0,0,84.745-14.663Zm2,4.931A2.328,2.328,0,0,1,84.187-7.2H81.77v-5.07h2.417A2.319,2.319,0,0,1,86.743-9.732ZM92.232,0h2.836V-15.437H92.232Zm9.442.172a3.292,3.292,0,0,0,3.094-1.611h.129V0h2.675V-7.648c0-2.911-2.084-3.942-4.641-3.942-3.126,0-4.458,1.558-4.587,3.427h2.675c.14-.7.688-1.2,1.848-1.2s1.9.537,1.9,1.644v1h-2.782c-2.643,0-4.061,1.364-4.061,3.416C97.926-1.16,99.451.172,101.675.172Zm.924-2.148c-.967,0-1.858-.494-1.858-1.536,0-.849.591-1.461,1.848-1.461h2.181V-3.8A1.988,1.988,0,0,1,102.6-1.977Zm18.047-9.442h-3L115.178-2.5h-.118l-2.428-8.916h-3.126L113.459.011l-.075.279c-.215,1.1-.849,1.547-2.127,1.547a5.291,5.291,0,0,1-.913-.075V3.878a8.436,8.436,0,0,0,1.5.129c2.438,0,3.813-1.042,4.8-3.7l.258-.677C116.929-.43,119.851-8.572,120.646-11.419Z" transform="translate(-0.256 36.679)" fill="#fff"/>
      <path id="路径_10360" data-name="路径 10360" d="M-47.972-8.658V0h2.653c2.533,0,3.8-1.5,3.8-4.329s-1.276-4.329-3.8-4.329Zm.927.844h1.695c1.93,0,2.875,1.187,2.875,3.485s-.933,3.479-2.875,3.479h-1.695ZM-36.9-6.754a2.713,2.713,0,0,0-2.806,2.907V-2.8A2.664,2.664,0,0,0-36.9.108,2.685,2.685,0,0,0-34.1-2.8V-3.847A2.688,2.688,0,0,0-36.9-6.754Zm.006.819c1.13,0,1.873.863,1.873,2.2v.844c0,1.365-.711,2.19-1.873,2.19s-1.9-.832-1.9-2.19v-.844A1.942,1.942,0,0,1-36.9-5.935Zm12.7-.711h-.92l-1.3,5.408h-.044l-1.606-5.408h-.876L-30.51-1.238h-.038L-31.83-6.646h-1.041L-30.992,0h.908l1.574-5.3h.025L-26.879,0h.9ZM-22.639,0h.914V-3.745c0-1.2.609-2.19,1.892-2.19a1.476,1.476,0,0,1,1.555,1.688V0h.92V-4.539A2.057,2.057,0,0,0-19.63-6.754a1.905,1.905,0,0,0-2.044,1.346h-.051V-6.646h-.914ZM-15,0h.92V-9.122H-15Zm5.8-6.754a2.713,2.713,0,0,0-2.806,2.907V-2.8A2.664,2.664,0,0,0-9.207.108,2.685,2.685,0,0,0-6.408-2.8V-3.847A2.688,2.688,0,0,0-9.207-6.754Zm.006.819c1.13,0,1.873.863,1.873,2.2v.844C-7.328-1.53-8.039-.7-9.2-.7s-1.9-.832-1.9-2.19v-.844A1.942,1.942,0,0,1-9.2-5.935Zm6.6,6.043A2.156,2.156,0,0,0-.651-.927h.044V0H.282V-4.589C.282-6.157-.8-6.754-2.123-6.754c-1.4,0-2.292.59-2.393,1.669h.9c.14-.47.521-.851,1.454-.851S-.644-5.51-.644-4.57v.717H-2.46c-1.517,0-2.317.787-2.317,1.93A1.992,1.992,0,0,0-2.606.108ZM-2.384-.7A1.272,1.272,0,0,1-3.824-1.942c0-.647.4-1.143,1.384-1.143h1.8v.806A1.628,1.628,0,0,1-2.384-.7ZM4.865-6.754a2.525,2.525,0,0,0-2.6,2.749v1.365A2.5,2.5,0,0,0,4.834.1,2.046,2.046,0,0,0,6.878-1.1h.044V0H7.8V-9.122h-.92v3.5H6.833A2,2,0,0,0,4.865-6.754Zm.114.819A1.851,1.851,0,0,1,6.878-4v1.225A1.854,1.854,0,0,1,5.011-.711c-1.117,0-1.822-.806-1.822-2.171v-.9C3.19-5.148,3.894-5.935,4.98-5.935ZM15.6-6.754a2.713,2.713,0,0,0-2.806,2.907V-2.8A2.664,2.664,0,0,0,15.6.108,2.685,2.685,0,0,0,18.4-2.8V-3.847A2.688,2.688,0,0,0,15.6-6.754Zm.006.819c1.13,0,1.873.863,1.873,2.2v.844c0,1.365-.711,2.19-1.873,2.19s-1.9-.832-1.9-2.19v-.844A1.942,1.942,0,0,1,15.606-5.935ZM20.424,0h.914V-3.745c0-1.2.609-2.19,1.892-2.19a1.476,1.476,0,0,1,1.555,1.688V0h.92V-4.539a2.057,2.057,0,0,0-2.272-2.215,1.905,1.905,0,0,0-2.044,1.346h-.051V-6.646h-.914ZM31.31-6.646H30.25v.768h1.06V-1.8c0,1.276.3,1.866,1.815,1.866a7.485,7.485,0,0,0,.768-.051V-.755c-.114.013-.387.032-.546.032-.857,0-1.124-.216-1.124-1.035v-4.12h1.562v-.768H32.224V-8.309H31.31ZM35.74,0h.914V-3.745c0-1.206.635-2.19,1.879-2.19a1.513,1.513,0,0,1,1.593,1.7V0h.92V-4.526A2.068,2.068,0,0,0,38.8-6.754a2.013,2.013,0,0,0-2.095,1.346h-.051V-9.122H35.74ZM45.808.108a2.338,2.338,0,0,0,2.507-1.688h-.971A1.494,1.494,0,0,1,45.8-.7a1.814,1.814,0,0,1-1.841-2.031v-.349h4.45v-.743a2.656,2.656,0,0,0-2.685-2.926A2.656,2.656,0,0,0,43.04-3.828V-2.8A2.623,2.623,0,0,0,45.808.108ZM43.961-3.8V-3.91a1.789,1.789,0,0,1,1.765-2.025A1.789,1.789,0,0,1,47.49-3.91V-3.8Z" transform="translate(48.744 11.679)" fill="#fff"/>
    </g>
    <g id="google-play-2" data-name="google-play" transform="translate(14.725 11.817)">
      <path id="路径_9404" data-name="路径 9404" d="M271.472,171.449l-7.118-4.111-9.753,7.287,9.752,7.287,7.143-4.125a3.7,3.7,0,0,0-.024-6.338Z" transform="translate(-236.108 -153.585)" fill="#ff9100"/>
      <path id="路径_9405" data-name="路径 9405" d="M50.559,32.75l-8.63,11.1L30.711,52.681a3.746,3.746,0,0,1-1.11-2.663v-34.6a3.746,3.746,0,0,1,1.11-2.663l11.219,8.9Z" transform="translate(-29.601 -11.709)" fill="#25d9f8"/>
      <path id="路径_9406" data-name="路径 9406" d="M257.067,220.48,254.6,223.66V217.3Z" transform="translate(-236.108 -199.439)" fill="#00c0f1"/>
      <path id="路径_9407" data-name="路径 9407" d="M70.248,13.742l-7.3,7.3L43.1,1.049a5.56,5.56,0,0,1,.764-.567,3.651,3.651,0,0,1,3.748.074L60.484,8.121Z" transform="translate(-41.991 0)" fill="#7fe881"/>
      <path id="路径_9408" data-name="路径 9408" d="M264.365,104.422l-7.3,7.3-2.466-2.466V98.8Z" transform="translate(-236.108 -90.68)" fill="#5bc980"/>
      <path id="路径_9409" data-name="路径 9409" d="M70.248,263.3l-9.764,5.622-12.9,7.529a3.756,3.756,0,0,1-1.9.542,3.827,3.827,0,0,1-1.825-.493,5.563,5.563,0,0,1-.764-.567L62.95,256Z" transform="translate(-41.991 -234.96)" fill="#ff637b"/>
      <path id="路径_9410" data-name="路径 9410" d="M264.365,263.3,254.6,268.92V258.466L257.067,256Z" transform="translate(-236.108 -234.96)" fill="#e63950"/>
    </g>
  </g>
</svg>
