<svg xmlns="http://www.w3.org/2000/svg" width="127.293" height="83.125" viewBox="0 0 127.293 83.125">
  <g id="首页-logo" transform="translate(-299.974 -18.714)">
    <path id="路径_229" data-name="路径 229" d="M-201.559,186.158v16.8a4.011,4.011,0,0,1-.665,2.306,5.275,5.275,0,0,1-4.688,2.11,6.137,6.137,0,0,1-4.414-1.563,3.865,3.865,0,0,1-1.132-2.853V151.582a3.79,3.79,0,0,1,.78-2.383,5.528,5.528,0,0,1,4.688-1.993,5.808,5.808,0,0,1,4.3,1.563,3.819,3.819,0,0,1,1.134,2.813v21.6l24.651-24.145a5.67,5.67,0,0,1,4.141-1.757,5.289,5.289,0,0,1,3.439,1.211,4.784,4.784,0,0,1,1.876,3.945,4.571,4.571,0,0,1-1.563,3.477l-18.206,16.956,22.308,25.707a5.432,5.432,0,0,1,1.485,3.671,4.644,4.644,0,0,1-2.15,3.947,6.1,6.1,0,0,1-3.633,1.211,5.781,5.781,0,0,1-4.65-2.383l-20.9-25.433Z" transform="translate(512.433 -118.355)" fill="#fff"/>
    <g id="路径_224" data-name="路径 224" transform="translate(340.738 21.277)">
      <path id="路径_226" data-name="路径 226" d="M43.7,3.346C29.46-3.909,10.843.868,3.444,15.41-4.311,30.651,1.386,51.755,16.961,59c13.606,6.325,25.622,1.906,33.48-6.617l18.287,1.262-9.9-16.526A29.565,29.565,0,0,0,59.12,21.96,30.032,30.032,0,0,0,43.7,3.346Z" transform="matrix(0.966, 0.259, -0.259, 0.966, 16.043, 0)" fill="#007aff" stroke="#fff" stroke-width="4"/>
      <path id="路径_281" data-name="路径 281" d="M146.141-211.351a.592.592,0,0,1-.1.345.676.676,0,0,1-.355.234,3.926,3.926,0,0,1-.646.148,6.918,6.918,0,0,1-1.026.061,7.032,7.032,0,0,1-1-.061,3.551,3.551,0,0,1-.659-.148.673.673,0,0,1-.342-.234.593.593,0,0,1-.1-.345v-27.731h-.049l-11.221,27.854a.841.841,0,0,1-.209.3,1.092,1.092,0,0,1-.394.209,2.909,2.909,0,0,1-.615.123,8.411,8.411,0,0,1-.849.037,6.824,6.824,0,0,1-.886-.049,3.186,3.186,0,0,1-.615-.135,1.1,1.1,0,0,1-.381-.209.635.635,0,0,1-.185-.271l-10.728-27.854h-.025v27.731a.591.591,0,0,1-.1.345.676.676,0,0,1-.355.234,3.911,3.911,0,0,1-.659.148,7.184,7.184,0,0,1-1.039.061,6.974,6.974,0,0,1-1.014-.061,3.552,3.552,0,0,1-.646-.148.6.6,0,0,1-.329-.234.653.653,0,0,1-.089-.345v-29.282a1.79,1.79,0,0,1,.549-1.476,1.9,1.9,0,0,1,1.225-.443h2.6a5.892,5.892,0,0,1,1.4.148,3.051,3.051,0,0,1,1.049.468,2.719,2.719,0,0,1,.75.812,5.771,5.771,0,0,1,.525,1.156l9.1,23.056h.123l9.474-22.982a6.841,6.841,0,0,1,.6-1.255,3.247,3.247,0,0,1,.713-.824,2.458,2.458,0,0,1,.862-.443,4.034,4.034,0,0,1,1.1-.135h2.725a2.271,2.271,0,0,1,.712.111,1.453,1.453,0,0,1,.575.345,1.8,1.8,0,0,1,.387.59,2.258,2.258,0,0,1,.15.874Z" transform="translate(-91.788 264.891)" fill="#fff" stroke="#fff" stroke-width="1"/>
    </g>
  </g>
</svg>
