<svg xmlns="http://www.w3.org/2000/svg" width="401.313" height="73.406" viewBox="0 0 401.313 73.406">
  <g id="首页-logo" transform="translate(-299.5 -22.787)">
    <path id="路径_229" data-name="路径 229" d="M-201.947,183.779v15.772a3.7,3.7,0,0,1-.641,2.166,5.142,5.142,0,0,1-4.521,1.981,6.013,6.013,0,0,1-4.257-1.468,3.579,3.579,0,0,1-1.092-2.678V151.315a3.5,3.5,0,0,1,.752-2.238,5.4,5.4,0,0,1,4.521-1.871,5.689,5.689,0,0,1,4.144,1.468,3.538,3.538,0,0,1,1.094,2.641V171.6l23.773-22.671a5.541,5.541,0,0,1,3.993-1.65,5.186,5.186,0,0,1,3.316,1.137,4.448,4.448,0,0,1,1.809,3.7,4.243,4.243,0,0,1-1.508,3.265l-17.557,15.921,21.513,24.137a5.029,5.029,0,0,1,1.432,3.447,4.332,4.332,0,0,1-2.073,3.706,5.985,5.985,0,0,1-3.5,1.137,5.625,5.625,0,0,1-4.484-2.238l-20.156-23.88Z" transform="translate(512.459 -117.076)" fill="#fff" stroke="rgba(0,0,0,0)" stroke-miterlimit="10" stroke-width="1"/>
    <g id="路径_224" data-name="路径 224" transform="translate(351.554 22.787)">
      <g id="路径_226" data-name="路径 226" transform="matrix(0.966, 0.259, -0.259, 0.966, 15.091, 0)" fill="#007aff" stroke-miterlimit="10">
        <path d="M 28.24277305603027 56.30765914916992 C 24.53729629516602 56.30765914916992 20.74258422851563 55.44742584228516 16.96402931213379 53.75086975097656 C 13.81540679931641 52.3367919921875 11.04535102844238 50.26021575927734 8.730961799621582 47.57889175415039 C 6.517617702484131 45.0146369934082 4.805017948150635 42.0041389465332 3.640739917755127 38.63103866577148 C 2.365028858184814 34.93511581420898 1.816728830337524 30.9072151184082 2.055117607116699 26.9827709197998 C 2.29976224899292 22.95525932312012 3.380317687988281 19.01680374145508 5.179951190948486 15.59315967559814 C 7.39351749420166 11.38224792480469 10.83848476409912 7.89470386505127 15.14239501953125 5.50758171081543 C 19.27964019775391 3.212903738021851 24.04600715637207 2.000003814697266 28.92620658874512 2.000003814697266 C 33.2728385925293 2.000003814697266 37.57206344604492 2.986336946487427 41.35910797119141 4.852392673492432 L 41.36467361450195 4.855125904083252 L 41.3702507019043 4.857837200164795 C 44.70756149291992 6.47663688659668 47.6008186340332 8.717992782592773 49.96963882446289 11.51963710784912 C 52.32676696777344 14.30743312835693 54.02975082397461 17.49045753479004 55.03179168701172 20.98120880126953 C 56.07932281494141 25.30450820922852 55.95432281494141 29.85855102539063 54.66999435424805 34.15428161621094 L 54.41501617431641 35.0070915222168 L 54.87796401977539 35.76736068725586 L 62.31459808349609 47.98020172119141 L 48.5384521484375 47.14189147949219 L 47.60499572753906 47.0850944519043 L 46.96289443969727 47.7650032043457 C 44.45412826538086 50.42153549194336 41.62317276000977 52.50748062133789 38.54868316650391 53.96489334106445 C 35.26928329467773 55.51943588256836 31.80188369750977 56.30765914916992 28.24277305603027 56.30765914916992 Z" stroke="none"/>
        <path d="M 28.92382431030273 4 C 24.38311767578125 4 19.9527702331543 5.126220703125 16.11173629760742 7.256893157958984 C 12.14980697631836 9.454639434814453 8.981807708740234 12.65907287597656 6.950263977050781 16.52372741699219 C 5.281444549560547 19.69852828979492 4.279026031494141 23.35712814331055 4.051425933837891 27.10403823852539 C 3.828842163085938 30.76847457885742 4.340572357177734 34.52880096435547 5.531280517578125 37.97847366333008 C 7.755954742431641 44.42369079589844 12.10724258422852 49.37718200683594 17.78324508666992 51.92633056640625 C 21.30246353149414 53.50645446777344 24.82155227661133 54.30765533447266 28.24279022216797 54.30765533447266 C 31.50328063964844 54.30765533447266 34.68244171142578 53.58429336547852 37.69200897216797 52.15765762329102 C 40.54124450683594 50.8070182800293 43.17120742797852 48.86711120605469 45.50882720947266 46.39181900024414 L 46.79300689697266 45.031982421875 L 48.65993499755859 45.14558410644531 L 58.6158447265625 45.75142669677734 L 53.16973495483398 36.80752944946289 L 52.24386215209961 35.28701782226563 L 52.75380706787109 33.58138275146484 C 53.93269348144531 29.6383113861084 54.05132293701172 25.45990753173828 53.09779357910156 21.49268341064453 C 52.17270660400391 18.29132843017578 50.60662841796875 15.37062454223633 48.44239044189453 12.81094741821289 C 46.25497055053711 10.22387313842773 43.58187866210938 8.153491973876953 40.49739074707031 6.657329559326172 L 40.48622512817383 6.651912689208984 L 40.47508239746094 6.646419525146484 C 36.96215057373047 4.915420532226563 32.9685173034668 4.000308990478516 28.92446136474609 4 L 28.92382431030273 4 M 28.92619323730469 0 C 33.47883987426758 0.000347137451171875 38.06276321411133 0.9985198974609375 42.24309921264648 3.058364868164063 C 49.45766448974609 6.557872772216797 54.79779052734375 12.87498474121094 56.96566009521484 20.46963882446289 C 58.10922622680664 25.15761947631836 57.97800827026367 30.07192993164063 56.58618927001953 34.7271842956543 L 66.01335144042969 50.208984375 L 48.41696929931641 49.13820266723633 C 43.25640106201172 54.60272598266602 36.27135467529297 58.30765533447266 28.24278259277344 58.30765533447266 C 24.41875839233398 58.30765533447266 20.35757064819336 57.46690368652344 16.14482498168945 55.57538223266602 C 1.198081970214844 48.86265563964844 -4.152027130126953 29.04791069030762 3.409626007080078 14.66258239746094 C 8.417839050292969 5.135364532470703 18.59644317626953 -0.000789642333984375 28.92619323730469 0 Z" stroke="none" fill="#fff"/>
      </g>
      <path id="路径_10357" data-name="路径 10357" d="M2.367-48.678,5.889-69.659a4.026,4.026,0,0,1,3.668-2.935,4.038,4.038,0,0,1,3.815,2.788l4.4,14.819h.147l4.4-14.819a4.014,4.014,0,0,1,3.668-2.788A4.314,4.314,0,0,1,29.8-69.659l3.375,20.982a1.3,1.3,0,0,1,.147.587A2.519,2.519,0,0,1,30.538-45.6q-2.641,0-2.935-2.348L25.4-63.35,20.855-47.5A2.96,2.96,0,0,1,17.773-45.6,2.706,2.706,0,0,1,14.839-47.5L10.29-63.35l-2.2,15.406A2.655,2.655,0,0,1,5.155-45.6q-2.788,0-2.788-2.494Z" transform="translate(17.384 93.549)" fill="#fff"/>
    </g>
    <path id="路径_10363" data-name="路径 10363" d="M23.086-26.66h-4.2L7.441-13.906H7.285V-26.66H3.691V0H7.285V-9.258l3.223-3.516L19.063,0h4.531L13.184-15.293Zm12.4,5.762c-5.137,0-8.887,3.555-8.887,9.1v3.008C26.6-2.93,30.293.332,35.488.332c5.1,0,8.867-3.3,8.867-9.121V-11.8C44.355-17.539,40.586-20.9,35.488-20.9Zm.02,3.047c3.3,0,5.293,2.617,5.293,6.348v2.461c0,3.789-1.895,6.348-5.293,6.348-3.437,0-5.371-2.559-5.371-6.348V-11.5C30.137-15.215,32.207-17.852,35.508-17.852ZM50.293,0h3.535V-11.445c0-3.535,1.758-6.309,5.371-6.309,2.793,0,4.453,1.641,4.453,4.863V0h3.535V-14.023c0-4.609-2.832-6.855-6.973-6.855-4.3,0-5.723,2.441-6.23,4.063h-.2v-3.73h-3.5ZM81.465,4.531c-2.7,0-4.355-1.211-4.629-2.656H73.242c.273,2.988,2.852,5.645,8.105,5.645s9.043-2.461,9.043-8.125V-20.547H87.012v3.086h-.176a6.321,6.321,0,0,0-5.957-3.4c-4.551,0-8.086,3.262-8.086,8.691v3.145c0,5.43,3.555,8.652,8.105,8.652A6.118,6.118,0,0,0,86.66-3.594h.2V-.625C86.855,2.6,85.078,4.531,81.465,4.531Zm.293-22.324c3.223,0,5.1,2.715,5.1,5.723V-9c0,2.93-1.777,5.625-5.059,5.625-3.184,0-5.449-2.5-5.449-6.23v-1.914C76.348-15.273,78.418-17.793,81.758-17.793ZM100.547,0V-19.316h.176l7.363,16.934h2.93l7.344-16.934h.2V0h3.262V-26.66H118.3L109.629-6.348h-.117L100.82-26.66H97.285V0Zm36.328.332c5.2,0,7.676-3.223,7.988-5.449H141.23c-.352,1.27-1.973,2.422-4.375,2.422-3.418,0-5.254-2.441-5.254-5.625V-9.355h13.535v-2.461c0-5.547-3.555-9.082-8.535-9.082-4.922,0-8.516,3.457-8.516,9.082V-8.73C128.086-3.164,131.348.332,136.875.332ZM131.6-11.914v-.332c0-3.4,2.012-5.625,5.02-5.625s5,2.227,5,5.625v.332ZM150-14.648c0,4.043,3.105,4.941,6.934,5.723,2.852.566,5.137.977,5.137,3.262,0,1.758-1.328,3.2-4.57,3.2-2.871,0-4.141-1.133-4.414-2.949h-3.457c0,3.691,3.145,5.742,7.715,5.742,4.922,0,8.2-2.324,8.2-6.426,0-3.984-3.184-5.059-7.031-5.742-2.324-.41-5.1-.742-5.1-3.184,0-1.953,1.719-3.066,4.121-3.066,2.754,0,4.082,1.523,4.2,2.969h3.281c0-3.477-2.93-5.781-7.363-5.781C153.652-20.9,150-19.023,150-14.648Zm20.332,0c0,4.043,3.105,4.941,6.934,5.723,2.852.566,5.137.977,5.137,3.262,0,1.758-1.328,3.2-4.57,3.2-2.871,0-4.141-1.133-4.414-2.949h-3.457c0,3.691,3.145,5.742,7.715,5.742,4.922,0,8.2-2.324,8.2-6.426,0-3.984-3.184-5.059-7.031-5.742-2.324-.41-5.1-.742-5.1-3.184,0-1.953,1.719-3.066,4.121-3.066,2.754,0,4.082,1.523,4.2,2.969h3.281c0-3.477-2.93-5.781-7.363-5.781C173.984-20.9,170.332-19.023,170.332-14.648ZM197.188.332a6.486,6.486,0,0,0,5.879-3.047h.156V0h3.4V-14.023c0-5.039-3.5-6.855-7.734-6.855-4.59,0-7.324,1.973-7.637,5.449h3.418c.41-1.426,1.5-2.422,4.1-2.422,2.637,0,4.3,1.191,4.3,3.809v2.031H197.7c-4.727,0-7.227,2.441-7.227,6.035C190.469-2.168,193.2.332,197.188.332Zm.977-2.988c-2.129,0-4.082-1.094-4.082-3.437,0-1.836,1.133-3.223,3.906-3.223h5.078v2.3C203.066-4.531,200.938-2.656,198.164-2.656Zm22.715,7.188c-2.7,0-4.355-1.211-4.629-2.656h-3.594c.273,2.988,2.852,5.645,8.105,5.645S229.8,5.059,229.8-.605V-20.547h-3.379v3.086h-.176a6.321,6.321,0,0,0-5.957-3.4c-4.551,0-8.086,3.262-8.086,8.691v3.145c0,5.43,3.555,8.652,8.105,8.652a6.118,6.118,0,0,0,5.762-3.223h.2V-.625C226.27,2.6,224.492,4.531,220.879,4.531Zm.293-22.324c3.223,0,5.1,2.715,5.1,5.723V-9c0,2.93-1.777,5.625-5.059,5.625-3.184,0-5.449-2.5-5.449-6.23v-1.914C215.762-15.273,217.832-17.793,221.172-17.793ZM244.551.332c5.2,0,7.676-3.223,7.988-5.449h-3.633c-.352,1.27-1.973,2.422-4.375,2.422-3.418,0-5.254-2.441-5.254-5.625V-9.355h13.535v-2.461c0-5.547-3.555-9.082-8.535-9.082-4.922,0-8.516,3.457-8.516,9.082V-8.73C235.762-3.164,239.023.332,244.551.332Zm-5.273-12.246v-.332c0-3.4,2.012-5.625,5.02-5.625s5,2.227,5,5.625v.332Z" transform="translate(448 72.123)" fill="#fff"/>
  </g>
</svg>
