<svg xmlns="http://www.w3.org/2000/svg" width="222" height="64" viewBox="0 0 222 64">
  <g id="web" transform="translate(0.095 -0.496)">
    <g id="组_1069" data-name="组 1069" transform="translate(0 0)">
      <rect id="矩形_709" data-name="矩形 709" width="222" height="64" rx="10" transform="translate(-0.095 0.496)" fill="#092048"/>
    </g>
    <g id="组_1070" data-name="组 1070" transform="translate(62.038 11.817)">
      <path id="路径_10358" data-name="路径 10358" d="M6.9,0,9.614-10.065h.118L12.45,0h2.675l3.867-14.663H15.845L13.664-4.146h-.15L10.925-14.663h-2.5L5.833-4.146h-.14l-2.2-10.517H.354L4.222,0ZM25.147.2c3.255,0,4.662-2.062,4.78-3.5H27.242c-.129.709-.945,1.257-2.105,1.257A2.312,2.312,0,0,1,22.72-4.522V-5.07h7.315v-1.3c0-3.244-2.073-5.253-5.027-5.253-2.836,0-5.06,1.837-5.06,5.253V-5.06C19.948-1.665,21.989.2,25.147.2ZM22.72-6.821v-.107a2.281,2.281,0,0,1,2.3-2.5,2.259,2.259,0,0,1,2.277,2.5v.107ZM39.091.14c2.675,0,4.286-1.912,4.286-5.1v-1.5c0-3.19-1.6-5.092-4.243-5.092a3.232,3.232,0,0,0-3.3,1.955H35.7v-5.833H32.86V0h2.793V-1.751h.14A3.319,3.319,0,0,0,39.091.14Zm-.945-2.32A2.5,2.5,0,0,1,35.7-4.963V-6.316c0-1.794.924-2.9,2.417-2.9S40.477-8.1,40.477-6.166v.956C40.477-3.3,39.628-2.181,38.146-2.181ZM54.721,0h3.491l4.866-14.663H59.855L56.6-3.266h-.14l-3.287-11.4H49.812ZM68.954.2c3.255,0,4.662-2.062,4.78-3.5H71.049c-.129.709-.945,1.257-2.105,1.257a2.312,2.312,0,0,1-2.417-2.481V-5.07h7.315v-1.3c0-3.244-2.073-5.253-5.027-5.253-2.836,0-5.06,1.837-5.06,5.253V-5.06C63.755-1.665,65.8.2,68.954.2ZM66.526-6.821v-.107a2.281,2.281,0,0,1,2.3-2.5,2.259,2.259,0,0,1,2.277,2.5v.107ZM76.753,0h2.89V-6.467a2.427,2.427,0,0,1,2.729-2.6,4.281,4.281,0,0,1,1.117.107v-2.535a3.763,3.763,0,0,0-.892-.086,2.866,2.866,0,0,0-2.879,1.955h-.14v-1.794H76.753Zm8.465-8.035c0,2.224,1.654,2.943,3.706,3.341,1.482.29,2.825.43,2.825,1.5,0,.763-.591,1.386-2.009,1.386-1.268,0-1.9-.559-2.009-1.364H84.992C84.992-1.139,86.722.2,89.611.2c3.051,0,4.877-1.407,4.877-3.738,0-2.073-1.525-2.868-3.631-3.223-1.235-.215-2.943-.354-2.943-1.515,0-.816.7-1.343,1.826-1.343,1.225,0,1.837.688,1.9,1.354h2.5c0-2.148-1.794-3.362-4.351-3.362C87.377-11.623,85.218-10.592,85.218-8.035ZM97.464,0h2.825V-11.419H97.464ZM97.1-14.76a1.611,1.611,0,0,0,1.772,1.59,1.609,1.609,0,0,0,1.783-1.59,1.611,1.611,0,0,0-1.783-1.6A1.613,1.613,0,0,0,97.1-14.76Zm11.483,3.137a4.97,4.97,0,0,0-5.231,5.285v1.214C103.351-1.7,105.424.2,108.582.2c3.115,0,5.2-1.923,5.2-5.339V-6.349A4.915,4.915,0,0,0,108.582-11.623Zm0,2.267c1.568,0,2.342,1.375,2.342,3.072v1.16c0,1.654-.72,3.062-2.342,3.062s-2.374-1.418-2.374-3.062v-1.16C106.208-7.971,107-9.356,108.582-9.356ZM116.628,0h2.825V-6.327c0-1.676.87-2.793,2.4-2.793,1.16,0,2.052.645,2.052,2.31V0h2.825V-7.627c0-2.653-1.515-3.964-3.8-3.964a3.233,3.233,0,0,0-3.395,2.181h-.14v-2.009h-2.761Z" transform="translate(-0.133 36.679)" fill="#fff"/>
      <path id="路径_10357" data-name="路径 10357" d="M6.792-5.008V-3.65c0,1.98-1.054,2.99-2.482,2.99S1.834-1.669,1.834-3.65V-5.008C1.834-6.989,2.888-8,4.31-8S6.792-6.989,6.792-5.008Zm.927,1.352V-5c0-2.437-1.333-3.853-3.409-3.853S.908-7.433.908-5v1.346c0,2.425,1.333,3.84,3.4,3.84S7.719-1.231,7.719-3.656Zm5,3.764a2.531,2.531,0,0,0,2.6-2.818V-3.942a2.52,2.52,0,0,0-2.558-2.812,2.055,2.055,0,0,0-2.031,1.206h-.051v-1.1h-.87V2.2h.914V-1.022h.051A1.983,1.983,0,0,0,12.721.108ZM12.6-.7a1.825,1.825,0,0,1-1.879-1.936V-3.878a1.825,1.825,0,0,1,1.847-2.057c1.149,0,1.828.8,1.828,2.222v.787C14.4-1.5,13.7-.7,12.6-.7Zm7.192.813A2.338,2.338,0,0,0,22.3-1.581h-.971A1.494,1.494,0,0,1,19.786-.7a1.814,1.814,0,0,1-1.841-2.031v-.349h4.45v-.743a2.656,2.656,0,0,0-2.685-2.926,2.656,2.656,0,0,0-2.685,2.926V-2.8A2.623,2.623,0,0,0,19.792.108ZM17.945-3.8V-3.91a1.789,1.789,0,0,1,1.765-2.025A1.789,1.789,0,0,1,21.474-3.91V-3.8ZM24.381,0H25.3V-3.745c0-1.2.609-2.19,1.892-2.19a1.476,1.476,0,0,1,1.555,1.688V0h.92V-4.539A2.057,2.057,0,0,0,27.39-6.754a1.905,1.905,0,0,0-2.044,1.346H25.3V-6.646h-.914Z" transform="translate(-0.133 11.679)" fill="#fff"/>
    </g>
    <g id="web端" transform="translate(10.852 17.168)">
      <path id="矩形_150" data-name="矩形 150" d="M0,0H35.164a0,0,0,0,1,0,0V21.452a1.438,1.438,0,0,1-1.437,1.438H1.438A1.438,1.438,0,0,1,0,21.452V0A0,0,0,0,1,0,0Z" transform="translate(0 7.766)" fill="#fff"/>
      <path id="路径_315" data-name="路径 315" d="M3760.138,1251H3727a1,1,0,0,0-1,.988v5.926h35.142v-5.926A1,1,0,0,0,3760.138,1251Zm-30.473,4.1h-1.305v-1.284h1.305Zm3.011,0h-1.305v-1.284h1.305Zm3.012,0h-1.3v-1.284h1.3Zm23.446,1.333h-21.085v-3.95h21.085Z" transform="translate(-3725.989 -1251)" fill="#fff"/>
    </g>
  </g>
</svg>
