<svg xmlns="http://www.w3.org/2000/svg" width="227.05" height="211.912" viewBox="0 0 227.05 211.912">
  <g id="首页-banner-logo" transform="translate(6.141 6.134)">
    <path id="路径_226" data-name="路径 226" d="M111.719,8.553C75.309-9.993,27.717,2.218,8.8,39.393-11.02,78.353,3.544,132.3,43.356,150.811c34.78,16.168,65.5,4.873,85.585-16.915l46.747,3.226L150.376,94.877a75.576,75.576,0,0,0,.752-38.741A76.769,76.769,0,0,0,111.719,8.553Z" transform="matrix(0.966, 0.259, -0.259, 0.966, 41.011, 0)" fill="#007aff" stroke="#fff" stroke-width="10"/>
    <path id="路径_281" data-name="路径 281" d="M200.022-162.793a1.512,1.512,0,0,1-.259.881,1.727,1.727,0,0,1-.907.6,10.039,10.039,0,0,1-1.652.377,17.69,17.69,0,0,1-2.623.157,17.984,17.984,0,0,1-2.559-.157,9.078,9.078,0,0,1-1.684-.377,1.719,1.719,0,0,1-.875-.6,1.515,1.515,0,0,1-.258-.881v-70.89h-.126l-28.683,71.2a2.149,2.149,0,0,1-.535.755,2.791,2.791,0,0,1-1.006.535,7.433,7.433,0,0,1-1.573.315,21.481,21.481,0,0,1-2.17.094,17.444,17.444,0,0,1-2.264-.126,8.146,8.146,0,0,1-1.573-.346,2.8,2.8,0,0,1-.975-.535,1.624,1.624,0,0,1-.472-.692l-27.425-71.2h-.063v70.89a1.511,1.511,0,0,1-.259.881,1.728,1.728,0,0,1-.907.6,10,10,0,0,1-1.685.377,18.371,18.371,0,0,1-2.655.157,17.835,17.835,0,0,1-2.592-.157,9.082,9.082,0,0,1-1.652-.377,1.534,1.534,0,0,1-.842-.6,1.669,1.669,0,0,1-.226-.881v-74.853a4.577,4.577,0,0,1,1.4-3.774,4.868,4.868,0,0,1,3.13-1.132H122.7a15.066,15.066,0,0,1,3.576.377,7.8,7.8,0,0,1,2.682,1.2,6.949,6.949,0,0,1,1.916,2.076,14.754,14.754,0,0,1,1.341,2.956l23.273,58.938h.315l24.217-58.75a17.485,17.485,0,0,1,1.533-3.208,8.3,8.3,0,0,1,1.822-2.107,6.286,6.286,0,0,1,2.2-1.132,10.314,10.314,0,0,1,2.812-.346h6.965a5.805,5.805,0,0,1,1.821.283,3.716,3.716,0,0,1,1.471.881,4.591,4.591,0,0,1,.99,1.509,5.771,5.771,0,0,1,.383,2.233Z" transform="translate(-61.079 299.658)" fill="#fff" stroke="#fff" stroke-width="2"/>
  </g>
</svg>
