<svg xmlns="http://www.w3.org/2000/svg" width="222" height="64" viewBox="0 0 222 64">
  <g id="google-play" transform="translate(0.218 -0.496)">
    <g id="组_1069" data-name="组 1069" transform="translate(0 0)">
      <rect id="矩形_709" data-name="矩形 709" width="222" height="64" rx="10" transform="translate(-0.218 0.496)" fill="#092048"/>
    </g>
    <g id="组_1070" data-name="组 1070" transform="translate(62.038 11.817)">
      <text id="Google_Play" data-name="Google Play" transform="translate(-0.256 36.679)" fill="#fff" font-size="22" font-family="SFCompactText-Semibold, SF Text" font-weight="600"><tspan x="0" y="0">Google Play</tspan></text>
      <text id="Download_on_the" data-name="Download on the" transform="translate(48.744 11.679)" fill="#fff" font-size="13" font-family="SFCompactText-Light, SF Text" font-weight="300"><tspan x="-49.223" y="0">Download on the</tspan></text>
    </g>
    <g id="google-play-2" data-name="google-play" transform="translate(14.725 11.817)">
      <path id="路径_9404" data-name="路径 9404" d="M271.472,171.449l-7.118-4.111-9.753,7.287,9.752,7.287,7.143-4.125a3.7,3.7,0,0,0-.024-6.338Z" transform="translate(-236.108 -153.585)" fill="#ff9100"/>
      <path id="路径_9405" data-name="路径 9405" d="M50.559,32.75l-8.63,11.1L30.711,52.681a3.746,3.746,0,0,1-1.11-2.663v-34.6a3.746,3.746,0,0,1,1.11-2.663l11.219,8.9Z" transform="translate(-29.601 -11.709)" fill="#25d9f8"/>
      <path id="路径_9406" data-name="路径 9406" d="M257.067,220.48,254.6,223.66V217.3Z" transform="translate(-236.108 -199.439)" fill="#00c0f1"/>
      <path id="路径_9407" data-name="路径 9407" d="M70.248,13.742l-7.3,7.3L43.1,1.049a5.56,5.56,0,0,1,.764-.567,3.651,3.651,0,0,1,3.748.074L60.484,8.121Z" transform="translate(-41.991 0)" fill="#7fe881"/>
      <path id="路径_9408" data-name="路径 9408" d="M264.365,104.422l-7.3,7.3-2.466-2.466V98.8Z" transform="translate(-236.108 -90.68)" fill="#5bc980"/>
      <path id="路径_9409" data-name="路径 9409" d="M70.248,263.3l-9.764,5.622-12.9,7.529a3.756,3.756,0,0,1-1.9.542,3.827,3.827,0,0,1-1.825-.493,5.563,5.563,0,0,1-.764-.567L62.95,256Z" transform="translate(-41.991 -234.96)" fill="#ff637b"/>
      <path id="路径_9410" data-name="路径 9410" d="M264.365,263.3,254.6,268.92V258.466L257.067,256Z" transform="translate(-236.108 -234.96)" fill="#e63950"/>
    </g>
  </g>
</svg>
