<svg xmlns="http://www.w3.org/2000/svg" xmlns:xlink="http://www.w3.org/1999/xlink" width="1920" height="800" viewBox="0 0 1920 800">
  <defs>
    <radialGradient id="radial-gradient" cx="0.5" cy="0.5" r="0.755" gradientTransform="matrix(0.701, 0.713, -0.695, 0.683, 0.497, -0.198)" gradientUnits="objectBoundingBox">
      <stop offset="0" stop-color="#042e7a"/>
      <stop offset="1" stop-color="#08286a"/>
    </radialGradient>
  </defs>
  <g id="首页-BG" transform="translate(0 11)">
    <rect id="矩形_1" data-name="矩形 1" width="1920" height="800" transform="translate(0 -11)" fill="url(#radial-gradient)"/>
    <g id="组_1" data-name="组 1" transform="translate(44.274)" opacity="0.4">
      <g id="多边形_1" data-name="多边形 1" transform="translate(1258.13 123.745) rotate(-16)" fill="none">
        <path d="M60.75,0,81,35,60.75,70H20.25L0,35,20.25,0Z" stroke="none"/>
        <path d="M 21.40348815917969 2 L 2.310623168945313 35 L 21.40347671508789 68 L 59.59652328491211 68 L 78.68937683105469 35 L 59.59652328491211 2 L 21.40348815917969 2 M 20.2500114440918 0 L 60.75 0 L 81 35 L 60.75 70 L 20.25 70 L 0 35 L 20.2500114440918 0 Z" stroke="none" fill="#fff"/>
      </g>
      <g id="矩形_2" data-name="矩形 2" transform="matrix(0.891, -0.454, 0.454, 0.891, 1522.191, 398.797)" fill="none" stroke="#fff" stroke-width="2">
        <rect width="41" height="9" stroke="none"/>
        <rect x="1" y="1" width="39" height="7" fill="none"/>
      </g>
      <g id="矩形_3" data-name="矩形 3" transform="translate(562.516 380.505) rotate(38)" fill="none" stroke="#fff" stroke-width="2">
        <rect width="87" height="15" stroke="none"/>
        <rect x="1" y="1" width="85" height="13" fill="none"/>
      </g>
      <g id="矩形_6" data-name="矩形 6" transform="translate(1370.489 435.897) rotate(149)" fill="none" stroke="#fff" stroke-width="2">
        <rect width="85" height="15" stroke="none"/>
        <rect x="1" y="1" width="83" height="13" fill="none"/>
      </g>
      <rect id="矩形_10" data-name="矩形 10" width="54" height="15" transform="translate(1259.15 363.568) rotate(135)" fill="#1f8aff"/>
      <rect id="矩形_11" data-name="矩形 11" width="81" height="10" transform="translate(1236.149 74.564) rotate(118)" fill="#1f8aff"/>
      <rect id="矩形_12" data-name="矩形 12" width="81" height="10" transform="matrix(-0.656, 0.755, -0.755, -0.656, 1497.065, -4.31)" fill="#1f8aff"/>
      <rect id="矩形_13" data-name="矩形 13" width="81" height="5" transform="matrix(-0.695, 0.719, -0.719, -0.695, 1420.766, 182.939)" fill="#fff"/>
      <rect id="矩形_14" data-name="矩形 14" width="81" height="5" transform="translate(1816.54 385.156) rotate(159)" fill="#fff"/>
      <rect id="矩形_7" data-name="矩形 7" width="58" height="8" transform="matrix(-0.809, 0.588, -0.588, -0.809, 690.276, 614.101)" fill="#fff"/>
      <rect id="矩形_8" data-name="矩形 8" width="58" height="8" transform="matrix(0.809, 0.588, -0.588, 0.809, 1184.353, 627.629)" fill="#1f8aff"/>
      <rect id="矩形_4" data-name="矩形 4" width="81" height="7" transform="translate(390.553 154.867) rotate(43)" fill="#1f8aff"/>
      <rect id="矩形_15" data-name="矩形 15" width="41" height="7" transform="translate(823.2 66.555) rotate(80)" fill="#fff"/>
      <rect id="矩形_5" data-name="矩形 5" width="82" height="9" transform="matrix(0.899, 0.438, -0.438, 0.899, 518.536, 441.753)" fill="#1f8aff"/>
      <rect id="矩形_16" data-name="矩形 16" width="51" height="9" transform="matrix(0.966, 0.259, -0.259, 0.966, 79.469, 467.013)" fill="#1f8aff"/>
      <rect id="矩形_17" data-name="矩形 17" width="52" height="5" transform="matrix(0.974, 0.225, -0.225, 0.974, 280.13, 514.736)" fill="#1f8aff"/>
      <rect id="矩形_18" data-name="矩形 18" width="84" height="5" transform="translate(236.83 776.619) rotate(-9)" fill="#fff"/>
      <rect id="矩形_19" data-name="矩形 19" width="53" height="5" transform="matrix(0.819, -0.574, 0.574, 0.819, 661.866, 766.56)" fill="#fff"/>
      <rect id="矩形_20" data-name="矩形 20" width="53" height="5" transform="matrix(0.515, -0.857, 0.857, 0.515, 918.216, 703.835)" fill="#fff"/>
      <rect id="矩形_22" data-name="矩形 22" width="78" height="5" transform="matrix(-0.766, -0.643, 0.643, -0.766, 1470.336, 709.459)" fill="#1f8aff"/>
      <rect id="矩形_9" data-name="矩形 9" width="88" height="15" transform="translate(14.726 683.406)" fill="none" stroke="#fff" stroke-width="2"/>
      <g id="椭圆_2" data-name="椭圆 2" transform="translate(679 377)" fill="none" stroke="#fff" stroke-width="2">
        <circle cx="8.5" cy="8.5" r="8.5" stroke="none"/>
        <circle cx="8.5" cy="8.5" r="7.5" fill="none"/>
      </g>
      <circle id="椭圆_3" data-name="椭圆 3" cx="7.5" cy="7.5" r="7.5" transform="translate(1097 559)" fill="#fff"/>
      <circle id="椭圆_5" data-name="椭圆 5" cx="7.5" cy="7.5" r="7.5" transform="translate(492 691)" fill="#1f8aff"/>
      <circle id="椭圆_4" data-name="椭圆 4" cx="10.5" cy="10.5" r="10.5" transform="translate(1609 200)" fill="#1f8aff"/>
    </g>
  </g>
</svg>
