<svg id="APP_store" data-name="APP store" xmlns="http://www.w3.org/2000/svg" width="444" height="64" viewBox="0 0 444 64">
  <g id="组_1069" data-name="组 1069" transform="translate(0 0)">
    <rect id="矩形_709" data-name="矩形 709" width="444" height="64" rx="10" fill="#092048"/>
    <g id="Page-1" transform="translate(15.552 11.321)">
      <g id="Group" transform="translate(34)">
        <path id="Shape" d="M28.3,15.794A9.278,9.278,0,0,1,32.773,8a9.672,9.672,0,0,0-7.584-4.049C22,3.623,18.9,5.84,17.279,5.84c-1.658,0-4.16-1.853-6.858-1.8a10.115,10.115,0,0,0-8.5,5.119c-3.675,6.284-.934,15.518,2.587,20.6,1.761,2.487,3.82,5.265,6.514,5.167,2.636-.107,3.62-1.659,6.8-1.659,3.151,0,4.076,1.659,6.824,1.6,2.829-.045,4.609-2.5,6.309-5.009a20.438,20.438,0,0,0,2.886-5.8A8.994,8.994,0,0,1,28.3,15.794Z" transform="translate(-0.177 5.936)" fill="#fff" fill-rule="evenodd"/>
        <path id="Shape-2" data-name="Shape" d="M12.428,6.683A9.247,9.247,0,0,0,14.483.134,9.1,9.1,0,0,0,8.569,3.247,8.794,8.794,0,0,0,6.46,9.555a7.5,7.5,0,0,0,5.968-2.872Z" transform="translate(10.481 -0.134)" fill="#fff" fill-rule="evenodd"/>
      </g>
    </g>
  </g>
  <g id="组_1070" data-name="组 1070" transform="translate(176.7 11)">
    <text id="APP_Store-2" data-name="APP Store" transform="translate(51.3 37)" fill="#fff" font-size="22" font-family="SFCompactText-Semibold, SF Text" font-weight="600"><tspan x="-51.256" y="0">APP Store</tspan></text>
    <text id="Download_on_the" data-name="Download on the" transform="translate(49.3 12)" fill="#fff" font-size="13" font-family="SFCompactText-Light, SF Text" font-weight="300"><tspan x="-49.223" y="0">Download on the</tspan></text>
  </g>
</svg>
