<svg id="web" xmlns="http://www.w3.org/2000/svg" width="444" height="64" viewBox="0 0 444 64">
  <g id="组_1069" data-name="组 1069" transform="translate(0 0)">
    <rect id="矩形_709" data-name="矩形 709" width="444" height="64" rx="10" fill="#092048"/>
  </g>
  <g id="组_1070" data-name="组 1070" transform="translate(284 11)">
    <text id="Web_Version" data-name="Web Version" transform="translate(-107 37)" fill="#fff" font-size="22" font-family="SFCompactText-Semibold, SF Text" font-weight="600"><tspan x="0" y="0">Web Version</tspan></text>
    <text id="Open" transform="translate(-107 12)" fill="#fff" font-size="13" font-family="SFCompactText-Light, SF Text" font-weight="300"><tspan x="0" y="0">Open</tspan></text>
  </g>
  <g id="web端" transform="translate(50.947 16.672)">
    <path id="矩形_150" data-name="矩形 150" d="M0,0H35.164a0,0,0,0,1,0,0V21.452a1.438,1.438,0,0,1-1.437,1.438H1.438A1.438,1.438,0,0,1,0,21.452V0A0,0,0,0,1,0,0Z" transform="translate(0 7.766)" fill="#fff"/>
    <path id="路径_315" data-name="路径 315" d="M3760.138,1251H3727a1,1,0,0,0-1,.988v5.926h35.142v-5.926A1,1,0,0,0,3760.138,1251Zm-30.473,4.1h-1.305v-1.284h1.305Zm3.011,0h-1.305v-1.284h1.305Zm3.012,0h-1.3v-1.284h1.3Zm23.446,1.333h-21.085v-3.95h21.085Z" transform="translate(-3725.989 -1251)" fill="#fff"/>
  </g>
</svg>
