<svg xmlns="http://www.w3.org/2000/svg" width="38.935" height="33.422" viewBox="0 0 38.935 33.422">
  <g id="Custom_version" data-name="Custom version" transform="translate(-1013.301 -4990.249)">
    <g id="路径_9397" data-name="路径 9397" transform="translate(1013.301 4994.853)" fill="#fff">
      <path d="M 34.54404449462891 23.72636413574219 L 4.000004291534424 23.72636413574219 C 2.345794200897217 23.72636413574219 1.000004172325134 22.38057327270508 1.000004172325134 20.72636413574219 L 1.000004172325134 4.000003814697266 C 1.000004172325134 2.345793962478638 2.345794200897217 1.000003933906555 4.000004291534424 1.000003933906555 L 34.54404449462891 1.000003933906555 C 36.1982536315918 1.000003933906555 37.54404449462891 2.345793962478638 37.54404449462891 4.000003814697266 L 37.54404449462891 20.72636413574219 C 37.54404449462891 22.38057327270508 36.1982536315918 23.72636413574219 34.54404449462891 23.72636413574219 Z" stroke="none"/>
      <path d="M 4.000003814697266 2.000003814697266 C 2.897205352783203 2.000003814697266 2.000003814697266 2.89720344543457 2.000003814697266 4.000003814697266 L 2.000003814697266 20.72636413574219 C 2.000003814697266 21.82916450500488 2.897205352783203 22.72636413574219 4.000003814697266 22.72636413574219 L 34.54404449462891 22.72636413574219 C 35.64684295654297 22.72636413574219 36.54404449462891 21.82916450500488 36.54404449462891 20.72636413574219 L 36.54404449462891 4.000003814697266 C 36.54404449462891 2.89720344543457 35.64684295654297 2.000003814697266 34.54404449462891 2.000003814697266 L 4.000003814697266 2.000003814697266 M 4.000003814697266 3.814697265625e-06 L 34.54404449462891 3.814697265625e-06 C 36.7531852722168 3.814697265625e-06 38.54404449462891 1.790863037109375 38.54404449462891 4.000003814697266 L 38.54404449462891 20.72636413574219 C 38.54404449462891 22.93550491333008 36.7531852722168 24.72636413574219 34.54404449462891 24.72636413574219 L 4.000003814697266 24.72636413574219 C 1.790855407714844 24.72636413574219 3.814697265625e-06 22.93550491333008 3.814697265625e-06 20.72636413574219 L 3.814697265625e-06 4.000003814697266 C 3.814697265625e-06 1.790863037109375 1.790855407714844 3.814697265625e-06 4.000003814697266 3.814697265625e-06 Z" stroke="none" fill="#9bcaff"/>
    </g>
    <g id="矩形_740" data-name="矩形 740" transform="translate(1032.21 5018.58)" fill="#9bcaff" stroke="#9bcaff" stroke-width="1">
      <rect width="2" height="5.091" stroke="none"/>
      <rect x="0.5" y="0.5" width="1" height="4.091" fill="none"/>
    </g>
    <g id="矩形_741" data-name="矩形 741" transform="translate(1025.664 5022.67)" fill="#9bcaff" stroke="#9bcaff" stroke-width="1">
      <rect width="15" height="1" stroke="none"/>
      <rect x="0.5" y="0.5" width="14" fill="none"/>
    </g>
    <path id="路径_9396" data-name="路径 9396" d="M9.19,18.622H4V17.386H5.564c.734,0,.984-.63,1.418-2.177.6-2.142,1.424-5.076,5.834-5.076l.438.18,2.72,2.72.178.372a4.462,4.462,0,0,1-1.14,3.23C13.825,17.955,11.866,18.622,9.19,18.622Z" transform="translate(1023.479 4992.531)" fill="#0062d1"/>
    <g id="矩形_742" data-name="矩形 742" transform="translate(1048.122 4990.249) rotate(45)" fill="#fff" stroke="#0062d1" stroke-width="1">
      <path d="M2.909,0h0A2.909,2.909,0,0,1,5.818,2.909V18.181a0,0,0,0,1,0,0H0a0,0,0,0,1,0,0V2.909A2.909,2.909,0,0,1,2.909,0Z" stroke="none"/>
      <path d="M2.909.5h0A2.409,2.409,0,0,1,5.318,2.909v14.71a.062.062,0,0,1-.062.062H.562A.062.062,0,0,1,.5,17.619V2.909A2.409,2.409,0,0,1,2.909.5Z" fill="none"/>
    </g>
  </g>
</svg>
