<svg xmlns="http://www.w3.org/2000/svg" width="38.397" height="28.783" viewBox="0 0 38.397 28.783">
  <g id="Documentation" transform="translate(-1012.301 -4842.672)">
    <g id="路径_9398" data-name="路径 9398" transform="translate(1012.301 4842.672)" fill="#fff">
      <path d="M 34.3974609375 27.78271865844727 L 21.06040954589844 27.78271865844727 L 4.000000476837158 27.78271865844727 C 2.345790386199951 27.78271865844727 1.000000476837158 26.13457870483398 1.000000476837158 24.1087474822998 L 1.000000476837158 4.673978328704834 C 1.000000476837158 2.648138284683228 2.345790386199951 0.9999983906745911 4.000000476837158 0.9999983906745911 L 34.3974609375 0.9999983906745911 C 36.05167007446289 0.9999983906745911 37.3974609375 2.648138284683228 37.3974609375 4.673978328704834 L 37.3974609375 24.1087474822998 C 37.3974609375 26.13457870483398 36.05167007446289 27.78271865844727 34.3974609375 27.78271865844727 Z" stroke="none"/>
      <path d="M 4 1.999998092651367 C 2.915889739990234 1.999998092651367 2 3.224529266357422 2 4.673969268798828 L 2 24.10873794555664 C 2 25.55818939208984 2.915889739990234 26.78271865844727 4 26.78271865844727 L 21.06040954589844 26.78271865844727 L 34.3974609375 26.78271865844727 C 35.48157119750977 26.78271865844727 36.3974609375 25.55818939208984 36.3974609375 24.10873794555664 L 36.3974609375 4.673969268798828 C 36.3974609375 3.224529266357422 35.48157119750977 1.999998092651367 34.3974609375 1.999998092651367 L 4 1.999998092651367 M 4 -1.9073486328125e-06 L 34.3974609375 -1.9073486328125e-06 C 36.60660171508789 -1.9073486328125e-06 38.3974609375 2.092607498168945 38.3974609375 4.673969268798828 L 38.3974609375 24.10873794555664 C 38.3974609375 26.69010925292969 36.60660171508789 28.78271865844727 34.3974609375 28.78271865844727 L 21.06040954589844 28.78271865844727 L 4 28.78271865844727 C 1.790859222412109 28.78271865844727 0 26.69010925292969 0 24.10873794555664 L 0 4.673969268798828 C 0 2.092607498168945 1.790859222412109 -1.9073486328125e-06 4 -1.9073486328125e-06 Z" stroke="none" fill="#9bcaff"/>
    </g>
    <line id="直线_1" data-name="直线 1" x2="27.53" transform="translate(1018.459 4849.563)" fill="none" stroke="#0062d1" stroke-linecap="round" stroke-width="2"/>
    <path id="联合_5" data-name="联合 5" d="M.192,19.013l-.024-.025h0l-2.779-2.778a1.018,1.018,0,0,1-.024-1.439,1.018,1.018,0,0,1,1.439.024l2.1,2.1L3.02,14.77a1,1,0,1,1,1.414,1.414L1.607,19.013a1,1,0,0,1-1.415,0Zm-2.828-17A1,1,0,0,1-2.636.6L.192-2.23a1,1,0,0,1,1.415,0l.024.025h0L4.41.573a1.018,1.018,0,0,1,.024,1.439A1.017,1.017,0,0,1,3,1.987L.9-.109-1.222,2.012a1,1,0,0,1-.707.293A1,1,0,0,1-2.636,2.012Z" transform="translate(1040.305 4858.929) rotate(90)" fill="#0062d1"/>
    <rect id="矩形_748" data-name="矩形 748" width="2" height="8.694" rx="1" transform="translate(1033.347 4856) rotate(30)" fill="#0062d1"/>
  </g>
</svg>
