<svg xmlns="http://www.w3.org/2000/svg" width="65" height="65" viewBox="0 0 65 65">
  <g id="Most_widely_used" data-name="Most widely used" transform="translate(1.998 2)">
    <g id="Menu-" transform="translate(-1.998 -2)">
      <g id="Menu" transform="translate(0)">
        <g id="SIRH">
          <g id="Pilar---SIRH">
            <g id="icon">
              <rect id="BG" width="65" height="65" fill="none"/>
              <path id="bg-2" data-name="bg" d="M3.576,2.071H18.363a1.58,1.58,0,0,1,1.4,1.1l4.906,12.2a2.349,2.349,0,0,1-.673,2.741,1.3,1.3,0,0,1-.726.228H3.576A1.849,1.849,0,0,1,2,16.3V4.1A1.849,1.849,0,0,1,3.576,2.071Zm0,2.033V16.3H23.268L18.363,4.1Z" transform="translate(2.079 2.153)" fill="#9bcaff"/>
              <path id="bg-3" data-name="bg" d="M6.079,5.061H53.248a4.079,4.079,0,0,1,4.079,4.079V51.8a4.079,4.079,0,0,1-4.079,4.079H6.079A4.08,4.08,0,0,1,2,51.8V9.141A4.079,4.079,0,0,1,6.079,5.061Z" transform="translate(2.079 5.262)" fill="#fff" fill-rule="evenodd"/>
              <path id="bg-4" data-name="bg" d="M2,5.061H57.381a1.774,1.774,0,0,1,1.731,1.815V54.069a1.775,1.775,0,0,1-1.731,1.815H3.731A1.775,1.775,0,0,1,2,54.069Zm2.04,2.21v46.4H57.072V7.271Z" transform="translate(2 5.262)" fill="#9bcaff"/>
              <rect id="Line" width="30.46" height="2.04" transform="translate(17 46.916)" fill="#0062d1"/>
            </g>
          </g>
        </g>
      </g>
    </g>
    <path id="路径_9335" data-name="路径 9335" d="M-10.485-12h-4.588V0H-13.1V-4.57h2.487L-8.464,0h2.241L-8.648-4.913A3.443,3.443,0,0,0-6.442-8.271C-6.442-10.529-7.963-12-10.485-12ZM-13.1-6.214V-10.3h2.338A2,2,0,0,1-8.5-8.209c0,1.318-.853,2-2.32,2Zm8.578,3.032C-4.386-1.274-2.839.237-.044.237c2.909,0,4.632-1.494,4.632-3.709,0-1.907-1.16-2.865-3.182-3.34l-1.96-.475c-1.072-.246-1.661-.756-1.661-1.529,0-1.02.9-1.74,2.312-1.74A2.2,2.2,0,0,1,2.487-8.965H4.421c-.149-1.837-1.749-3.3-4.307-3.3-2.54,0-4.333,1.441-4.333,3.577,0,1.74,1.107,2.821,2.936,3.252l1.969.475c1.3.316,1.907.791,1.907,1.679,0,1.081-.914,1.8-2.487,1.8-1.485,0-2.479-.7-2.672-1.705ZM7.8,0,8.868-3.252h4.21L14.142,0h2.109L12.12-12H9.9L5.766,0Zm3.217-9.861,1.608,5.01H9.316l1.617-5.01Z" transform="translate(30.075 38)" fill="#0062d1"/>
  </g>
</svg>
