<svg xmlns="http://www.w3.org/2000/svg" width="40" height="58" viewBox="0 0 40 58">
  <g id="Encryption" transform="translate(2634 4040)">
    <g id="矩形_682" data-name="矩形 682" transform="translate(-2634 -4040)" fill="none" stroke="#9bcaff" stroke-width="2.2">
      <rect width="40" height="58" rx="4" stroke="none"/>
      <rect x="1.1" y="1.1" width="37.8" height="55.8" rx="2.9" fill="none"/>
    </g>
    <rect id="矩形_683" data-name="矩形 683" width="32" height="44" rx="2" transform="translate(-2630 -4036)" fill="#1f8aff"/>
    <rect id="矩形_700" data-name="矩形 700" width="20" height="15" rx="2" transform="translate(-2624 -4012)" fill="#9bcaff"/>
    <g id="矩形_701" data-name="矩形 701" transform="translate(-2622 -4023)" fill="none" stroke="#9bcaff" stroke-width="2.2">
      <rect width="16" height="21" rx="8" stroke="none"/>
      <rect x="1.1" y="1.1" width="13.8" height="18.8" rx="6.9" fill="none"/>
    </g>
    <path id="联合_1" data-name="联合 1" d="M-3555.19-6670a.5.5,0,0,1-.448-.724l1.038-2.076a2,2,0,0,1-.4-1.2,2,2,0,0,1,2-2,2,2,0,0,1,2,2,1.992,1.992,0,0,1-.4,1.2l1.038,2.076a.5.5,0,0,1-.448.724Z" transform="translate(939 2668)" fill="#1f8aff"/>
  </g>
</svg>
