<svg xmlns="http://www.w3.org/2000/svg" width="80" height="107" viewBox="0 0 80 107">
  <g id="Expand_application" data-name="Expand application" transform="translate(-445 -3417)">
    <rect id="矩形_724" data-name="矩形 724" width="71" height="98" rx="2" transform="translate(454 3426)" fill="#eaf4ff"/>
    <g id="矩形_718" data-name="矩形 718" transform="translate(445 3417)" fill="#fff" stroke="#9bcaff" stroke-width="2.2">
      <rect width="71" height="98" rx="2" stroke="none"/>
      <rect x="1.1" y="1.1" width="68.8" height="95.8" rx="0.9" fill="none"/>
    </g>
    <circle id="椭圆_262" data-name="椭圆 262" cx="5" cy="5" r="5" transform="translate(476 3500)" fill="#9bcaff"/>
    <rect id="矩形_721" data-name="矩形 721" width="71" height="2.2" transform="translate(445 3431)" fill="#9bcaff"/>
    <rect id="矩形_722" data-name="矩形 722" width="71" height="2.2" transform="translate(445 3495)" fill="#9bcaff"/>
    <text id="Kong" transform="translate(454 3482)" fill="#0062d1" font-size="19" font-family="ProximaNova-Semibold, Proxima Nova" font-weight="600"><tspan x="0" y="0">KONG</tspan></text>
    <path id="路径_9390" data-name="路径 9390" d="M1042.132,4455.39v-23.63h-5.153" transform="translate(-565 -987.26)" fill="none" stroke="#9bcaff" stroke-width="2"/>
    <path id="路径_9394" data-name="路径 9394" d="M1042.132,4447.282V4431.76h-13.864" transform="translate(-573 -979.26)" fill="none" stroke="#9bcaff" stroke-width="2"/>
    <path id="路径_9392" data-name="路径 9392" d="M1046.027,4457.412v-19.649h14.719" transform="translate(-564 -989.262)" fill="none" stroke="#9bcaff" stroke-width="2"/>
    <g id="组_1389" data-name="组 1389" transform="translate(-480 -783)">
      <path id="路径_9395" data-name="路径 9395" d="M1046.027,4456.224v-12.689h4.833" transform="translate(-65 -205.262)" fill="none" stroke="#9bcaff" stroke-width="2"/>
      <path id="路径_9393" data-name="路径 9393" d="M1060.747,4462.236" transform="translate(-88 -206)" fill="none" stroke="#707070" stroke-width="1"/>
      <rect id="矩形_730" data-name="矩形 730" width="5" height="5" transform="translate(947 4225)" fill="#9bcaff"/>
      <rect id="矩形_732" data-name="矩形 732" width="5" height="5" transform="translate(931 4233)" fill="#9bcaff"/>
      <rect id="矩形_731" data-name="矩形 731" width="5" height="5" transform="translate(985 4236)" fill="#9bcaff"/>
      <rect id="矩形_733" data-name="矩形 733" width="5" height="5" transform="translate(976 4229)" fill="#9bcaff"/>
    </g>
  </g>
</svg>
