<svg xmlns="http://www.w3.org/2000/svg" width="40" height="58" viewBox="0 0 40 58">
  <g id="Beautiful" transform="translate(2634 4040)">
    <g id="矩形_682" data-name="矩形 682" transform="translate(-2634 -4040)" fill="none" stroke="#9bcaff" stroke-width="2.2">
      <rect width="40" height="58" rx="4" stroke="none"/>
      <rect x="1.1" y="1.1" width="37.8" height="55.8" rx="2.9" fill="none"/>
    </g>
    <rect id="矩形_683" data-name="矩形 683" width="32" height="44" rx="2" transform="translate(-2630 -4036)" fill="#1f8aff"/>
    <circle id="椭圆_257" data-name="椭圆 257" cx="2" cy="2" r="2" transform="translate(-2616 -3990)" fill="#1f8aff"/>
    <g id="noun_Star_1696190" transform="translate(-2625.36 -4024.426)">
      <path id="路径_9378" data-name="路径 9378" d="M44.613,10.863C40.9,9.8,40.119,9.015,39.051,5.3a.416.416,0,0,0-.8,0c-1.068,3.715-1.847,4.494-5.562,5.562a.416.416,0,0,0,0,.8c3.714,1.068,4.494,1.847,5.562,5.562a.416.416,0,0,0,.8,0c1.068-3.714,1.847-4.494,5.562-5.562a.416.416,0,0,0,0-.8Z" transform="translate(-27.377 -5)" fill="#9bcaff"/>
      <path id="路径_9379" data-name="路径 9379" d="M7.517,55.567c1.421.408,1.719.707,2.128,2.128a.24.24,0,0,0,.461,0c.408-1.421.707-1.719,2.128-2.128a.24.24,0,0,0,0-.461c-1.421-.408-1.719-.707-2.128-2.128a.24.24,0,0,0-.461,0C9.236,54.4,8.938,54.7,7.517,55.105a.24.24,0,0,0,0,.461Z" transform="translate(-7.343 -38.097)" fill="#9bcaff"/>
      <path id="路径_9380" data-name="路径 9380" d="M7.646,57.615c2.474.711,2.994,1.23,3.7,3.7a.418.418,0,0,0,.8,0c.711-2.474,1.23-2.994,3.7-3.7a.418.418,0,0,0,0-.8c-2.474-.711-2.994-1.23-3.7-3.7a.418.418,0,0,0-.8,0c-.711,2.474-1.23,2.994-3.7,3.7a.418.418,0,0,0,0,.8Z" transform="translate(6.898 -38.679)" fill="#9bcaff"/>
    </g>
  </g>
</svg>
