<svg xmlns="http://www.w3.org/2000/svg" width="43.773" height="42.98" viewBox="0 0 43.773 42.98">
  <g id="Private_Domain" data-name="Private Domain" transform="translate(-17.057 -12.264)">
    <path id="减去_1" data-name="减去 1" d="M-1177.639-2138.188h0a23,23,0,0,1-3.339-1.472,13.559,13.559,0,0,0,4.057-9.586v-21.43c-2.642,1.639-8.43,2.753-15.1,2.909v-11.4c2.1,1.624,6.477,2.772,11.716,3.071.868.05,1.766.075,2.67.075,6.272,0,11.919-1.235,14.387-3.146v23.021a16.536,16.536,0,0,1-2.248,8.45,19.736,19.736,0,0,1-4.945,5.546,26.036,26.036,0,0,1-7.193,3.963Z" transform="translate(1224.083 2191.433)" fill="#9bcaff"/>
    <path id="路径_9378" data-name="路径 9378" d="M365.716,261.879c-5.286-.241-9.664-1.187-11.716-2.46v18.442a11.527,11.527,0,0,0,.09,1.448c1.215,9.6,14.3,12.938,14.3,12.938s14.386-3.669,14.386-14.386V259.419c-2.389,1.482-7.93,2.52-14.386,2.52C367.476,261.939,366.584,261.918,365.716,261.879Zm-3.824,12.57a6.321,6.321,0,0,0-3.931,1.384c-.011-.122-.018-.245-.018-.37a3.975,3.975,0,0,1,7.95,0c0,.125-.006.248-.018.37a6.322,6.322,0,0,0-3.957-1.384Zm6.474,9.788a3.975,3.975,0,0,1-3.975-3.975c0-.125.006-.248.018-.37a6.348,6.348,0,0,0,7.914,0c.011.122.018.245.018.37A3.975,3.975,0,0,1,368.366,284.237Zm6.489-12.749a3.975,3.975,0,0,1,3.975,3.975c0,.125-.007.248-.018.37a6.348,6.348,0,0,0-7.914,0c-.011-.122-.018-.245-.018-.37A3.975,3.975,0,0,1,374.855,271.488Z" transform="translate(-336.943 -237.002)" fill="#1f8aff"/>
  </g>
</svg>
