<svg xmlns="http://www.w3.org/2000/svg" width="80" height="107" viewBox="0 0 80 107">
  <g id="Collaborative_work" data-name="Collaborative work" transform="translate(-445 -3417)">
    <rect id="矩形_724" data-name="矩形 724" width="71" height="98" rx="2" transform="translate(454 3426)" fill="#eaf4ff"/>
    <g id="矩形_718" data-name="矩形 718" transform="translate(445 3417)" fill="#fff" stroke="#9bcaff" stroke-width="2.2">
      <rect width="71" height="98" rx="2" stroke="none"/>
      <rect x="1.1" y="1.1" width="68.8" height="95.8" rx="0.9" fill="none"/>
    </g>
    <circle id="椭圆_262" data-name="椭圆 262" cx="5" cy="5" r="5" transform="translate(476 3500)" fill="#9bcaff"/>
    <rect id="矩形_721" data-name="矩形 721" width="71" height="2.2" transform="translate(445 3431)" fill="#9bcaff"/>
    <rect id="矩形_722" data-name="矩形 722" width="71" height="2.2" transform="translate(445 3495)" fill="#9bcaff"/>
    <g id="noun_hand_shake_65005" data-name="noun_hand shake_65005" transform="translate(454.282 3426.733)">
      <path id="路径_9382" data-name="路径 9382" d="M44.116,38.81a31.425,31.425,0,0,1-4.031-2.85,51.614,51.614,0,0,0-6.219-4.337c-2.482-1.153-6.225-3.159-7.527-3.863-2,.037-4.1.081-5.252.112l-.122.237c-.839,1.64-2.109,4.117-4.206,4.956a6.792,6.792,0,0,1-2.456.445,3.564,3.564,0,0,1-2.992-1.187,2.349,2.349,0,0,1-.432-1.855,26.9,26.9,0,0,1,1.81-7.787c-1-.462-2.6-1.266-3.843-1.9a1.675,1.675,0,0,0-1.747,0,2.013,2.013,0,0,0-.753.944L2.76,31.958a5.023,5.023,0,0,0-.248,1.582A1.928,1.928,0,0,0,3.485,35a16.6,16.6,0,0,1,2.992,2.667,7.117,7.117,0,0,1,1,2.677,3.916,3.916,0,0,1,2.958-1.487,3.3,3.3,0,0,1,.736.082,3.863,3.863,0,0,1,2.647,2.33,3.9,3.9,0,0,1,1.315-.245,3.5,3.5,0,0,1,1.778.484,3.375,3.375,0,0,1,1.506,1.91,3.722,3.722,0,0,1,.76-.087,3.914,3.914,0,0,1,2.014.574,3.66,3.66,0,0,1,1.583,3.657,3.314,3.314,0,0,1,1.565.451c1.543.942,1.918,3.352,1.489,5.143l-.025.105-.033.094a2.8,2.8,0,0,0,.7.5c3.127,1.328,4.847-1.422,4.428-2.772,1.094.782,3.319.395,4.377-.7s.544-3.026.544-3.026,2.914,1.666,5.025-.411a2.445,2.445,0,0,0,.283-3.022s2.762,1.11,4.058-.73C46.407,41.451,45.631,40.1,44.116,38.81Z" transform="translate(0 -1.9)" fill="#9bcaff"/>
      <path id="路径_9383" data-name="路径 9383" d="M39.14,80.531a2.143,2.143,0,0,1-1.012-.341,1.934,1.934,0,0,1-.576-2.8l.183-.34a2.491,2.491,0,0,1,2.9-.965c.6.366.888,1.8.6,3l-.074.206C40.5,80.493,39.9,80.587,39.14,80.531Z" transform="translate(-16.534 -28.296)" fill="#0062d1"/>
      <path id="路径_9384" data-name="路径 9384" d="M22.216,28.877s.681-6.863,2.366-8.356a9.091,9.091,0,0,1,5.293-2.316c2.289-.388,7.247-2.061,8.958-1.562s4.549,1.271,6.244,1.6,3.706,1.586,4.712,1.655a10.517,10.517,0,0,0,3.1-1.167,1.416,1.416,0,0,1,1.445.15,1.932,1.932,0,0,1,.723,1.041l3.438,10.7a3.03,3.03,0,0,1,.116,1.057,1.547,1.547,0,0,1-.834,1.2,19.512,19.512,0,0,0-3.117,2.305c-.283.524-7.613-5.873-10.573-7.248s-7.875-4.056-7.875-4.056-6.3.114-6.8.162-1.845,4.434-4,5.293C24.149,29.841,21.966,29.733,22.216,28.877Z" transform="translate(-9.389)" fill="#0062d1"/>
      <path id="路径_9385" data-name="路径 9385" d="M15.094,64.739a2.066,2.066,0,0,1-.322-.048,2.152,2.152,0,0,1-1.621-2.573l.125-.547c.262-1.159,1.348-2.5,2.506-2.236s1.744,1.88,1.482,3.039l-.119.769A1.885,1.885,0,0,1,15.094,64.739Z" transform="translate(-5.051 -20.377)" fill="#0062d1"/>
      <path id="路径_9386" data-name="路径 9386" d="M21.983,69.593a1.64,1.64,0,0,1-.841-.182,2.315,2.315,0,0,1-.85-3.058l1-1.485c.607-1.023,1.936-1.819,2.959-1.214s.837,2.028.38,3.089l-.806,1.707A2,2,0,0,1,21.983,69.593Z" transform="translate(-8.349 -22.352)" fill="#0062d1"/>
      <path id="路径_9387" data-name="路径 9387" d="M31.342,74.113a2.15,2.15,0,0,1-1.68-3.259l1.331-1.9a1.958,1.958,0,0,1,2.759-.809c1.014.615.675,2.368.243,3.5l-.657,1.443A2.148,2.148,0,0,1,31.342,74.113Z" transform="translate(-12.798 -24.454)" fill="#0062d1"/>
    </g>
  </g>
</svg>
