<svg xmlns="http://www.w3.org/2000/svg" width="80" height="107" viewBox="0 0 80 107">
  <g id="Custom_avatar" data-name="Custom avatar" transform="translate(-445 -3417)">
    <rect id="矩形_724" data-name="矩形 724" width="71" height="98" rx="2" transform="translate(454 3426)" fill="#eaf4ff"/>
    <g id="矩形_718" data-name="矩形 718" transform="translate(445 3417)" fill="#fff" stroke="#9bcaff" stroke-width="2.2">
      <rect width="71" height="98" rx="2" stroke="none"/>
      <rect x="1.1" y="1.1" width="68.8" height="95.8" rx="0.9" fill="none"/>
    </g>
    <circle id="椭圆_262" data-name="椭圆 262" cx="5" cy="5" r="5" transform="translate(476 3500)" fill="#9bcaff"/>
    <rect id="矩形_721" data-name="矩形 721" width="71" height="2.2" transform="translate(445 3431)" fill="#9bcaff"/>
    <rect id="矩形_722" data-name="矩形 722" width="71" height="2.2" transform="translate(445 3495)" fill="#9bcaff"/>
    <g id="noun_Privacy_2432822" transform="translate(452.175 3440.175)">
      <rect id="矩形_729" data-name="矩形 729" width="52" height="52" transform="translate(-0.175 -0.175)" fill="none"/>
      <path id="路径_9388" data-name="路径 9388" d="M26.612,31.439A8.876,8.876,0,1,1,18.2,37.432,9.309,9.309,0,0,1,20.076,34.3c0-.008.221-.24.455-.459a8.921,8.921,0,0,1,4.537-2.266,9.053,9.053,0,0,1,1.514-.132h.029ZM29.018,38.7V37.9c0-.028,0-.056,0-.085a2.422,2.422,0,0,0-2.411-2.336l-.117,0A2.422,2.422,0,0,0,24.176,37.9V38.7h-.807c-.027,0-.052,0-.079,0a.836.836,0,0,0-.155.031.823.823,0,0,0-.569.693c0,.027,0,.053,0,.079v4.842c0,.027,0,.053,0,.079a.836.836,0,0,0,.057.23.824.824,0,0,0,.667.495c.027,0,.052,0,.079,0h6.456c.027,0,.053,0,.079,0a.81.81,0,0,0,.23-.058.82.82,0,0,0,.494-.667c0-.026,0-.052,0-.079V39.51c0-.026,0-.052,0-.079a.786.786,0,0,0-.031-.155.822.822,0,0,0-.615-.557c-.026-.006-.052-.008-.078-.012l-.079,0Zm0,4.842H24.176V40.317h4.842ZM22.449,21.964a6.814,6.814,0,0,1-2.641-4.6l-.015-.132q-.27-2.622-.537-5.245A7.263,7.263,0,0,1,26.376,4c.115,0,.231,0,.346,0a7.263,7.263,0,0,1,7.222,7.919l-.007.072q-.266,2.623-.537,5.245a6.824,6.824,0,0,1-2.654,4.731q.305.914.61,1.828a4.07,4.07,0,0,0,1.872,2.248,4.027,4.027,0,0,0,1.011.392q4.072.974,8.145,1.94a8.872,8.872,0,0,1,6.81,8.633v1.7c0,.027,0,.053,0,.079a.82.82,0,0,1-.494.667.81.81,0,0,1-.23.058c-.026,0-.052,0-.079,0H37.057a10.491,10.491,0,0,0-10.443-9.684H26.58a10.5,10.5,0,0,0-9.907,7.083,10.465,10.465,0,0,0-.536,2.6H4.807c-.027,0-.052,0-.079,0a.824.824,0,0,1-.693-.569A.783.783,0,0,1,4,38.782c0-.026,0-.052,0-.079V36.995a8.865,8.865,0,0,1,6.81-8.621q4.072-.973,8.145-1.94a4.032,4.032,0,0,0,2.886-2.648l.608-1.822ZM27.4,38.7H25.79V37.9a.807.807,0,0,1,1.614-.006C27.406,38.161,27.4,38.432,27.4,38.7Z" transform="translate(2.456 0.035)" fill="#0062d1" fill-rule="evenodd"/>
      <path id="路径_9389" data-name="路径 9389" d="M26.612,31.439A8.876,8.876,0,1,1,18.2,37.432,9.309,9.309,0,0,1,20.076,34.3c0-.008.221-.24.455-.459a8.921,8.921,0,0,1,4.537-2.266,9.053,9.053,0,0,1,1.514-.132h.029ZM29.018,38.7V37.9c0-.028,0-.056,0-.085a2.422,2.422,0,0,0-2.411-2.336l-.117,0A2.422,2.422,0,0,0,24.176,37.9V38.7h-.807c-.027,0-.052,0-.079,0a.836.836,0,0,0-.155.031.823.823,0,0,0-.569.693c0,.027,0,.053,0,.079v4.842c0,.027,0,.053,0,.079a.836.836,0,0,0,.057.23.824.824,0,0,0,.667.495c.027,0,.052,0,.079,0h6.456c.027,0,.053,0,.079,0a.81.81,0,0,0,.23-.058.82.82,0,0,0,.494-.667c0-.026,0-.052,0-.079V39.51c0-.026,0-.052,0-.079a.786.786,0,0,0-.031-.155.822.822,0,0,0-.615-.557c-.026-.006-.052-.008-.078-.012l-.079,0Zm0,4.842H24.176V40.317h4.842ZM27.4,38.7H25.79V37.9a.807.807,0,0,1,1.614-.006C27.406,38.161,27.4,38.432,27.4,38.7Z" transform="translate(2.456 0.035)" fill="#9bcaff" fill-rule="evenodd"/>
    </g>
  </g>
</svg>
