<svg xmlns="http://www.w3.org/2000/svg" width="1142.5" height="312.5" viewBox="0 0 1142.5 312.5">
  <g id="A_simple_example_to_describe_the_RSA_algorithm:" data-name="A simple example to describe the RSA algorithm:" transform="translate(-436.5 -2288.5)">
    <text id="Having_an_integer_d_makes_the_remainder_of_e_d_divided_by_m_equal_to_1." data-name="Having an integer d makes the remainder of e * d divided by m equal to 1." transform="translate(437 2554)" fill="#2d3235" font-size="14" font-family="SFCompactText-Light, SF Text" font-weight="300"><tspan x="0" y="13">Having an integer d makes the remainder of </tspan><tspan x="0" y="34">e * d divided by m equal to 1.</tspan></text>
    <text id="Encryption_generates_ciphertext." data-name="Encryption generates ciphertext." transform="translate(882 2554)" fill="#2d3235" font-size="14" font-family="SFCompactText-Light, SF Text" font-weight="300"><tspan x="0" y="13">Encryption generates ciphertext.</tspan></text>
    <text id="Decryption_generates_plaintext." data-name="Decryption generates plaintext." transform="translate(1304 2554)" fill="#2d3235" font-size="14" font-family="SFCompactText-Light, SF Text" font-weight="300"><tspan x="0" y="13">Decryption generates plaintext.</tspan></text>
    <text id="Randomly_find_two_prime_numbers_P_and_Q_the_larger_P_and_Q_The_safer." data-name="Randomly find two prime numbers P and Q, the larger P and Q,The safer." transform="translate(437 2358)" fill="#2d3235" font-size="14" font-family="SFCompactText-Light, SF Text" font-weight="300"><tspan x="0" y="13">Randomly find two prime numbers P and Q, </tspan><tspan x="0" y="34">the larger P and Q,The safer.</tspan></text>
    <text id="Compute_the_Euler_function_φ_n_of_n." data-name="Compute the Euler function φ (n) of n." transform="translate(882 2358)" fill="#2d3235" font-size="14" font-family="SFCompactText-Light, SF Text" font-weight="300"><tspan x="0" y="13">Compute the Euler function φ (n) </tspan></text>
    <text id="Choose_an_integer_e_at_random_provided_that_1_e_m_and_e_and_m_are_prime." data-name="Choose an integer e at random, provided that 1 &lt;e &lt;m, and e and m are prime." transform="translate(1304 2358)" fill="#2d3235" font-size="14" font-family="SFCompactText-Light, SF Text" font-weight="300"><tspan x="0" y="13">Choose an integer e at random, provided </tspan><tspan x="0" y="34">that 1 &lt;e &lt;m, and e and m are prime.</tspan></text>
    <line id="直线_205" data-name="直线 205" x2="390" transform="translate(495.5 2318.5)" fill="none" stroke="#1e2538" stroke-width="1" stroke-dasharray="2"/>
    <line id="直线_207" data-name="直线 207" x2="394" transform="translate(491.5 2514.5)" fill="none" stroke="#1e2538" stroke-width="1" stroke-dasharray="2"/>
    <line id="直线_208" data-name="直线 208" x2="371" transform="translate(936.5 2514.5)" fill="none" stroke="#1e2538" stroke-width="1" stroke-dasharray="2"/>
    <line id="直线_206" data-name="直线 206" x2="371" transform="translate(936.5 2318.5)" fill="none" stroke="#1e2538" stroke-width="1" stroke-dasharray="2"/>
    <path id="连接线" d="M10349.856,4014.339v-28.99h914.425v-25.288" transform="translate(-9884 -1543.23)" fill="none" stroke="#007aff" stroke-width="1" stroke-dasharray="2"/>
    <g id="_01" data-name="01" transform="translate(-785.399 711.96)">
      <path id="联合_5" data-name="联合 5" d="M-5218,130.02a29.011,29.011,0,0,1-24.819-14.7,28.814,28.814,0,0,1-3.782-14.289,28.8,28.8,0,0,1,3.816-14.348l5.193,3a22.845,22.845,0,0,0-3.009,11.35,22.846,22.846,0,0,0,2.975,11.291A23.006,23.006,0,0,0-5218,124.02c.133,0,.266.011.4.011a23.01,23.01,0,0,0,19.827-11.362l5.192,3A29.007,29.007,0,0,1-5217.6,130.03C-5217.734,130.03-5217.867,130.022-5218,130.02Zm20.228-17.352a22.863,22.863,0,0,0,3.172-11.639,22.858,22.858,0,0,0-3.208-11.7l5.193-3a28.82,28.82,0,0,1,4.015,14.7,28.809,28.809,0,0,1-3.98,14.637Zm-45.012-25.987A29.012,29.012,0,0,1-5218,72.041v6a23.009,23.009,0,0,0-19.591,11.64Z" transform="translate(6469 1505.01)" fill="#042e7a" stroke="rgba(0,0,0,0)" stroke-miterlimit="10" stroke-width="1"/>
      <path id="路径_596" data-name="路径 596" d="M1251.4,1583.04a23.006,23.006,0,0,1,19.792,11.3l5.194-3a29.01,29.01,0,0,0-24.986-14.3c-.134,0-.266.008-.4.01v6C1251.134,1583.048,1251.266,1583.04,1251.4,1583.04Z" fill="#007aff"/>
    </g>
    <g id="_02" data-name="02" transform="translate(-417.399 711.96)">
      <path id="联合_6" data-name="联合 6" d="M-5593.373,132.678a22.85,22.85,0,0,0,3.173-11.638,22.864,22.864,0,0,0-3.208-11.7,23.007,23.007,0,0,0-19.792-11.3c-.134,0-.267.007-.4.01v-6c.134,0,.267-.01.4-.01a29.007,29.007,0,0,1,24.985,14.3,28.8,28.8,0,0,1,4.015,14.7,28.81,28.81,0,0,1-3.98,14.636Z" transform="translate(6941.601 1485)" fill="#1f8aff" stroke="rgba(0,0,0,0)" stroke-miterlimit="10" stroke-width="1"/>
      <path id="联合_4" data-name="联合 4" d="M-5584,130.02a29.011,29.011,0,0,1-24.818-14.7,28.8,28.8,0,0,1-3.782-14.289,28.8,28.8,0,0,1,3.816-14.349l5.193,3a22.848,22.848,0,0,0-3.009,11.352,22.861,22.861,0,0,0,2.974,11.291A23.012,23.012,0,0,0-5584,124.02c.134,0,.266.01.4.01a23.006,23.006,0,0,0,19.827-11.362l5.193,3A29.011,29.011,0,0,1-5583.6,130.03C-5583.734,130.03-5583.867,130.022-5584,130.02Zm-24.784-43.339A29.011,29.011,0,0,1-5584,72.04v6a23.012,23.012,0,0,0-19.591,11.639Z" transform="translate(6912 1505.01)" fill="#042e7a" stroke="rgba(0,0,0,0)" stroke-miterlimit="10" stroke-width="1"/>
    </g>
    <g id="_03" data-name="03" transform="translate(-66.4 826.96)">
      <path id="路径_604" data-name="路径 604" d="M1424.386,1476.344a29.01,29.01,0,0,0-24.986-14.3c-.134,0-.266.008-.4.01v6c.134,0,.266-.01.4-.01a23,23,0,0,1,0,46c-.134,0-.266-.008-.4-.01v6c.134,0,.266.01.4.01a28.981,28.981,0,0,0,24.986-43.7Z" fill="#1f8aff"/>
      <path id="路径_605" data-name="路径 605" d="M1399,1468.05v-6a28.993,28.993,0,0,0,0,57.98v-6a22.994,22.994,0,0,1,0-45.98Z" fill="#042e7a"/>
    </g>
    <g id="_04" data-name="04" transform="translate(-1005.4 1022.96)">
      <path id="路径_606" data-name="路径 606" d="M1496.386,1476.344a29.01,29.01,0,0,0-24.986-14.3c-.134,0-.266.008-.4.01v6c.134,0,.266-.01.4-.01a23,23,0,0,1,0,46c-.134,0-.266-.008-.4-.01a23.01,23.01,0,0,1-19.626-11.7l-5.193,3a29.012,29.012,0,0,0,24.819,14.7c.134,0,.266.01.4.01a28.981,28.981,0,0,0,24.986-43.7Z" fill="#1f8aff"/>
      <path id="路径_607" data-name="路径 607" d="M1446.215,1476.691a28.892,28.892,0,0,0-.034,28.638l5.193-3A22.995,22.995,0,0,1,1471,1468.05v-6A29.014,29.014,0,0,0,1446.215,1476.691Z" fill="#042e7a"/>
    </g>
    <g id="_05" data-name="05" transform="translate(-630.4 1022.96)">
      <path id="路径_608" data-name="路径 608" d="M1541,1468.05v-6a29.014,29.014,0,0,0-24.785,14.641l5.194,3A23.008,23.008,0,0,1,1541,1468.05Z" fill="#042e7a"/>
      <path id="路径_609" data-name="路径 609" d="M1566.386,1476.344a29.01,29.01,0,0,0-24.986-14.3c-.134,0-.266.008-.4.01v6c.134,0,.266-.01.4-.01a23,23,0,0,1,0,46c-.134,0-.266-.008-.4-.01a22.977,22.977,0,0,1-19.591-34.341l-5.194-3A28.993,28.993,0,0,0,1541,1520.03c.134,0,.266.01.4.01a28.981,28.981,0,0,0,24.986-43.7Z" fill="#1f8aff"/>
    </g>
    <path id="_06" data-name="06" d="M1646.386,1476.344a29.01,29.01,0,0,0-24.986-14.3c-.134,0-.266.008-.4.01a28.993,28.993,0,0,0,0,57.98c.134,0,.266.01.4.01a28.981,28.981,0,0,0,24.986-43.7Zm-24.986,37.7c-.134,0-.266-.008-.4-.01a22.994,22.994,0,0,1,0-45.98c.134,0,.266-.01.4-.01a23,23,0,0,1,0,46Z" transform="translate(-288.4 1022.96)" fill="#1f8aff"/>
  </g>
</svg>
