<svg xmlns="http://www.w3.org/2000/svg" width="363.707" height="351.939" viewBox="0 0 363.707 351.939">
  <g id="banner" transform="translate(-223.549 -29.375)">
    <g id="组_1304" data-name="组 1304" transform="translate(533.246 209.954)">
      <g id="组_1302" data-name="组 1302">
        <path id="路径_10007" data-name="路径 10007" d="M562.29,261.115,539.972,248.13c-1.884-1.087-1.648-2.986.528-4.242l21.272-12.395a8.172,8.172,0,0,1,7.349-.3l22.318,12.985c1.883,1.088,1.647,2.987-.528,4.243L569.638,260.81A8.166,8.166,0,0,1,562.29,261.115Z" transform="translate(-538.7 -213.433)" fill="#c4d9e8" opacity="0.5"/>
        <path id="路径_10008" data-name="路径 10008" d="M592.7,233.556h0v-4.471l-23.744-.013.164-.006a8.169,8.169,0,0,0-7.349.3l.7-.293-23.765-.014v4.772a2.13,2.13,0,0,0,1.262,1.969l22.318,12.985a8.166,8.166,0,0,0,7.349-.3l21.272-12.394C592.166,235.368,592.771,234.43,592.7,233.556Z" transform="translate(-538.7 -213.397)" fill="#173d7a"/>
        <path id="路径_10009" data-name="路径 10009" d="M565.71,228.338a8.472,8.472,0,0,0-3.939,1.033l.7-.293-23.765-.014v4.772a2.13,2.13,0,0,0,1.262,1.969l22.318,12.985a6.644,6.644,0,0,0,3.41.728Z" transform="translate(-538.7 -213.397)" fill="#396caa"/>
        <path id="路径_10010" data-name="路径 10010" d="M541.4,229.079l-2.69,0v4.772a2.13,2.13,0,0,0,1.262,1.969l1.428.824Z" transform="translate(-538.7 -213.41)" fill="#b2d3ea"/>
        <path id="路径_10011" data-name="路径 10011" d="M563.186,249.276a8.37,8.37,0,0,0,5.875-.068v-6.247h-5.875Z" transform="translate(-539.123 -213.65)" fill="#274f89"/>
        <path id="路径_10012" data-name="路径 10012" d="M562.29,243.8,539.972,230.81c-1.884-1.088-1.648-2.987.528-4.243l21.272-12.394a8.166,8.166,0,0,1,7.349-.3l22.318,12.985c1.883,1.087,1.647,2.987-.528,4.242L569.638,243.49A8.169,8.169,0,0,1,562.29,243.8Z" transform="translate(-538.7 -213.134)" fill="#d4ecff"/>
      </g>
      <g id="组_1303" data-name="组 1303" transform="translate(17.4 9.813)">
        <path id="路径_10013" data-name="路径 10013" d="M571.773,233.825l-14.709-8.492a.968.968,0,0,1,0-1.834,3.512,3.512,0,0,1,3.176,0l14.709,8.492a.968.968,0,0,1,0,1.834A3.512,3.512,0,0,1,571.773,233.825Z" transform="translate(-556.406 -223.12)" fill="#fff"/>
      </g>
    </g>
    <path id="路径_10014" data-name="路径 10014" d="M335.1,169.893c-8.5,4.909-22.284,4.909-30.786,0s-8.5-12.866,0-17.774,22.285-4.909,30.786,0S343.606,164.986,335.1,169.893Z" transform="translate(-1.287 -2.06)" fill="#c4d9e8" opacity="0.5"/>
    <g id="组_1306" data-name="组 1306" transform="translate(256.393 36.245)">
      <path id="路径_10015" data-name="路径 10015" d="M399.27,329.05l-137.163-79.19c-3.88-2.241-3.393-6.154,1.087-8.74l93.4-53.9c4.481-2.587,11.259-2.868,15.138-.628l137.163,79.19c3.88,2.241,3.393,6.154-1.087,8.74l-93.4,53.906C409.927,331.009,403.15,331.29,399.27,329.05Z" transform="translate(-257.015 -38.94)" fill="#c4d9e8" opacity="0.5"/>
      <path id="路径_10016" data-name="路径 10016" d="M546.113,117.976,406.259,37.231a5.647,5.647,0,0,0-4.74-.581l.009-.015-.254.1-.062.024-5.054,1.934,4.536,2.221c-.021.085-.047.162-.066.248L377.849,144.85c-1.14,5.19,1.143,11.248,5.1,13.532l136.491,78.8-.487,5.784,5.525-2.141a7.763,7.763,0,0,0,3.955-5.627l22.78-103.693C552.352,126.318,550.069,120.26,546.113,117.976Z" transform="translate(-259.058 -36.366)" fill="#173d7a"/>
      <path id="路径_10017" data-name="路径 10017" d="M546.255,117.976,406.4,37.231a5.647,5.647,0,0,0-4.74-.581l.009-.015-.254.1-.062.024L396.3,38.688l4.536,2.221c-.021.085-.047.162-.066.248L385.758,109.5l68.428,53.313,96.486-39.261A10.851,10.851,0,0,0,546.255,117.976Z" transform="translate(-259.2 -36.366)" fill="#396caa"/>
      <path id="路径_10018" data-name="路径 10018" d="M543.53,135.365l10.646-4.533c.2-4.122-1.511-8.382-4.313-10.66l-16.851,7.089Z" transform="translate(-261.748 -37.817)" fill="#274f89"/>
      <path id="路径_10019" data-name="路径 10019" d="M513.94,242.453,374.086,161.708c-3.956-2.284-6.239-8.342-5.1-13.532l22.78-103.693c1.14-5.19,5.271-7.544,9.228-5.26l139.854,80.745c3.956,2.284,6.239,8.343,5.1,13.532l-22.78,103.693C522.028,242.382,517.9,244.738,513.94,242.453Z" transform="translate(-258.905 -36.401)" fill="#d4ecff"/>
      <path id="路径_10020" data-name="路径 10020" d="M511.01,234.874l-131.53-75.9c-3.621-2.09-5.71-7.635-4.667-12.383L395.659,51.7c1.043-4.748,4.823-6.9,8.443-4.813l131.531,75.9c3.62,2.09,5.709,7.635,4.666,12.383L519.454,230.06C518.411,234.809,514.63,236.964,511.01,234.874Z" transform="translate(-259.006 -36.535)" fill="#fff"/>
      <path id="路径_10021" data-name="路径 10021" d="M511.01,234.874l-131.53-75.9c-3.621-2.09-5.71-7.635-4.667-12.383L395.659,51.7c1.043-4.748,4.823-6.9,8.443-4.813l131.531,75.9c3.62,2.09,5.709,7.635,4.666,12.383L519.454,230.06C518.411,234.809,514.63,236.964,511.01,234.874Z" transform="translate(-259.006 -36.535)" fill="#fff"/>
      <path id="路径_10022" data-name="路径 10022" d="M513.938,248.3l-19.117-2.525-123.4-71.248c-3.956-2.284-10.867-2-15.435.641l-87.444,50.467-11.559-1.527v6.559h.011c-.076,1.516.788,2.975,2.654,4.052L399.5,315.465c3.956,2.285,10.867,2,15.435-.64l95.23-54.963c2.571-1.484,3.851-3.4,3.776-5.191h0Z" transform="translate(-256.971 -38.731)" fill="#173d7a"/>
      <path id="路径_10023" data-name="路径 10023" d="M421.216,203.724l-8.768-5.062H316.057l-47.52,27.417-11.559-1.527v6.56h.011c-.076,1.516.788,2.975,2.654,4.052L399.5,315.909a14.472,14.472,0,0,0,7.966,1.493Z" transform="translate(-256.971 -39.175)" fill="#396caa"/>
      <path id="路径_10024" data-name="路径 10024" d="M262.107,225.686l-5.13-.678v6.559h.011c-.076,1.516.788,2.975,2.654,4.052l2.465,1.423Z" transform="translate(-256.971 -39.631)" fill="#5793ce"/>
      <path id="路径_10025" data-name="路径 10025" d="M403.439,318.368a17.913,17.913,0,0,0,13.115-.815V302.924H403.439Z" transform="translate(-259.506 -40.979)" fill="#274f89"/>
      <path id="路径_10026" data-name="路径 10026" d="M399.5,308.722,259.642,227.978c-3.956-2.285-3.46-6.275,1.108-8.912L355.98,164.1c4.569-2.637,11.479-2.924,15.435-.64L511.27,244.208c3.956,2.285,3.46,6.275-1.108,8.912l-95.23,54.962C410.363,310.72,403.453,311.007,399.5,308.722Z" transform="translate(-256.971 -38.539)" fill="#d4ecff"/>
      <g id="组_1305" data-name="组 1305" transform="translate(55.482 128.355)">
        <path id="路径_10027" data-name="路径 10027" d="M320.1,201.774l-6.328-3.654c-.508-.293-.444-.806.142-1.145l7.469-4.312a2.2,2.2,0,0,1,1.982-.082l6.328,3.653c.508.294.444.806-.142,1.145l-7.469,4.312A2.206,2.206,0,0,1,320.1,201.774Z" transform="translate(-313.43 -167.421)" fill="#173d7a"/>
        <path id="路径_10028" data-name="路径 10028" d="M330.046,207.515l-6.329-3.654c-.508-.293-.444-.806.143-1.144l7.469-4.313a2.2,2.2,0,0,1,1.982-.082l6.328,3.654c.508.293.444.8-.142,1.144l-7.469,4.312A2.2,2.2,0,0,1,330.046,207.515Z" transform="translate(-313.602 -167.52)" fill="#173d7a"/>
        <path id="路径_10029" data-name="路径 10029" d="M339.99,213.256l-6.328-3.654c-.509-.293-.445-.8.142-1.144l7.469-4.312a2.2,2.2,0,0,1,1.982-.083l6.328,3.654c.508.293.444.806-.142,1.144l-7.469,4.313A2.2,2.2,0,0,1,339.99,213.256Z" transform="translate(-313.774 -167.62)" fill="#173d7a"/>
        <path id="路径_10030" data-name="路径 10030" d="M353.743,208.527l-6.328-3.654c-.508-.293-.444-.806.143-1.144l6.27-3.62a2.2,2.2,0,0,1,1.982-.083l6.328,3.654c.508.294.444.806-.143,1.145l-6.27,3.619A2.2,2.2,0,0,1,353.743,208.527Z" transform="translate(-314.012 -167.55)" fill="#173d7a"/>
        <path id="路径_10031" data-name="路径 10031" d="M363.687,214.268l-6.328-3.654c-.508-.293-.444-.806.142-1.144l6.27-3.62a2.2,2.2,0,0,1,1.982-.082l6.328,3.653c.508.294.445.806-.141,1.145l-6.271,3.619A2.2,2.2,0,0,1,363.687,214.268Z" transform="translate(-314.184 -167.649)" fill="#173d7a"/>
        <path id="路径_10032" data-name="路径 10032" d="M373.631,220.009l-6.328-3.653c-.508-.294-.444-.806.142-1.145l6.27-3.62a2.2,2.2,0,0,1,1.982-.082l6.329,3.654c.508.293.444.8-.142,1.144l-6.27,3.62A2.2,2.2,0,0,1,373.631,220.009Z" transform="translate(-314.356 -167.748)" fill="#173d7a"/>
        <path id="路径_10033" data-name="路径 10033" d="M383.576,225.751l-6.329-3.654c-.508-.293-.444-.806.142-1.145l6.27-3.619a2.206,2.206,0,0,1,1.983-.083l6.328,3.654c.508.293.444.806-.142,1.144l-6.27,3.62A2.2,2.2,0,0,1,383.576,225.751Z" transform="translate(-314.529 -167.848)" fill="#173d7a"/>
        <path id="路径_10034" data-name="路径 10034" d="M393.52,231.492l-6.328-3.654c-.508-.293-.445-.806.141-1.144l6.271-3.62a2.2,2.2,0,0,1,1.982-.083l6.328,3.654c.508.294.444.806-.142,1.145l-6.27,3.619A2.2,2.2,0,0,1,393.52,231.492Z" transform="translate(-314.701 -167.947)" fill="#173d7a"/>
        <path id="路径_10035" data-name="路径 10035" d="M403.464,237.233l-6.328-3.654c-.508-.293-.444-.8.142-1.144l6.27-3.62a2.2,2.2,0,0,1,1.982-.082l6.328,3.653c.508.294.444.806-.142,1.145l-6.27,3.62A2.2,2.2,0,0,1,403.464,237.233Z" transform="translate(-314.873 -168.046)" fill="#173d7a"/>
        <path id="路径_10036" data-name="路径 10036" d="M413.408,242.975l-6.328-3.654c-.508-.294-.444-.806.142-1.145l6.27-3.619a2.2,2.2,0,0,1,1.982-.083l6.328,3.654c.508.293.445.806-.141,1.144l-6.271,3.62A2.2,2.2,0,0,1,413.408,242.975Z" transform="translate(-315.045 -168.146)" fill="#173d7a"/>
        <path id="路径_10037" data-name="路径 10037" d="M423.352,248.716l-6.328-3.654c-.508-.293-.444-.806.142-1.145l6.27-3.619a2.2,2.2,0,0,1,1.982-.083l6.329,3.654c.508.293.444.806-.142,1.145l-6.271,3.619A2.2,2.2,0,0,1,423.352,248.716Z" transform="translate(-315.217 -168.245)" fill="#173d7a"/>
        <path id="路径_10038" data-name="路径 10038" d="M433.3,254.457l-6.329-3.654c-.508-.293-.444-.806.142-1.144l6.27-3.62a2.2,2.2,0,0,1,1.982-.082l6.329,3.653c.508.294.444.806-.142,1.145l-6.27,3.619A2.2,2.2,0,0,1,433.3,254.457Z" transform="translate(-315.389 -168.345)" fill="#173d7a"/>
        <path id="路径_10039" data-name="路径 10039" d="M443.241,260.2l-6.329-3.653c-.508-.294-.444-.806.142-1.145l6.271-3.62a2.2,2.2,0,0,1,1.982-.082l6.328,3.653c.508.294.444.806-.142,1.145l-6.27,3.62A2.2,2.2,0,0,1,443.241,260.2Z" transform="translate(-315.561 -168.444)" fill="#173d7a"/>
        <path id="路径_10040" data-name="路径 10040" d="M368.395,205.809l-6.328-3.654c-.508-.294-.444-.806.142-1.145l6.27-3.619a2.2,2.2,0,0,1,1.982-.083l6.328,3.654c.508.293.445.806-.141,1.144l-6.271,3.62A2.2,2.2,0,0,1,368.395,205.809Z" transform="translate(-314.266 -167.503)" fill="#396caa"/>
        <path id="路径_10041" data-name="路径 10041" d="M358.3,199.982l-6.329-3.654c-.508-.293-.444-.806.142-1.144l6.27-3.62a2.206,2.206,0,0,1,1.983-.083l6.328,3.654c.508.293.444.806-.142,1.145l-6.27,3.619A2.2,2.2,0,0,1,358.3,199.982Z" transform="translate(-314.091 -167.402)" fill="#396caa"/>
        <path id="路径_10042" data-name="路径 10042" d="M348.065,194.071,334.436,186.2c-.508-.293-.444-.806.142-1.144l6.27-3.62a2.2,2.2,0,0,1,1.982-.083l13.629,7.868c.508.294.444.806-.142,1.145l-6.27,3.62A2.2,2.2,0,0,1,348.065,194.071Z" transform="translate(-313.788 -167.227)" fill="#173d7a"/>
        <path id="路径_10043" data-name="路径 10043" d="M355.176,187l-11.06-6.386c-.508-.293-.444-.8.142-1.144l6.27-3.62a2.2,2.2,0,0,1,1.982-.082l11.06,6.386c.508.293.444.8-.143,1.144l-6.27,3.62A2.2,2.2,0,0,1,355.176,187Z" transform="translate(-313.955 -167.13)" fill="#173d7a"/>
        <path id="路径_10044" data-name="路径 10044" d="M378.339,211.55l-6.328-3.654c-.508-.293-.444-.806.142-1.144l6.27-3.62a2.2,2.2,0,0,1,1.982-.083l6.329,3.654c.508.294.444.806-.142,1.145l-6.27,3.619A2.2,2.2,0,0,1,378.339,211.55Z" transform="translate(-314.438 -167.602)" fill="#396caa"/>
        <path id="路径_10045" data-name="路径 10045" d="M388.284,217.291l-6.329-3.653c-.508-.294-.444-.806.142-1.145l6.27-3.62a2.205,2.205,0,0,1,1.983-.082l6.328,3.653c.508.294.444.806-.142,1.145l-6.27,3.62A2.2,2.2,0,0,1,388.284,217.291Z" transform="translate(-314.61 -167.701)" fill="#173d7a"/>
        <path id="路径_10046" data-name="路径 10046" d="M398.228,223.032l-6.328-3.653c-.509-.294-.445-.806.142-1.145l6.271-3.619a2.2,2.2,0,0,1,1.982-.083l6.328,3.654c.508.293.444.806-.142,1.144l-6.27,3.62A2.2,2.2,0,0,1,398.228,223.032Z" transform="translate(-314.782 -167.801)" fill="#173d7a"/>
        <path id="路径_10047" data-name="路径 10047" d="M408.172,228.774l-6.328-3.654c-.508-.293-.444-.806.142-1.145l6.27-3.619a2.2,2.2,0,0,1,1.982-.083l6.328,3.654c.508.293.444.806-.143,1.145l-6.27,3.619A2.2,2.2,0,0,1,408.172,228.774Z" transform="translate(-314.954 -167.9)" fill="#173d7a"/>
        <path id="路径_10048" data-name="路径 10048" d="M418.116,234.515l-6.328-3.654c-.508-.293-.444-.806.142-1.144l6.27-3.62a2.2,2.2,0,0,1,1.982-.082l6.327,3.653c.508.294.445.806-.141,1.145l-6.271,3.62A2.2,2.2,0,0,1,418.116,234.515Z" transform="translate(-315.126 -167.999)" fill="#173d7a"/>
        <path id="路径_10049" data-name="路径 10049" d="M428.06,240.256l-6.328-3.653c-.508-.294-.444-.806.142-1.145l6.27-3.62a2.2,2.2,0,0,1,1.982-.082l6.329,3.654c.508.293.444.8-.142,1.144l-6.271,3.62A2.2,2.2,0,0,1,428.06,240.256Z" transform="translate(-315.298 -168.099)" fill="#173d7a"/>
        <path id="路径_10050" data-name="路径 10050" d="M438,246l-6.329-3.654c-.508-.294-.444-.806.142-1.145l6.27-3.619a2.2,2.2,0,0,1,1.982-.083l6.329,3.654c.508.293.444.806-.142,1.144l-6.27,3.62A2.2,2.2,0,0,1,438,246Z" transform="translate(-315.47 -168.198)" fill="#173d7a"/>
        <path id="路径_10051" data-name="路径 10051" d="M447.949,251.739l-6.329-3.654c-.508-.293-.444-.806.142-1.144l6.27-3.62a2.206,2.206,0,0,1,1.983-.083l6.328,3.654c.508.294.444.806-.142,1.145l-6.27,3.619A2.2,2.2,0,0,1,447.949,251.739Z" transform="translate(-315.642 -168.297)" fill="#173d7a"/>
        <path id="路径_10052" data-name="路径 10052" d="M457.893,257.48l-6.328-3.654c-.508-.293-.445-.8.141-1.144l6.271-3.62a2.2,2.2,0,0,1,1.982-.082l6.328,3.653c.508.294.444.806-.142,1.145l-6.27,3.62A2.2,2.2,0,0,1,457.893,257.48Z" transform="translate(-315.815 -168.397)" fill="#173d7a"/>
        <path id="路径_10053" data-name="路径 10053" d="M475.439,267.611l-13.807-7.972c-.508-.293-.444-.806.142-1.144l6.271-3.62a2.2,2.2,0,0,1,1.982-.083l13.807,7.972c.508.294.444.806-.143,1.145l-6.27,3.619A2.206,2.206,0,0,1,475.439,267.611Z" transform="translate(-315.989 -168.497)" fill="#173d7a"/>
        <path id="路径_10054" data-name="路径 10054" d="M494.837,256.455l-11.653-6.728c-.508-.294-.444-.806.142-1.145l6.27-3.62a2.2,2.2,0,0,1,1.982-.082l11.654,6.728c.508.294.444.806-.142,1.145l-6.27,3.62A2.205,2.205,0,0,1,494.837,256.455Z" transform="translate(-316.362 -168.326)" fill="#173d7a"/>
        <path id="路径_10055" data-name="路径 10055" d="M395.753,210.427l-6.328-3.654c-.508-.294-.445-.806.141-1.145l6.271-3.619a2.2,2.2,0,0,1,1.982-.083l6.328,3.654c.508.293.444.806-.142,1.144l-6.27,3.62A2.2,2.2,0,0,1,395.753,210.427Z" transform="translate(-314.739 -167.583)" fill="#173d7a"/>
        <path id="路径_10056" data-name="路径 10056" d="M385.562,204.543l-6.328-3.654c-.508-.294-.444-.806.143-1.145l6.27-3.619a2.2,2.2,0,0,1,1.982-.083l6.328,3.654c.508.293.445.806-.141,1.144l-6.271,3.62A2.2,2.2,0,0,1,385.562,204.543Z" transform="translate(-314.563 -167.481)" fill="#173d7a"/>
        <path id="路径_10057" data-name="路径 10057" d="M375.371,198.658l-6.329-3.653c-.508-.294-.444-.806.142-1.145l6.271-3.619a2.2,2.2,0,0,1,1.982-.083l6.328,3.654c.508.293.444.806-.142,1.144l-6.27,3.62A2.2,2.2,0,0,1,375.371,198.658Z" transform="translate(-314.387 -167.379)" fill="#396caa"/>
        <path id="路径_10058" data-name="路径 10058" d="M365.179,192.774l-6.328-3.653c-.508-.294-.444-.806.143-1.145l6.27-3.62a2.2,2.2,0,0,1,1.982-.082l6.328,3.654c.508.293.445.8-.142,1.144l-6.271,3.62A2.2,2.2,0,0,1,365.179,192.774Z" transform="translate(-314.21 -167.277)" fill="#173d7a"/>
        <path id="路径_10059" data-name="路径 10059" d="M405.7,216.168l-6.328-3.654c-.508-.293-.444-.806.142-1.144l6.27-3.62a2.2,2.2,0,0,1,1.982-.083l6.328,3.654c.508.294.444.806-.143,1.145l-6.27,3.619A2.2,2.2,0,0,1,405.7,216.168Z" transform="translate(-314.911 -167.682)" fill="#173d7a"/>
        <path id="路径_10060" data-name="路径 10060" d="M415.642,221.909l-6.328-3.654c-.508-.293-.444-.8.142-1.144l6.27-3.62a2.2,2.2,0,0,1,1.982-.082l6.328,3.653c.508.294.445.806-.142,1.145l-6.271,3.62A2.2,2.2,0,0,1,415.642,221.909Z" transform="translate(-315.083 -167.781)" fill="#173d7a"/>
        <path id="路径_10061" data-name="路径 10061" d="M425.586,227.651,419.258,224c-.508-.294-.444-.806.142-1.145l6.27-3.619a2.2,2.2,0,0,1,1.982-.083l6.329,3.654c.508.293.444.806-.142,1.144l-6.271,3.62A2.2,2.2,0,0,1,425.586,227.651Z" transform="translate(-315.255 -167.881)" fill="#173d7a"/>
        <path id="路径_10062" data-name="路径 10062" d="M435.531,233.392l-6.329-3.654c-.508-.293-.444-.806.142-1.144l6.27-3.62a2.2,2.2,0,0,1,1.982-.083l6.329,3.654c.508.293.444.806-.142,1.145l-6.27,3.619A2.2,2.2,0,0,1,435.531,233.392Z" transform="translate(-315.428 -167.98)" fill="#173d7a"/>
        <path id="路径_10063" data-name="路径 10063" d="M445.475,239.133l-6.329-3.654c-.508-.293-.444-.806.142-1.144l6.271-3.62a2.2,2.2,0,0,1,1.982-.082l6.328,3.653c.508.294.444.806-.142,1.145l-6.27,3.619A2.2,2.2,0,0,1,445.475,239.133Z" transform="translate(-315.6 -168.079)" fill="#173d7a"/>
        <path id="路径_10064" data-name="路径 10064" d="M455.419,244.874l-6.328-3.653c-.508-.294-.445-.806.142-1.145l6.271-3.62a2.2,2.2,0,0,1,1.982-.082l6.328,3.653c.508.294.444.806-.142,1.145l-6.27,3.62A2.2,2.2,0,0,1,455.419,244.874Z" transform="translate(-315.772 -168.179)" fill="#173d7a"/>
        <path id="路径_10065" data-name="路径 10065" d="M465.363,250.616l-6.328-3.654c-.508-.294-.444-.806.143-1.145l6.27-3.619a2.2,2.2,0,0,1,1.982-.083l6.328,3.654c.508.293.444.806-.142,1.144l-6.27,3.62A2.2,2.2,0,0,1,465.363,250.616Z" transform="translate(-315.944 -168.278)" fill="#173d7a"/>
        <path id="路径_10066" data-name="路径 10066" d="M475.307,256.357l-6.328-3.654c-.508-.293-.444-.806.142-1.144l6.27-3.62a2.2,2.2,0,0,1,1.982-.083l6.328,3.654c.508.294.445.806-.142,1.145l-6.271,3.619A2.2,2.2,0,0,1,475.307,256.357Z" transform="translate(-316.116 -168.377)" fill="#173d7a"/>
        <path id="路径_10067" data-name="路径 10067" d="M485.251,262.1l-6.328-3.654c-.508-.293-.444-.806.143-1.144l6.27-3.62a2.2,2.2,0,0,1,1.982-.082l6.329,3.653c.508.294.444.806-.142,1.145l-6.27,3.619A2.2,2.2,0,0,1,485.251,262.1Z" transform="translate(-316.288 -168.477)" fill="#173d7a"/>
        <path id="路径_10068" data-name="路径 10068" d="M390.518,196.226l-6.329-3.654c-.508-.293-.444-.806.142-1.144l6.27-3.62a2.2,2.2,0,0,1,1.982-.083l6.329,3.654c.508.294.444.806-.142,1.145l-6.27,3.619A2.2,2.2,0,0,1,390.518,196.226Z" transform="translate(-314.649 -167.337)" fill="#173d7a"/>
        <path id="路径_10069" data-name="路径 10069" d="M380.623,190.513l-6.328-3.653c-.508-.294-.445-.806.141-1.145l6.271-3.62a2.2,2.2,0,0,1,1.982-.082l6.328,3.653c.508.294.444.806-.143,1.145l-6.27,3.62A2.2,2.2,0,0,1,380.623,190.513Z" transform="translate(-314.477 -167.238)" fill="#173d7a"/>
        <path id="路径_10070" data-name="路径 10070" d="M370.728,184.8l-6.328-3.653c-.508-.294-.444-.806.142-1.145l6.27-3.619a2.2,2.2,0,0,1,1.982-.083l6.328,3.654c.508.293.445.806-.141,1.144l-6.271,3.62A2.2,2.2,0,0,1,370.728,184.8Z" transform="translate(-314.306 -167.139)" fill="#173d7a"/>
        <path id="路径_10071" data-name="路径 10071" d="M360.833,179.088l-6.328-3.654c-.508-.293-.444-.806.142-1.144l6.27-3.62a2.2,2.2,0,0,1,1.982-.083l6.329,3.654c.508.294.444.806-.143,1.145l-6.27,3.619A2.206,2.206,0,0,1,360.833,179.088Z" transform="translate(-314.135 -167.04)" fill="#173d7a"/>
        <path id="路径_10072" data-name="路径 10072" d="M371.008,173.256,364.68,169.6c-.508-.294-.444-.806.142-1.145l2.073-1.2a2.2,2.2,0,0,1,1.982-.082l6.328,3.653c.508.294.444.806-.142,1.145l-2.073,1.2A2.2,2.2,0,0,1,371.008,173.256Z" transform="translate(-314.311 -166.981)" fill="#173d7a"/>
        <path id="路径_10073" data-name="路径 10073" d="M383.921,180.712l-6.328-3.654c-.508-.294-.445-.806.141-1.145l2.073-1.2a2.2,2.2,0,0,1,1.982-.082l6.328,3.654c.508.293.444.8-.142,1.144l-2.073,1.2A2.2,2.2,0,0,1,383.921,180.712Z" transform="translate(-314.534 -167.11)" fill="#173d7a"/>
        <path id="路径_10074" data-name="路径 10074" d="M393.774,186.4l-6.328-3.653c-.508-.294-.444-.806.142-1.145l2.073-1.2a2.2,2.2,0,0,1,1.982-.082l6.328,3.653c.508.294.445.806-.141,1.145l-2.074,1.2A2.2,2.2,0,0,1,393.774,186.4Z" transform="translate(-314.705 -167.209)" fill="#173d7a"/>
        <path id="路径_10075" data-name="路径 10075" d="M403.628,192.089l-6.328-3.653c-.509-.294-.445-.806.142-1.145l2.072-1.2a2.205,2.205,0,0,1,1.983-.082l6.328,3.653c.508.294.444.806-.142,1.145l-2.073,1.2A2.2,2.2,0,0,1,403.628,192.089Z" transform="translate(-314.876 -167.307)" fill="#173d7a"/>
        <path id="路径_10076" data-name="路径 10076" d="M413.481,197.778l-6.328-3.653c-.508-.294-.444-.806.142-1.145l2.073-1.2a2.2,2.2,0,0,1,1.982-.082l6.328,3.653c.508.294.445.806-.142,1.145l-2.074,1.2A2.2,2.2,0,0,1,413.481,197.778Z" transform="translate(-315.046 -167.406)" fill="#173d7a"/>
        <path id="路径_10077" data-name="路径 10077" d="M468.492,229.538l-6.329-3.654c-.508-.294-.444-.806.142-1.145l2.073-1.2a2.2,2.2,0,0,1,1.983-.083l6.328,3.654c.508.293.444.806-.142,1.144l-2.072,1.2A2.2,2.2,0,0,1,468.492,229.538Z" transform="translate(-315.998 -167.955)" fill="#173d7a"/>
        <path id="路径_10078" data-name="路径 10078" d="M478.345,235.227l-6.328-3.653c-.508-.294-.444-.806.142-1.145l2.073-1.2a2.2,2.2,0,0,1,1.982-.082l6.328,3.653c.508.294.444.806-.143,1.145l-2.073,1.2A2.2,2.2,0,0,1,478.345,235.227Z" transform="translate(-316.169 -168.054)" fill="#173d7a"/>
        <path id="路径_10079" data-name="路径 10079" d="M488.2,240.916l-6.329-3.653c-.508-.294-.444-.806.143-1.145l2.072-1.2a2.2,2.2,0,0,1,1.982-.082l6.329,3.653c.508.294.444.806-.142,1.145l-2.073,1.2A2.2,2.2,0,0,1,488.2,240.916Z" transform="translate(-316.339 -168.152)" fill="#173d7a"/>
        <path id="路径_10080" data-name="路径 10080" d="M498.052,246.6l-6.328-3.653c-.508-.294-.444-.806.142-1.145l2.073-1.2a2.2,2.2,0,0,1,1.982-.082l6.328,3.653c.508.294.444.806-.142,1.145l-2.073,1.2A2.2,2.2,0,0,1,498.052,246.6Z" transform="translate(-316.51 -168.251)" fill="#173d7a"/>
        <path id="路径_10081" data-name="路径 10081" d="M400.462,201.967l-6.329-3.653c-.508-.294-.444-.806.142-1.145l6.271-3.62a2.2,2.2,0,0,1,1.982-.082l6.328,3.653c.508.294.444.806-.142,1.145l-6.27,3.62A2.2,2.2,0,0,1,400.462,201.967Z" transform="translate(-314.821 -167.436)" fill="#173d7a"/>
        <path id="路径_10082" data-name="路径 10082" d="M410.406,207.708l-6.328-3.653c-.508-.294-.444-.806.142-1.145l6.27-3.619a2.2,2.2,0,0,1,1.982-.083l6.328,3.654c.508.293.444.806-.142,1.144l-6.27,3.62A2.2,2.2,0,0,1,410.406,207.708Z" transform="translate(-314.993 -167.536)" fill="#173d7a"/>
        <path id="路径_10083" data-name="路径 10083" d="M420.35,213.45l-6.328-3.654c-.508-.293-.444-.806.142-1.145l6.27-3.619a2.2,2.2,0,0,1,1.982-.083l6.328,3.654c.508.293.444.806-.143,1.145l-6.27,3.619A2.2,2.2,0,0,1,420.35,213.45Z" transform="translate(-315.165 -167.635)" fill="#173d7a"/>
        <path id="路径_10084" data-name="路径 10084" d="M430.294,219.191l-6.328-3.654c-.508-.293-.444-.8.143-1.144l6.27-3.62a2.2,2.2,0,0,1,1.982-.083l6.328,3.654c.509.294.445.806-.141,1.145l-6.271,3.62A2.2,2.2,0,0,1,430.294,219.191Z" transform="translate(-315.337 -167.734)" fill="#173d7a"/>
        <path id="路径_10085" data-name="路径 10085" d="M440.238,224.932l-6.328-3.653c-.508-.294-.444-.806.142-1.145l6.27-3.62a2.2,2.2,0,0,1,1.982-.082l6.329,3.654c.508.293.444.8-.143,1.144l-6.27,3.62A2.205,2.205,0,0,1,440.238,224.932Z" transform="translate(-315.509 -167.834)" fill="#173d7a"/>
        <path id="路径_10086" data-name="路径 10086" d="M450.183,230.674l-6.329-3.654c-.508-.294-.444-.806.143-1.145l6.27-3.619a2.206,2.206,0,0,1,1.983-.083l6.328,3.654c.508.293.444.806-.143,1.144l-6.27,3.62A2.2,2.2,0,0,1,450.183,230.674Z" transform="translate(-315.681 -167.933)" fill="#173d7a"/>
        <path id="路径_10087" data-name="路径 10087" d="M460.127,236.415l-6.328-3.654c-.508-.293-.445-.806.142-1.144l6.271-3.62a2.2,2.2,0,0,1,1.982-.083l6.328,3.654c.508.294.444.806-.142,1.145l-6.27,3.619A2.2,2.2,0,0,1,460.127,236.415Z" transform="translate(-315.853 -168.032)" fill="#173d7a"/>
        <path id="路径_10088" data-name="路径 10088" d="M470.07,242.156l-6.328-3.653c-.508-.294-.444-.806.143-1.145l6.27-3.62a2.2,2.2,0,0,1,1.982-.082l6.328,3.653c.508.294.444.806-.143,1.145l-6.27,3.62A2.2,2.2,0,0,1,470.07,242.156Z" transform="translate(-316.025 -168.132)" fill="#173d7a"/>
        <path id="路径_10089" data-name="路径 10089" d="M480.015,247.9l-6.328-3.653c-.508-.294-.444-.806.143-1.145l6.27-3.619a2.2,2.2,0,0,1,1.982-.083l6.328,3.654c.508.293.445.806-.142,1.144L482,247.815A2.2,2.2,0,0,1,480.015,247.9Z" transform="translate(-316.197 -168.231)" fill="#173d7a"/>
        <path id="路径_10090" data-name="路径 10090" d="M343.392,202.551l-18.636-10.76c-.508-.293-.444-.806.143-1.144l6.27-3.62a2.2,2.2,0,0,1,1.982-.083l18.636,10.76c.508.294.445.806-.142,1.145l-6.271,3.62A2.2,2.2,0,0,1,343.392,202.551Z" transform="translate(-313.62 -167.323)" fill="#173d7a"/>
        <path id="路径_10091" data-name="路径 10091" d="M465.559,273.084l-18.636-10.76c-.508-.294-.445-.806.142-1.145l6.271-3.619a2.2,2.2,0,0,1,1.982-.083l18.636,10.759c.508.294.444.806-.142,1.145L467.541,273A2.2,2.2,0,0,1,465.559,273.084Z" transform="translate(-315.734 -168.544)" fill="#173d7a"/>
        <path id="路径_10092" data-name="路径 10092" d="M426.008,262.919l-6.328-3.654c-.509-.293-.445-.806.142-1.145l7.469-4.312a2.2,2.2,0,0,1,1.982-.082l6.328,3.653c.508.294.444.806-.142,1.145l-7.468,4.312A2.2,2.2,0,0,1,426.008,262.919Z" transform="translate(-315.263 -168.479)" fill="#173d7a"/>
        <path id="路径_10093" data-name="路径 10093" d="M353.726,221.186l-10.12-5.842c-.508-.294-.444-.806.142-1.145l7.468-4.312a2.2,2.2,0,0,1,1.982-.083l10.12,5.843c.508.294.445.806-.142,1.145l-7.469,4.312A2.2,2.2,0,0,1,353.726,221.186Z" transform="translate(-313.946 -167.719)" fill="#173d7a"/>
        <path id="路径_10094" data-name="路径 10094" d="M416.359,257.348l-10.12-5.843c-.508-.293-.444-.806.143-1.144l7.469-4.312a2.2,2.2,0,0,1,1.982-.083l10.12,5.842c.508.294.444.806-.142,1.145l-7.469,4.312A2.206,2.206,0,0,1,416.359,257.348Z" transform="translate(-315.03 -168.345)" fill="#173d7a"/>
        <path id="路径_10095" data-name="路径 10095" d="M368.073,229.47l-10.12-5.843c-.508-.293-.444-.806.142-1.144l7.469-4.313a2.205,2.205,0,0,1,1.983-.082l10.12,5.843c.508.293.444.8-.142,1.144l-7.469,4.312A2.2,2.2,0,0,1,368.073,229.47Z" transform="translate(-314.195 -167.862)" fill="#173d7a"/>
        <path id="路径_10096" data-name="路径 10096" d="M367.622,218.132l44,25.4a.6.6,0,0,1,0,1.142l-7.617,4.4a2.19,2.19,0,0,1-1.977,0l-44-25.4Z" transform="translate(-314.202 -167.866)" fill="#173d7a"/>
        <path id="路径_10097" data-name="路径 10097" d="M453.828,273.49l7.049,4.069c.417.241.364.661-.117.938l-3.055,1.764a1.806,1.806,0,0,1-1.624.068l-7.049-4.07c-.417-.24-.365-.66.117-.937l3.055-1.764A1.805,1.805,0,0,1,453.828,273.49Z" transform="translate(-315.772 -168.822)" fill="#173d7a"/>
        <path id="路径_10098" data-name="路径 10098" d="M443.8,267.7l7.048,4.07c.417.24.365.66-.116.937l-3.056,1.764a1.806,1.806,0,0,1-1.624.068L439,270.471c-.417-.241-.364-.66.117-.938l3.055-1.764A1.808,1.808,0,0,1,443.8,267.7Z" transform="translate(-315.598 -168.721)" fill="#173d7a"/>
        <path id="路径_10099" data-name="路径 10099" d="M433.857,261.96l7.049,4.069c.417.241.365.66-.117.939l-3.055,1.764a1.806,1.806,0,0,1-1.624.068l-7.049-4.07c-.417-.24-.365-.66.117-.937l3.055-1.764A1.8,1.8,0,0,1,433.857,261.96Z" transform="translate(-315.426 -168.622)" fill="#173d7a"/>
        <path id="路径_10100" data-name="路径 10100" d="M449.293,264.531l7.049,4.069c.416.241.364.66-.117.939l-3.055,1.764a1.808,1.808,0,0,1-1.625.067L444.5,267.3c-.417-.24-.365-.66.116-.937l3.056-1.764A1.8,1.8,0,0,1,449.293,264.531Z" transform="translate(-315.693 -168.667)" fill="#173d7a"/>
      </g>
    </g>
    <path id="路径_10101" data-name="路径 10101" d="M529.074,113.052,483.758,86.889,442.865,69.065l-7.811,32.688s-11.119,40.216,27.464,87.436c49.06,3.38,57.529-38.365,57.529-38.365Z" transform="translate(-3.634 -0.687)" fill="#d4ecff"/>
    <g id="组_1307" data-name="组 1307" transform="translate(437.86 68.379)">
      <path id="路径_10102" data-name="路径 10102" d="M517.565,106.33l11.646,6.724,5.307-1.844L518.6,102.017,443,69.066l-1.369,5.728Z" transform="translate(-441.634 -69.066)" fill="#173d7a"/>
      <path id="路径_10103" data-name="路径 10103" d="M530.527,113.71l-11.646-6.724-1.21,5.065,11.647,6.721Z" transform="translate(-442.95 -69.722)" fill="#396caa"/>
    </g>
    <g id="组_1309" data-name="组 1309" transform="translate(382.41 67.475)">
      <g id="组_1308" data-name="组 1308" transform="translate(8.72 7.089)" opacity="0.5">
        <path id="路径_10104" data-name="路径 10104" d="M432.035,88.514l-8.5-4.9a2.428,2.428,0,0,1-1.036-2.516h0a1.181,1.181,0,0,1,1.817-.868l8.5,4.9a2.43,2.43,0,0,1,1.037,2.516h0A1.182,1.182,0,0,1,432.035,88.514Z" transform="translate(-394.572 -75.441)" fill="#d4ecff"/>
        <path id="路径_10105" data-name="路径 10105" d="M452.556,100.362,440.03,93.13a2.432,2.432,0,0,1-1.037-2.516h0a1.183,1.183,0,0,1,1.818-.869l12.525,7.233a2.429,2.429,0,0,1,1.037,2.516h0A1.181,1.181,0,0,1,452.556,100.362Z" transform="translate(-394.858 -75.606)" fill="#d4ecff"/>
        <path id="路径_10106" data-name="路径 10106" d="M416.966,128.866l-8.494-4.906a2.428,2.428,0,0,1-1.037-2.515h0a1.181,1.181,0,0,1,1.817-.868l8.5,4.9A2.43,2.43,0,0,1,418.784,128h0A1.183,1.183,0,0,1,416.966,128.866Z" transform="translate(-394.312 -76.139)" fill="#d4ecff"/>
        <path id="路径_10107" data-name="路径 10107" d="M435.251,139.422l-12.526-7.232a2.43,2.43,0,0,1-1.037-2.516h0a1.182,1.182,0,0,1,1.818-.868l12.526,7.232a2.432,2.432,0,0,1,1.037,2.516h0A1.182,1.182,0,0,1,435.251,139.422Z" transform="translate(-394.558 -76.282)" fill="#d4ecff"/>
        <path id="路径_10108" data-name="路径 10108" d="M406.59,82l-5.307-3.064a2.429,2.429,0,0,1-1.037-2.516h0a1.181,1.181,0,0,1,1.817-.868l5.308,3.064a2.428,2.428,0,0,1,1.036,2.516h0A1.182,1.182,0,0,1,406.59,82Z" transform="translate(-394.187 -75.36)" fill="#d4ecff"/>
        <path id="路径_10109" data-name="路径 10109" d="M423.041,99.672,406.828,90.31a2.429,2.429,0,0,1-1.037-2.516h0a1.182,1.182,0,0,1,1.817-.868l16.215,9.362a2.43,2.43,0,0,1,1.037,2.516h0A1.183,1.183,0,0,1,423.041,99.672Z" transform="translate(-394.283 -75.557)" fill="#d4ecff"/>
        <path id="路径_10110" data-name="路径 10110" d="M408.8,107.8l-5.307-3.064a2.43,2.43,0,0,1-1.037-2.516h0a1.182,1.182,0,0,1,1.818-.868l5.307,3.064a2.429,2.429,0,0,1,1.037,2.516h0A1.182,1.182,0,0,1,408.8,107.8Z" transform="translate(-394.226 -75.807)" fill="#d4ecff"/>
        <path id="路径_10111" data-name="路径 10111" d="M438,157.36l-14.173-8.184a2.428,2.428,0,0,1-1.037-2.515h0a1.181,1.181,0,0,1,1.817-.868l14.174,8.183a2.43,2.43,0,0,1,1.037,2.516h0A1.182,1.182,0,0,1,438,157.36Z" transform="translate(-394.577 -76.576)" fill="#d4ecff"/>
        <path id="路径_10112" data-name="路径 10112" d="M403.573,121.132l-3.406-1.966a2.43,2.43,0,0,1-1.037-2.516h0a1.182,1.182,0,0,1,1.818-.868l3.406,1.966a2.43,2.43,0,0,1,1.037,2.516h0A1.182,1.182,0,0,1,403.573,121.132Z" transform="translate(-394.168 -76.056)" fill="#d4ecff"/>
        <path id="路径_10113" data-name="路径 10113" d="M401.066,136.036l-4.231-2.442a2.43,2.43,0,0,1-1.036-2.517h0a1.182,1.182,0,0,1,1.817-.868l4.231,2.443a2.43,2.43,0,0,1,1.037,2.516h0A1.182,1.182,0,0,1,401.066,136.036Z" transform="translate(-394.11 -76.306)" fill="#d4ecff"/>
        <path id="路径_10114" data-name="路径 10114" d="M417.691,145.635l-11.153-6.44a2.429,2.429,0,0,1-1.037-2.516h0a1.181,1.181,0,0,1,1.817-.868l11.154,6.44a2.428,2.428,0,0,1,1.036,2.516h0A1.182,1.182,0,0,1,417.691,145.635Z" transform="translate(-394.278 -76.403)" fill="#d4ecff"/>
        <path id="路径_10115" data-name="路径 10115" d="M403.19,145.438l-8.019-4.63a2.43,2.43,0,0,1-1.037-2.516h0a1.183,1.183,0,0,1,1.818-.868l8.019,4.63a2.43,2.43,0,0,1,1.037,2.516h0A1.183,1.183,0,0,1,403.19,145.438Z" transform="translate(-394.081 -76.431)" fill="#d4ecff"/>
        <path id="路径_10116" data-name="路径 10116" d="M450.535,164.633l-5.149-2.974a2.43,2.43,0,0,1-1.037-2.516h0a1.182,1.182,0,0,1,1.818-.868l5.149,2.974a2.43,2.43,0,0,1,1.037,2.516h0A1.182,1.182,0,0,1,450.535,164.633Z" transform="translate(-394.95 -76.792)" fill="#d4ecff"/>
        <path id="路径_10117" data-name="路径 10117" d="M428.735,119.31l-14.173-8.184a2.429,2.429,0,0,1-1.037-2.516h0a1.182,1.182,0,0,1,1.818-.868l14.173,8.184a2.43,2.43,0,0,1,1.037,2.516h0A1.182,1.182,0,0,1,428.735,119.31Z" transform="translate(-394.417 -75.917)" fill="#d4ecff"/>
      </g>
      <path id="路径_10118" data-name="路径 10118" d="M429.866,111.787l-24.7-14.263a2.428,2.428,0,0,1-1.036-2.516h0a1.182,1.182,0,0,1,1.817-.868l24.7,14.263a2.43,2.43,0,0,1,1.037,2.516h0A1.182,1.182,0,0,1,429.866,111.787Z" transform="translate(-385.534 -68.593)" fill="#d4ecff"/>
      <path id="路径_10119" data-name="路径 10119" d="M416.006,120.135l-14.174-8.183a2.43,2.43,0,0,1-1.037-2.516h0a1.182,1.182,0,0,1,1.818-.868l14.173,8.183a2.43,2.43,0,0,1,1.037,2.516h0A1.181,1.181,0,0,1,416.006,120.135Z" transform="translate(-385.476 -68.843)" fill="#d4ecff"/>
      <path id="路径_10120" data-name="路径 10120" d="M439.834,125.718l-5.149-2.974a2.429,2.429,0,0,1-1.037-2.516h0a1.182,1.182,0,0,1,1.817-.868l5.15,2.974a2.43,2.43,0,0,1,1.037,2.516h0A1.182,1.182,0,0,1,439.834,125.718Z" transform="translate(-386.045 -69.029)" fill="#d4ecff"/>
      <path id="路径_10121" data-name="路径 10121" d="M491.118,122.626l-30.5-17.608a2.429,2.429,0,0,1-1.037-2.516h0a1.182,1.182,0,0,1,1.817-.868l30.5,17.608a2.43,2.43,0,0,1,1.037,2.516h0A1.182,1.182,0,0,1,491.118,122.626Z" transform="translate(-386.494 -68.723)" fill="#d4ecff"/>
      <path id="路径_10122" data-name="路径 10122" d="M415.54,136.217,398.5,126.38a2.43,2.43,0,0,1-1.037-2.516h0a1.181,1.181,0,0,1,1.817-.868l17.039,9.837a2.428,2.428,0,0,1,1.036,2.516h0A1.181,1.181,0,0,1,415.54,136.217Z" transform="translate(-385.419 -69.092)" fill="#d4ecff"/>
      <path id="路径_10123" data-name="路径 10123" d="M415.474,78.953,402.949,71.72a2.429,2.429,0,0,1-1.037-2.516h0a1.182,1.182,0,0,1,1.818-.868l12.525,7.233a2.429,2.429,0,0,1,1.037,2.516h0A1.182,1.182,0,0,1,415.474,78.953Z" transform="translate(-385.496 -68.146)" fill="#d4ecff"/>
      <path id="路径_10124" data-name="路径 10124" d="M400.8,152.235,386.3,143.859a2.43,2.43,0,0,1-1.037-2.516h0a1.182,1.182,0,0,1,1.818-.868l14.508,8.377a2.429,2.429,0,0,1,1.037,2.515h0A1.182,1.182,0,0,1,400.8,152.235Z" transform="translate(-385.207 -69.395)" fill="#d4ecff"/>
    </g>
    <g id="组_1310" data-name="组 1310" transform="translate(412.493 29.375)">
      <path id="路径_10125" data-name="路径 10125" d="M500.3,61.6a207.8,207.8,0,0,0-36.684-21.179L438.767,29.375l-7.962,3.1s3.494,1.868,6.4,3.427l-11.8,49.366s-11.118,40.216,27.465,87.436a68.628,68.628,0,0,0,19.544-1.26c-.117.463-.2.781-.2.781l7.165-2.8q1-.367,1.957-.767l.15-.059h-.01c24-10.056,28.918-34.257,28.918-34.257L523.76,78.446Z" transform="translate(-415.961 -29.375)" fill="#0062d1"/>
      <path id="路径_10126" data-name="路径 10126" d="M463.735,40.421,438.888,29.375l-7.962,3.1s3.495,1.868,6.4,3.427l-4.281,17.913,44.294,28.8,38.579-1.07,7.962-3.1L500.419,61.6A207.8,207.8,0,0,0,463.735,40.421Z" transform="translate(-416.082 -29.375)" fill="#9bcaff"/>
      <path id="路径_10127" data-name="路径 10127" d="M475.448,53.638l8.011-3.059a199.163,199.163,0,0,0-19.724-10.157L438.888,29.375l-7.962,3.1s3.495,1.868,6.4,3.427l-.253,1.058C452.573,43.753,475.448,53.638,475.448,53.638Z" transform="translate(-416.082 -29.375)" fill="#9bcaff"/>
      <path id="路径_10128" data-name="路径 10128" d="M477.7,47.332,462.78,52.921l12.493,7.213,14.805-5.546Q483.949,50.715,477.7,47.332Z" transform="translate(-416.633 -29.686)" fill="#0062d1"/>
      <path id="路径_10129" data-name="路径 10129" d="M502.3,137.5,515.658,81.6,492.2,64.757a207.823,207.823,0,0,0-36.683-21.179L430.665,32.531,417.307,88.425s-11.118,40.216,27.465,87.436C493.832,179.241,502.3,137.5,502.3,137.5Z" transform="translate(-415.821 -29.43)" fill="#1f8aff"/>
      <path id="路径_10130" data-name="路径 10130" d="M447.993,169.939c-17.432-22.133-23.254-42.283-25.043-55.455-2-14.721.454-24.178.471-24.245l11.67-48.817,18,8a201.9,201.9,0,0,1,35.58,20.547l20.066,14.406L496.352,136.2l-.046.209a46.5,46.5,0,0,1-9.069,17.727C478.117,165.209,464.917,170.519,447.993,169.939Z" transform="translate(-415.93 -29.583)" fill="#0062d1"/>
      <path id="路径_10356" data-name="路径 10356" d="M6.237-5.841l-1.784-18.5a4.073,4.073,0,0,1,3.711-2.969,4.085,4.085,0,0,1,3.859,2.82l9.8,12.268L16.625-9.5l4.453-14.992a4.061,4.061,0,0,1,3.711-2.82,4.364,4.364,0,0,1,3.859,2.969l8.76,18.5a1.318,1.318,0,0,1,.148.594,2.549,2.549,0,0,1-2.82,2.523q-2.672,0-2.969-2.375L24.2-17.961,24.94-4.654a3,3,0,0,1-3.117,1.93,2.738,2.738,0,0,1-2.969-1.93L8.906-17.961,12.026-5.1A2.686,2.686,0,0,1,9.057-2.724q-2.82,0-2.82-2.523Z" transform="matrix(0.891, 0.454, -0.454, 0.891, 21.325, 82.327)" fill="#9bcaff"/>
    </g>
    <g id="组_1311" data-name="组 1311" transform="translate(447.258 100.784)">
      <path id="路径_10131" data-name="路径 10131" d="M463.642,110.494a2.871,2.871,0,0,0,1.172,3.258,1.733,1.733,0,0,0,2.588-1.086,2.87,2.87,0,0,0-1.172-3.258A1.733,1.733,0,0,0,463.642,110.494Z" transform="translate(-451.41 -102.165)" fill="none"/>
      <path id="路径_10132" data-name="路径 10132" d="M457.484,106.939a2.871,2.871,0,0,0,1.172,3.258,1.734,1.734,0,0,0,2.589-1.086,2.871,2.871,0,0,0-1.172-3.258A1.734,1.734,0,0,0,457.484,106.939Z" transform="translate(-451.304 -102.103)" fill="none"/>
      <path id="路径_10133" data-name="路径 10133" d="M451.327,103.384a2.87,2.87,0,0,0,1.172,3.258,1.734,1.734,0,0,0,2.589-1.086,2.871,2.871,0,0,0-1.173-3.258A1.733,1.733,0,0,0,451.327,103.384Z" transform="translate(-451.197 -102.042)" fill="none"/>
    </g>
    <g id="组_1312" data-name="组 1312" transform="translate(494.822 198.376)">
      <path id="路径_10134" data-name="路径 10134" d="M512.043,209.8a2.871,2.871,0,0,0,1.172,3.258,1.734,1.734,0,0,0,2.589-1.086,2.871,2.871,0,0,0-1.172-3.258A1.734,1.734,0,0,0,512.043,209.8Z" transform="translate(-499.812 -201.475)" fill="#d4ecff"/>
      <path id="路径_10135" data-name="路径 10135" d="M505.886,206.249a2.87,2.87,0,0,0,1.172,3.258,1.734,1.734,0,0,0,2.589-1.086,2.871,2.871,0,0,0-1.173-3.258A1.733,1.733,0,0,0,505.886,206.249Z" transform="translate(-499.706 -201.414)" fill="#d4ecff"/>
      <path id="路径_10136" data-name="路径 10136" d="M499.729,202.694a2.87,2.87,0,0,0,1.172,3.258,1.733,1.733,0,0,0,2.588-1.086,2.869,2.869,0,0,0-1.172-3.257A1.732,1.732,0,0,0,499.729,202.694Z" transform="translate(-499.599 -201.352)" fill="#d4ecff"/>
    </g>
    <g id="组_1316" data-name="组 1316" transform="translate(223.549 191.529)">
      <ellipse id="椭圆_425" data-name="椭圆 425" cx="16.648" cy="9.612" rx="16.648" ry="9.612" transform="translate(3.459 119.36)" fill="#c4d9e8" opacity="0.5"/>
      <g id="组_1315" data-name="组 1315">
        <path id="路径_10137" data-name="路径 10137" d="M234.294,205.394s.434,8.952,1.115,14.969,15.172-4.621,15.172-4.621v-6.851Z" transform="translate(-223.734 -194.575)" fill="#042e7a"/>
        <g id="组_1314" data-name="组 1314" transform="translate(0 3.544)">
          <path id="路径_10138" data-name="路径 10138" d="M242.145,318.679c.217.544,3.972,5.115,7.726,6.258a8.619,8.619,0,0,0,3.449.476,1.137,1.137,0,0,0,.925-1.514,14.261,14.261,0,0,0-7.2-7.939C240.676,312.8,242.145,318.679,242.145,318.679Z" transform="translate(-223.868 -200.017)" fill="#042e7a"/>
          <path id="路径_10139" data-name="路径 10139" d="M240.781,320.53a31.075,31.075,0,0,1,1.85,6.094c.265,1.693-.663,3.892-1.429,5.35a1.563,1.563,0,0,1-2.434.422,9.031,9.031,0,0,1-3.047-5.825c-.435-4.68,0-5.5,0-5.5Z" transform="translate(-223.756 -200.112)" fill="#042e7a"/>
          <path id="路径_10140" data-name="路径 10140" d="M231.667,262.895a88.884,88.884,0,0,0,0,12.432c.489,6.529,2.243,37.065,2.569,44.411,0,0-.163,2.224,4.142,1.734s3.958-2.959,3.958-2.959,6.047-.082,6.237-3.646,6.193-42.559,6.193-56.579Z" transform="translate(-223.685 -199.035)" fill="#fdd762"/>
          <g id="组_1313" data-name="组 1313">
            <path id="路径_10141" data-name="路径 10141" d="M257.407,231.918l2.963,4.588,10.183,12.3a2.282,2.282,0,0,1-1.617,1.44c-.991.234-9.555-7.937-13.254-11.523a2.841,2.841,0,0,1-.391-3.609Z" transform="translate(-224.09 -198.579)" fill="#ffc2b0"/>
            <path id="路径_10142" data-name="路径 10142" d="M251.572,212.753s4.706-.122,6.344,6.679,2.92,15.316,1.495,16.024c-4.277,2.125-6.983-.362-6.983-.362Z" transform="translate(-224.033 -198.247)" fill="#042e7a"/>
            <path id="路径_10143" data-name="路径 10143" d="M252.569,213.042a3.846,3.846,0,0,0-2.539-.14c-4.009,1.151-19.084,5.575-21.568,7.7-2.87,2.454,4.3,16.24,4.2,20.76s-.613,9.849-1.012,14.763-.939,7.608,3.08,9.7a15.8,15.8,0,0,0,16.018-1.728c5.137-3.914,4.2-6.593,3.991-9.434s-1.962-15.132-1.811-18.619a13.2,13.2,0,0,0,3.151-3.62c1.34-2.287-1.027-6.49-2.011-9.223s.554-5.857.251-8.087A2.533,2.533,0,0,0,252.569,213.042Z" transform="translate(-223.622 -198.247)" fill="#0062d1"/>
            <path id="路径_10144" data-name="路径 10144" d="M247.9,217.763c.318,2.483-1.96,4.82-5.087,5.221s-5.921-1.287-6.239-3.771,1.96-4.82,5.087-5.221S247.584,215.279,247.9,217.763Z" transform="translate(-223.773 -198.267)" fill="#fff"/>
            <path id="路径_10145" data-name="路径 10145" d="M246.314,217.992c.228,1.775-1.4,3.446-3.636,3.732s-4.231-.92-4.459-2.695,1.4-3.445,3.636-3.732S246.087,216.218,246.314,217.992Z" transform="translate(-223.802 -198.29)" fill="#ffc2b0"/>
            <path id="路径_10146" data-name="路径 10146" d="M244.122,212.086s-2.72-2.238-3.255-1.1-.976,6-.976,6l5.4,1.451-.82-4.928S245.557,212.586,244.122,212.086Z" transform="translate(-223.831 -198.211)" fill="#ffc2b0"/>
            <path id="路径_10147" data-name="路径 10147" d="M252.507,206.537a8.069,8.069,0,1,1-7.579-8.531A8.069,8.069,0,0,1,252.507,206.537Z" transform="translate(-223.771 -197.992)" fill="#ffc2b0"/>
            <path id="路径_10148" data-name="路径 10148" d="M240.5,212.415c-.048.254-.093.527-.138.8.543,2.807,4.743,4.036,4.743,4.036l-.62-3.729s.509-.432.365-.865C243.188,212.138,241.1,211.674,240.5,212.415Z" transform="translate(-223.839 -198.234)" fill="#ea9c92"/>
            <path id="路径_10149" data-name="路径 10149" d="M252.507,206.537a8.069,8.069,0,1,1-7.579-8.531A8.069,8.069,0,0,1,252.507,206.537Z" transform="translate(-223.771 -197.992)" fill="#ffc2b0"/>
            <path id="路径_10150" data-name="路径 10150" d="M224.364,240.958l.9,21.592,3.156.326,2.055-19.437Z" transform="translate(-223.563 -198.735)" fill="#ffc2b0"/>
            <path id="路径_10151" data-name="路径 10151" d="M234.851,238.861c-1.045-4.611-3.108-14.8-3.108-14.8L230.86,234.2c1.018,3.005,1.892,5.763,1.855,7.361-.061,2.653-.262,5.586-.5,8.548v.009S235.9,243.471,234.851,238.861Z" transform="translate(-223.675 -198.443)" fill="#042e7a"/>
            <path id="路径_10152" data-name="路径 10152" d="M228.991,220.289s-2.525.964-3.953,8.717-2.5,15.519.05,16.52,4.675,1.753,5.424-.32,1.213-12.066,1.307-15.659S232.049,221,228.991,220.289Z" transform="translate(-223.549 -198.377)" fill="#1f8aff"/>
            <path id="路径_10153" data-name="路径 10153" d="M270,248.184a6.777,6.777,0,0,1,2.356,1.579,15.4,15.4,0,0,1,1.609,2.16c.786,1.172,1.449,3.708.97,4.023s-3.221-4.244-3.663-3.184,0,2.042-.563,2.058-2.537-4.584-4.087-6.01S270,248.184,270,248.184Z" transform="translate(-224.289 -198.856)" fill="#ffc2b0"/>
          </g>
          <path id="路径_10154" data-name="路径 10154" d="M242.528,318.735a12.414,12.414,0,0,0,1.729-.179h0l1.183-47.467Z" transform="translate(-223.877 -199.256)" fill="#d8892b"/>
        </g>
        <path id="路径_10155" data-name="路径 10155" d="M225.3,262.7a48.892,48.892,0,0,0-.709,6.654c.126,1.615.99,4.278,1.645,4.221s.022-6.491,1.173-5.85,1.273,1.74,1.794,1.352-.91-5.888-.528-8.274S225.3,262.7,225.3,262.7Z" transform="translate(-223.566 -195.522)" fill="#ffc2b0"/>
        <path id="路径_10156" data-name="路径 10156" d="M247.646,206.846c4.048,1.437,4.836.56,4.874.513.037-.244.067-.49.082-.742a8.043,8.043,0,0,0-.269-2.579l-10.5-1.417A11.449,11.449,0,0,0,247.646,206.846Z" transform="translate(-223.865 -194.527)" fill="#ea9c92"/>
        <path id="路径_10157" data-name="路径 10157" d="M252.762,198.436c-.954-.818-4.4-4.86-10.563-3.906-3.853.6-7.1,3.225-7.822,9.222a13.782,13.782,0,0,0,3.729,10.964,3.331,3.331,0,0,0,.438-.222c1.544-1.016,1.711-1.575,1.711-1.58l.341-3.06a.855.855,0,0,0-.769-.848,1.543,1.543,0,0,1-1.13-.69,1.8,1.8,0,0,1,1.294-3.032,1.358,1.358,0,0,0,1.415-1.006.726.726,0,0,1,.945-.492c2.016.73,6.981,2.3,10.177,1.4C256.616,204.022,253.715,199.253,252.762,198.436Z" transform="translate(-223.734 -194.385)" fill="#042e7a"/>
        <path id="路径_10158" data-name="路径 10158" d="M248.365,210.616l2.468-.678a5.957,5.957,0,0,1-2.9,2.327c-1.721.472-1.988-.984-1.988-.984Z" transform="translate(-223.936 -194.654)" fill="#fff"/>
      </g>
    </g>
    <g id="组_1324" data-name="组 1324" transform="translate(262.046 265.897)">
      <path id="路径_10159" data-name="路径 10159" d="M295.5,364.572l-24.508-14.15c-1.5-.869-1.316-2.386.422-3.388l23.664-13.662a6.521,6.521,0,0,1,5.869-.244l24.507,14.15c1.5.869,1.316,2.385-.422,3.388l-23.664,13.662A6.525,6.525,0,0,1,295.5,364.572Z" transform="translate(-262.849 -271.144)" fill="#c4d9e8" opacity="0.5"/>
      <g id="组_1318" data-name="组 1318" transform="translate(0 34.346)">
        <path id="路径_10160" data-name="路径 10160" d="M333.456,336.287h0V325.7l-23.744-.013-8.207-4.739a8.164,8.164,0,0,0-7.348.3l-7.657,4.421-23.765-.014v10.89A2.13,2.13,0,0,0,264,338.518l30.69,17.718a8.164,8.164,0,0,0,7.348-.3l29.633-17.109C332.921,338.1,333.526,337.161,333.456,336.287Z" transform="translate(-262.724 -305.277)" fill="#0062d1"/>
        <path id="路径_10161" data-name="路径 10161" d="M298.1,320.218a8.471,8.471,0,0,0-3.939,1.033l-7.657,4.421-23.765-.014v10.89A2.13,2.13,0,0,0,264,338.518l30.69,17.718a6.654,6.654,0,0,0,3.41.729Z" transform="translate(-262.724 -305.277)" fill="#0062d1"/>
        <path id="路径_10162" data-name="路径 10162" d="M265.424,325.756l-2.69,0v10.89A2.13,2.13,0,0,0,264,338.614l1.428.824Z" transform="translate(-262.724 -305.373)" fill="#1f8aff"/>
        <path id="路径_10163" data-name="路径 10163" d="M295.729,356.887a8.373,8.373,0,0,0,5.874-.067V344.455h-5.874Z" transform="translate(-263.295 -305.696)" fill="#042e7a"/>
        <path id="路径_10164" data-name="路径 10164" d="M294.685,345.122,264,327.4c-1.884-1.088-1.647-2.987.528-4.243l29.633-17.109a8.167,8.167,0,0,1,7.348-.3l30.69,17.718c1.884,1.088,1.648,2.987-.528,4.242l-29.633,17.109A8.164,8.164,0,0,1,294.685,345.122Z" transform="translate(-262.724 -305.014)" fill="#1f8aff"/>
        <path id="路径_10165" data-name="路径 10165" d="M295.338,341.991,269.62,327.143c-1.578-.911-1.381-2.5.442-3.555L294.9,309.251a6.841,6.841,0,0,1,6.158-.255l25.718,14.849c1.578.911,1.381,2.5-.442,3.555L301.5,341.736A6.844,6.844,0,0,1,295.338,341.991Z" transform="translate(-262.825 -305.072)" fill="#042e7a"/>
        <g id="组_1317" data-name="组 1317" transform="translate(56.965 28.315)">
          <path id="路径_10166" data-name="路径 10166" d="M323.171,339.4a2.738,2.738,0,0,1-1.24,2.146c-.684.4-1.239.076-1.239-.715a2.742,2.742,0,0,1,1.239-2.147C322.616,338.287,323.171,338.607,323.171,339.4Z" transform="translate(-320.692 -333.908)" fill="#9bcaff"/>
          <path id="路径_10167" data-name="路径 10167" d="M327.229,337.055a2.741,2.741,0,0,1-1.239,2.147c-.685.4-1.24.075-1.24-.715a2.74,2.74,0,0,1,1.24-2.147C326.674,335.944,327.229,336.264,327.229,337.055Z" transform="translate(-320.762 -333.867)" fill="#9bcaff"/>
          <path id="路径_10168" data-name="路径 10168" d="M331.287,334.711a2.738,2.738,0,0,1-1.239,2.147c-.685.4-1.239.075-1.239-.715A2.738,2.738,0,0,1,330.048,334C330.733,333.6,331.287,333.921,331.287,334.711Z" transform="translate(-320.832 -333.827)" fill="#9bcaff"/>
        </g>
      </g>
      <g id="组_1320" data-name="组 1320" transform="translate(0 17.173)">
        <path id="路径_10169" data-name="路径 10169" d="M333.456,318.811h0V308.222l-23.744-.014-8.207-4.738a8.167,8.167,0,0,0-7.348.3L286.5,308.2l-23.765-.013v10.89A2.128,2.128,0,0,0,264,321.042l30.69,17.719a8.167,8.167,0,0,0,7.348-.3l29.633-17.109C332.921,320.623,333.526,319.685,333.456,318.811Z" transform="translate(-262.724 -287.801)" fill="#0062d1"/>
        <path id="路径_10170" data-name="路径 10170" d="M298.1,302.742a8.471,8.471,0,0,0-3.939,1.033L286.5,308.2l-23.765-.013v10.89A2.128,2.128,0,0,0,264,321.042l30.69,17.719a6.653,6.653,0,0,0,3.41.728Z" transform="translate(-262.724 -287.801)" fill="#0062d1"/>
        <path id="路径_10171" data-name="路径 10171" d="M265.424,308.28h-2.69v10.89A2.128,2.128,0,0,0,264,321.138l1.428.824Z" transform="translate(-262.724 -287.897)" fill="#1f8aff"/>
        <path id="路径_10172" data-name="路径 10172" d="M295.729,339.411a8.368,8.368,0,0,0,5.874-.067V326.979h-5.874Z" transform="translate(-263.295 -288.22)" fill="#042e7a"/>
        <path id="路径_10173" data-name="路径 10173" d="M294.685,327.647,264,309.928c-1.884-1.087-1.647-2.986.528-4.242l29.633-17.109a8.164,8.164,0,0,1,7.348-.3l30.69,17.719c1.884,1.087,1.648,2.986-.528,4.242l-29.633,17.109A8.17,8.17,0,0,1,294.685,327.647Z" transform="translate(-262.724 -287.538)" fill="#1f8aff"/>
        <path id="路径_10174" data-name="路径 10174" d="M295.338,324.515,269.62,309.668c-1.578-.912-1.381-2.5.442-3.555L294.9,291.775a6.844,6.844,0,0,1,6.158-.255l25.718,14.849c1.578.911,1.381,2.5-.442,3.555L301.5,324.261A6.844,6.844,0,0,1,295.338,324.515Z" transform="translate(-262.825 -287.596)" fill="#042e7a"/>
        <g id="组_1319" data-name="组 1319" transform="translate(56.965 28.315)">
          <path id="路径_10175" data-name="路径 10175" d="M323.171,321.922a2.742,2.742,0,0,1-1.24,2.147c-.684.4-1.239.075-1.239-.715a2.74,2.74,0,0,1,1.239-2.147C322.616,320.812,323.171,321.132,323.171,321.922Z" transform="translate(-320.692 -316.432)" fill="#9bcaff"/>
          <path id="路径_10176" data-name="路径 10176" d="M327.229,319.579a2.743,2.743,0,0,1-1.239,2.147c-.685.4-1.24.075-1.24-.716a2.739,2.739,0,0,1,1.24-2.146C326.674,318.469,327.229,318.788,327.229,319.579Z" transform="translate(-320.762 -316.392)" fill="#9bcaff"/>
          <path id="路径_10177" data-name="路径 10177" d="M331.287,317.236a2.737,2.737,0,0,1-1.239,2.146c-.685.4-1.239.076-1.239-.715a2.737,2.737,0,0,1,1.239-2.146C330.733,316.125,331.287,316.445,331.287,317.236Z" transform="translate(-320.832 -316.351)" fill="#9bcaff"/>
        </g>
      </g>
      <g id="组_1323" data-name="组 1323">
        <path id="路径_10178" data-name="路径 10178" d="M333.456,301.336h0v-10.59l-23.744-.013L301.5,286a8.164,8.164,0,0,0-7.348.3l-7.657,4.421-23.765-.014V301.6A2.13,2.13,0,0,0,264,303.567l30.69,17.718a8.164,8.164,0,0,0,7.348-.3l29.633-17.109C332.921,303.147,333.526,302.209,333.456,301.336Z" transform="translate(-262.724 -270.326)" fill="#0062d1"/>
        <path id="路径_10179" data-name="路径 10179" d="M298.1,285.267a8.471,8.471,0,0,0-3.939,1.033l-7.657,4.421-23.765-.014V301.6A2.13,2.13,0,0,0,264,303.567l30.69,17.718a6.655,6.655,0,0,0,3.41.729Z" transform="translate(-262.724 -270.326)" fill="#0062d1"/>
        <path id="路径_10180" data-name="路径 10180" d="M265.424,290.8l-2.69,0v10.89A2.13,2.13,0,0,0,264,303.663l1.428.824Z" transform="translate(-262.724 -270.421)" fill="#1f8aff"/>
        <path id="路径_10181" data-name="路径 10181" d="M295.729,321.936a8.373,8.373,0,0,0,5.874-.067V309.5h-5.874Z" transform="translate(-263.295 -270.745)" fill="#042e7a"/>
        <path id="路径_10182" data-name="路径 10182" d="M294.685,310.171,264,292.453c-1.884-1.088-1.647-2.987.528-4.243L294.156,271.1a8.17,8.17,0,0,1,7.348-.3l30.69,17.719c1.884,1.088,1.648,2.986-.528,4.242l-29.633,17.109A8.164,8.164,0,0,1,294.685,310.171Z" transform="translate(-262.724 -270.062)" fill="#0062d1"/>
        <path id="路径_10183" data-name="路径 10183" d="M331.666,291.014l-29.633,17.109a8.17,8.17,0,0,1-7.348.3L264,290.708a2.839,2.839,0,0,1-.939-.833c-.648,1.041-.354,2.171.939,2.918l30.69,17.718a8.164,8.164,0,0,0,7.348-.3L331.666,293.1c1.69-.976,2.2-2.339,1.468-3.409A4.113,4.113,0,0,1,331.666,291.014Z" transform="translate(-262.724 -270.402)" fill="#1f8aff"/>
        <g id="组_1321" data-name="组 1321" transform="translate(56.965 28.315)">
          <path id="路径_10184" data-name="路径 10184" d="M323.171,304.446a2.739,2.739,0,0,1-1.24,2.147c-.684.4-1.239.075-1.239-.715a2.742,2.742,0,0,1,1.239-2.147C322.616,303.336,323.171,303.656,323.171,304.446Z" transform="translate(-320.692 -298.957)" fill="#9bcaff"/>
          <path id="路径_10185" data-name="路径 10185" d="M327.229,302.1a2.74,2.74,0,0,1-1.239,2.147c-.685.4-1.24.075-1.24-.715a2.739,2.739,0,0,1,1.24-2.147C326.674,300.993,327.229,301.313,327.229,302.1Z" transform="translate(-320.762 -298.916)" fill="#9bcaff"/>
          <path id="路径_10186" data-name="路径 10186" d="M331.287,299.76a2.738,2.738,0,0,1-1.239,2.147c-.685.4-1.239.075-1.239-.715a2.738,2.738,0,0,1,1.239-2.147C330.733,298.65,331.287,298.97,331.287,299.76Z" transform="translate(-320.832 -298.876)" fill="#9bcaff"/>
        </g>
        <g id="组_1322" data-name="组 1322" transform="translate(18.819 10.825)">
          <path id="路径_10187" data-name="路径 10187" d="M296.831,299.848l-14.361-8.291c-.882-.509-.77-1.4.248-1.986l13.867-8.006a3.821,3.821,0,0,1,3.439-.142l14.361,8.292c.881.508.77,1.4-.247,1.985l-13.867,8.006A3.823,3.823,0,0,1,296.831,299.848Z" transform="translate(-281.875 -281.078)" fill="#042e7a"/>
          <path id="路径_10188" data-name="路径 10188" d="M298.457,293.067l-1.987-1.147c-.122-.071-.106-.194.034-.275l1.919-1.107a.532.532,0,0,1,.476-.02l1.987,1.148c.122.07.106.193-.034.274l-1.918,1.107A.528.528,0,0,1,298.457,293.067Z" transform="translate(-282.126 -281.241)" fill="#9bcaff"/>
          <path id="路径_10189" data-name="路径 10189" d="M282.47,291.556l.041.023c.067-.047.129-.1.206-.141l13.867-8.006a3.821,3.821,0,0,1,3.439-.142l14.32,8.268c.813-.582.855-1.374.041-1.844l-14.361-8.292a3.821,3.821,0,0,0-3.439.142l-13.867,8.006C281.7,290.158,281.588,291.047,282.47,291.556Z" transform="translate(-281.875 -281.078)" fill="#1f8aff"/>
        </g>
      </g>
      <path id="路径_10190" data-name="路径 10190" d="M285.671,330.436l-12.424-7.173a3.325,3.325,0,0,1-1.387-2.65h0c0-1.021.621-1.491,1.387-1.049l12.424,7.174a3.32,3.32,0,0,1,1.388,2.649h0C287.058,330.408,286.437,330.878,285.671,330.436Z" transform="translate(-262.882 -270.916)" fill="#042e7a"/>
      <path id="路径_10191" data-name="路径 10191" d="M286.782,329.751l-12.424-7.173a3.322,3.322,0,0,1-1.387-2.65,1.939,1.939,0,0,1,.056-.461c-.661-.241-1.167.225-1.167,1.146a3.325,3.325,0,0,0,1.387,2.65l12.424,7.173a.827.827,0,0,0,1.331-.588A1.244,1.244,0,0,1,286.782,329.751Z" transform="translate(-262.882 -270.916)" fill="#1f8aff"/>
    </g>
    <g id="组_1325" data-name="组 1325" transform="translate(262.85 225.01)">
      <path id="路径_10192" data-name="路径 10192" d="M291.4,230.46l-3.2-1.829v0a.965.965,0,0,0-1.139.007l-21.937,12.665a3.79,3.79,0,0,0-1.582,3.023v36.71a5.588,5.588,0,0,0,2.8,4.845l.489.28.318-3.976,21.488-12.407v-38.74l.421,2.289Z" transform="translate(-263.542 -228.455)" fill="#0062d1"/>
      <path id="路径_10193" data-name="路径 10193" d="M288.2,228.631v0a.965.965,0,0,0-1.139.007L265.13,241.308a3.322,3.322,0,0,0-1.253,1.558l24.771,14.3V231.043l.421,2.288,2.339-2.871Z" transform="translate(-263.548 -228.455)" fill="#0062d1"/>
      <path id="路径_10194" data-name="路径 10194" d="M268.457,247.163l2.475-1.429-6.4-3.695a4.065,4.065,0,0,0-.975,2.3Z" transform="translate(-263.542 -228.69)" fill="#1f8aff"/>
      <path id="路径_10195" data-name="路径 10195" d="M291.994,271.707l-25.1,14.492V246.254a3.787,3.787,0,0,1,1.581-3.022l21.937-12.666c.874-.5,1.582.031,1.582,1.2Z" transform="translate(-263.6 -228.488)" fill="#042e7a"/>
    </g>
    <g id="组_1328" data-name="组 1328" transform="translate(270.289 268.73)">
      <g id="组_1326" data-name="组 1326" transform="translate(0 7.251)">
        <path id="路径_10196" data-name="路径 10196" d="M277.029,282.387c0,.7-.494.99-1.1.638a2.441,2.441,0,0,1-1.1-1.912c0-.7.494-.99,1.1-.638A2.44,2.44,0,0,1,277.029,282.387Z" transform="translate(-271.176 -280.324)" fill="#9bcaff"/>
        <path id="路径_10197" data-name="路径 10197" d="M271.391,282.535l3.667-2.12,1.63,2.66-3.678,2.127Z" transform="translate(-271.117 -280.325)" fill="#9bcaff"/>
        <path id="路径_10198" data-name="路径 10198" d="M273.321,284.528c0,.7-.494.99-1.1.638a2.445,2.445,0,0,1-1.1-1.913c0-.7.5-.99,1.1-.637A2.438,2.438,0,0,1,273.321,284.528Z" transform="translate(-271.112 -280.361)" fill="#1f8aff"/>
        <path id="路径_10199" data-name="路径 10199" d="M272.8,284.231c0,.364-.255.511-.57.329a1.261,1.261,0,0,1-.57-.987c0-.364.255-.511.57-.329A1.259,1.259,0,0,1,272.8,284.231Z" transform="translate(-271.121 -280.373)" fill="#042e7a"/>
      </g>
      <g id="组_1327" data-name="组 1327" transform="translate(12.841)">
        <path id="路径_10200" data-name="路径 10200" d="M290.1,275.009c0,.7-.494.99-1.1.637a2.439,2.439,0,0,1-1.1-1.912c0-.7.494-.99,1.1-.638A2.442,2.442,0,0,1,290.1,275.009Z" transform="translate(-284.243 -272.945)" fill="#9bcaff"/>
        <path id="路径_10201" data-name="路径 10201" d="M284.458,275.157l3.667-2.12,1.63,2.66-3.678,2.127Z" transform="translate(-284.184 -272.946)" fill="#9bcaff"/>
        <path id="路径_10202" data-name="路径 10202" d="M286.388,277.15c0,.7-.494.99-1.1.637a2.441,2.441,0,0,1-1.1-1.912c0-.7.5-.99,1.1-.638A2.442,2.442,0,0,1,286.388,277.15Z" transform="translate(-284.179 -272.982)" fill="#1f8aff"/>
        <path id="路径_10203" data-name="路径 10203" d="M285.863,276.853c0,.363-.256.51-.57.328a1.258,1.258,0,0,1-.569-.987c0-.363.255-.51.569-.328A1.258,1.258,0,0,1,285.863,276.853Z" transform="translate(-284.188 -272.994)" fill="#042e7a"/>
      </g>
    </g>
    <path id="路径_10204" data-name="路径 10204" d="M507.675,337.707,489.47,327.2c-1.117-.646-.977-1.772.313-2.517l17.578-10.149a4.847,4.847,0,0,1,4.359-.181l18.205,10.511c1.117.646.977,1.772-.313,2.517l-17.578,10.149A4.847,4.847,0,0,1,507.675,337.707Z" transform="translate(-4.589 -4.924)" fill="#c4d9e8" opacity="0.5"/>
    <g id="组_1330" data-name="组 1330" transform="translate(469.929 270.231)">
      <path id="路径_10205" data-name="路径 10205" d="M545,305.746h0v-10.59l-23.744-.013-8.207-4.739a8.167,8.167,0,0,0-7.348.3l-7.657,4.421-23.766-.014v10.891a2.13,2.13,0,0,0,1.262,1.968l30.69,17.718a8.167,8.167,0,0,0,7.348-.3l29.633-17.109C544.465,307.557,545.07,306.62,545,305.746Z" transform="translate(-474.268 -274.736)" fill="#042e7a"/>
      <path id="路径_10206" data-name="路径 10206" d="M509.639,289.677a8.471,8.471,0,0,0-3.939,1.033l-7.657,4.421-23.766-.014v10.891a2.13,2.13,0,0,0,1.262,1.968l30.69,17.718a6.654,6.654,0,0,0,3.41.729Z" transform="translate(-474.268 -274.736)" fill="#1f8aff"/>
      <path id="路径_10207" data-name="路径 10207" d="M476.968,295.215l-2.69,0V306.1a2.13,2.13,0,0,0,1.262,1.968l1.428.824Z" transform="translate(-474.268 -274.832)" fill="#1f8aff"/>
      <path id="路径_10208" data-name="路径 10208" d="M507.273,326.346a8.373,8.373,0,0,0,5.874-.067V313.914h-5.874Z" transform="translate(-474.839 -275.155)" fill="#0062d1"/>
      <path id="路径_10209" data-name="路径 10209" d="M506.229,314.581l-30.69-17.718c-1.884-1.088-1.647-2.987.528-4.242L505.7,275.512a8.164,8.164,0,0,1,7.348-.3l30.69,17.718c1.884,1.088,1.648,2.987-.528,4.243l-29.633,17.109A8.167,8.167,0,0,1,506.229,314.581Z" transform="translate(-474.268 -274.473)" fill="#0062d1"/>
      <g id="组_1329" data-name="组 1329" transform="translate(56.965 28.314)">
        <path id="路径_10210" data-name="路径 10210" d="M534.715,308.857a2.739,2.739,0,0,1-1.24,2.146c-.684.4-1.239.076-1.239-.715a2.74,2.74,0,0,1,1.239-2.146C534.16,307.746,534.715,308.066,534.715,308.857Z" transform="translate(-532.236 -303.367)" fill="#9bcaff"/>
        <path id="路径_10211" data-name="路径 10211" d="M538.773,306.514a2.74,2.74,0,0,1-1.239,2.146c-.685.4-1.24.075-1.24-.715a2.742,2.742,0,0,1,1.24-2.147C538.218,305.4,538.773,305.723,538.773,306.514Z" transform="translate(-532.306 -303.326)" fill="#9bcaff"/>
        <path id="路径_10212" data-name="路径 10212" d="M542.831,304.17a2.738,2.738,0,0,1-1.239,2.147c-.685.4-1.239.075-1.239-.715a2.739,2.739,0,0,1,1.239-2.147C542.277,303.06,542.831,303.38,542.831,304.17Z" transform="translate(-532.376 -303.286)" fill="#9bcaff"/>
      </g>
    </g>
    <path id="路径_10213" data-name="路径 10213" d="M494.49,307.912l12.089,6.979a8.167,8.167,0,0,0,7.348-.3l21.506-12.417.138-.164-17.352-9.612Z" transform="translate(-4.689 -4.552)" fill="#0062d1"/>
    <path id="路径_10214" data-name="路径 10214" d="M499.432,311.065v10.851l-4.5-2.558-2.061-10.525,3.52.479Z" transform="translate(-4.661 -4.836)" fill="#0062d1"/>
    <path id="路径_10215" data-name="路径 10215" d="M484.647,313.389l1.085.626,2.131-10.171-1.331-.573-4.074,1.392Z" transform="translate(-4.48 -4.74)" fill="#721bd5"/>
    <g id="组_1335" data-name="组 1335" transform="translate(463.593 217.1)">
      <ellipse id="椭圆_426" data-name="椭圆 426" cx="17.642" cy="10.185" rx="17.642" ry="10.185" transform="translate(0 109.377)" fill="#c4d9e8" opacity="0.5"/>
      <g id="组_1332" data-name="组 1332" transform="translate(6.95)">
        <path id="路径_10216" data-name="路径 10216" d="M494.123,337.066s-2.755-1.39-4.448.68S485.564,344.7,485.489,348s2.612,3.078,4.209,2.3,6.264-7.55,6.546-8.877a4.6,4.6,0,0,0-.781-3.47C495.013,337.6,494.123,337.066,494.123,337.066Z" transform="translate(-475.076 -222.416)" fill="#173d7a"/>
        <path id="路径_10217" data-name="路径 10217" d="M494.8,336.387l.128,2.855a1.617,1.617,0,0,1-.807,1.485,3.174,3.174,0,0,1-2.126.33c-2.075-.333-2.261-.927-2.41-3.78S494.8,336.387,494.8,336.387Z" transform="translate(-475.147 -222.401)" fill="#e8a200"/>
        <g id="组_1331" data-name="组 1331" transform="translate(0 50.651)">
          <path id="路径_10218" data-name="路径 10218" d="M483.859,331.48s-2.756-1.39-4.449.68-4.112,6.954-4.186,10.254,2.612,3.078,4.21,2.3,6.263-7.549,6.546-8.876a4.6,4.6,0,0,0-.782-3.47C484.748,332.015,483.859,331.48,483.859,331.48Z" transform="translate(-474.898 -272.97)" fill="#173d7a"/>
          <path id="路径_10219" data-name="路径 10219" d="M484.53,330.8l.128,2.855a1.618,1.618,0,0,1-.807,1.485,3.173,3.173,0,0,1-2.126.33c-2.075-.333-2.261-.927-2.41-3.78S484.53,330.8,484.53,330.8Z" transform="translate(-474.969 -272.955)" fill="#e8a200"/>
          <path id="路径_10220" data-name="路径 10220" d="M509.043,277.379c-.816-13.27-14.371,1.952-14.371,1.952l-9.279,9.095-8.355,9.177a8.238,8.238,0,0,0-2.075,6.616l3.38,25.735a2.528,2.528,0,0,0,2.536,2.2,8.526,8.526,0,0,0,1.252-.109,3.143,3.143,0,0,0,2.792-3.336l-.617-24.07,17.545-10.577S509.858,290.65,509.043,277.379Z" transform="translate(-474.893 -271.948)" fill="#fdd762"/>
        </g>
        <path id="路径_10221" data-name="路径 10221" d="M519.308,282.524c-.816-13.27-14.372,1.953-14.372,1.953l-9.278,9.094-8.355,9.177a8.238,8.238,0,0,0-2.076,6.616l3.38,25.735a2.53,2.53,0,0,0,2.536,2.2,8.645,8.645,0,0,0,1.252-.11,3.144,3.144,0,0,0,2.793-3.336l-.618-24.069L512.116,299.2S520.123,295.795,519.308,282.524Z" transform="translate(-475.07 -221.386)" fill="#fdd762"/>
        <path id="路径_10222" data-name="路径 10222" d="M511.4,239.245c10.277,4.261,10.072,10.336,10.072,10.336s-2.013,22.273-1.327,37.147c.288,6.219-33.037,6.692-28.067-9.9,5.86-19.56,3.663-35.395,6.406-37.783S508.741,238.142,511.4,239.245Z" transform="translate(-475.181 -220.706)" fill="#1f8aff"/>
        <circle id="椭圆_427" data-name="椭圆 427" cx="7.911" cy="7.911" r="7.911" transform="translate(21.508 13.996) rotate(-59.496)" fill="#ffc2b0"/>
        <path id="路径_10223" data-name="路径 10223" d="M514.931,244.659c-.538,2.086-3.271,3.186-6.106,2.456s-4.7-3.014-4.161-5.1,3.272-3.187,6.106-2.457S515.468,242.572,514.931,244.659Z" transform="translate(-475.406 -220.733)" fill="#ffc2b0"/>
        <path id="路径_10224" data-name="路径 10224" d="M507.553,238.764a25.4,25.4,0,0,1-.089,3.668c-.056,1.024,3.529,1.98,4.456,1.053s.556-1.891.778-5.374S507.553,238.764,507.553,238.764Z" transform="translate(-475.456 -220.688)" fill="#ffc2b0"/>
        <path id="路径_10225" data-name="路径 10225" d="M501.148,232.382s3.793-1.611,7.123-.938a3.486,3.486,0,0,1,2.012,1.195,1.182,1.182,0,0,0,.608.44c.591.134,1.557-2.315,2.7-2.371s1.913.757.973,2.263-.623,3.191-.191,3.433,5.024-3.274.975-11.3-14.336-3.7-15.936-2.075c0,0-1.685,1.468-3.056.162C496.358,223.194,494.822,234.7,501.148,232.382Z" transform="translate(-475.261 -220.405)" fill="#042e7a"/>
        <path id="路径_10226" data-name="路径 10226" d="M515.9,266.288v6.018a2.454,2.454,0,0,1-.8,1.812l-12.363,11.272,1.4,2.148L520.467,275.7a3.318,3.318,0,0,0,1.351-2.339l1.1-10.5Z" transform="translate(-475.375 -221.14)" fill="#ffc2b0"/>
        <path id="路径_10227" data-name="路径 10227" d="M521.009,246.727s3.751,5.641,5.148,20.488c0,0-6.407,2.072-10.043.9S521.009,246.727,521.009,246.727Z" transform="translate(-475.591 -220.861)" fill="#0062d1"/>
        <path id="路径_10228" data-name="路径 10228" d="M515.406,253.985a104.63,104.63,0,0,0-1.552,11.552,2.358,2.358,0,0,0,1.552,2.277h0Z" transform="translate(-475.567 -220.987)" fill="#042e7a"/>
      </g>
      <g id="组_1333" data-name="组 1333" transform="translate(6.852 59.755)">
        <path id="路径_10229" data-name="路径 10229" d="M511.522,293.559l-2.733-.361-17.638-10.184a2.448,2.448,0,0,0-2.206.091l-12.5,7.213-1.653-.218v1.645h0a.645.645,0,0,0,.379.58l19.99,11.541a2.451,2.451,0,0,0,2.206-.091l13.612-7.856a.892.892,0,0,0,.539-.742h0Z" transform="translate(-474.793 -281.24)" fill="#173d7a"/>
        <path id="路径_10230" data-name="路径 10230" d="M498.269,287.188l-1.253-.723H483.238l-6.792,3.918-1.653-.218v1.645h0a.645.645,0,0,0,.379.58l19.99,11.541a2.06,2.06,0,0,0,1.139.213Z" transform="translate(-474.793 -281.304)" fill="#396caa"/>
        <path id="路径_10231" data-name="路径 10231" d="M475.527,290.327l-.734-.1v1.645h0a.645.645,0,0,0,.379.58l.353.2Z" transform="translate(-474.793 -281.369)" fill="#5793ce"/>
        <path id="路径_10232" data-name="路径 10232" d="M495.728,304.282a2.562,2.562,0,0,0,1.875-.116v-2.8h-1.875Z" transform="translate(-475.155 -281.562)" fill="#274f89"/>
        <path id="路径_10233" data-name="路径 10233" d="M495.164,302.2l-19.99-11.542c-.565-.326-.494-.9.158-1.274l13.612-7.857a2.455,2.455,0,0,1,2.206-.091l19.99,11.542c.565.326.494.9-.158,1.274L497.37,302.1A2.452,2.452,0,0,1,495.164,302.2Z" transform="translate(-474.793 -281.213)" fill="#fff"/>
        <path id="路径_10234" data-name="路径 10234" d="M494.881,300.521l-16.621-9.6c-.471-.271-.412-.746.132-1.059l7.294-4.1a2.037,2.037,0,0,1,1.835-.076l16.621,9.6c.471.272.412.746-.132,1.059l-7.294,4.1A2.037,2.037,0,0,1,494.881,300.521Z" transform="translate(-474.847 -281.287)" fill="#d4ecff"/>
      </g>
      <path id="路径_10235" data-name="路径 10235" d="M489.974,281.133l-.206,1.38a10.177,10.177,0,0,0,.089,3.536l.247,1.216a1.71,1.71,0,0,0,1.369,1.343h0a.944.944,0,0,0,1.107-.824l.33-2.948s.754.989,1.118.989-.408-2.953-1.231-4.625S489.974,281.133,489.974,281.133Z" transform="translate(-468.198 -221.444)" fill="#ffc2b0"/>
      <path id="路径_10236" data-name="路径 10236" d="M496.734,258.764l-2.145,4.245a8.327,8.327,0,0,0-.878,3.222l-.932,14.521-2.822-.067-1.28-16.307a6,6,0,0,1,.073-1.507l1.463-8.269Z" transform="translate(-468.181 -220.997)" fill="#ffc2b0"/>
      <g id="组_1334" data-name="组 1334" transform="translate(5.037 51.028)">
        <path id="路径_10237" data-name="路径 10237" d="M494.623,303.07l-1.675-2.187L475.32,290.677a2.452,2.452,0,0,1-1.021-1.958l.015-14.432-1.013-1.323.952-.551h0a.644.644,0,0,1,.691.04l19.976,11.565a2.452,2.452,0,0,1,1.021,1.958l-.017,15.716a.889.889,0,0,1-.373.838h0Z" transform="translate(-472.952 -272.332)" fill="#173d7a"/>
        <path id="路径_10238" data-name="路径 10238" d="M482.433,294.8l-1.252-.725-6.874-11.941.007-7.842-1.013-1.323.952-.551h0a.644.644,0,0,1,.691.04l19.976,11.565a2.07,2.07,0,0,1,.753.881Z" transform="translate(-472.952 -272.332)" fill="#396caa"/>
        <path id="路径_10239" data-name="路径 10239" d="M473.751,273.553l-.45-.588.952-.551h0a.644.644,0,0,1,.691.04l.352.2Z" transform="translate(-472.952 -272.332)" fill="#5793ce"/>
        <path id="路径_10240" data-name="路径 10240" d="M495.451,284.356a2.566,2.566,0,0,1,.834,1.682l-1.953,1.127-.935-1.624Z" transform="translate(-473.3 -272.54)" fill="#274f89"/>
        <path id="路径_10241" data-name="路径 10241" d="M493.964,284.581l-19.976-11.566c-.565-.327-1.024.02-1.025.773l-.017,15.716a2.453,2.453,0,0,0,1.022,1.958l19.975,11.565c.565.327,1.024-.019,1.025-.772l.017-15.716A2.451,2.451,0,0,0,493.964,284.581Z" transform="translate(-472.946 -272.342)" fill="#fff"/>
      </g>
      <path id="路径_10242" data-name="路径 10242" d="M504.048,287.934l-.319.662a4.438,4.438,0,0,1-1.671,1.851l-1.984,1.223a1.976,1.976,0,0,1-2.025.046l-.068-.04a1.2,1.2,0,0,1-.168-1.835l2.073-2.131s-1.165.893-1.492.534c-.239-.263,1.13-1.549,2.181-1.591a4.15,4.15,0,0,0,2.069-.868Z" transform="translate(-468.333 -221.537)" fill="#ffc2b0"/>
      <path id="路径_10243" data-name="路径 10243" d="M498.626,239.039s-7.6,8.27-10.667,15.859a15.518,15.518,0,0,0,8.961,6.52C503.283,263.256,498.626,239.039,498.626,239.039Z" transform="translate(-468.169 -220.728)" fill="#0062d1"/>
      <path id="路径_10244" data-name="路径 10244" d="M495.593,261.1l1.232-11.9-2.9,11.152A16.962,16.962,0,0,0,495.593,261.1Z" transform="translate(-468.272 -220.904)" fill="#042e7a"/>
      <path id="路径_10245" data-name="路径 10245" d="M504.572,237.331l-2.043-.561a4.934,4.934,0,0,0,2.4,1.925c1.424.391,1.645-.815,1.645-.815Z" transform="translate(-468.421 -220.689)" fill="#fff"/>
    </g>
    <g id="组_1336" data-name="组 1336" transform="translate(305.449 222.559)">
      <path id="路径_10246" data-name="路径 10246" d="M352.252,230.455c-10.377-5.991-27.2-5.991-37.578,0s-10.376,15.7,0,21.7,27.2,5.991,37.578,0S362.629,236.446,352.252,230.455Zm-19.433,11.053a10.685,10.685,0,0,1-9.664,0c-2.669-1.541-2.669-4.039,0-5.58a10.679,10.679,0,0,1,9.664,0C335.488,237.469,335.488,239.967,332.819,241.508Z" transform="translate(-306.892 -225.961)" fill="#b2d3ea"/>
      <path id="路径_10247" data-name="路径 10247" d="M358.549,247.714a24.939,24.939,0,0,1-5.143,3.86,36.7,36.7,0,0,1-6.685,2.97l5.08,2.932,7.655.393,3.787,2.186-1.546.892,2.867,1.655,3.091-1.785,5.009,2.892-5.032,2.906,3.7,2.135,3.587,2.071,4.47-2.581,6.625,3.825-2.529,1.46,4.256,2.457,2.528-1.46,2,1.154-2.011,4,6.438,3.717h23.656Z" transform="translate(-307.581 -226.338)" fill="#b2d3ea"/>
    </g>
    <g id="组_1338" data-name="组 1338" transform="translate(305.449 213.266)">
      <path id="路径_10248" data-name="路径 10248" d="M360.035,239.156v-7.184l-2.117,1.195a18.239,18.239,0,0,0-5.666-4.848c-10.377-5.991-27.2-5.992-37.578,0a17.334,17.334,0,0,0-6.236,5.686l-1.546-2.033v7.184c0,3.93,2.588,7.862,7.783,10.86,10.377,5.992,27.2,5.992,37.578,0C357.447,247.018,360.04,243.087,360.035,239.156Zm-27.306-4.682a10.681,10.681,0,0,1-9.665,0c-2.668-1.541-2.668-4.039,0-5.58a10.681,10.681,0,0,1,9.665,0C335.4,230.436,335.4,232.934,332.729,234.474Z" transform="translate(-306.892 -216.631)" fill="#e8a200"/>
      <path id="路径_10249" data-name="路径 10249" d="M331.239,244.964l-11.467-5.652-10.19-6.731a13.146,13.146,0,0,0-1.145,1.569l-1.546-2.033V239.3c0,3.93,2.588,7.862,7.783,10.86a37.264,37.264,0,0,0,16.564,4.437Z" transform="translate(-306.892 -216.774)" fill="#fdd762"/>
      <path id="路径_10250" data-name="路径 10250" d="M352.252,221c-10.377-5.992-27.2-5.992-37.578,0s-10.376,15.7,0,21.7,27.2,5.992,37.578,0S362.629,226.989,352.252,221Zm-19.433,11.053a10.685,10.685,0,0,1-9.664,0c-2.669-1.541-2.669-4.039,0-5.58a10.679,10.679,0,0,1,9.664,0C335.488,228.012,335.488,230.51,332.819,232.051Z" transform="translate(-306.892 -216.504)" fill="#fdd762"/>
      <path id="路径_10251" data-name="路径 10251" d="M338.259,224.937H323.838a37.1,37.1,0,0,0-3.839,1.1v12.222h18.26Zm-5.3,9.557a10.681,10.681,0,0,1-9.665,0c-2.668-1.541-2.668-4.039,0-5.58a10.681,10.681,0,0,1,9.665,0C335.624,230.455,335.624,232.953,332.956,234.494Z" transform="translate(-307.118 -216.65)" fill="#e8a200"/>
      <path id="路径_10252" data-name="路径 10252" d="M350.08,222.316c-9.147-5.281-23.976-5.281-33.123,0s-9.146,13.842,0,19.123,23.976,5.281,33.123,0S359.227,227.6,350.08,222.316Zm-17.205,9.767a10.685,10.685,0,0,1-9.664,0c-2.669-1.541-2.669-4.039,0-5.58a10.679,10.679,0,0,1,9.664,0C335.544,228.044,335.544,230.542,332.875,232.083Z" transform="translate(-306.947 -216.536)" fill="#f2b42a"/>
      <path id="路径_10253" data-name="路径 10253" d="M316.957,224.3c9.147-5.28,23.976-5.28,33.123,0,4.136,2.388,6.4,5.447,6.79,8.57.48-3.784-1.78-7.661-6.79-10.554-9.147-5.281-23.976-5.281-33.123,0-5.01,2.892-7.269,6.77-6.789,10.553C310.563,229.746,312.822,226.687,316.957,224.3Z" transform="translate(-306.947 -216.536)" fill="#e8a200"/>
      <g id="组_1337" data-name="组 1337" transform="translate(39.139 23.327)">
        <path id="路径_10254" data-name="路径 10254" d="M358.549,245.525a24.87,24.87,0,0,1-5.143,3.86,36.7,36.7,0,0,1-6.685,2.97l5.08,2.932,7.655.393,3.787,2.187-1.546.892,2.867,1.655,3.091-1.785,5.009,2.892-5.032,2.906,3.7,2.135,3.587,2.071,4.47-2.581,6.625,3.825-2.529,1.46,4.256,2.457,2.528-1.46,2,1.154-2.011,4,6.438,3.717h23.656Z" transform="translate(-346.72 -240.333)" fill="#f2b42a"/>
        <path id="路径_10255" data-name="路径 10255" d="M358.549,240.242a24.94,24.94,0,0,1-5.143,3.86,36.692,36.692,0,0,1-6.685,2.969L351.8,250l7.655.393,3.787,2.186-1.546.892,2.867,1.655,3.091-1.785,5.009,2.892-5.032,2.906,3.7,2.135,3.587,2.071,4.47-2.581,6.625,3.825-2.529,1.46,4.256,2.457,2.528-1.46,2,1.153-2.011,4,6.438,3.717h23.656Z" transform="translate(-346.72 -240.242)" fill="#fdd762"/>
        <rect id="矩形_759" data-name="矩形 759" width="23.657" height="5.192" transform="translate(49.971 35.68)" fill="#e8a200"/>
        <path id="路径_10256" data-name="路径 10256" d="M388.461,274.175v-5.192l2.529-1.46v5.192Z" transform="translate(-347.442 -240.714)" fill="#e8a200"/>
        <path id="路径_10257" data-name="路径 10257" d="M384.13,266.509V271.7l4.256,2.457v-5.192Z" transform="translate(-347.367 -240.697)" fill="#eead00"/>
        <path id="路径_10258" data-name="路径 10258" d="M379.884,261.131v5.192l-4.47,2.581v-5.192Z" transform="translate(-347.217 -240.604)" fill="#e8a200"/>
        <path id="路径_10259" data-name="路径 10259" d="M368,259.477v5.192l7.286,4.207v-5.192Z" transform="translate(-347.088 -240.575)" fill="#eead00"/>
        <path id="路径_10260" data-name="路径 10260" d="M391.034,272.806l-.014,5.154,6.438,3.717v-5.192Z" transform="translate(-347.487 -240.806)" fill="#eead00"/>
        <path id="路径_10261" data-name="路径 10261" d="M364.827,255.364v5.192L361.96,258.9v-5.192Z" transform="translate(-346.984 -240.475)" fill="#eead00"/>
        <path id="路径_10262" data-name="路径 10262" d="M351.889,250.176v5.192l7.655.394v-5.192Z" transform="translate(-346.809 -240.414)" fill="#e8a200"/>
        <path id="路径_10263" data-name="路径 10263" d="M404.419,272.32l-45.245-26.145,2.514-1.452L409.42,272.3Z" transform="translate(-346.936 -240.32)" fill="#e8a200"/>
        <path id="路径_10264" data-name="路径 10264" d="M361.688,245.981l45.567,26.33,2.164-.007-47.732-27.581-2.514,1.452,1.089.629Z" transform="translate(-346.936 -240.32)" fill="#f2b42a"/>
        <path id="路径_10265" data-name="路径 10265" d="M351.8,255.316v-5.192l-5.08-2.933v5.192Z" transform="translate(-346.72 -240.362)" fill="#e8a200"/>
        <path id="路径_10266" data-name="路径 10266" d="M367.968,253.577v5.192l-3.091,1.785v-5.192Z" transform="translate(-347.034 -240.473)" fill="#e8a200"/>
      </g>
      <path id="路径_10267" data-name="路径 10267" d="M350.453,222.316c-5.14-2.967-12.073-4.267-18.785-3.9V220.4c6.712-.368,13.646.933,18.785,3.9,4.136,2.389,6.4,5.447,6.79,8.571C357.723,229.086,355.464,225.209,350.453,222.316Z" transform="translate(-307.32 -216.536)" fill="#fdd762"/>
    </g>
    <path id="路径_10268" data-name="路径 10268" d="M282.1,259.513l0-2.295c0-.142-.113-.19-.255-.108l-1.92,1.1a.529.529,0,0,0-.256.4l0,2.294c0,.141.113.19.255.108l1.92-1.1A.529.529,0,0,0,282.1,259.513Z" transform="translate(-0.971 -3.94)" fill="#9bcaff"/>
    <g id="组_1342" data-name="组 1342" transform="translate(343.342 332.898)">
      <g id="组_1339" data-name="组 1339">
        <path id="路径_10269" data-name="路径 10269" d="M369.042,386.224l-22.318-12.985c-1.884-1.087-1.647-2.986.528-4.242L368.524,356.6a8.172,8.172,0,0,1,7.349-.3l22.318,12.986c1.884,1.087,1.647,2.986-.528,4.242L376.39,385.919A8.166,8.166,0,0,1,369.042,386.224Z" transform="translate(-345.452 -338.542)" fill="#c4d9e8" opacity="0.5"/>
        <path id="路径_10270" data-name="路径 10270" d="M399.452,358.665h0v-4.471l-23.744-.013.164-.006a8.172,8.172,0,0,0-7.349.3l.7-.293-23.766-.014v4.773a2.129,2.129,0,0,0,1.262,1.968L369.042,373.9a8.166,8.166,0,0,0,7.349-.3L397.663,361.2C398.918,360.477,399.523,359.539,399.452,358.665Z" transform="translate(-345.452 -338.506)" fill="#173d7a"/>
        <path id="路径_10271" data-name="路径 10271" d="M372.462,353.447a8.486,8.486,0,0,0-3.939,1.033l.7-.293-23.766-.014v4.773a2.129,2.129,0,0,0,1.262,1.968L369.042,373.9a6.656,6.656,0,0,0,3.411.729Z" transform="translate(-345.452 -338.506)" fill="#396caa"/>
        <path id="路径_10272" data-name="路径 10272" d="M348.152,354.188l-2.69,0v4.773a2.129,2.129,0,0,0,1.262,1.968l1.428.824Z" transform="translate(-345.452 -338.519)" fill="#b2d3ea"/>
        <path id="路径_10273" data-name="路径 10273" d="M369.938,374.385a8.375,8.375,0,0,0,5.875-.067V368.07h-5.875Z" transform="translate(-345.876 -338.759)" fill="#274f89"/>
        <path id="路径_10274" data-name="路径 10274" d="M369.042,368.9l-22.318-12.985c-1.884-1.088-1.647-2.987.528-4.243l21.272-12.394a8.166,8.166,0,0,1,7.349-.3l22.318,12.985c1.884,1.088,1.647,2.987-.528,4.242L376.39,368.6A8.169,8.169,0,0,1,369.042,368.9Z" transform="translate(-345.452 -338.243)" fill="#d4ecff"/>
      </g>
      <g id="组_1340" data-name="组 1340" transform="translate(17.4 9.813)">
        <path id="路径_10275" data-name="路径 10275" d="M363.816,358.935a.968.968,0,0,1,0-1.834l14.708-8.492a3.512,3.512,0,0,1,3.176,0,.968.968,0,0,1,0,1.834l-14.708,8.492A3.512,3.512,0,0,1,363.816,358.935Z" transform="translate(-363.158 -348.229)" fill="#fff"/>
      </g>
      <g id="组_1341" data-name="组 1341" transform="translate(17.4 9.813)">
        <path id="路径_10276" data-name="路径 10276" d="M378.524,358.935l-14.709-8.492a.968.968,0,0,1,0-1.834,3.512,3.512,0,0,1,3.176,0L381.7,357.1a.968.968,0,0,1,0,1.834A3.512,3.512,0,0,1,378.524,358.935Z" transform="translate(-363.158 -348.229)" fill="#fff"/>
      </g>
    </g>
    <g id="组_1345" data-name="组 1345" transform="translate(239.281 71.46)">
      <g id="组_1343" data-name="组 1343" transform="translate(0 0)">
        <path id="路径_10277" data-name="路径 10277" d="M263.148,119.1,240.83,106.115c-1.884-1.088-1.647-2.987.528-4.243L262.63,89.478a8.166,8.166,0,0,1,7.349-.3L292.3,102.158c1.884,1.087,1.647,2.986-.528,4.242L270.5,118.8A8.169,8.169,0,0,1,263.148,119.1Z" transform="translate(-239.558 -72.482)" fill="#c4d9e8" opacity="0.5"/>
        <path id="路径_10278" data-name="路径 10278" d="M293.558,92.624h0V88.153l-23.744-.014.164,0a8.166,8.166,0,0,0-7.349.3l.7-.294-23.766-.013V92.9a2.13,2.13,0,0,0,1.262,1.969l22.318,12.985a8.169,8.169,0,0,0,7.349-.3l21.272-12.395C293.024,94.435,293.629,93.5,293.558,92.624Z" transform="translate(-239.558 -72.464)" fill="#173d7a"/>
        <path id="路径_10279" data-name="路径 10279" d="M266.568,87.4a8.487,8.487,0,0,0-3.939,1.034l.7-.294-23.766-.013V92.9a2.13,2.13,0,0,0,1.262,1.969l22.318,12.985a6.645,6.645,0,0,0,3.411.728Z" transform="translate(-239.558 -72.464)" fill="#396caa"/>
        <path id="路径_10280" data-name="路径 10280" d="M242.258,88.146h-2.69v4.772a2.13,2.13,0,0,0,1.262,1.969l1.428.824Z" transform="translate(-239.558 -72.477)" fill="#b2d3ea"/>
        <path id="路径_10281" data-name="路径 10281" d="M264.044,108.343a8.37,8.37,0,0,0,5.875-.067v-6.247h-5.875Z" transform="translate(-239.982 -72.717)" fill="#274f89"/>
        <path id="路径_10282" data-name="路径 10282" d="M263.148,102.862,240.83,89.877c-1.884-1.087-1.647-2.986.528-4.242L262.63,73.24a8.169,8.169,0,0,1,7.349-.3L292.3,85.921c1.884,1.087,1.647,2.986-.528,4.242L270.5,102.557A8.166,8.166,0,0,1,263.148,102.862Z" transform="translate(-239.558 -72.201)" fill="#d4ecff"/>
      </g>
      <path id="路径_10283" data-name="路径 10283" d="M273.923,85.446a3.412,3.412,0,0,1-3.085,0,.94.94,0,0,1,0-1.782,3.412,3.412,0,0,1,3.085,0A.94.94,0,0,1,273.923,85.446Z" transform="translate(-240.088 -72.393)" fill="#fff"/>
      <path id="路径_10284" data-name="路径 10284" d="M262.673,92.2a3.412,3.412,0,0,1-3.085,0,.94.94,0,0,1,0-1.782,3.412,3.412,0,0,1,3.085,0A.94.94,0,0,1,262.673,92.2Z" transform="translate(-239.894 -72.51)" fill="#fff"/>
      <g id="组_1344" data-name="组 1344" transform="translate(17.4 9.814)">
        <path id="路径_10285" data-name="路径 10285" d="M272.63,92.892,257.921,84.4a.968.968,0,0,1,0-1.834,3.512,3.512,0,0,1,3.176,0l14.709,8.491a.968.968,0,0,1,0,1.834A3.512,3.512,0,0,1,272.63,92.892Z" transform="translate(-257.264 -82.188)" fill="#fff"/>
      </g>
    </g>
  </g>
</svg>
