<svg xmlns="http://www.w3.org/2000/svg" xmlns:xlink="http://www.w3.org/1999/xlink" width="1203" height="411" viewBox="0 0 1203 411">
  <defs>
    <filter id="椭圆_414" x="0" y="7" width="124" height="124" filterUnits="userSpaceOnUse">
      <feOffset dy="3" input="SourceAlpha"/>
      <feGaussianBlur stdDeviation="3" result="blur"/>
      <feFlood flood-color="#9bcaff" flood-opacity="0.149"/>
      <feComposite operator="in" in2="blur"/>
      <feComposite in="SourceGraphic"/>
    </filter>
    <filter id="椭圆_432" x="263" y="7" width="124" height="124" filterUnits="userSpaceOnUse">
      <feOffset dy="3" input="SourceAlpha"/>
      <feGaussianBlur stdDeviation="3" result="blur-2"/>
      <feFlood flood-color="#9bcaff" flood-opacity="0.149"/>
      <feComposite operator="in" in2="blur-2"/>
      <feComposite in="SourceGraphic"/>
    </filter>
    <filter id="椭圆_433" x="539" y="6" width="124" height="124" filterUnits="userSpaceOnUse">
      <feOffset dy="3" input="SourceAlpha"/>
      <feGaussianBlur stdDeviation="3" result="blur-3"/>
      <feFlood flood-color="#9bcaff" flood-opacity="0.149"/>
      <feComposite operator="in" in2="blur-3"/>
      <feComposite in="SourceGraphic"/>
    </filter>
    <filter id="椭圆_434" x="1059" y="7" width="124" height="124" filterUnits="userSpaceOnUse">
      <feOffset dy="3" input="SourceAlpha"/>
      <feGaussianBlur stdDeviation="3" result="blur-4"/>
      <feFlood flood-color="#9bcaff" flood-opacity="0.149"/>
      <feComposite operator="in" in2="blur-4"/>
      <feComposite in="SourceGraphic"/>
    </filter>
    <filter id="椭圆_428" x="824" y="31" width="74" height="74" filterUnits="userSpaceOnUse">
      <feOffset dy="3" input="SourceAlpha"/>
      <feGaussianBlur stdDeviation="3" result="blur-5"/>
      <feFlood flood-color="#9bcaff" flood-opacity="0.149"/>
      <feComposite operator="in" in2="blur-5"/>
      <feComposite in="SourceGraphic"/>
    </filter>
    <filter id="椭圆_414-2" x="0" y="287" width="124" height="124" filterUnits="userSpaceOnUse">
      <feOffset dy="3" input="SourceAlpha"/>
      <feGaussianBlur stdDeviation="3" result="blur-6"/>
      <feFlood flood-color="#9bcaff" flood-opacity="0.149"/>
      <feComposite operator="in" in2="blur-6"/>
      <feComposite in="SourceGraphic"/>
    </filter>
    <filter id="椭圆_432-2" x="263" y="287" width="124" height="124" filterUnits="userSpaceOnUse">
      <feOffset dy="3" input="SourceAlpha"/>
      <feGaussianBlur stdDeviation="3" result="blur-7"/>
      <feFlood flood-color="#9bcaff" flood-opacity="0.149"/>
      <feComposite operator="in" in2="blur-7"/>
      <feComposite in="SourceGraphic"/>
    </filter>
    <filter id="椭圆_433-2" x="539" y="286" width="124" height="124" filterUnits="userSpaceOnUse">
      <feOffset dy="3" input="SourceAlpha"/>
      <feGaussianBlur stdDeviation="3" result="blur-8"/>
      <feFlood flood-color="#9bcaff" flood-opacity="0.149"/>
      <feComposite operator="in" in2="blur-8"/>
      <feComposite in="SourceGraphic"/>
    </filter>
    <filter id="椭圆_434-2" x="1059" y="287" width="124" height="124" filterUnits="userSpaceOnUse">
      <feOffset dy="3" input="SourceAlpha"/>
      <feGaussianBlur stdDeviation="3" result="blur-9"/>
      <feFlood flood-color="#9bcaff" flood-opacity="0.149"/>
      <feComposite operator="in" in2="blur-9"/>
      <feComposite in="SourceGraphic"/>
    </filter>
    <filter id="椭圆_428-2" x="824" y="311" width="74" height="74" filterUnits="userSpaceOnUse">
      <feOffset dy="3" input="SourceAlpha"/>
      <feGaussianBlur stdDeviation="3" result="blur-10"/>
      <feFlood flood-color="#9bcaff" flood-opacity="0.149"/>
      <feComposite operator="in" in2="blur-10"/>
      <feComposite in="SourceGraphic"/>
    </filter>
  </defs>
  <g id="Key_Exchange" data-name="Key Exchange" transform="translate(-636 -3242.461)">
    <g id="组_1296" data-name="组 1296" transform="translate(-0.5 67.961)">
      <path id="路径_10004" data-name="路径 10004" d="M3178,2239.6v399.478" transform="translate(-2217.5 934.899)" fill="none" stroke="#cce3ff" stroke-width="1" stroke-dasharray="4"/>
      <path id="路径_9998" data-name="路径 9998" d="M3178,2239.6v399.478" transform="translate(-1941 935)" fill="none" stroke="#cce3ff" stroke-width="1" stroke-dasharray="4"/>
      <path id="路径_9999" data-name="路径 9999" d="M0,0V1191.8" transform="translate(1838.298 3370.485) rotate(90)" fill="none" stroke="#cce3ff" stroke-width="1" stroke-dasharray="4"/>
      <path id="路径_10000" data-name="路径 10000" d="M0,0V1191.8" transform="translate(1838.297 3519.72) rotate(90)" fill="none" stroke="#cce3ff" stroke-width="1" stroke-dasharray="4"/>
      <path id="路径_10003" data-name="路径 10003" d="M3178,2239.6v399.478" transform="translate(-2481 935)" fill="none" stroke="#cce3ff" stroke-width="1" stroke-dasharray="4"/>
      <path id="路径_10329" data-name="路径 10329" d="M0,0V1191.8" transform="translate(1838.298 3239.72) rotate(90)" fill="none" stroke="#cce3ff" stroke-width="1" stroke-dasharray="4"/>
      <path id="路径_10334" data-name="路径 10334" d="M3178,2239.6v399.478" transform="translate(-1681 935)" fill="none" stroke="#cce3ff" stroke-width="1" stroke-dasharray="4"/>
      <path id="路径_10335" data-name="路径 10335" d="M3178,2239.6v399.478" transform="translate(-1421 935)" fill="none" stroke="#cce3ff" stroke-width="1" stroke-dasharray="4"/>
    </g>
    <path id="路径_10336" data-name="路径 10336" d="M953.532,1705.074V1576.984h535.081V1424.909" transform="translate(7 1884.461)" fill="none" stroke="#042e7a" stroke-width="3"/>
    <path id="路径_10328" data-name="路径 10328" d="M953.532,1424.909V1553h535.081v152.075" transform="translate(7 1884.461)" fill="none" stroke="#9bcaff" stroke-width="3"/>
    <path id="路径_10337" data-name="路径 10337" d="M1667.6,1390v271.3" transform="translate(88 1911.461)" fill="none" stroke="#9bcaff" stroke-width="3"/>
    <g id="组_1368" data-name="组 1368">
      <g transform="matrix(1, 0, 0, 1, 636, 3242.46)" filter="url(#椭圆_414)">
        <circle id="椭圆_414-3" data-name="椭圆 414" cx="53" cy="53" r="53" transform="translate(9 13)" fill="#fff"/>
      </g>
      <g transform="matrix(1, 0, 0, 1, 636, 3242.46)" filter="url(#椭圆_432)">
        <circle id="椭圆_432-3" data-name="椭圆 432" cx="53" cy="53" r="53" transform="translate(272 13)" fill="#fff"/>
      </g>
      <g transform="matrix(1, 0, 0, 1, 636, 3242.46)" filter="url(#椭圆_433)">
        <circle id="椭圆_433-3" data-name="椭圆 433" cx="53" cy="53" r="53" transform="translate(548 12)" fill="#1f8aff"/>
      </g>
      <g transform="matrix(1, 0, 0, 1, 636, 3242.46)" filter="url(#椭圆_434)">
        <circle id="椭圆_434-3" data-name="椭圆 434" cx="53" cy="53" r="53" transform="translate(1068 13)" fill="#fff"/>
      </g>
      <g id="组_1159" data-name="组 1159" transform="translate(1433.695 2760.54)">
        <text id="G" transform="translate(295.305 555.921)" fill="#687992" font-size="22" font-family="SFCompactText-Light, SF Text" font-weight="300"><tspan x="-7.084" y="0">G</tspan></text>
        <text id="A_B" data-name="A*B" transform="translate(302.305 542.921)" fill="#687992" font-size="7" font-family="SFCompactText-Light, SF Text" font-weight="300"><tspan x="0" y="0">A*B</tspan></text>
        <text id="modp" transform="translate(335.305 554.921)" fill="#687992" font-size="18" font-family="SFCompactText-Light, SF Text" font-weight="300"><tspan x="-23.291" y="0">modp</tspan></text>
      </g>
      <g id="组_1365" data-name="组 1365" transform="translate(86 1911.461)">
        <text id="G-2" data-name="G" transform="translate(585 1405)" fill="#687992" font-size="23" font-family="SFCompactText-Light, SF Text" font-weight="300"><tspan x="-7.406" y="0">G</tspan></text>
        <text id="A" transform="translate(596 1392)" fill="#687992" font-size="7" font-family="SFCompactText-Light, SF Text" font-weight="300"><tspan x="-2.111" y="0">A</tspan></text>
        <text id="modp-2" data-name="modp" transform="translate(624 1404)" fill="#687992" font-size="18" font-family="SFCompactText-Light, SF Text" font-weight="300"><tspan x="-23.291" y="0">modp</tspan></text>
      </g>
      <g id="组_1150" data-name="组 1150" transform="translate(633 2666.461)">
        <text id="G-3" data-name="G" transform="translate(295 650)" fill="#687992" font-size="22" font-family="SFCompactText-Light, SF Text" font-weight="300"><tspan x="-7.084" y="0">G</tspan></text>
        <text id="P" transform="translate(320 650)" fill="#687992" font-size="22" font-family="SFCompactText-Light, SF Text" font-weight="300"><tspan x="-6.397" y="0">P</tspan></text>
        <text id="_" data-name="+" transform="translate(308 650)" fill="#687992" font-size="22" font-family="SFCompactText-Light, SF Text" font-weight="300"><tspan x="-6.026" y="0">+</tspan></text>
        <text id="_2" data-name="*" transform="translate(327 633)" fill="#687992" font-size="22" font-family="SFCompactText-Light, SF Text" font-weight="300"><tspan x="-0.285" y="21">*</tspan></text>
        <text id="_1" data-name="1" transform="translate(342 650)" fill="#687992" font-size="22" font-family="SFCompactText-Light, SF Text" font-weight="300"><tspan x="-4.888" y="0">1</tspan></text>
        <text id="_3" data-name="=" transform="translate(353 650)" fill="#687992" font-size="22" font-family="SFCompactText-Light, SF Text" font-weight="300"><tspan x="-6.026" y="0">=</tspan></text>
        <text id="_4" data-name="?" transform="translate(364 650)" fill="#687992" font-size="22" font-family="SFCompactText-Light, SF Text" font-weight="300"><tspan x="-5.285" y="0">?</tspan></text>
      </g>
      <text id="Rand_A" data-name="Rand A" transform="translate(1237 3315.461)" fill="#fff" font-size="22" font-family="SFCompactText-Light, SF Text" font-weight="300"><tspan x="-34.601" y="0">Rand A</tspan></text>
      <g id="组_1367" data-name="组 1367" transform="translate(537 -132)">
        <g transform="matrix(1, 0, 0, 1, 99, 3374.46)" filter="url(#椭圆_428)">
          <circle id="椭圆_428-3" data-name="椭圆 428" cx="28" cy="28" r="28" transform="translate(833 37)" fill="#1f8aff"/>
        </g>
        <g id="组_1355" data-name="组 1355" transform="translate(126.109 2032.791)">
          <rect id="矩形_727" data-name="矩形 727" width="18" height="14" rx="2" transform="translate(824.892 1404.67)" fill="#fff"/>
          <g id="矩形_728" data-name="矩形 728" transform="translate(826.892 1394.67)" fill="none" stroke="#fff" stroke-width="4">
            <rect width="14" height="19" rx="7" stroke="none"/>
            <rect x="2" y="2" width="10" height="15" rx="5" fill="none"/>
          </g>
          <path id="联合_3" data-name="联合 3" d="M.637,5.3a.5.5,0,0,1-.446-.724l.875-1.75a1.767,1.767,0,1,1,2.827,0l.875,1.751a.5.5,0,0,1-.447.724Z" transform="translate(831.412 1408.438)" fill="#1f8aff"/>
        </g>
      </g>
      <circle id="椭圆_468" data-name="椭圆 468" cx="4" cy="4" r="4" transform="translate(957 3432.461)" fill="#042e7a"/>
      <circle id="椭圆_469" data-name="椭圆 469" cx="4" cy="4" r="4" transform="translate(1492 3432.461)" fill="#042e7a"/>
      <circle id="椭圆_470" data-name="椭圆 470" cx="4" cy="4" r="4" transform="translate(1492 3540.461)" fill="#042e7a"/>
      <circle id="椭圆_471" data-name="椭圆 471" cx="4" cy="4" r="4" transform="translate(1233 3457.461)" fill="#042e7a"/>
      <circle id="椭圆_472" data-name="椭圆 472" cx="4" cy="4" r="4" transform="translate(1752 3436.461)" fill="#042e7a"/>
    </g>
    <g id="组_1369" data-name="组 1369" transform="translate(0 280)">
      <g transform="matrix(1, 0, 0, 1, 636, 2962.46)" filter="url(#椭圆_414-2)">
        <circle id="椭圆_414-4" data-name="椭圆 414" cx="53" cy="53" r="53" transform="translate(9 293)" fill="#1f8aff"/>
      </g>
      <g transform="matrix(1, 0, 0, 1, 636, 2962.46)" filter="url(#椭圆_432-2)">
        <circle id="椭圆_432-4" data-name="椭圆 432" cx="53" cy="53" r="53" transform="translate(272 293)" fill="#1f8aff"/>
      </g>
      <g transform="matrix(1, 0, 0, 1, 636, 2962.46)" filter="url(#椭圆_433-2)">
        <circle id="椭圆_433-4" data-name="椭圆 433" cx="53" cy="53" r="53" transform="translate(548 292)" fill="#fff"/>
      </g>
      <g transform="matrix(1, 0, 0, 1, 636, 2962.46)" filter="url(#椭圆_434-2)">
        <circle id="椭圆_434-4" data-name="椭圆 434" cx="53" cy="53" r="53" transform="translate(1068 293)" fill="#1f8aff"/>
      </g>
      <g id="组_1159-2" data-name="组 1159" transform="translate(1433.695 2760.54)">
        <text id="G-4" data-name="G" transform="translate(295.305 555.921)" fill="#fff" font-size="22" font-family="SFCompactText-Light, SF Text" font-weight="300"><tspan x="-7.084" y="0">G</tspan></text>
        <text id="A_B-2" data-name="A*B" transform="translate(302.305 542.921)" fill="#fff" font-size="7" font-family="SFCompactText-Light, SF Text" font-weight="300"><tspan x="0" y="0">A*B</tspan></text>
        <text id="modp-3" data-name="modp" transform="translate(335.305 554.921)" fill="#fff" font-size="18" font-family="SFCompactText-Light, SF Text" font-weight="300"><tspan x="-23.291" y="0">modp</tspan></text>
      </g>
      <g id="组_1365-2" data-name="组 1365" transform="translate(86 1911.461)">
        <text id="G-5" data-name="G" transform="translate(585 1405)" fill="#fff" font-size="23" font-family="SFCompactText-Light, SF Text" font-weight="300"><tspan x="-7.406" y="0">G</tspan></text>
        <text id="B" transform="translate(596 1392)" fill="#fff" font-size="7" font-family="SFCompactText-Light, SF Text" font-weight="300"><tspan x="-2.165" y="0">B</tspan></text>
        <text id="modp-4" data-name="modp" transform="translate(624 1404)" fill="#fff" font-size="18" font-family="SFCompactText-Light, SF Text" font-weight="300"><tspan x="-23.291" y="0">modp</tspan></text>
      </g>
      <g id="组_1150-2" data-name="组 1150" transform="translate(633 2666.461)">
        <text id="G-6" data-name="G" transform="translate(295 650)" fill="#fff" font-size="22" font-family="SFCompactText-Light, SF Text" font-weight="300"><tspan x="-7.084" y="0">G</tspan></text>
        <text id="P-2" data-name="P" transform="translate(320 650)" fill="#fff" font-size="22" font-family="SFCompactText-Light, SF Text" font-weight="300"><tspan x="-6.397" y="0">P</tspan></text>
        <text id="_5" data-name="+" transform="translate(308 650)" fill="#fff" font-size="22" font-family="SFCompactText-Light, SF Text" font-weight="300"><tspan x="-6.026" y="0">+</tspan></text>
        <text id="_6" data-name="*" transform="translate(327 633)" fill="#fff" font-size="22" font-family="SFCompactText-Light, SF Text" font-weight="300"><tspan x="-0.285" y="21">*</tspan></text>
        <text id="_1-2" data-name="1" transform="translate(342 650)" fill="#fff" font-size="22" font-family="SFCompactText-Light, SF Text" font-weight="300"><tspan x="-4.888" y="0">1</tspan></text>
        <text id="_7" data-name="=" transform="translate(353 650)" fill="#fff" font-size="22" font-family="SFCompactText-Light, SF Text" font-weight="300"><tspan x="-6.026" y="0">=</tspan></text>
        <text id="_8" data-name="?" transform="translate(364 650)" fill="#fff" font-size="22" font-family="SFCompactText-Light, SF Text" font-weight="300"><tspan x="-5.285" y="0">?</tspan></text>
      </g>
      <text id="Rand_B" data-name="Rand B" transform="translate(1237 3315.461)" fill="#687992" font-size="22" font-family="SFCompactText-Light, SF Text" font-weight="300"><tspan x="-34.772" y="0">Rand B</tspan></text>
      <g id="组_1367-2" data-name="组 1367" transform="translate(537 -132)">
        <g transform="matrix(1, 0, 0, 1, 99, 3094.46)" filter="url(#椭圆_428-2)">
          <circle id="椭圆_428-4" data-name="椭圆 428" cx="28" cy="28" r="28" transform="translate(833 317)" fill="#fff"/>
        </g>
        <g id="组_1355-2" data-name="组 1355" transform="translate(126.109 2032.791)">
          <rect id="矩形_727-2" data-name="矩形 727" width="18" height="14" rx="2" transform="translate(824.892 1404.67)" fill="#042e7a"/>
          <g id="矩形_728-2" data-name="矩形 728" transform="translate(826.892 1394.67)" fill="none" stroke="#042e7a" stroke-width="4">
            <rect width="14" height="19" rx="7" stroke="none"/>
            <rect x="2" y="2" width="10" height="15" rx="5" fill="none"/>
          </g>
          <path id="联合_3-2" data-name="联合 3" d="M.637,5.3a.5.5,0,0,1-.446-.724l.875-1.75a1.767,1.767,0,1,1,2.827,0l.875,1.751a.5.5,0,0,1-.447.724Z" transform="translate(831.412 1408.438)" fill="#fff"/>
        </g>
      </g>
    </g>
    <text id="Equal" transform="translate(1811 3444.461)" fill="#687992" font-size="22" font-family="SFCompactText-Light, SF Text" font-weight="300"><tspan x="-27.559" y="0">Equal</tspan></text>
  </g>
</svg>
