<svg xmlns="http://www.w3.org/2000/svg" xmlns:xlink="http://www.w3.org/1999/xlink" width="1422.725" height="399.579" viewBox="0 0 1422.725 399.579">
  <defs>
    <filter id="椭圆_428" x="16" y="162" width="74" height="74" filterUnits="userSpaceOnUse">
      <feOffset dy="3" input="SourceAlpha"/>
      <feGaussianBlur stdDeviation="3" result="blur"/>
      <feFlood flood-color="#9bcaff" flood-opacity="0.149"/>
      <feComposite operator="in" in2="blur"/>
      <feComposite in="SourceGraphic"/>
    </filter>
    <filter id="椭圆_428-2" x="540" y="162" width="74" height="74" filterUnits="userSpaceOnUse">
      <feOffset dy="3" input="SourceAlpha"/>
      <feGaussianBlur stdDeviation="3" result="blur-2"/>
      <feFlood flood-color="#9bcaff" flood-opacity="0.149"/>
      <feComposite operator="in" in2="blur-2"/>
      <feComposite in="SourceGraphic"/>
    </filter>
    <filter id="椭圆_414" x="254" y="136.539" width="124" height="124" filterUnits="userSpaceOnUse">
      <feOffset dy="3" input="SourceAlpha"/>
      <feGaussianBlur stdDeviation="3" result="blur-3"/>
      <feFlood flood-color="#9bcaff" flood-opacity="0.149"/>
      <feComposite operator="in" in2="blur-3"/>
      <feComposite in="SourceGraphic"/>
    </filter>
    <filter id="椭圆_454" x="804" y="162" width="74" height="74" filterUnits="userSpaceOnUse">
      <feOffset dy="3" input="SourceAlpha"/>
      <feGaussianBlur stdDeviation="3" result="blur-4"/>
      <feFlood flood-color="#9bcaff" flood-opacity="0.149"/>
      <feComposite operator="in" in2="blur-4"/>
      <feComposite in="SourceGraphic"/>
    </filter>
    <filter id="椭圆_455" x="1343" y="162" width="74" height="74" filterUnits="userSpaceOnUse">
      <feOffset dy="3" input="SourceAlpha"/>
      <feGaussianBlur stdDeviation="3" result="blur-5"/>
      <feFlood flood-color="#9bcaff" flood-opacity="0.149"/>
      <feComposite operator="in" in2="blur-5"/>
      <feComposite in="SourceGraphic"/>
    </filter>
    <filter id="椭圆_456" x="1054" y="136.539" width="124" height="124" filterUnits="userSpaceOnUse">
      <feOffset dy="3" input="SourceAlpha"/>
      <feGaussianBlur stdDeviation="3" result="blur-6"/>
      <feFlood flood-color="#9bcaff" flood-opacity="0.149"/>
      <feComposite operator="in" in2="blur-6"/>
      <feComposite in="SourceGraphic"/>
    </filter>
  </defs>
  <g id="KongTalk_encryption_principle_explained_in_detail" data-name="KongTalk encryption principle explained in detail" transform="translate(-119.812 -3242.461)">
    <g id="组_1296" data-name="组 1296" transform="translate(-0.5 67.961)">
      <path id="路径_10004" data-name="路径 10004" d="M3178,2239.6v399.478" transform="translate(-2217.5 934.899)" fill="none" stroke="#cce3ff" stroke-width="1" stroke-dasharray="4"/>
      <path id="路径_9998" data-name="路径 9998" d="M3178,2239.6v399.478" transform="translate(-1941 935)" fill="none" stroke="#cce3ff" stroke-width="1" stroke-dasharray="4"/>
      <path id="路径_9999" data-name="路径 9999" d="M2.679,0V1422.724" transform="translate(1543.036 3367.806) rotate(90)" fill="none" stroke="#cce3ff" stroke-width="1" stroke-dasharray="4"/>
      <path id="路径_10000" data-name="路径 10000" d="M0,0V1422.724" transform="translate(1543.036 3521.575) rotate(90)" fill="none" stroke="#cce3ff" stroke-width="1" stroke-dasharray="4"/>
      <path id="路径_10003" data-name="路径 10003" d="M3178,2239.6v399.478" transform="translate(-2481 935)" fill="none" stroke="#cce3ff" stroke-width="1" stroke-dasharray="4"/>
      <path id="路径_10329" data-name="路径 10329" d="M0,0V1422.724" transform="translate(1543.036 3237.498) rotate(90)" fill="none" stroke="#cce3ff" stroke-width="1" stroke-dasharray="4"/>
      <path id="路径_10332" data-name="路径 10332" d="M3178,2239.6v399.478" transform="translate(-1678 935)" fill="none" stroke="#cce3ff" stroke-width="1" stroke-dasharray="4"/>
      <path id="路径_10348" data-name="路径 10348" d="M3178,2239.6v399.478" transform="translate(-2741.5 934.899)" fill="none" stroke="#cce3ff" stroke-width="1" stroke-dasharray="4"/>
      <path id="路径_10349" data-name="路径 10349" d="M3178,2239.6v399.478" transform="translate(-3005 935)" fill="none" stroke="#cce3ff" stroke-width="1" stroke-dasharray="4"/>
    </g>
    <path id="路径_10350" data-name="路径 10350" d="M6353,3192h663.1" transform="translate(-6180.188 246.461)" fill="none" stroke="#9bcaff" stroke-width="3"/>
    <path id="路径_10351" data-name="路径 10351" d="M6353,3192h663.1" transform="translate(-5516.188 246.461)" fill="none" stroke="#042e7a" stroke-width="3"/>
    <g transform="matrix(1, 0, 0, 1, 119.81, 3242.46)" filter="url(#椭圆_428)">
      <circle id="椭圆_428-3" data-name="椭圆 428" cx="28" cy="28" r="28" transform="translate(25 168)" fill="#1f8aff"/>
    </g>
    <g transform="matrix(1, 0, 0, 1, 119.81, 3242.46)" filter="url(#椭圆_428-2)">
      <circle id="椭圆_428-4" data-name="椭圆 428" cx="28" cy="28" r="28" transform="translate(549 168)" fill="#1f8aff"/>
    </g>
    <g id="组_1355" data-name="组 1355" transform="translate(-137.08 2031.791)">
      <rect id="矩形_727" data-name="矩形 727" width="18" height="14" rx="2" transform="translate(824.892 1404.67)" fill="#fff"/>
      <g id="矩形_728" data-name="矩形 728" transform="translate(826.892 1394.67)" fill="none" stroke="#fff" stroke-width="4">
        <rect width="14" height="19" rx="7" stroke="none"/>
        <rect x="2" y="2" width="10" height="15" rx="5" fill="none"/>
      </g>
      <path id="联合_3" data-name="联合 3" d="M.637,5.3a.5.5,0,0,1-.446-.724l.875-1.75a1.767,1.767,0,1,1,2.827,0l.875,1.751a.5.5,0,0,1-.447.724Z" transform="translate(831.412 1408.438)" fill="#1f8aff"/>
    </g>
    <g id="组_1383" data-name="组 1383" transform="translate(-1 98)">
      <g transform="matrix(1, 0, 0, 1, 120.81, 3144.46)" filter="url(#椭圆_414)">
        <circle id="椭圆_414-2" data-name="椭圆 414" cx="53" cy="53" r="53" transform="translate(263 142.54)" fill="#1f8aff"/>
      </g>
      <text id="Hello_" data-name="Hello!" transform="translate(436.812 3349)" fill="#fff" font-size="25" font-family="SFCompactText-Light, SF Text" font-weight="300"><tspan x="-32.239" y="0">Hello!</tspan></text>
    </g>
    <g transform="matrix(1, 0, 0, 1, 119.81, 3242.46)" filter="url(#椭圆_454)">
      <circle id="椭圆_454-2" data-name="椭圆 454" cx="28" cy="28" r="28" transform="translate(813 168)" fill="#042e7a"/>
    </g>
    <g id="组_1384" data-name="组 1384" transform="translate(126.92 2031.791)">
      <rect id="矩形_727-2" data-name="矩形 727" width="18" height="14" rx="2" transform="translate(824.892 1404.67)" fill="#fff"/>
      <g id="矩形_728-2" data-name="矩形 728" transform="translate(826.892 1394.67)" fill="none" stroke="#fff" stroke-width="4">
        <rect width="14" height="19" rx="7" stroke="none"/>
        <rect x="2" y="2" width="10" height="15" rx="5" fill="none"/>
      </g>
      <path id="联合_3-2" data-name="联合 3" d="M.637,5.3a.5.5,0,0,1-.446-.724l.875-1.75a1.767,1.767,0,1,1,2.827,0l.875,1.751a.5.5,0,0,1-.447.724Z" transform="translate(831.412 1408.438)" fill="#042e7a"/>
    </g>
    <circle id="椭圆_444" data-name="椭圆 444" cx="4" cy="4" r="4" transform="translate(832.812 3434.461)" fill="#042e7a"/>
    <circle id="椭圆_457" data-name="椭圆 457" cx="4" cy="4" r="4" transform="translate(302.812 3434.461)" fill="#042e7a"/>
    <circle id="椭圆_458" data-name="椭圆 458" cx="4" cy="4" r="4" transform="translate(1422.812 3434.461)" fill="#042e7a"/>
    <text id="A" transform="translate(172.812 3447.461)" fill="#fff" font-size="25" font-family="SFCompactText-Light, SF Text" font-weight="300"><tspan x="-7.538" y="0">A</tspan></text>
    <g transform="matrix(1, 0, 0, 1, 119.81, 3242.46)" filter="url(#椭圆_455)">
      <circle id="椭圆_455-2" data-name="椭圆 455" cx="28" cy="28" r="28" transform="translate(1352 168)" fill="#042e7a"/>
    </g>
    <g transform="matrix(1, 0, 0, 1, 119.81, 3242.46)" filter="url(#椭圆_456)">
      <circle id="椭圆_456-2" data-name="椭圆 456" cx="53" cy="53" r="53" transform="translate(1063 142.54)" fill="#042e7a"/>
    </g>
    <text id="Hello_2" data-name="Hello!" transform="translate(1235.812 3447)" fill="#fff" font-size="25" font-family="SFCompactText-Light, SF Text" font-weight="300"><tspan x="-32.239" y="0">Hello!</tspan></text>
    <text id="A-2" data-name="A" transform="translate(1499.812 3447.461)" fill="#fff" font-size="25" font-family="SFCompactText-Light, SF Text" font-weight="300"><tspan x="-7.538" y="0">A</tspan></text>
  </g>
</svg>
