<svg xmlns="http://www.w3.org/2000/svg" width="629.783" height="653.211" viewBox="0 0 629.783 653.211">
  <g id="A_simple_example_to_describe_the_RSA_algorithm" data-name="A simple example to describe the RSA algorithm" transform="translate(-40.5 -2739.5)">
    <path id="路径_10358" data-name="路径 10358" d="M6.6,5.68H1.924V19H3.35V13.57H6.816L9.375,19h1.641L8.242,13.268a3.68,3.68,0,0,0,2.539-3.691C10.781,7.213,9.15,5.68,6.6,5.68ZM3.35,12.262V6.979H6.416c1.826,0,2.891.986,2.891,2.7,0,1.68-1.045,2.588-2.959,2.588Zm13.438,6.9a3.316,3.316,0,0,0,3.008-1.592h.068V19H21.23V11.939c0-2.412-1.66-3.33-3.7-3.33-2.148,0-3.525.908-3.682,2.568h1.377c.215-.723.8-1.309,2.236-1.309s2.344.654,2.344,2.1v1.1H17.012c-2.334,0-3.564,1.211-3.564,2.969A3.065,3.065,0,0,0,16.787,19.166Zm.342-1.25a1.956,1.956,0,0,1-2.217-1.9c0-1,.615-1.758,2.129-1.758H19.8v1.24A2.505,2.505,0,0,1,17.129,17.916ZM24.795,19H26.2V13.238c0-1.846.938-3.369,2.91-3.369,1.533,0,2.393.947,2.393,2.6V19H32.92V12.018a3.165,3.165,0,0,0-3.5-3.408,2.931,2.931,0,0,0-3.145,2.07H26.2v-1.9H24.795ZM39.961,8.609a3.885,3.885,0,0,0-3.994,4.229v2.1c0,2.559,1.572,4.219,3.945,4.219a3.148,3.148,0,0,0,3.145-1.846h.068V19h1.348V4.967H43.057v5.391h-.068A3.069,3.069,0,0,0,39.961,8.609Zm.176,1.26a2.847,2.847,0,0,1,2.92,2.979v1.885c0,1.885-1.1,3.174-2.871,3.174-1.719,0-2.8-1.24-2.8-3.34V13.189C37.383,11.08,38.467,9.869,40.137,9.869Zm11.8-1.26a4.174,4.174,0,0,0-4.316,4.473v1.611a4.314,4.314,0,1,0,8.623,0V13.082A4.135,4.135,0,0,0,51.934,8.609Zm.01,1.26c1.738,0,2.881,1.328,2.881,3.379v1.3c0,2.1-1.094,3.369-2.881,3.369-1.807,0-2.92-1.279-2.92-3.369v-1.3C49.023,11.2,50.2,9.869,51.943,9.869ZM59.355,19h1.406V12.428a2.387,2.387,0,0,1,2.4-2.559A2.215,2.215,0,0,1,65.5,12.262V19h1.416V12.418a2.432,2.432,0,0,1,2.441-2.549,2.123,2.123,0,0,1,2.295,2.324V19h1.406V11.813c0-2.08-1.3-3.2-3.369-3.2a3.159,3.159,0,0,0-3.125,1.963H66.5a2.8,2.8,0,0,0-2.881-1.963,2.617,2.617,0,0,0-2.783,1.807h-.078V8.775H59.355Zm17.334,0h1.416V4.967H76.689ZM89.6,8.775H88.1l-2.92,8.76h-.068l-2.93-8.76H80.605l3.809,10.381-.156.518a1.952,1.952,0,0,1-2.08,1.66,5.854,5.854,0,0,1-.732-.059v1.2a5.3,5.3,0,0,0,.9.078c1.6,0,2.559-.791,3.311-2.8l.254-.664ZM97.51,19h1.406V9.957h2.471V8.775H98.916V7.809c0-1.3.537-1.689,1.807-1.689.264,0,.762.02.928.039v-1.2c-.186-.02-.664-.059-1.094-.059-2.158,0-3.047.9-3.047,2.813V8.775H95.762V9.957H97.51Zm6.982,0H105.9V8.775h-1.406Zm-.381-13.379a1.084,1.084,0,1,0,1.074-1.094A1.065,1.065,0,0,0,104.111,5.621ZM109.766,19h1.406V13.238c0-1.846.938-3.369,2.91-3.369,1.533,0,2.393.947,2.393,2.6V19h1.416V12.018a3.165,3.165,0,0,0-3.5-3.408,2.931,2.931,0,0,0-3.145,2.07h-.078v-1.9h-1.406ZM124.932,8.609a3.885,3.885,0,0,0-3.994,4.229v2.1c0,2.559,1.572,4.219,3.945,4.219a3.148,3.148,0,0,0,3.145-1.846h.068V19h1.348V4.967h-1.416v5.391h-.068A3.069,3.069,0,0,0,124.932,8.609Zm.176,1.26a2.847,2.847,0,0,1,2.92,2.979v1.885c0,1.885-1.1,3.174-2.871,3.174-1.719,0-2.8-1.24-2.8-3.34V13.189C122.354,11.08,123.438,9.869,125.107,9.869Zm13.047-1.094h-1.631V9.957h1.631v6.27c0,1.963.459,2.871,2.793,2.871a11.515,11.515,0,0,0,1.182-.078V17.838c-.176.02-.6.049-.84.049-1.318,0-1.729-.332-1.729-1.592V9.957h2.4V8.775h-2.4V6.217h-1.406Zm19.17,0h-1.416l-2,8.32h-.068l-2.471-8.32H150.02l-2.412,8.32h-.059l-1.973-8.32h-1.6L146.865,19h1.4l2.422-8.154h.039L153.193,19h1.387Zm6.025-.166a4.174,4.174,0,0,0-4.316,4.473v1.611a4.314,4.314,0,1,0,8.623,0V13.082A4.135,4.135,0,0,0,163.35,8.609Zm.01,1.26c1.738,0,2.881,1.328,2.881,3.379v1.3c0,2.1-1.094,3.369-2.881,3.369-1.807,0-2.92-1.279-2.92-3.369v-1.3C160.439,11.2,161.611,9.869,163.359,9.869Zm16.445,9.3c2.4,0,3.994-1.641,3.994-4.336V12.936c0-2.646-1.553-4.326-3.936-4.326a3.161,3.161,0,0,0-3.125,1.855h-.078v-1.7h-1.338V22.379h1.406V17.428h.078A3.051,3.051,0,0,0,179.8,19.166Zm-.186-1.25a2.808,2.808,0,0,1-2.891-2.979v-1.9c0-1.914,1.074-3.164,2.842-3.164s2.813,1.23,2.813,3.418V14.5C182.383,16.7,181.318,17.916,179.619,17.916ZM187.08,19h1.406V12.564a2.529,2.529,0,0,1,2.793-2.627,5.332,5.332,0,0,1,.8.049V8.668a6.218,6.218,0,0,0-.635-.049,2.823,2.823,0,0,0-2.891,1.8h-.068V8.775H187.08Zm7.676,0h1.406V8.775h-1.406Zm-.381-13.379a1.084,1.084,0,1,0,1.074-1.094A1.065,1.065,0,0,0,194.375,5.621ZM200.029,19h1.406V12.428a2.387,2.387,0,0,1,2.4-2.559,2.215,2.215,0,0,1,2.334,2.393V19h1.416V12.418a2.432,2.432,0,0,1,2.441-2.549,2.123,2.123,0,0,1,2.295,2.324V19h1.406V11.813c0-2.08-1.3-3.2-3.369-3.2a3.159,3.159,0,0,0-3.125,1.963h-.059A2.8,2.8,0,0,0,204.3,8.609a2.617,2.617,0,0,0-2.783,1.807h-.078V8.775h-1.406Zm21.025.166c2.49,0,3.7-1.543,3.857-2.6h-1.494a2.3,2.3,0,0,1-2.373,1.348c-1.846,0-2.832-1.338-2.832-3.125v-.537h6.846V13.111c0-2.773-1.719-4.5-4.131-4.5s-4.131,1.729-4.131,4.5v1.582C216.8,17.418,218.359,19.166,221.055,19.166Zm-2.842-6.016v-.166c0-1.9,1.084-3.115,2.715-3.115s2.715,1.211,2.715,3.115v.166ZM1.807,49H3.213V43.238c0-1.846.938-3.369,2.91-3.369,1.533,0,2.393.947,2.393,2.6V49H9.932V42.018a3.165,3.165,0,0,0-3.5-3.408,2.931,2.931,0,0,0-3.145,2.07H3.213v-1.9H1.807ZM21.5,38.775H20.088V45.25a2.761,2.761,0,0,1-2.861,2.666,2.164,2.164,0,0,1-2.412-2.393V38.775H13.4v7.119c0,2.363,1.484,3.271,3.516,3.271a3.089,3.089,0,0,0,3.1-1.914h.078V49H21.5ZM25.117,49h1.406V42.428a2.387,2.387,0,0,1,2.4-2.559,2.215,2.215,0,0,1,2.334,2.393V49h1.416V42.418a2.432,2.432,0,0,1,2.441-2.549,2.123,2.123,0,0,1,2.295,2.324V49h1.406V41.813c0-2.08-1.3-3.2-3.369-3.2a3.159,3.159,0,0,0-3.125,1.963h-.059a2.8,2.8,0,0,0-2.881-1.963A2.617,2.617,0,0,0,26.6,40.416h-.078V38.775H25.117Zm21.787.166c2.441,0,3.994-1.68,3.994-4.336V42.936c0-2.637-1.533-4.326-3.936-4.326a3.056,3.056,0,0,0-3.086,1.855h-.068v-5.5H42.393V49H43.74V47.428h.068A3.2,3.2,0,0,0,46.9,49.166Zm-.166-1.25a2.873,2.873,0,0,1-2.93-3.027V43.082c0-1.963,1.123-3.213,2.881-3.213s2.793,1.27,2.793,3.438v1.211C49.482,46.656,48.467,47.916,46.738,47.916Zm11.025,1.25c2.49,0,3.7-1.543,3.857-2.6H60.127a2.3,2.3,0,0,1-2.373,1.348c-1.846,0-2.832-1.338-2.832-3.125v-.537h6.846V43.111c0-2.773-1.719-4.5-4.131-4.5s-4.131,1.729-4.131,4.5v1.582C53.506,47.418,55.068,49.166,57.764,49.166ZM54.922,43.15v-.166c0-1.9,1.084-3.115,2.715-3.115s2.715,1.211,2.715,3.115v.166ZM64.98,49h1.406V42.564a2.529,2.529,0,0,1,2.793-2.627,5.332,5.332,0,0,1,.8.049V38.668a6.218,6.218,0,0,0-.635-.049,2.823,2.823,0,0,0-2.891,1.8h-.068V38.775H64.98ZM71.9,41.637c0,1.963,1.533,2.393,3.467,2.8,1.455.293,2.627.547,2.627,1.777,0,1.016-.791,1.777-2.49,1.777-1.631,0-2.295-.693-2.422-1.631H71.7c0,1.748,1.484,2.8,3.75,2.8,2.295,0,3.955-1.1,3.955-3.115s-1.65-2.48-3.564-2.842c-1.26-.244-2.549-.459-2.549-1.729,0-1.094.967-1.68,2.236-1.68,1.543,0,2.236.869,2.295,1.611H79.15c0-1.582-1.338-2.8-3.564-2.8C73.652,38.609,71.9,39.547,71.9,41.637ZM91.768,35.68h-4.7V49H88.5V43.814h3.271a4.069,4.069,0,1,0,0-8.135Zm2.715,4.072a2.526,2.526,0,0,1-2.773,2.764H88.5V36.979h3.213A2.533,2.533,0,0,1,94.482,39.752Zm11.377,9.414a3.316,3.316,0,0,0,3.008-1.592h.068V49H110.3V41.939c0-2.412-1.66-3.33-3.7-3.33-2.148,0-3.525.908-3.682,2.568H104.3c.215-.723.8-1.309,2.236-1.309s2.344.654,2.344,2.1v1.1h-2.793c-2.334,0-3.564,1.211-3.564,2.969A3.065,3.065,0,0,0,105.859,49.166Zm.342-1.25a1.956,1.956,0,0,1-2.217-1.9c0-1,.615-1.758,2.129-1.758h2.764v1.24A2.505,2.505,0,0,1,106.2,47.916ZM113.867,49h1.406V43.238c0-1.846.938-3.369,2.91-3.369,1.533,0,2.393.947,2.393,2.6V49h1.416V42.018a3.165,3.165,0,0,0-3.5-3.408,2.931,2.931,0,0,0-3.145,2.07h-.078v-1.9h-1.406Zm15.166-10.391a3.885,3.885,0,0,0-3.994,4.229v2.1c0,2.559,1.572,4.219,3.945,4.219a3.148,3.148,0,0,0,3.145-1.846h.068V49h1.348V34.967h-1.416v5.391h-.068A3.069,3.069,0,0,0,129.033,38.609Zm.176,1.26a2.847,2.847,0,0,1,2.92,2.979v1.885c0,1.885-1.1,3.174-2.871,3.174-1.719,0-2.8-1.24-2.8-3.34V43.189C126.455,41.08,127.539,39.869,129.209,39.869Zm22.7,10.684-1.846-2.529a6.077,6.077,0,0,0,1.738-4.668V41.3c0-3.652-1.973-5.918-5.244-5.918s-5.234,2.266-5.234,5.918v2.051c0,3.652,1.973,5.918,5.234,5.918a5.548,5.548,0,0,0,2.393-.5l1.3,1.777Zm-9.16-7.187v-2.07c0-2.832,1.436-4.6,3.809-4.6s3.818,1.777,3.818,4.6v2.07a5.018,5.018,0,0,1-1.152,3.506l-1.26-1.729h-1.7l1.855,2.52a3.813,3.813,0,0,1-1.562.3C144.18,47.965,142.744,46.2,142.744,43.365Zm11.895,9.092,1.338-5.449h-1.738l-.918,5.449Zm9.277-13.682h-1.631v1.182h1.631v6.27c0,1.963.459,2.871,2.793,2.871a11.515,11.515,0,0,0,1.182-.078V47.838c-.176.02-.6.049-.84.049-1.318,0-1.729-.332-1.729-1.592V39.957h2.4V38.775h-2.4V36.217h-1.406ZM170.732,49h1.406V43.238c0-1.855.977-3.369,2.891-3.369a2.327,2.327,0,0,1,2.451,2.617V49H178.9V42.037a3.182,3.182,0,0,0-3.457-3.428,3.1,3.1,0,0,0-3.223,2.07h-.078V34.967h-1.406Zm15.488.166c2.49,0,3.7-1.543,3.857-2.6h-1.494a2.3,2.3,0,0,1-2.373,1.348c-1.846,0-2.832-1.338-2.832-3.125v-.537h6.846V43.111c0-2.773-1.719-4.5-4.131-4.5s-4.131,1.729-4.131,4.5v1.582C181.963,47.418,183.525,49.166,186.221,49.166Zm-2.842-6.016v-.166c0-1.9,1.084-3.115,2.715-3.115s2.715,1.211,2.715,3.115v.166ZM197.891,49h1.416V34.967h-1.416Zm7.832.166a3.316,3.316,0,0,0,3.008-1.592h.068V49h1.367V41.939c0-2.412-1.66-3.33-3.7-3.33-2.148,0-3.525.908-3.682,2.568h1.377c.215-.723.8-1.309,2.236-1.309s2.344.654,2.344,2.1v1.1h-2.793c-2.334,0-3.564,1.211-3.564,2.969A3.065,3.065,0,0,0,205.723,49.166Zm.342-1.25a1.956,1.956,0,0,1-2.217-1.9c0-1,.615-1.758,2.129-1.758h2.764v1.24A2.505,2.505,0,0,1,206.064,47.916ZM213.887,49h1.406V42.564a2.529,2.529,0,0,1,2.793-2.627,5.332,5.332,0,0,1,.8.049V38.668a6.218,6.218,0,0,0-.635-.049,2.823,2.823,0,0,0-2.891,1.8h-.068V38.775h-1.406Zm10.986,2.461c-1.494,0-2.363-.723-2.49-1.484h-1.475c.146,1.426,1.4,2.734,3.906,2.734,2.627,0,4.355-1.3,4.355-4.014V38.775h-1.348v1.6h-.059a3.262,3.262,0,0,0-3.037-1.768,3.974,3.974,0,0,0-4.053,4.258v1.689a3.965,3.965,0,0,0,4.063,4.238,3.134,3.134,0,0,0,2.939-1.689h.078v1.641C227.754,50.436,226.787,51.461,224.873,51.461Zm.117-11.592a2.843,2.843,0,0,1,2.764,3.057v1.6a2.789,2.789,0,0,1-2.744,3.008c-1.7,0-2.92-1.318-2.92-3.311V43.2C222.09,41.178,223.242,39.869,224.99,39.869Zm11.553,9.3c2.49,0,3.7-1.543,3.857-2.6h-1.494a2.3,2.3,0,0,1-2.373,1.348c-1.846,0-2.832-1.338-2.832-3.125v-.537h6.846V43.111c0-2.773-1.719-4.5-4.131-4.5s-4.131,1.729-4.131,4.5v1.582C232.285,47.418,233.848,49.166,236.543,49.166ZM233.7,43.15v-.166c0-1.9,1.084-3.115,2.715-3.115s2.715,1.211,2.715,3.115v.166ZM243.76,49h1.406V42.564a2.529,2.529,0,0,1,2.793-2.627,5.332,5.332,0,0,1,.8.049V38.668a6.218,6.218,0,0,0-.635-.049,2.823,2.823,0,0,0-2.891,1.8h-.068V38.775H243.76Zm16.777-13.32h-4.7V49h1.426V43.814h3.271a4.069,4.069,0,1,0,0-8.135Zm2.715,4.072a2.526,2.526,0,0,1-2.773,2.764h-3.213V36.979h3.213A2.533,2.533,0,0,1,263.252,39.752ZM4.541,79.166a3.316,3.316,0,0,0,3.008-1.592h.068V79H8.984V71.939c0-2.412-1.66-3.33-3.7-3.33-2.148,0-3.525.908-3.682,2.568H2.979c.215-.723.8-1.309,2.236-1.309s2.344.654,2.344,2.1v1.1H4.766c-2.334,0-3.564,1.211-3.564,2.969A3.065,3.065,0,0,0,4.541,79.166Zm.342-1.25a1.956,1.956,0,0,1-2.217-1.9c0-1,.615-1.758,2.129-1.758H7.559v1.24A2.505,2.505,0,0,1,4.883,77.916ZM12.549,79h1.406V73.238c0-1.846.938-3.369,2.91-3.369,1.533,0,2.393.947,2.393,2.6V79h1.416V72.018a3.165,3.165,0,0,0-3.5-3.408,2.931,2.931,0,0,0-3.145,2.07h-.078v-1.9H12.549ZM27.715,68.609a3.885,3.885,0,0,0-3.994,4.229v2.1c0,2.559,1.572,4.219,3.945,4.219a3.148,3.148,0,0,0,3.145-1.846h.068V79h1.348V64.967H30.811v5.391h-.068A3.069,3.069,0,0,0,27.715,68.609Zm.176,1.26a2.847,2.847,0,0,1,2.92,2.979v1.885c0,1.885-1.1,3.174-2.871,3.174-1.719,0-2.8-1.24-2.8-3.34V73.189C25.137,71.08,26.221,69.869,27.891,69.869Zm22.7,10.684L48.74,78.023a6.077,6.077,0,0,0,1.738-4.668V71.3c0-3.652-1.973-5.918-5.244-5.918S40,67.652,40,71.3v2.051c0,3.652,1.973,5.918,5.234,5.918a5.548,5.548,0,0,0,2.393-.5l1.3,1.777Zm-9.16-7.187v-2.07c0-2.832,1.436-4.6,3.809-4.6s3.818,1.777,3.818,4.6v2.07A5.018,5.018,0,0,1,47.9,76.871l-1.26-1.729h-1.7l1.855,2.52a3.813,3.813,0,0,1-1.562.3C42.861,77.965,41.426,76.2,41.426,73.365ZM53.32,82.457l1.338-5.449H52.92L52,82.457ZM60.4,79V66.979h4.141v-1.3H54.824v1.3h4.141V79Zm6.436,0h1.406V73.238c0-1.855.977-3.369,2.891-3.369a2.327,2.327,0,0,1,2.451,2.617V79H75V72.037a3.182,3.182,0,0,0-3.457-3.428,3.1,3.1,0,0,0-3.223,2.07h-.078V64.967H66.836Zm15.488.166c2.49,0,3.7-1.543,3.857-2.6H84.688a2.3,2.3,0,0,1-2.373,1.348c-1.846,0-2.832-1.338-2.832-3.125v-.537h6.846V73.111c0-2.773-1.719-4.5-4.131-4.5s-4.131,1.729-4.131,4.5v1.582C78.066,77.418,79.629,79.166,82.324,79.166ZM79.482,73.15v-.166c0-1.9,1.084-3.115,2.715-3.115s2.715,1.211,2.715,3.115v.166Zm13.945-1.514c0,1.963,1.533,2.393,3.467,2.8,1.455.293,2.627.547,2.627,1.777,0,1.016-.791,1.777-2.49,1.777-1.631,0-2.295-.693-2.422-1.631H93.223c0,1.748,1.484,2.8,3.75,2.8,2.295,0,3.955-1.1,3.955-3.115s-1.65-2.48-3.564-2.842c-1.26-.244-2.549-.459-2.549-1.729,0-1.094.967-1.68,2.236-1.68,1.543,0,2.236.869,2.295,1.611h1.328c0-1.582-1.338-2.8-3.564-2.8C95.176,68.609,93.428,69.547,93.428,71.637Zm13.242,7.529a3.316,3.316,0,0,0,3.008-1.592h.068V79h1.367V71.939c0-2.412-1.66-3.33-3.7-3.33-2.148,0-3.525.908-3.682,2.568h1.377c.215-.723.8-1.309,2.236-1.309s2.344.654,2.344,2.1v1.1h-2.793c-2.334,0-3.564,1.211-3.564,2.969A3.065,3.065,0,0,0,106.67,79.166Zm.342-1.25a1.956,1.956,0,0,1-2.217-1.9c0-1,.615-1.758,2.129-1.758h2.764v1.24A2.505,2.505,0,0,1,107.012,77.916ZM115.5,79H116.9V69.957h2.471V68.775H116.9v-.967c0-1.3.537-1.689,1.807-1.689.264,0,.762.02.928.039v-1.2c-.186-.02-.664-.059-1.094-.059-2.158,0-3.047.9-3.047,2.813v1.064H113.75v1.182H115.5Zm10.117.166c2.49,0,3.7-1.543,3.857-2.6h-1.494a2.3,2.3,0,0,1-2.373,1.348c-1.846,0-2.832-1.338-2.832-3.125v-.537h6.846V73.111c0-2.773-1.719-4.5-4.131-4.5s-4.131,1.729-4.131,4.5v1.582C121.357,77.418,122.92,79.166,125.615,79.166Zm-2.842-6.016v-.166c0-1.9,1.084-3.115,2.715-3.115s2.715,1.211,2.715,3.115v.166ZM132.832,79h1.406V72.564a2.529,2.529,0,0,1,2.793-2.627,5.332,5.332,0,0,1,.8.049V68.668a6.218,6.218,0,0,0-.635-.049,2.823,2.823,0,0,0-2.891,1.8h-.068V68.775h-1.406Zm5.889-1.055a1.24,1.24,0,0,0,2.48,0,1.24,1.24,0,1,0-2.48,0Z" transform="translate(41 2846)" fill="#687992"/>
    <path id="路径_10359" data-name="路径 10359" d="M2.822,11.363C2.822,8.512,4.18,6.7,6.572,6.7A3.165,3.165,0,0,1,9.9,9.43h1.426V9.42A4.5,4.5,0,0,0,6.572,5.387c-3.3,0-5.176,2.3-5.176,5.957V13.4c0,3.682,1.826,5.879,5.186,5.879,2.617,0,4.58-1.641,4.766-3.828H9.922a3.062,3.062,0,0,1-3.34,2.529c-2.441,0-3.76-1.748-3.76-4.59ZM18.281,8.609a4.174,4.174,0,0,0-4.316,4.473v1.611a4.1,4.1,0,0,0,4.316,4.473,4.13,4.13,0,0,0,4.307-4.473V13.082A4.135,4.135,0,0,0,18.281,8.609Zm.01,1.26c1.738,0,2.881,1.328,2.881,3.379v1.3c0,2.1-1.094,3.369-2.881,3.369-1.807,0-2.92-1.279-2.92-3.369v-1.3C15.371,11.2,16.543,9.869,18.291,9.869ZM25.7,19h1.406V12.428a2.387,2.387,0,0,1,2.4-2.559,2.215,2.215,0,0,1,2.334,2.393V19h1.416V12.418A2.432,2.432,0,0,1,35.7,9.869,2.123,2.123,0,0,1,38,12.193V19H39.4V11.813c0-2.08-1.3-3.2-3.369-3.2a3.159,3.159,0,0,0-3.125,1.963h-.059a2.8,2.8,0,0,0-2.881-1.963,2.617,2.617,0,0,0-2.783,1.807h-.078V8.775H25.7Zm21.758.166c2.4,0,3.994-1.641,3.994-4.336V12.936c0-2.646-1.553-4.326-3.936-4.326a3.161,3.161,0,0,0-3.125,1.855h-.078v-1.7H42.979V22.379h1.406V17.428h.078A3.051,3.051,0,0,0,47.461,19.166Zm-.186-1.25a2.808,2.808,0,0,1-2.891-2.979v-1.9c0-1.914,1.074-3.164,2.842-3.164s2.813,1.23,2.813,3.418V14.5C50.039,16.7,48.975,17.916,47.275,17.916ZM62.6,8.775H61.182V15.25a2.761,2.761,0,0,1-2.861,2.666,2.164,2.164,0,0,1-2.412-2.393V8.775H54.492v7.119c0,2.363,1.484,3.271,3.516,3.271a3.089,3.089,0,0,0,3.1-1.914h.078V19H62.6Zm4.141,0H65.107V9.957h1.631v6.27c0,1.963.459,2.871,2.793,2.871a11.515,11.515,0,0,0,1.182-.078V17.838c-.176.02-.6.049-.84.049-1.318,0-1.729-.332-1.729-1.592V9.957h2.4V8.775h-2.4V6.217H66.738ZM77.285,19.166c2.49,0,3.7-1.543,3.857-2.6H79.648a2.3,2.3,0,0,1-2.373,1.348c-1.846,0-2.832-1.338-2.832-3.125v-.537h6.846V13.111c0-2.773-1.719-4.5-4.131-4.5s-4.131,1.729-4.131,4.5v1.582C73.027,17.418,74.59,19.166,77.285,19.166ZM74.443,13.15v-.166c0-1.9,1.084-3.115,2.715-3.115s2.715,1.211,2.715,3.115v.166ZM89.414,8.775H87.783V9.957h1.631v6.27c0,1.963.459,2.871,2.793,2.871a11.515,11.515,0,0,0,1.182-.078V17.838c-.176.02-.6.049-.84.049-1.318,0-1.729-.332-1.729-1.592V9.957h2.4V8.775h-2.4V6.217H89.414ZM96.23,19h1.406V13.238c0-1.855.977-3.369,2.891-3.369a2.327,2.327,0,0,1,2.451,2.617V19h1.416V12.037a3.182,3.182,0,0,0-3.457-3.428,3.1,3.1,0,0,0-3.223,2.07h-.078V4.967H96.23Zm15.488.166c2.49,0,3.7-1.543,3.857-2.6h-1.494a2.3,2.3,0,0,1-2.373,1.348c-1.846,0-2.832-1.338-2.832-3.125v-.537h6.846V13.111c0-2.773-1.719-4.5-4.131-4.5s-4.131,1.729-4.131,4.5v1.582C107.461,17.418,109.023,19.166,111.719,19.166Zm-2.842-6.016v-.166c0-1.9,1.084-3.115,2.715-3.115s2.715,1.211,2.715,3.115v.166Zm22.412,4.541h-6.426V12.838h6.074v-1.3h-6.074V6.979h6.426V5.68h-7.852V19h7.852Zm11.006-8.916h-1.416V15.25a2.761,2.761,0,0,1-2.861,2.666,2.164,2.164,0,0,1-2.412-2.393V8.775h-1.416v7.119c0,2.363,1.484,3.271,3.516,3.271a3.089,3.089,0,0,0,3.1-1.914h.078V19h1.416ZM145.977,19h1.416V4.967h-1.416Zm8.857.166c2.49,0,3.7-1.543,3.857-2.6H157.2a2.3,2.3,0,0,1-2.373,1.348c-1.846,0-2.832-1.338-2.832-3.125v-.537h6.846V13.111c0-2.773-1.719-4.5-4.131-4.5s-4.131,1.729-4.131,4.5v1.582C150.576,17.418,152.139,19.166,154.834,19.166Zm-2.842-6.016v-.166c0-1.9,1.084-3.115,2.715-3.115s2.715,1.211,2.715,3.115v.166ZM162.051,19h1.406V12.564a2.529,2.529,0,0,1,2.793-2.627,5.332,5.332,0,0,1,.8.049V8.668a6.218,6.218,0,0,0-.635-.049,2.823,2.823,0,0,0-2.891,1.8h-.068V8.775h-1.406Zm12.783,0h1.406V9.957h2.471V8.775H176.24V7.809c0-1.3.537-1.689,1.807-1.689.264,0,.762.02.928.039v-1.2c-.186-.02-.664-.059-1.094-.059-2.158,0-3.047.9-3.047,2.813V8.775h-1.748V9.957h1.748ZM189.58,8.775h-1.416V15.25a2.761,2.761,0,0,1-2.861,2.666,2.164,2.164,0,0,1-2.412-2.393V8.775h-1.416v7.119c0,2.363,1.484,3.271,3.516,3.271a3.089,3.089,0,0,0,3.1-1.914h.078V19h1.416ZM193.193,19H194.6V13.238c0-1.846.938-3.369,2.91-3.369,1.533,0,2.393.947,2.393,2.6V19h1.416V12.018a3.165,3.165,0,0,0-3.5-3.408,2.931,2.931,0,0,0-3.145,2.07H194.6v-1.9h-1.406Zm11.182-4.238c0,2.725,1.6,4.4,4.16,4.4,2.666,0,3.828-1.5,3.9-2.871h-1.406c-.2.8-.811,1.582-2.461,1.582-1.729,0-2.783-1.191-2.783-3.115v-1.7c0-1.943.967-3.164,2.773-3.164a2.172,2.172,0,0,1,2.4,1.719h1.406c-.049-1.426-1.309-3.008-3.828-3.008-2.549,0-4.16,1.7-4.16,4.375Zm11.514-5.986h-1.631V9.957h1.631v6.27c0,1.963.459,2.871,2.793,2.871a11.515,11.515,0,0,0,1.182-.078V17.838c-.176.02-.6.049-.84.049-1.318,0-1.729-.332-1.729-1.592V9.957h2.4V8.775h-2.4V6.217h-1.406ZM222.93,19h1.406V8.775H222.93Zm-.381-13.379a1.084,1.084,0,1,0,1.074-1.094A1.065,1.065,0,0,0,222.549,5.621Zm9.473,2.988a4.174,4.174,0,0,0-4.316,4.473v1.611a4.314,4.314,0,1,0,8.623,0V13.082A4.135,4.135,0,0,0,232.021,8.609Zm.01,1.26c1.738,0,2.881,1.328,2.881,3.379v1.3c0,2.1-1.094,3.369-2.881,3.369-1.807,0-2.92-1.279-2.92-3.369v-1.3C229.111,11.2,230.283,9.869,232.031,9.869ZM239.443,19h1.406V13.238c0-1.846.938-3.369,2.91-3.369,1.533,0,2.393.947,2.393,2.6V19h1.416V12.018a3.165,3.165,0,0,0-3.5-3.408,2.931,2.931,0,0,0-3.145,2.07h-.078v-1.9h-1.406Zm20.7,3.379h1.406V19.166c3.359-.1,5.078-2.051,5.078-5.02v-.508c0-3.164-1.914-4.932-5.078-5.029V6.227h-1.406V8.609c-3.154.1-5.078,1.846-5.078,5.029v.508c0,2.979,1.729,4.922,5.078,5.02Zm1.406-4.434V9.83c2.4.01,3.691,1.494,3.691,4.033v.059C265.244,16.559,263.838,17.936,261.553,17.945Zm-1.406,0c-2.314-.01-3.691-1.4-3.691-4.014v-.059c0-2.588,1.289-4.033,3.691-4.043Zm17.2-12.979a13.13,13.13,0,0,0-2.715,8.369,13.739,13.739,0,0,0,2.715,8.652h1.191a14.888,14.888,0,0,1-2.5-8.672,15.093,15.093,0,0,1,2.5-8.35ZM280.928,19h1.406V13.238c0-1.846.938-3.369,2.91-3.369,1.533,0,2.393.947,2.393,2.6V19h1.416V12.018a3.165,3.165,0,0,0-3.5-3.408,2.931,2.931,0,0,0-3.145,2.07h-.078v-1.9h-1.406ZM291.377,4.967a15.093,15.093,0,0,1,2.5,8.35,14.888,14.888,0,0,1-2.5,8.672h1.2a13.8,13.8,0,0,0,2.705-8.652,13.183,13.183,0,0,0-2.705-8.369Z" transform="translate(375 2849)" fill="#687992"/>
    <line id="直线_205" data-name="直线 205" x2="343" transform="translate(135.5 2783.5)" fill="none" stroke="#9bcaff" stroke-width="2" stroke-dasharray="6"/>
    <line id="直线_227" data-name="直线 227" x2="343" transform="translate(135.5 3045.5)" fill="none" stroke="#9bcaff" stroke-width="2" stroke-dasharray="6"/>
    <line id="直线_228" data-name="直线 228" x2="343" transform="translate(135.5 3307.5)" fill="none" stroke="#9bcaff" stroke-width="2" stroke-dasharray="6"/>
    <g id="_01" data-name="01" transform="translate(-1181.399 1162.96)">
      <path id="联合_5" data-name="联合 5" d="M42.407,85.969A42.955,42.955,0,0,1,5.658,21.709l7.7,4.446A34.093,34.093,0,0,0,42.407,77.072c.2,0,.4.016.594.016A34.119,34.119,0,0,0,72.4,60.241l7.7,4.446A43.009,43.009,0,0,1,43,85.985C42.8,85.985,42.6,85.973,42.407,85.969ZM72.4,60.241a34.01,34.01,0,0,0-.053-34.6l7.7-4.446a42.856,42.856,0,0,1,.05,43.493ZM5.658,21.709A43.017,43.017,0,0,1,42.407,0V8.9A34.116,34.116,0,0,0,13.358,26.154Z" transform="translate(1222.399 1577.056)" fill="#042e7a" stroke="rgba(0,0,0,0)" stroke-miterlimit="10" stroke-width="1"/>
      <path id="路径_596" data-name="路径 596" d="M1251.593,1585.937a34.113,34.113,0,0,1,29.347,16.758l7.7-4.445a43.014,43.014,0,0,0-37.048-21.209c-.2,0-.394.012-.593.015v8.9C1251.2,1585.948,1251.394,1585.937,1251.593,1585.937Z" transform="translate(13.807)" fill="#1f8aff"/>
    </g>
    <g id="_02" data-name="02" transform="translate(-812.399 1162.96)">
      <path id="联合_6" data-name="联合 6" d="M29.993,60.256A33.878,33.878,0,0,0,34.7,43,33.9,33.9,0,0,0,29.94,25.655,34.113,34.113,0,0,0,.594,8.9c-.2,0-.4.01-.594.015V.015C.2.013.395,0,.594,0A43.011,43.011,0,0,1,37.641,21.209,42.855,42.855,0,0,1,37.692,64.7Z" transform="translate(1341.807 1577.04)" fill="#1f8aff" stroke="rgba(0,0,0,0)" stroke-miterlimit="10" stroke-width="1"/>
      <path id="联合_4" data-name="联合 4" d="M42.407,85.97A42.956,42.956,0,0,1,5.658,21.709l7.7,4.445a34.092,34.092,0,0,0,29.049,50.92c.2,0,.395.015.593.015A34.112,34.112,0,0,0,72.4,60.241l7.7,4.447A43.017,43.017,0,0,1,43,85.985C42.8,85.985,42.605,85.973,42.407,85.97ZM5.658,21.709A43.016,43.016,0,0,1,42.407,0V8.9A34.122,34.122,0,0,0,13.358,26.153Z" transform="translate(1299.399 1577.055)" fill="#042e7a" stroke="rgba(0,0,0,0)" stroke-miterlimit="10" stroke-width="1"/>
    </g>
    <path id="路径_590" data-name="路径 590" d="M10349.857,4025.24v-34.812h446v-30.366" transform="translate(-10265.856 -1043.681)" fill="none" stroke="#9bcaff" stroke-width="1"/>
    <path id="路径_8722" data-name="路径 8722" d="M10349.857,4025.24v-34.812h446v-30.366" transform="translate(-10265.856 -781.681)" fill="none" stroke="#9bcaff" stroke-width="1"/>
    <g id="_03" data-name="03" transform="translate(-1329.4 1539.96)">
      <path id="路径_604" data-name="路径 604" d="M1436.642,1483.25a43.015,43.015,0,0,0-37.049-21.209c-.2,0-.395.012-.593.015v8.9c.2,0,.395-.015.593-.015a34.1,34.1,0,0,1,0,68.208c-.2,0-.395-.012-.593-.015v8.9c.2,0,.395.015.593.015a42.972,42.972,0,0,0,37.049-64.792Z" transform="translate(13.807 0)" fill="#1f8aff"/>
      <path id="路径_605" data-name="路径 605" d="M1412.807,1470.947v-8.9a42.99,42.99,0,0,0,0,85.971v-8.9a34.094,34.094,0,0,1,0-68.178Z" transform="translate(0 0.005)" fill="#042e7a"/>
    </g>
    <path id="路径_10360" data-name="路径 10360" d="M2.822,11.363C2.822,8.512,4.18,6.7,6.572,6.7A3.165,3.165,0,0,1,9.9,9.43h1.426V9.42A4.5,4.5,0,0,0,6.572,5.387c-3.3,0-5.176,2.3-5.176,5.957V13.4c0,3.682,1.826,5.879,5.186,5.879,2.617,0,4.58-1.641,4.766-3.828H9.922a3.062,3.062,0,0,1-3.34,2.529c-2.441,0-3.76-1.748-3.76-4.59ZM14.492,19H15.9V13.238c0-1.855.977-3.369,2.891-3.369a2.327,2.327,0,0,1,2.451,2.617V19h1.416V12.037A3.182,3.182,0,0,0,19.2,8.609a3.1,3.1,0,0,0-3.223,2.07H15.9V4.967H14.492ZM30.039,8.609a4.174,4.174,0,0,0-4.316,4.473v1.611a4.1,4.1,0,0,0,4.316,4.473,4.13,4.13,0,0,0,4.307-4.473V13.082A4.135,4.135,0,0,0,30.039,8.609Zm.01,1.26c1.738,0,2.881,1.328,2.881,3.379v1.3c0,2.1-1.094,3.369-2.881,3.369-1.807,0-2.92-1.279-2.92-3.369v-1.3C27.129,11.2,28.3,9.869,30.049,9.869Zm11.23-1.26a4.174,4.174,0,0,0-4.316,4.473v1.611a4.1,4.1,0,0,0,4.316,4.473,4.13,4.13,0,0,0,4.307-4.473V13.082A4.135,4.135,0,0,0,41.279,8.609Zm.01,1.26c1.738,0,2.881,1.328,2.881,3.379v1.3c0,2.1-1.094,3.369-2.881,3.369-1.807,0-2.92-1.279-2.92-3.369v-1.3C38.369,11.2,39.541,9.869,41.289,9.869ZM48.2,11.637c0,1.963,1.533,2.393,3.467,2.8,1.455.293,2.627.547,2.627,1.777,0,1.016-.791,1.777-2.49,1.777-1.631,0-2.295-.693-2.422-1.631H48c0,1.748,1.484,2.8,3.75,2.8,2.295,0,3.955-1.1,3.955-3.115s-1.65-2.48-3.564-2.842c-1.26-.244-2.549-.459-2.549-1.729,0-1.094.967-1.68,2.236-1.68,1.543,0,2.236.869,2.295,1.611h1.328c0-1.582-1.338-2.8-3.564-2.8C49.951,8.609,48.2,9.547,48.2,11.637Zm14.268,7.529c2.49,0,3.7-1.543,3.857-2.6H64.834a2.3,2.3,0,0,1-2.373,1.348c-1.846,0-2.832-1.338-2.832-3.125v-.537h6.846V13.111c0-2.773-1.719-4.5-4.131-4.5s-4.131,1.729-4.131,4.5v1.582C58.213,17.418,59.775,19.166,62.471,19.166ZM59.629,13.15v-.166c0-1.9,1.084-3.115,2.715-3.115s2.715,1.211,2.715,3.115v.166Zm17.178,6.016a3.316,3.316,0,0,0,3.008-1.592h.068V19H81.25V11.939c0-2.412-1.66-3.33-3.7-3.33-2.148,0-3.525.908-3.682,2.568h1.377c.215-.723.8-1.309,2.236-1.309s2.344.654,2.344,2.1v1.1H77.031c-2.334,0-3.564,1.211-3.564,2.969A3.065,3.065,0,0,0,76.807,19.166Zm.342-1.25a1.956,1.956,0,0,1-2.217-1.9c0-1,.615-1.758,2.129-1.758h2.764v1.24A2.505,2.505,0,0,1,77.148,17.916ZM84.814,19h1.406V13.238c0-1.846.938-3.369,2.91-3.369,1.533,0,2.393.947,2.393,2.6V19h1.416V12.018a3.165,3.165,0,0,0-3.5-3.408A2.931,2.931,0,0,0,86.3,10.68h-.078v-1.9H84.814Zm16.475,0H102.7V8.775h-1.406Zm-.381-13.379a1.084,1.084,0,1,0,1.074-1.094A1.065,1.065,0,0,0,100.908,5.621ZM106.563,19h1.406V13.238c0-1.846.938-3.369,2.91-3.369,1.533,0,2.393.947,2.393,2.6V19h1.416V12.018a3.165,3.165,0,0,0-3.5-3.408,2.931,2.931,0,0,0-3.145,2.07h-.078v-1.9h-1.406ZM118.77,8.775h-1.631V9.957h1.631v6.27c0,1.963.459,2.871,2.793,2.871a11.515,11.515,0,0,0,1.182-.078V17.838c-.176.02-.6.049-.84.049-1.318,0-1.729-.332-1.729-1.592V9.957h2.4V8.775h-2.4V6.217H118.77Zm10.547,10.391c2.49,0,3.7-1.543,3.857-2.6H131.68a2.3,2.3,0,0,1-2.373,1.348c-1.846,0-2.832-1.338-2.832-3.125v-.537h6.846V13.111c0-2.773-1.719-4.5-4.131-4.5s-4.131,1.729-4.131,4.5v1.582C125.059,17.418,126.621,19.166,129.316,19.166Zm-2.842-6.016v-.166c0-1.9,1.084-3.115,2.715-3.115s2.715,1.211,2.715,3.115v.166Zm13.467,8.311c-1.494,0-2.363-.723-2.49-1.484h-1.475c.146,1.426,1.4,2.734,3.906,2.734,2.627,0,4.355-1.3,4.355-4.014V8.775h-1.348v1.6h-.059a3.262,3.262,0,0,0-3.037-1.768,3.974,3.974,0,0,0-4.053,4.258v1.689a3.965,3.965,0,0,0,4.063,4.238,3.134,3.134,0,0,0,2.939-1.689h.078v1.641C142.822,20.436,141.855,21.461,139.941,21.461Zm.117-11.592a2.843,2.843,0,0,1,2.764,3.057v1.6a2.789,2.789,0,0,1-2.744,3.008c-1.7,0-2.92-1.318-2.92-3.311V13.2C137.158,11.178,138.311,9.869,140.059,9.869Zm11.553,9.3c2.49,0,3.7-1.543,3.857-2.6h-1.494a2.3,2.3,0,0,1-2.373,1.348c-1.846,0-2.832-1.338-2.832-3.125v-.537h6.846V13.111c0-2.773-1.719-4.5-4.131-4.5s-4.131,1.729-4.131,4.5v1.582C147.354,17.418,148.916,19.166,151.611,19.166ZM148.77,13.15v-.166c0-1.9,1.084-3.115,2.715-3.115s2.715,1.211,2.715,3.115v.166ZM158.828,19h1.406V12.564a2.529,2.529,0,0,1,2.793-2.627,5.332,5.332,0,0,1,.8.049V8.668a6.218,6.218,0,0,0-.635-.049,2.823,2.823,0,0,0-2.891,1.8h-.068V8.775h-1.406Zm15.723.166c2.49,0,3.7-1.543,3.857-2.6h-1.494a2.3,2.3,0,0,1-2.373,1.348c-1.846,0-2.832-1.338-2.832-3.125v-.537h6.846V13.111c0-2.773-1.719-4.5-4.131-4.5s-4.131,1.729-4.131,4.5v1.582C170.293,17.418,171.855,19.166,174.551,19.166Zm-2.842-6.016v-.166c0-1.9,1.084-3.115,2.715-3.115s2.715,1.211,2.715,3.115v.166Zm17.178,6.016a3.316,3.316,0,0,0,3.008-1.592h.068V19h1.367V11.939c0-2.412-1.66-3.33-3.7-3.33-2.148,0-3.525.908-3.682,2.568h1.377c.215-.723.8-1.309,2.236-1.309s2.344.654,2.344,2.1v1.1h-2.793c-2.334,0-3.564,1.211-3.564,2.969A3.065,3.065,0,0,0,188.887,19.166Zm.342-1.25a1.956,1.956,0,0,1-2.217-1.9c0-1,.615-1.758,2.129-1.758H191.9v1.24A2.505,2.505,0,0,1,189.229,17.916Zm8.193-9.141h-1.631V9.957h1.631v6.27c0,1.963.459,2.871,2.793,2.871a11.515,11.515,0,0,0,1.182-.078V17.838c-.176.02-.6.049-.84.049-1.318,0-1.729-.332-1.729-1.592V9.957h2.4V8.775h-2.4V6.217h-1.406ZM208.906,19h1.406V12.564a2.529,2.529,0,0,1,2.793-2.627,5.332,5.332,0,0,1,.8.049V8.668a6.218,6.218,0,0,0-.635-.049,2.823,2.823,0,0,0-2.891,1.8h-.068V8.775h-1.406Zm10.156.166a3.316,3.316,0,0,0,3.008-1.592h.068V19h1.367V11.939c0-2.412-1.66-3.33-3.7-3.33-2.148,0-3.525.908-3.682,2.568H217.5c.215-.723.8-1.309,2.236-1.309s2.344.654,2.344,2.1v1.1h-2.793c-2.334,0-3.564,1.211-3.564,2.969A3.065,3.065,0,0,0,219.063,19.166Zm.342-1.25a1.956,1.956,0,0,1-2.217-1.9c0-1,.615-1.758,2.129-1.758h2.764v1.24A2.505,2.505,0,0,1,219.4,17.916ZM227.07,19h1.406V13.238c0-1.846.938-3.369,2.91-3.369,1.533,0,2.393.947,2.393,2.6V19H235.2V12.018a3.165,3.165,0,0,0-3.5-3.408,2.931,2.931,0,0,0-3.145,2.07h-.078v-1.9H227.07ZM242.236,8.609a3.885,3.885,0,0,0-3.994,4.229v2.1c0,2.559,1.572,4.219,3.945,4.219a3.148,3.148,0,0,0,3.145-1.846h.068V19h1.348V4.967h-1.416v5.391h-.068A3.069,3.069,0,0,0,242.236,8.609Zm.176,1.26a2.847,2.847,0,0,1,2.92,2.979v1.885c0,1.885-1.1,3.174-2.871,3.174-1.719,0-2.8-1.24-2.8-3.34V13.189C239.658,11.08,240.742,9.869,242.412,9.869Zm11.8-1.26a4.174,4.174,0,0,0-4.316,4.473v1.611a4.314,4.314,0,1,0,8.623,0V13.082A4.135,4.135,0,0,0,254.209,8.609Zm.01,1.26c1.738,0,2.881,1.328,2.881,3.379v1.3c0,2.1-1.094,3.369-2.881,3.369-1.807,0-2.92-1.279-2.92-3.369v-1.3C251.3,11.2,252.471,9.869,254.219,9.869ZM261.631,19h1.406V12.428a2.387,2.387,0,0,1,2.4-2.559,2.215,2.215,0,0,1,2.334,2.393V19h1.416V12.418a2.432,2.432,0,0,1,2.441-2.549,2.123,2.123,0,0,1,2.295,2.324V19h1.406V11.813c0-2.08-1.3-3.2-3.369-3.2a3.159,3.159,0,0,0-3.125,1.963h-.059A2.8,2.8,0,0,0,265.9,8.609a2.617,2.617,0,0,0-2.783,1.807h-.078V8.775h-1.406Zm17.842,3.457,1.338-5.449h-1.738l-.918,5.449ZM6.3,49.166c2.4,0,3.994-1.641,3.994-4.336V42.936c0-2.646-1.553-4.326-3.936-4.326a3.161,3.161,0,0,0-3.125,1.855H3.154v-1.7H1.816V52.379H3.223V47.428H3.3A3.051,3.051,0,0,0,6.3,49.166Zm-.186-1.25a2.808,2.808,0,0,1-2.891-2.979v-1.9c0-1.914,1.074-3.164,2.842-3.164s2.813,1.23,2.813,3.418V44.5C8.877,46.7,7.813,47.916,6.113,47.916ZM13.574,49H14.98V42.564a2.529,2.529,0,0,1,2.793-2.627,5.332,5.332,0,0,1,.8.049V38.668a6.218,6.218,0,0,0-.635-.049,2.823,2.823,0,0,0-2.891,1.8H14.98V38.775H13.574Zm11.24-10.391A4.174,4.174,0,0,0,20.5,43.082v1.611a4.1,4.1,0,0,0,4.316,4.473,4.13,4.13,0,0,0,4.307-4.473V43.082A4.135,4.135,0,0,0,24.814,38.609Zm.01,1.26c1.738,0,2.881,1.328,2.881,3.379v1.3c0,2.1-1.094,3.369-2.881,3.369-1.807,0-2.92-1.279-2.92-3.369v-1.3C21.9,41.2,23.076,39.869,24.824,39.869ZM34.551,49h1.416l3.74-10.225H38.193l-2.92,8.691h-.068l-2.754-8.691H30.879ZM42.3,49h1.406V38.775H42.3Zm-.381-13.379A1.084,1.084,0,1,0,43,34.527,1.065,1.065,0,0,0,41.924,35.621Zm9.141,2.988a3.885,3.885,0,0,0-3.994,4.229v2.1c0,2.559,1.572,4.219,3.945,4.219a3.148,3.148,0,0,0,3.145-1.846h.068V49h1.348V34.967H54.16v5.391h-.068A3.069,3.069,0,0,0,51.064,38.609Zm.176,1.26a2.847,2.847,0,0,1,2.92,2.979v1.885c0,1.885-1.1,3.174-2.871,3.174-1.719,0-2.8-1.24-2.8-3.34V43.189C48.486,41.08,49.57,39.869,51.24,39.869Zm11.738,9.3c2.49,0,3.7-1.543,3.857-2.6H65.342a2.3,2.3,0,0,1-2.373,1.348c-1.846,0-2.832-1.338-2.832-3.125v-.537h6.846V43.111c0-2.773-1.719-4.5-4.131-4.5s-4.131,1.729-4.131,4.5v1.582C58.721,47.418,60.283,49.166,62.979,49.166ZM60.137,43.15v-.166c0-1.9,1.084-3.115,2.715-3.115s2.715,1.211,2.715,3.115v.166Zm13.389-4.541a3.885,3.885,0,0,0-3.994,4.229v2.1c0,2.559,1.572,4.219,3.945,4.219a3.148,3.148,0,0,0,3.145-1.846h.068V49h1.348V34.967H76.621v5.391h-.068A3.069,3.069,0,0,0,73.525,38.609Zm.176,1.26a2.847,2.847,0,0,1,2.92,2.979v1.885c0,1.885-1.1,3.174-2.871,3.174-1.719,0-2.8-1.24-2.8-3.34V43.189C70.947,41.08,72.031,39.869,73.7,39.869Zm13.047-1.094H85.117v1.182h1.631v6.27c0,1.963.459,2.871,2.793,2.871a11.515,11.515,0,0,0,1.182-.078V47.838c-.176.02-.6.049-.84.049-1.318,0-1.729-.332-1.729-1.592V39.957h2.4V38.775h-2.4V36.217H86.748ZM93.564,49h1.406V43.238c0-1.855.977-3.369,2.891-3.369a2.327,2.327,0,0,1,2.451,2.617V49h1.416V42.037a3.182,3.182,0,0,0-3.457-3.428,3.1,3.1,0,0,0-3.223,2.07h-.078V34.967H93.564Zm14.463.166a3.316,3.316,0,0,0,3.008-1.592h.068V49h1.367V41.939c0-2.412-1.66-3.33-3.7-3.33-2.148,0-3.525.908-3.682,2.568h1.377c.215-.723.8-1.309,2.236-1.309s2.344.654,2.344,2.1v1.1h-2.793c-2.334,0-3.564,1.211-3.564,2.969A3.065,3.065,0,0,0,108.027,49.166Zm.342-1.25a1.956,1.956,0,0,1-2.217-1.9c0-1,.615-1.758,2.129-1.758h2.764v1.24A2.505,2.505,0,0,1,108.369,47.916Zm8.193-9.141h-1.631v1.182h1.631v6.27c0,1.963.459,2.871,2.793,2.871a11.515,11.515,0,0,0,1.182-.078V47.838c-.176.02-.6.049-.84.049-1.318,0-1.729-.332-1.729-1.592V39.957h2.4V38.775h-2.4V36.217h-1.406ZM132.256,49V35.68H130.85l-3.2,2.354v1.5l3.125-2.246h.078V49Zm8.652-4.336,8.135,4.7V47.828l-6.7-3.8v-.088l6.7-4.053V38.355l-8.135,5.068Zm15.127,4.5c2.49,0,3.7-1.543,3.857-2.6H158.4a2.3,2.3,0,0,1-2.373,1.348c-1.846,0-2.832-1.338-2.832-3.125v-.537h6.846V43.111c0-2.773-1.719-4.5-4.131-4.5s-4.131,1.729-4.131,4.5v1.582C151.777,47.418,153.34,49.166,156.035,49.166Zm-2.842-6.016v-.166c0-1.9,1.084-3.115,2.715-3.115s2.715,1.211,2.715,3.115v.166Zm14.033,1.514,8.135,4.7V47.828l-6.7-3.8v-.088l6.7-4.053V38.355l-8.135,5.068ZM178.594,49H180V42.428a2.387,2.387,0,0,1,2.4-2.559,2.215,2.215,0,0,1,2.334,2.393V49h1.416V42.418a2.432,2.432,0,0,1,2.441-2.549,2.123,2.123,0,0,1,2.295,2.324V49h1.406V41.813c0-2.08-1.3-3.2-3.369-3.2a3.159,3.159,0,0,0-3.125,1.963h-.059a2.8,2.8,0,0,0-2.881-1.963,2.617,2.617,0,0,0-2.783,1.807H180V38.775h-1.406Zm17.842,3.457,1.338-5.449h-1.738l-.918,5.449Zm11.484-3.291a3.316,3.316,0,0,0,3.008-1.592H211V49h1.367V41.939c0-2.412-1.66-3.33-3.7-3.33-2.148,0-3.525.908-3.682,2.568h1.377c.215-.723.8-1.309,2.236-1.309s2.344.654,2.344,2.1v1.1h-2.793c-2.334,0-3.564,1.211-3.564,2.969A3.065,3.065,0,0,0,207.92,49.166Zm.342-1.25a1.956,1.956,0,0,1-2.217-1.9c0-1,.615-1.758,2.129-1.758h2.764v1.24A2.505,2.505,0,0,1,208.262,47.916ZM215.928,49h1.406V43.238c0-1.846.938-3.369,2.91-3.369,1.533,0,2.393.947,2.393,2.6V49h1.416V42.018a3.165,3.165,0,0,0-3.5-3.408,2.931,2.931,0,0,0-3.145,2.07h-.078v-1.9h-1.406Zm15.166-10.391a3.885,3.885,0,0,0-3.994,4.229v2.1c0,2.559,1.572,4.219,3.945,4.219a3.148,3.148,0,0,0,3.145-1.846h.068V49h1.348V34.967h-1.416v5.391h-.068A3.069,3.069,0,0,0,231.094,38.609Zm.176,1.26a2.847,2.847,0,0,1,2.92,2.979v1.885c0,1.885-1.1,3.174-2.871,3.174-1.719,0-2.8-1.24-2.8-3.34V43.189C228.516,41.08,229.6,39.869,231.27,39.869Zm16.279,9.3c2.49,0,3.7-1.543,3.857-2.6h-1.494a2.3,2.3,0,0,1-2.373,1.348c-1.846,0-2.832-1.338-2.832-3.125v-.537h6.846V43.111c0-2.773-1.719-4.5-4.131-4.5s-4.131,1.729-4.131,4.5v1.582C243.291,47.418,244.854,49.166,247.549,49.166Zm-2.842-6.016v-.166c0-1.9,1.084-3.115,2.715-3.115s2.715,1.211,2.715,3.115v.166Zm17.178,6.016a3.316,3.316,0,0,0,3.008-1.592h.068V49h1.367V41.939c0-2.412-1.66-3.33-3.7-3.33-2.148,0-3.525.908-3.682,2.568h1.377c.215-.723.8-1.309,2.236-1.309s2.344.654,2.344,2.1v1.1h-2.793c-2.334,0-3.564,1.211-3.564,2.969A3.065,3.065,0,0,0,261.885,49.166Zm.342-1.25a1.956,1.956,0,0,1-2.217-1.9c0-1,.615-1.758,2.129-1.758H264.9v1.24A2.505,2.505,0,0,1,262.227,47.916ZM269.893,49H271.3V43.238c0-1.846.938-3.369,2.91-3.369,1.533,0,2.393.947,2.393,2.6V49h1.416V42.018a3.165,3.165,0,0,0-3.5-3.408,2.931,2.931,0,0,0-3.145,2.07H271.3v-1.9h-1.406Zm15.166-10.391a3.885,3.885,0,0,0-3.994,4.229v2.1c0,2.559,1.572,4.219,3.945,4.219a3.148,3.148,0,0,0,3.145-1.846h.068V49h1.348V34.967h-1.416v5.391h-.068A3.069,3.069,0,0,0,285.059,38.609Zm.176,1.26a2.847,2.847,0,0,1,2.92,2.979v1.885c0,1.885-1.1,3.174-2.871,3.174-1.719,0-2.8-1.24-2.8-3.34V43.189C282.48,41.08,283.564,39.869,285.234,39.869ZM1.807,79H3.213V72.428a2.387,2.387,0,0,1,2.4-2.559,2.215,2.215,0,0,1,2.334,2.393V79H9.365V72.418a2.432,2.432,0,0,1,2.441-2.549A2.123,2.123,0,0,1,14.1,72.193V79h1.406V71.813c0-2.08-1.3-3.2-3.369-3.2a3.159,3.159,0,0,0-3.125,1.963H8.955a2.8,2.8,0,0,0-2.881-1.963,2.617,2.617,0,0,0-2.783,1.807H3.213V68.775H1.807Zm24.541.166a3.316,3.316,0,0,0,3.008-1.592h.068V79h1.367V71.939c0-2.412-1.66-3.33-3.7-3.33-2.148,0-3.525.908-3.682,2.568h1.377c.215-.723.8-1.309,2.236-1.309s2.344.654,2.344,2.1v1.1H26.572c-2.334,0-3.564,1.211-3.564,2.969A3.065,3.065,0,0,0,26.348,79.166Zm.342-1.25a1.956,1.956,0,0,1-2.217-1.9c0-1,.615-1.758,2.129-1.758h2.764v1.24A2.505,2.505,0,0,1,26.689,77.916ZM34.512,79h1.406V72.564a2.529,2.529,0,0,1,2.793-2.627,5.332,5.332,0,0,1,.8.049V68.668a6.218,6.218,0,0,0-.635-.049,2.823,2.823,0,0,0-2.891,1.8h-.068V68.775H34.512Zm11.182.166c2.49,0,3.7-1.543,3.857-2.6H48.057a2.3,2.3,0,0,1-2.373,1.348c-1.846,0-2.832-1.338-2.832-3.125v-.537H49.7V73.111c0-2.773-1.719-4.5-4.131-4.5s-4.131,1.729-4.131,4.5v1.582C41.436,77.418,43,79.166,45.693,79.166ZM42.852,73.15v-.166c0-1.9,1.084-3.115,2.715-3.115s2.715,1.211,2.715,3.115v.166Zm18.936,6.016c2.4,0,3.994-1.641,3.994-4.336V72.936c0-2.646-1.553-4.326-3.936-4.326a3.161,3.161,0,0,0-3.125,1.855h-.078v-1.7H57.3V82.379h1.406V77.428h.078A3.051,3.051,0,0,0,61.787,79.166Zm-.186-1.25a2.808,2.808,0,0,1-2.891-2.979v-1.9c0-1.914,1.074-3.164,2.842-3.164s2.813,1.23,2.813,3.418V74.5C64.365,76.7,63.3,77.916,61.6,77.916ZM69.063,79h1.406V72.564a2.529,2.529,0,0,1,2.793-2.627,5.332,5.332,0,0,1,.8.049V68.668a6.218,6.218,0,0,0-.635-.049,2.823,2.823,0,0,0-2.891,1.8h-.068V68.775H69.063Zm7.676,0h1.406V68.775H76.738Zm-.381-13.379a1.084,1.084,0,1,0,1.074-1.094A1.065,1.065,0,0,0,76.357,65.621ZM82.012,79h1.406V72.428a2.387,2.387,0,0,1,2.4-2.559,2.215,2.215,0,0,1,2.334,2.393V79H89.57V72.418a2.432,2.432,0,0,1,2.441-2.549,2.123,2.123,0,0,1,2.295,2.324V79h1.406V71.813c0-2.08-1.3-3.2-3.369-3.2a3.159,3.159,0,0,0-3.125,1.963H89.16a2.8,2.8,0,0,0-2.881-1.963A2.617,2.617,0,0,0,83.5,70.416h-.078V68.775H82.012Zm21.025.166c2.49,0,3.7-1.543,3.857-2.6H105.4a2.3,2.3,0,0,1-2.373,1.348c-1.846,0-2.832-1.338-2.832-3.125v-.537h6.846V73.111c0-2.773-1.719-4.5-4.131-4.5s-4.131,1.729-4.131,4.5v1.582C98.779,77.418,100.342,79.166,103.037,79.166ZM100.2,73.15v-.166c0-1.9,1.084-3.115,2.715-3.115s2.715,1.211,2.715,3.115v.166Zm9.668,4.795a1.24,1.24,0,0,0,2.48,0,1.24,1.24,0,1,0-2.48,0Z" transform="translate(41 3108)" fill="#687992"/>
    <path id="路径_10361" data-name="路径 10361" d="M11.807,19V5.68H10.381v5.752H3.35V5.68H1.924V19H3.35V12.721h7.031V19Zm6.465.166a3.316,3.316,0,0,0,3.008-1.592h.068V19h1.367V11.939c0-2.412-1.66-3.33-3.7-3.33-2.148,0-3.525.908-3.682,2.568h1.377c.215-.723.8-1.309,2.236-1.309s2.344.654,2.344,2.1v1.1H18.5c-2.334,0-3.564,1.211-3.564,2.969A3.065,3.065,0,0,0,18.271,19.166Zm.342-1.25a1.956,1.956,0,0,1-2.217-1.9c0-1,.615-1.758,2.129-1.758h2.764v1.24A2.505,2.505,0,0,1,18.613,17.916ZM28.506,19h1.416l3.74-10.225H32.148l-2.92,8.691H29.16L26.406,8.775H24.834Zm7.754,0h1.406V8.775H36.26ZM35.879,5.621a1.084,1.084,0,1,0,1.074-1.094A1.065,1.065,0,0,0,35.879,5.621ZM41.533,19h1.406V13.238c0-1.846.938-3.369,2.91-3.369,1.533,0,2.393.947,2.393,2.6V19h1.416V12.018a3.165,3.165,0,0,0-3.5-3.408,2.931,2.931,0,0,0-3.145,2.07h-.078v-1.9H41.533Zm15.244,2.461c-1.494,0-2.363-.723-2.49-1.484H52.813c.146,1.426,1.4,2.734,3.906,2.734,2.627,0,4.355-1.3,4.355-4.014V8.775H59.727v1.6h-.059a3.262,3.262,0,0,0-3.037-1.768,3.974,3.974,0,0,0-4.053,4.258v1.689a3.965,3.965,0,0,0,4.063,4.238,3.134,3.134,0,0,0,2.939-1.689h.078v1.641C59.658,20.436,58.691,21.461,56.777,21.461Zm.117-11.592a2.843,2.843,0,0,1,2.764,3.057v1.6a2.789,2.789,0,0,1-2.744,3.008c-1.7,0-2.92-1.318-2.92-3.311V13.2C53.994,11.178,55.146,9.869,56.895,9.869Zm14.893,9.3a3.316,3.316,0,0,0,3.008-1.592h.068V19H76.23V11.939c0-2.412-1.66-3.33-3.7-3.33-2.148,0-3.525.908-3.682,2.568h1.377c.215-.723.8-1.309,2.236-1.309s2.344.654,2.344,2.1v1.1H72.012c-2.334,0-3.564,1.211-3.564,2.969A3.065,3.065,0,0,0,71.787,19.166Zm.342-1.25a1.956,1.956,0,0,1-2.217-1.9c0-1,.615-1.758,2.129-1.758H74.8v1.24A2.505,2.505,0,0,1,72.129,17.916ZM79.795,19H81.2V13.238c0-1.846.938-3.369,2.91-3.369,1.533,0,2.393.947,2.393,2.6V19H87.92V12.018a3.165,3.165,0,0,0-3.5-3.408,2.931,2.931,0,0,0-3.145,2.07H81.2v-1.9H79.795ZM96.27,19h1.406V8.775H96.27ZM95.889,5.621a1.084,1.084,0,1,0,1.074-1.094A1.065,1.065,0,0,0,95.889,5.621ZM101.543,19h1.406V13.238c0-1.846.938-3.369,2.91-3.369,1.533,0,2.393.947,2.393,2.6V19h1.416V12.018a3.165,3.165,0,0,0-3.5-3.408,2.931,2.931,0,0,0-3.145,2.07h-.078v-1.9h-1.406ZM113.75,8.775h-1.631V9.957h1.631v6.27c0,1.963.459,2.871,2.793,2.871a11.515,11.515,0,0,0,1.182-.078V17.838c-.176.02-.6.049-.84.049-1.318,0-1.729-.332-1.729-1.592V9.957h2.4V8.775h-2.4V6.217H113.75ZM124.3,19.166c2.49,0,3.7-1.543,3.857-2.6H126.66a2.3,2.3,0,0,1-2.373,1.348c-1.846,0-2.832-1.338-2.832-3.125v-.537H128.3V13.111c0-2.773-1.719-4.5-4.131-4.5s-4.131,1.729-4.131,4.5v1.582C120.039,17.418,121.6,19.166,124.3,19.166Zm-2.842-6.016v-.166c0-1.9,1.084-3.115,2.715-3.115s2.715,1.211,2.715,3.115v.166Zm13.467,8.311c-1.494,0-2.363-.723-2.49-1.484h-1.475c.146,1.426,1.4,2.734,3.906,2.734,2.627,0,4.355-1.3,4.355-4.014V8.775h-1.348v1.6h-.059a3.262,3.262,0,0,0-3.037-1.768,3.974,3.974,0,0,0-4.053,4.258v1.689a3.965,3.965,0,0,0,4.063,4.238,3.134,3.134,0,0,0,2.939-1.689h.078v1.641C137.8,20.436,136.836,21.461,134.922,21.461Zm.117-11.592a2.843,2.843,0,0,1,2.764,3.057v1.6a2.789,2.789,0,0,1-2.744,3.008c-1.7,0-2.92-1.318-2.92-3.311V13.2C132.139,11.178,133.291,9.869,135.039,9.869Zm11.553,9.3c2.49,0,3.7-1.543,3.857-2.6h-1.494a2.3,2.3,0,0,1-2.373,1.348c-1.846,0-2.832-1.338-2.832-3.125v-.537H150.6V13.111c0-2.773-1.719-4.5-4.131-4.5s-4.131,1.729-4.131,4.5v1.582C142.334,17.418,143.9,19.166,146.592,19.166ZM143.75,13.15v-.166c0-1.9,1.084-3.115,2.715-3.115s2.715,1.211,2.715,3.115v.166ZM153.809,19h1.406V12.564a2.529,2.529,0,0,1,2.793-2.627,5.332,5.332,0,0,1,.8.049V8.668a6.218,6.218,0,0,0-.635-.049,2.823,2.823,0,0,0-2.891,1.8h-.068V8.775h-1.406ZM169.258,8.609a3.885,3.885,0,0,0-3.994,4.229v2.1c0,2.559,1.572,4.219,3.945,4.219a3.148,3.148,0,0,0,3.145-1.846h.068V19h1.348V4.967h-1.416v5.391h-.068A3.069,3.069,0,0,0,169.258,8.609Zm.176,1.26a2.847,2.847,0,0,1,2.92,2.979v1.885c0,1.885-1.1,3.174-2.871,3.174-1.719,0-2.8-1.24-2.8-3.34V13.189C166.68,11.08,167.764,9.869,169.434,9.869ZM181.953,19h1.406V12.428a2.387,2.387,0,0,1,2.4-2.559,2.215,2.215,0,0,1,2.334,2.393V19h1.416V12.418a2.432,2.432,0,0,1,2.441-2.549,2.123,2.123,0,0,1,2.295,2.324V19h1.406V11.813c0-2.08-1.3-3.2-3.369-3.2a3.159,3.159,0,0,0-3.125,1.963H189.1a2.8,2.8,0,0,0-2.881-1.963,2.617,2.617,0,0,0-2.783,1.807h-.078V8.775h-1.406Zm20,.166a3.316,3.316,0,0,0,3.008-1.592h.068V19H206.4V11.939c0-2.412-1.66-3.33-3.7-3.33-2.148,0-3.525.908-3.682,2.568h1.377c.215-.723.8-1.309,2.236-1.309s2.344.654,2.344,2.1v1.1h-2.793c-2.334,0-3.564,1.211-3.564,2.969A3.065,3.065,0,0,0,201.953,19.166Zm.342-1.25a1.956,1.956,0,0,1-2.217-1.9c0-1,.615-1.758,2.129-1.758h2.764v1.24A2.505,2.505,0,0,1,202.295,17.916Zm9.1-2.793,1.055-1.035L216.182,19h1.7l-4.4-5.811,4.141-4.414h-1.67l-4.492,4.756H211.4V4.967H209.99V19H211.4Zm12.217,4.043c2.49,0,3.7-1.543,3.857-2.6h-1.494a2.3,2.3,0,0,1-2.373,1.348c-1.846,0-2.832-1.338-2.832-3.125v-.537h6.846V13.111c0-2.773-1.719-4.5-4.131-4.5s-4.131,1.729-4.131,4.5v1.582C219.355,17.418,220.918,19.166,223.613,19.166Zm-2.842-6.016v-.166c0-1.9,1.084-3.115,2.715-3.115s2.715,1.211,2.715,3.115v.166Zm9.4-1.514c0,1.963,1.533,2.393,3.467,2.8,1.455.293,2.627.547,2.627,1.777,0,1.016-.791,1.777-2.49,1.777-1.631,0-2.295-.693-2.422-1.631h-1.387c0,1.748,1.484,2.8,3.75,2.8,2.295,0,3.955-1.1,3.955-3.115s-1.65-2.48-3.564-2.842c-1.26-.244-2.549-.459-2.549-1.729,0-1.094.967-1.68,2.236-1.68,1.543,0,2.236.869,2.295,1.611h1.328c0-1.582-1.338-2.8-3.564-2.8C231.924,8.609,230.176,9.547,230.176,11.637Zm15.576-2.861h-1.631V9.957h1.631v6.27c0,1.963.459,2.871,2.793,2.871a11.515,11.515,0,0,0,1.182-.078V17.838c-.176.02-.6.049-.84.049-1.318,0-1.729-.332-1.729-1.592V9.957h2.4V8.775h-2.4V6.217h-1.406ZM252.568,19h1.406V13.238c0-1.855.977-3.369,2.891-3.369a2.327,2.327,0,0,1,2.451,2.617V19h1.416V12.037a3.182,3.182,0,0,0-3.457-3.428,3.1,3.1,0,0,0-3.223,2.07h-.078V4.967h-1.406Zm15.488.166c2.49,0,3.7-1.543,3.857-2.6H270.42a2.3,2.3,0,0,1-2.373,1.348c-1.846,0-2.832-1.338-2.832-3.125v-.537h6.846V13.111c0-2.773-1.719-4.5-4.131-4.5s-4.131,1.729-4.131,4.5v1.582C263.8,17.418,265.361,19.166,268.057,19.166Zm-2.842-6.016v-.166c0-1.9,1.084-3.115,2.715-3.115s2.715,1.211,2.715,3.115v.166ZM1.963,49H3.369V42.564a2.529,2.529,0,0,1,2.793-2.627,5.332,5.332,0,0,1,.8.049V38.668a6.218,6.218,0,0,0-.635-.049,2.823,2.823,0,0,0-2.891,1.8H3.369V38.775H1.963Zm11.182.166c2.49,0,3.7-1.543,3.857-2.6H15.508a2.3,2.3,0,0,1-2.373,1.348c-1.846,0-2.832-1.338-2.832-3.125v-.537h6.846V43.111c0-2.773-1.719-4.5-4.131-4.5s-4.131,1.729-4.131,4.5v1.582C8.887,47.418,10.449,49.166,13.145,49.166ZM10.3,43.15v-.166c0-1.9,1.084-3.115,2.715-3.115s2.715,1.211,2.715,3.115v.166Zm9.9,5.85h1.406V42.428a2.387,2.387,0,0,1,2.4-2.559,2.215,2.215,0,0,1,2.334,2.393V49h1.416V42.418a2.432,2.432,0,0,1,2.441-2.549A2.123,2.123,0,0,1,32.5,42.193V49h1.406V41.813c0-2.08-1.3-3.2-3.369-3.2a3.159,3.159,0,0,0-3.125,1.963h-.059a2.8,2.8,0,0,0-2.881-1.963,2.617,2.617,0,0,0-2.783,1.807h-.078V38.775H20.205Zm20,.166a3.316,3.316,0,0,0,3.008-1.592h.068V49h1.367V41.939c0-2.412-1.66-3.33-3.7-3.33-2.148,0-3.525.908-3.682,2.568h1.377c.215-.723.8-1.309,2.236-1.309s2.344.654,2.344,2.1v1.1H40.43c-2.334,0-3.564,1.211-3.564,2.969A3.065,3.065,0,0,0,40.205,49.166Zm.342-1.25a1.956,1.956,0,0,1-2.217-1.9c0-1,.615-1.758,2.129-1.758h2.764v1.24A2.505,2.505,0,0,1,40.547,47.916ZM48.467,49h1.406V38.775H48.467Zm-.381-13.379a1.084,1.084,0,1,0,1.074-1.094A1.065,1.065,0,0,0,48.086,35.621ZM53.74,49h1.406V43.238c0-1.846.938-3.369,2.91-3.369,1.533,0,2.393.947,2.393,2.6V49h1.416V42.018a3.165,3.165,0,0,0-3.5-3.408,2.931,2.931,0,0,0-3.145,2.07h-.078v-1.9H53.74ZM68.906,38.609a3.885,3.885,0,0,0-3.994,4.229v2.1c0,2.559,1.572,4.219,3.945,4.219A3.148,3.148,0,0,0,72,47.311h.068V49h1.348V34.967H72v5.391h-.068A3.069,3.069,0,0,0,68.906,38.609Zm.176,1.26A2.847,2.847,0,0,1,72,42.848v1.885c0,1.885-1.1,3.174-2.871,3.174-1.719,0-2.8-1.24-2.8-3.34V43.189C66.328,41.08,67.412,39.869,69.082,39.869Zm11.738,9.3c2.49,0,3.7-1.543,3.857-2.6H83.184a2.3,2.3,0,0,1-2.373,1.348c-1.846,0-2.832-1.338-2.832-3.125v-.537h6.846V43.111c0-2.773-1.719-4.5-4.131-4.5s-4.131,1.729-4.131,4.5v1.582C76.563,47.418,78.125,49.166,80.82,49.166ZM77.979,43.15v-.166c0-1.9,1.084-3.115,2.715-3.115s2.715,1.211,2.715,3.115v.166ZM88.037,49h1.406V42.564a2.529,2.529,0,0,1,2.793-2.627,5.332,5.332,0,0,1,.8.049V38.668a6.218,6.218,0,0,0-.635-.049,2.823,2.823,0,0,0-2.891,1.8h-.068V38.775H88.037Zm15.781-10.391A4.174,4.174,0,0,0,99.5,43.082v1.611a4.314,4.314,0,1,0,8.623,0V43.082A4.135,4.135,0,0,0,103.818,38.609Zm.01,1.26c1.738,0,2.881,1.328,2.881,3.379v1.3c0,2.1-1.094,3.369-2.881,3.369-1.807,0-2.92-1.279-2.92-3.369v-1.3C100.908,41.2,102.08,39.869,103.828,39.869ZM112.061,49h1.406V39.957h2.471V38.775h-2.471v-.967c0-1.3.537-1.689,1.807-1.689.264,0,.762.02.928.039v-1.2c-.186-.02-.664-.059-1.094-.059-2.158,0-3.047.9-3.047,2.813v1.064h-1.748v1.182h1.748Zm15.029.166c2.49,0,3.7-1.543,3.857-2.6h-1.494a2.3,2.3,0,0,1-2.373,1.348c-1.846,0-2.832-1.338-2.832-3.125v-.537h6.846V43.111c0-2.773-1.719-4.5-4.131-4.5s-4.131,1.729-4.131,4.5v1.582C122.832,47.418,124.395,49.166,127.09,49.166Zm-2.842-6.016v-.166c0-1.9,1.084-3.115,2.715-3.115s2.715,1.211,2.715,3.115v.166Zm18,.146-.156-3.252,2.744,1.768.566-1-2.9-1.494,2.9-1.494-.566-1-2.744,1.777.156-3.262H141.1l.146,3.262-2.734-1.777-.576,1,2.91,1.494-2.91,1.494.576,1,2.734-1.768L141.1,43.3Zm14.082-4.687a3.885,3.885,0,0,0-3.994,4.229v2.1c0,2.559,1.572,4.219,3.945,4.219a3.148,3.148,0,0,0,3.145-1.846h.068V49h1.348V34.967h-1.416v5.391h-.068A3.069,3.069,0,0,0,156.328,38.609Zm.176,1.26a2.847,2.847,0,0,1,2.92,2.979v1.885c0,1.885-1.1,3.174-2.871,3.174-1.719,0-2.8-1.24-2.8-3.34V43.189C153.75,41.08,154.834,39.869,156.5,39.869Zm16.006-1.26a3.885,3.885,0,0,0-3.994,4.229v2.1c0,2.559,1.572,4.219,3.945,4.219a3.148,3.148,0,0,0,3.145-1.846h.068V49h1.348V34.967h-1.416v5.391h-.068A3.069,3.069,0,0,0,172.51,38.609Zm.176,1.26a2.847,2.847,0,0,1,2.92,2.979v1.885c0,1.885-1.1,3.174-2.871,3.174-1.719,0-2.8-1.24-2.8-3.34V43.189C169.932,41.08,171.016,39.869,172.686,39.869ZM180.918,49h1.406V38.775h-1.406Zm-.381-13.379a1.084,1.084,0,1,0,1.074-1.094A1.065,1.065,0,0,0,180.537,35.621ZM188.691,49h1.416l3.74-10.225h-1.514l-2.92,8.691h-.068l-2.754-8.691H185.02Zm7.754,0h1.406V38.775h-1.406Zm-.381-13.379a1.084,1.084,0,1,0,1.074-1.094A1.065,1.065,0,0,0,196.064,35.621Zm9.141,2.988a3.885,3.885,0,0,0-3.994,4.229v2.1c0,2.559,1.572,4.219,3.945,4.219a3.148,3.148,0,0,0,3.145-1.846h.068V49h1.348V34.967H208.3v5.391h-.068A3.069,3.069,0,0,0,205.205,38.609Zm.176,1.26a2.847,2.847,0,0,1,2.92,2.979v1.885c0,1.885-1.1,3.174-2.871,3.174-1.719,0-2.8-1.24-2.8-3.34V43.189C202.627,41.08,203.711,39.869,205.381,39.869Zm11.738,9.3c2.49,0,3.7-1.543,3.857-2.6h-1.494a2.3,2.3,0,0,1-2.373,1.348c-1.846,0-2.832-1.338-2.832-3.125v-.537h6.846V43.111c0-2.773-1.719-4.5-4.131-4.5s-4.131,1.729-4.131,4.5v1.582C212.861,47.418,214.424,49.166,217.119,49.166Zm-2.842-6.016v-.166c0-1.9,1.084-3.115,2.715-3.115s2.715,1.211,2.715,3.115v.166Zm13.389-4.541a3.885,3.885,0,0,0-3.994,4.229v2.1c0,2.559,1.572,4.219,3.945,4.219a3.148,3.148,0,0,0,3.145-1.846h.068V49h1.348V34.967h-1.416v5.391h-.068A3.069,3.069,0,0,0,227.666,38.609Zm.176,1.26a2.847,2.847,0,0,1,2.92,2.979v1.885c0,1.885-1.1,3.174-2.871,3.174-1.719,0-2.8-1.24-2.8-3.34V43.189C225.088,41.08,226.172,39.869,227.842,39.869Zm17.041,9.3c2.441,0,3.994-1.68,3.994-4.336V42.936c0-2.637-1.533-4.326-3.936-4.326a3.056,3.056,0,0,0-3.086,1.855h-.068v-5.5h-1.416V49h1.348V47.428h.068A3.2,3.2,0,0,0,244.883,49.166Zm-.166-1.25a2.873,2.873,0,0,1-2.93-3.027V43.082c0-1.963,1.123-3.213,2.881-3.213s2.793,1.27,2.793,3.438v1.211C247.461,46.656,246.445,47.916,244.717,47.916Zm14.98-9.141h-1.5l-2.92,8.76h-.068l-2.93-8.76H250.7l3.809,10.381-.156.518a1.952,1.952,0,0,1-2.08,1.66,5.854,5.854,0,0,1-.732-.059v1.2a5.3,5.3,0,0,0,.9.078c1.6,0,2.559-.791,3.311-2.8l.254-.664ZM266.787,49h1.406V42.428a2.387,2.387,0,0,1,2.4-2.559,2.215,2.215,0,0,1,2.334,2.393V49h1.416V42.418a2.432,2.432,0,0,1,2.441-2.549,2.123,2.123,0,0,1,2.295,2.324V49h1.406V41.813c0-2.08-1.3-3.2-3.369-3.2a3.159,3.159,0,0,0-3.125,1.963h-.059a2.8,2.8,0,0,0-2.881-1.963,2.617,2.617,0,0,0-2.783,1.807h-.078V38.775h-1.406ZM5.566,79.166c2.49,0,3.7-1.543,3.857-2.6H7.93a2.3,2.3,0,0,1-2.373,1.348c-1.846,0-2.832-1.338-2.832-3.125v-.537H9.57V73.111c0-2.773-1.719-4.5-4.131-4.5s-4.131,1.729-4.131,4.5v1.582C1.309,77.418,2.871,79.166,5.566,79.166ZM2.725,73.15v-.166c0-1.9,1.084-3.115,2.715-3.115s2.715,1.211,2.715,3.115v.166Zm13.34-4.541c-2.373,0-3.945,1.719-3.945,4.316v1.943c0,2.617,1.533,4.3,3.916,4.3A3.17,3.17,0,0,0,19.111,77.4h.078v4.98H20.6v-13.6H19.258v1.66H19.18A3.223,3.223,0,0,0,16.064,68.609Zm.234,1.26a2.824,2.824,0,0,1,2.891,2.979v1.9c0,1.934-1.113,3.174-2.852,3.174-1.758,0-2.8-1.25-2.8-3.34V73.2C13.535,71.139,14.59,69.869,16.3,69.869Zm15.908-1.094H30.791V75.25a2.761,2.761,0,0,1-2.861,2.666,2.164,2.164,0,0,1-2.412-2.393V68.775H24.1v7.119c0,2.363,1.484,3.271,3.516,3.271a3.089,3.089,0,0,0,3.1-1.914h.078V79h1.416Zm6.348,10.391a3.316,3.316,0,0,0,3.008-1.592h.068V79H43V71.939c0-2.412-1.66-3.33-3.7-3.33-2.148,0-3.525.908-3.682,2.568h1.377c.215-.723.8-1.309,2.236-1.309s2.344.654,2.344,2.1v1.1H38.779c-2.334,0-3.564,1.211-3.564,2.969A3.065,3.065,0,0,0,38.555,79.166Zm.342-1.25a1.956,1.956,0,0,1-2.217-1.9c0-1,.615-1.758,2.129-1.758h2.764v1.24A2.505,2.505,0,0,1,38.9,77.916ZM46.631,79h1.416V64.967H46.631ZM56.8,68.775H55.166v1.182H56.8v6.27c0,1.963.459,2.871,2.793,2.871a11.515,11.515,0,0,0,1.182-.078V77.838c-.176.02-.6.049-.84.049-1.318,0-1.729-.332-1.729-1.592V69.957h2.4V68.775H58.2V66.217H56.8ZM67.4,68.609a4.174,4.174,0,0,0-4.316,4.473v1.611a4.314,4.314,0,1,0,8.623,0V73.082A4.135,4.135,0,0,0,67.4,68.609Zm.01,1.26c1.738,0,2.881,1.328,2.881,3.379v1.3c0,2.1-1.094,3.369-2.881,3.369-1.807,0-2.92-1.279-2.92-3.369v-1.3C64.492,71.2,65.664,69.869,67.412,69.869ZM83.73,79V65.68H82.324l-3.2,2.354v1.5l3.125-2.246h.078V79Zm3.7-1.055a1.24,1.24,0,0,0,2.48,0,1.24,1.24,0,1,0-2.48,0Z" transform="translate(375 3108)" fill="#687992"/>
    <g id="_04" data-name="04" transform="translate(-955.4 1539.96)">
      <path id="路径_606" data-name="路径 606" d="M1520.624,1483.25a43.015,43.015,0,0,0-37.049-21.209c-.2,0-.395.012-.593.015v8.9c.2,0,.395-.015.593-.015a34.1,34.1,0,0,1,0,68.208c-.2,0-.395-.012-.593-.015a34.119,34.119,0,0,1-29.1-17.347l-7.7,4.445a43.018,43.018,0,0,0,36.8,21.8c.2,0,.395.015.593.015a42.972,42.972,0,0,0,37.049-64.792Z" transform="translate(1.825 0)" fill="#1f8aff"/>
      <path id="路径_607" data-name="路径 607" d="M1448.057,1483.76a42.839,42.839,0,0,0-.05,42.464l7.7-4.445a34.1,34.1,0,0,1,29.1-50.831v-8.9A43.02,43.02,0,0,0,1448.057,1483.76Z" transform="translate(0 0.005)" fill="#042e7a"/>
    </g>
    <path id="路径_10363" data-name="路径 10363" d="M9.775,17.691H3.35V12.838H9.424v-1.3H3.35V6.979H9.775V5.68H1.924V19H9.775ZM12.861,19h1.406V13.238c0-1.846.938-3.369,2.91-3.369,1.533,0,2.393.947,2.393,2.6V19h1.416V12.018a3.165,3.165,0,0,0-3.5-3.408,2.931,2.931,0,0,0-3.145,2.07h-.078v-1.9H12.861Zm11.182-4.238c0,2.725,1.6,4.4,4.16,4.4,2.666,0,3.828-1.5,3.9-2.871H30.693c-.2.8-.811,1.582-2.461,1.582-1.729,0-2.783-1.191-2.783-3.115v-1.7c0-1.943.967-3.164,2.773-3.164a2.172,2.172,0,0,1,2.4,1.719h1.406c-.049-1.426-1.309-3.008-3.828-3.008-2.549,0-4.16,1.7-4.16,4.375ZM35.186,19h1.406V12.564a2.529,2.529,0,0,1,2.793-2.627,5.332,5.332,0,0,1,.8.049V8.668a6.218,6.218,0,0,0-.635-.049,2.823,2.823,0,0,0-2.891,1.8h-.068V8.775H35.186ZM50.693,8.775h-1.5l-2.92,8.76H46.2l-2.93-8.76H41.7l3.809,10.381-.156.518a1.952,1.952,0,0,1-2.08,1.66,5.854,5.854,0,0,1-.732-.059v1.2a5.3,5.3,0,0,0,.9.078c1.6,0,2.559-.791,3.311-2.8L47,19.088Zm7.041,10.391c2.4,0,3.994-1.641,3.994-4.336V12.936c0-2.646-1.553-4.326-3.936-4.326a3.161,3.161,0,0,0-3.125,1.855H54.59v-1.7H53.252V22.379h1.406V17.428h.078A3.051,3.051,0,0,0,57.734,19.166Zm-.186-1.25a2.808,2.808,0,0,1-2.891-2.979v-1.9c0-1.914,1.074-3.164,2.842-3.164s2.813,1.23,2.813,3.418V14.5C60.313,16.7,59.248,17.916,57.549,17.916Zm7.832-9.141H63.75V9.957h1.631v6.27c0,1.963.459,2.871,2.793,2.871a11.515,11.515,0,0,0,1.182-.078V17.838c-.176.02-.6.049-.84.049-1.318,0-1.729-.332-1.729-1.592V9.957h2.4V8.775h-2.4V6.217H65.381ZM72.422,19h1.406V8.775H72.422ZM72.041,5.621a1.084,1.084,0,1,0,1.074-1.094A1.065,1.065,0,0,0,72.041,5.621Zm9.473,2.988A4.174,4.174,0,0,0,77.2,13.082v1.611a4.314,4.314,0,1,0,8.623,0V13.082A4.135,4.135,0,0,0,81.514,8.609Zm.01,1.26c1.738,0,2.881,1.328,2.881,3.379v1.3c0,2.1-1.094,3.369-2.881,3.369-1.807,0-2.92-1.279-2.92-3.369v-1.3C78.6,11.2,79.775,9.869,81.523,9.869ZM88.936,19h1.406V13.238c0-1.846.938-3.369,2.91-3.369,1.533,0,2.393.947,2.393,2.6V19h1.416V12.018a3.165,3.165,0,0,0-3.5-3.408,2.931,2.931,0,0,0-3.145,2.07h-.078v-1.9H88.936Zm19.785,2.461c-1.494,0-2.363-.723-2.49-1.484h-1.475c.146,1.426,1.4,2.734,3.906,2.734,2.627,0,4.355-1.3,4.355-4.014V8.775H111.67v1.6h-.059a3.262,3.262,0,0,0-3.037-1.768,3.974,3.974,0,0,0-4.053,4.258v1.689a3.965,3.965,0,0,0,4.063,4.238,3.134,3.134,0,0,0,2.939-1.689h.078v1.641C111.6,20.436,110.635,21.461,108.721,21.461Zm.117-11.592a2.843,2.843,0,0,1,2.764,3.057v1.6a2.789,2.789,0,0,1-2.744,3.008c-1.7,0-2.92-1.318-2.92-3.311V13.2C105.938,11.178,107.09,9.869,108.838,9.869Zm11.553,9.3c2.49,0,3.7-1.543,3.857-2.6h-1.494a2.3,2.3,0,0,1-2.373,1.348c-1.846,0-2.832-1.338-2.832-3.125v-.537h6.846V13.111c0-2.773-1.719-4.5-4.131-4.5s-4.131,1.729-4.131,4.5v1.582C116.133,17.418,117.7,19.166,120.391,19.166Zm-2.842-6.016v-.166c0-1.9,1.084-3.115,2.715-3.115s2.715,1.211,2.715,3.115v.166Zm9.9,5.85h1.406V13.238c0-1.846.938-3.369,2.91-3.369,1.533,0,2.393.947,2.393,2.6V19h1.416V12.018a3.165,3.165,0,0,0-3.5-3.408,2.931,2.931,0,0,0-3.145,2.07h-.078v-1.9h-1.406Zm15.439.166c2.49,0,3.7-1.543,3.857-2.6h-1.494a2.3,2.3,0,0,1-2.373,1.348c-1.846,0-2.832-1.338-2.832-3.125v-.537h6.846V13.111c0-2.773-1.719-4.5-4.131-4.5s-4.131,1.729-4.131,4.5v1.582C138.633,17.418,140.2,19.166,142.891,19.166Zm-2.842-6.016v-.166c0-1.9,1.084-3.115,2.715-3.115s2.715,1.211,2.715,3.115v.166ZM150.107,19h1.406V12.564a2.529,2.529,0,0,1,2.793-2.627,5.332,5.332,0,0,1,.8.049V8.668a6.218,6.218,0,0,0-.635-.049,2.823,2.823,0,0,0-2.891,1.8h-.068V8.775h-1.406Zm10.156.166a3.316,3.316,0,0,0,3.008-1.592h.068V19h1.367V11.939c0-2.412-1.66-3.33-3.7-3.33-2.148,0-3.525.908-3.682,2.568H158.7c.215-.723.8-1.309,2.236-1.309s2.344.654,2.344,2.1v1.1h-2.793c-2.334,0-3.564,1.211-3.564,2.969A3.065,3.065,0,0,0,160.264,19.166Zm.342-1.25a1.956,1.956,0,0,1-2.217-1.9c0-1,.615-1.758,2.129-1.758h2.764v1.24A2.505,2.505,0,0,1,160.605,17.916ZM168.8,8.775h-1.631V9.957H168.8v6.27c0,1.963.459,2.871,2.793,2.871a11.515,11.515,0,0,0,1.182-.078V17.838c-.176.02-.6.049-.84.049-1.318,0-1.729-.332-1.729-1.592V9.957h2.4V8.775h-2.4V6.217H168.8Zm10.547,10.391c2.49,0,3.7-1.543,3.857-2.6h-1.494a2.3,2.3,0,0,1-2.373,1.348c-1.846,0-2.832-1.338-2.832-3.125v-.537h6.846V13.111c0-2.773-1.719-4.5-4.131-4.5s-4.131,1.729-4.131,4.5v1.582C175.088,17.418,176.65,19.166,179.346,19.166ZM176.5,13.15v-.166c0-1.9,1.084-3.115,2.715-3.115s2.715,1.211,2.715,3.115v.166Zm9.4-1.514c0,1.963,1.533,2.393,3.467,2.8,1.455.293,2.627.547,2.627,1.777,0,1.016-.791,1.777-2.49,1.777-1.631,0-2.295-.693-2.422-1.631H185.7c0,1.748,1.484,2.8,3.75,2.8,2.295,0,3.955-1.1,3.955-3.115s-1.65-2.48-3.564-2.842c-1.26-.244-2.549-.459-2.549-1.729,0-1.094.967-1.68,2.236-1.68,1.543,0,2.236.869,2.295,1.611h1.328c0-1.582-1.338-2.8-3.564-2.8C187.656,8.609,185.908,9.547,185.908,11.637Zm14.551,3.125c0,2.725,1.6,4.4,4.16,4.4,2.666,0,3.828-1.5,3.9-2.871h-1.406c-.2.8-.811,1.582-2.461,1.582-1.729,0-2.783-1.191-2.783-3.115v-1.7c0-1.943.967-3.164,2.773-3.164a2.172,2.172,0,0,1,2.4,1.719h1.406c-.049-1.426-1.309-3.008-3.828-3.008-2.549,0-4.16,1.7-4.16,4.375ZM211.7,19h1.406V8.775H211.7Zm-.381-13.379a1.084,1.084,0,1,0,1.074-1.094A1.065,1.065,0,0,0,211.318,5.621Zm10.146,13.545c2.4,0,3.994-1.641,3.994-4.336V12.936c0-2.646-1.553-4.326-3.936-4.326a3.161,3.161,0,0,0-3.125,1.855h-.078v-1.7h-1.338V22.379h1.406V17.428h.078A3.051,3.051,0,0,0,221.465,19.166Zm-.186-1.25a2.808,2.808,0,0,1-2.891-2.979v-1.9c0-1.914,1.074-3.164,2.842-3.164s2.813,1.23,2.813,3.418V14.5C224.043,16.7,222.979,17.916,221.279,17.916ZM228.613,19h1.406V13.238c0-1.855.977-3.369,2.891-3.369a2.327,2.327,0,0,1,2.451,2.617V19h1.416V12.037a3.182,3.182,0,0,0-3.457-3.428,3.1,3.1,0,0,0-3.223,2.07h-.078V4.967h-1.406Zm15.488.166c2.49,0,3.7-1.543,3.857-2.6h-1.494a2.3,2.3,0,0,1-2.373,1.348c-1.846,0-2.832-1.338-2.832-3.125v-.537h6.846V13.111c0-2.773-1.719-4.5-4.131-4.5s-4.131,1.729-4.131,4.5v1.582C239.844,17.418,241.406,19.166,244.1,19.166ZM241.26,13.15v-.166c0-1.9,1.084-3.115,2.715-3.115s2.715,1.211,2.715,3.115v.166ZM251.318,19h1.406V12.564a2.529,2.529,0,0,1,2.793-2.627,5.332,5.332,0,0,1,.8.049V8.668a6.218,6.218,0,0,0-.635-.049,2.823,2.823,0,0,0-2.891,1.8h-.068V8.775h-1.406Zm8.633-10.225H258.32V9.957h1.631v6.27c0,1.963.459,2.871,2.793,2.871a11.515,11.515,0,0,0,1.182-.078V17.838c-.176.02-.6.049-.84.049-1.318,0-1.729-.332-1.729-1.592V9.957h2.4V8.775h-2.4V6.217h-1.406ZM270.5,19.166c2.49,0,3.7-1.543,3.857-2.6h-1.494a2.3,2.3,0,0,1-2.373,1.348c-1.846,0-2.832-1.338-2.832-3.125v-.537H274.5V13.111c0-2.773-1.719-4.5-4.131-4.5s-4.131,1.729-4.131,4.5v1.582C266.24,17.418,267.8,19.166,270.5,19.166Zm-2.842-6.016v-.166c0-1.9,1.084-3.115,2.715-3.115s2.715,1.211,2.715,3.115v.166ZM283.369,19h1.7l-3.555-5.215,3.5-5.01h-1.621l-2.607,3.965h-.068l-2.539-3.965h-1.7l3.486,5.166L276.475,19h1.611l2.617-3.984h.059Zm4.844-10.225h-1.631V9.957h1.631v6.27c0,1.963.459,2.871,2.793,2.871a11.515,11.515,0,0,0,1.182-.078V17.838c-.176.02-.6.049-.84.049-1.318,0-1.729-.332-1.729-1.592V9.957h2.4V8.775h-2.4V6.217h-1.406Zm6.553,9.17a1.24,1.24,0,0,0,2.48,0,1.24,1.24,0,1,0-2.48,0Z" transform="translate(41 3369)" fill="#687992"/>
    <g id="_05" data-name="05" transform="translate(-1471.4 1801.96)">
      <path id="路径_608" data-name="路径 608" d="M1552.966,1470.947v-8.9a43.021,43.021,0,0,0-36.751,21.709l7.7,4.445A34.116,34.116,0,0,1,1552.966,1470.947Z" transform="translate(1.842 0.005)" fill="#042e7a"/>
      <path id="路径_609" data-name="路径 609" d="M1592.449,1483.25a43.014,43.014,0,0,0-37.049-21.209c-.2,0-.394.012-.593.015v8.9c.2,0,.394-.015.593-.015a34.1,34.1,0,0,1,0,68.208c-.2,0-.394-.012-.593-.015a34.069,34.069,0,0,1-29.049-50.92l-7.7-4.445a42.99,42.99,0,0,0,36.751,64.262c.2,0,.394.015.593.015a42.972,42.972,0,0,0,37.049-64.792Z" transform="translate(0 0)" fill="#1f8aff"/>
    </g>
    <path id="路径_10362" data-name="路径 10362" d="M1.924,5.68V19H6.006c3.9,0,5.85-2.314,5.85-6.66S9.893,5.68,6.006,5.68Zm1.426,1.3H5.957c2.969,0,4.424,1.826,4.424,5.361s-1.436,5.352-4.424,5.352H3.35ZM18.9,19.166c2.49,0,3.7-1.543,3.857-2.6H21.26a2.3,2.3,0,0,1-2.373,1.348c-1.846,0-2.832-1.338-2.832-3.125v-.537H22.9V13.111c0-2.773-1.719-4.5-4.131-4.5s-4.131,1.729-4.131,4.5v1.582C14.639,17.418,16.2,19.166,18.9,19.166ZM16.055,13.15v-.166c0-1.9,1.084-3.115,2.715-3.115s2.715,1.211,2.715,3.115v.166Zm9.4,1.611c0,2.725,1.6,4.4,4.16,4.4,2.666,0,3.828-1.5,3.9-2.871H32.109c-.2.8-.811,1.582-2.461,1.582-1.729,0-2.783-1.191-2.783-3.115v-1.7c0-1.943.967-3.164,2.773-3.164a2.172,2.172,0,0,1,2.4,1.719h1.406c-.049-1.426-1.309-3.008-3.828-3.008-2.549,0-4.16,1.7-4.16,4.375ZM36.6,19h1.406V12.564A2.529,2.529,0,0,1,40.8,9.938a5.332,5.332,0,0,1,.8.049V8.668a6.218,6.218,0,0,0-.635-.049,2.823,2.823,0,0,0-2.891,1.8h-.068V8.775H36.6ZM52.109,8.775h-1.5l-2.92,8.76h-.068l-2.93-8.76H43.115l3.809,10.381-.156.518a1.952,1.952,0,0,1-2.08,1.66,5.854,5.854,0,0,1-.732-.059v1.2a5.3,5.3,0,0,0,.9.078c1.6,0,2.559-.791,3.311-2.8l.254-.664ZM59.15,19.166c2.4,0,3.994-1.641,3.994-4.336V12.936c0-2.646-1.553-4.326-3.936-4.326a3.161,3.161,0,0,0-3.125,1.855h-.078v-1.7H54.668V22.379h1.406V17.428h.078A3.051,3.051,0,0,0,59.15,19.166Zm-.186-1.25a2.808,2.808,0,0,1-2.891-2.979v-1.9c0-1.914,1.074-3.164,2.842-3.164s2.813,1.23,2.813,3.418V14.5C61.729,16.7,60.664,17.916,58.965,17.916ZM66.8,8.775H65.166V9.957H66.8v6.27c0,1.963.459,2.871,2.793,2.871a11.515,11.515,0,0,0,1.182-.078V17.838c-.176.02-.6.049-.84.049-1.318,0-1.729-.332-1.729-1.592V9.957h2.4V8.775H68.2V6.217H66.8ZM73.838,19h1.406V8.775H73.838ZM73.457,5.621a1.084,1.084,0,1,0,1.074-1.094A1.065,1.065,0,0,0,73.457,5.621ZM82.93,8.609a4.174,4.174,0,0,0-4.316,4.473v1.611a4.314,4.314,0,1,0,8.623,0V13.082A4.135,4.135,0,0,0,82.93,8.609Zm.01,1.26c1.738,0,2.881,1.328,2.881,3.379v1.3c0,2.1-1.094,3.369-2.881,3.369-1.807,0-2.92-1.279-2.92-3.369v-1.3C80.02,11.2,81.191,9.869,82.939,9.869ZM90.352,19h1.406V13.238c0-1.846.938-3.369,2.91-3.369,1.533,0,2.393.947,2.393,2.6V19h1.416V12.018a3.165,3.165,0,0,0-3.5-3.408,2.931,2.931,0,0,0-3.145,2.07h-.078v-1.9H90.352Zm19.785,2.461c-1.494,0-2.363-.723-2.49-1.484h-1.475c.146,1.426,1.4,2.734,3.906,2.734,2.627,0,4.355-1.3,4.355-4.014V8.775h-1.348v1.6h-.059a3.262,3.262,0,0,0-3.037-1.768,3.974,3.974,0,0,0-4.053,4.258v1.689A3.965,3.965,0,0,0,110,18.795a3.134,3.134,0,0,0,2.939-1.689h.078v1.641C113.018,20.436,112.051,21.461,110.137,21.461Zm.117-11.592a2.843,2.843,0,0,1,2.764,3.057v1.6a2.789,2.789,0,0,1-2.744,3.008c-1.7,0-2.92-1.318-2.92-3.311V13.2C107.354,11.178,108.506,9.869,110.254,9.869Zm11.553,9.3c2.49,0,3.7-1.543,3.857-2.6H124.17a2.3,2.3,0,0,1-2.373,1.348c-1.846,0-2.832-1.338-2.832-3.125v-.537h6.846V13.111c0-2.773-1.719-4.5-4.131-4.5s-4.131,1.729-4.131,4.5v1.582C117.549,17.418,119.111,19.166,121.807,19.166Zm-2.842-6.016v-.166c0-1.9,1.084-3.115,2.715-3.115s2.715,1.211,2.715,3.115v.166Zm9.9,5.85h1.406V13.238c0-1.846.938-3.369,2.91-3.369,1.533,0,2.393.947,2.393,2.6V19h1.416V12.018a3.165,3.165,0,0,0-3.5-3.408,2.931,2.931,0,0,0-3.145,2.07h-.078v-1.9h-1.406Zm15.439.166c2.49,0,3.7-1.543,3.857-2.6H146.67a2.3,2.3,0,0,1-2.373,1.348c-1.846,0-2.832-1.338-2.832-3.125v-.537h6.846V13.111c0-2.773-1.719-4.5-4.131-4.5s-4.131,1.729-4.131,4.5v1.582C140.049,17.418,141.611,19.166,144.307,19.166Zm-2.842-6.016v-.166c0-1.9,1.084-3.115,2.715-3.115s2.715,1.211,2.715,3.115v.166ZM151.523,19h1.406V12.564a2.529,2.529,0,0,1,2.793-2.627,5.332,5.332,0,0,1,.8.049V8.668a6.218,6.218,0,0,0-.635-.049,2.823,2.823,0,0,0-2.891,1.8h-.068V8.775h-1.406Zm10.156.166a3.316,3.316,0,0,0,3.008-1.592h.068V19h1.367V11.939c0-2.412-1.66-3.33-3.7-3.33-2.148,0-3.525.908-3.682,2.568h1.377c.215-.723.8-1.309,2.236-1.309s2.344.654,2.344,2.1v1.1H161.9c-2.334,0-3.564,1.211-3.564,2.969A3.065,3.065,0,0,0,161.68,19.166Zm.342-1.25a1.956,1.956,0,0,1-2.217-1.9c0-1,.615-1.758,2.129-1.758H164.7v1.24A2.505,2.505,0,0,1,162.021,17.916Zm8.193-9.141h-1.631V9.957h1.631v6.27c0,1.963.459,2.871,2.793,2.871a11.515,11.515,0,0,0,1.182-.078V17.838c-.176.02-.6.049-.84.049-1.318,0-1.729-.332-1.729-1.592V9.957h2.4V8.775h-2.4V6.217h-1.406Zm10.547,10.391c2.49,0,3.7-1.543,3.857-2.6h-1.494a2.3,2.3,0,0,1-2.373,1.348c-1.846,0-2.832-1.338-2.832-3.125v-.537h6.846V13.111c0-2.773-1.719-4.5-4.131-4.5s-4.131,1.729-4.131,4.5v1.582C176.5,17.418,178.066,19.166,180.762,19.166ZM177.92,13.15v-.166c0-1.9,1.084-3.115,2.715-3.115s2.715,1.211,2.715,3.115v.166Zm9.4-1.514c0,1.963,1.533,2.393,3.467,2.8,1.455.293,2.627.547,2.627,1.777,0,1.016-.791,1.777-2.49,1.777-1.631,0-2.295-.693-2.422-1.631h-1.387c0,1.748,1.484,2.8,3.75,2.8,2.295,0,3.955-1.1,3.955-3.115s-1.65-2.48-3.564-2.842c-1.26-.244-2.549-.459-2.549-1.729,0-1.094.967-1.68,2.236-1.68,1.543,0,2.236.869,2.295,1.611h1.328c0-1.582-1.338-2.8-3.564-2.8C189.072,8.609,187.324,9.547,187.324,11.637Zm19.541,7.529c2.4,0,3.994-1.641,3.994-4.336V12.936c0-2.646-1.553-4.326-3.936-4.326a3.161,3.161,0,0,0-3.125,1.855h-.078v-1.7h-1.338V22.379h1.406V17.428h.078A3.051,3.051,0,0,0,206.865,19.166Zm-.186-1.25a2.808,2.808,0,0,1-2.891-2.979v-1.9c0-1.914,1.074-3.164,2.842-3.164s2.813,1.23,2.813,3.418V14.5C209.443,16.7,208.379,17.916,206.68,17.916ZM214.053,19h1.416V4.967h-1.416Zm7.832.166a3.316,3.316,0,0,0,3.008-1.592h.068V19h1.367V11.939c0-2.412-1.66-3.33-3.7-3.33-2.148,0-3.525.908-3.682,2.568h1.377c.215-.723.8-1.309,2.236-1.309s2.344.654,2.344,2.1v1.1h-2.793c-2.334,0-3.564,1.211-3.564,2.969A3.065,3.065,0,0,0,221.885,19.166Zm.342-1.25a1.956,1.956,0,0,1-2.217-1.9c0-1,.615-1.758,2.129-1.758H224.9v1.24A2.505,2.505,0,0,1,222.227,17.916ZM230.146,19h1.406V8.775h-1.406Zm-.381-13.379a1.084,1.084,0,1,0,1.074-1.094A1.065,1.065,0,0,0,229.766,5.621ZM235.42,19h1.406V13.238c0-1.846.938-3.369,2.91-3.369,1.533,0,2.393.947,2.393,2.6V19h1.416V12.018a3.165,3.165,0,0,0-3.5-3.408,2.931,2.931,0,0,0-3.145,2.07h-.078v-1.9H235.42ZM247.627,8.775H246V9.957h1.631v6.27c0,1.963.459,2.871,2.793,2.871a11.515,11.515,0,0,0,1.182-.078V17.838c-.176.02-.6.049-.84.049-1.318,0-1.729-.332-1.729-1.592V9.957h2.4V8.775h-2.4V6.217h-1.406Zm10.547,10.391c2.49,0,3.7-1.543,3.857-2.6h-1.494a2.3,2.3,0,0,1-2.373,1.348c-1.846,0-2.832-1.338-2.832-3.125v-.537h6.846V13.111c0-2.773-1.719-4.5-4.131-4.5s-4.131,1.729-4.131,4.5v1.582C253.916,17.418,255.479,19.166,258.174,19.166Zm-2.842-6.016v-.166c0-1.9,1.084-3.115,2.715-3.115s2.715,1.211,2.715,3.115v.166ZM271.045,19h1.7l-3.555-5.215,3.5-5.01h-1.621l-2.607,3.965h-.068L265.85,8.775h-1.7l3.486,5.166L264.15,19h1.611l2.617-3.984h.059Zm4.844-10.225h-1.631V9.957h1.631v6.27c0,1.963.459,2.871,2.793,2.871a11.515,11.515,0,0,0,1.182-.078V17.838c-.176.02-.6.049-.84.049-1.318,0-1.729-.332-1.729-1.592V9.957h2.4V8.775h-2.4V6.217h-1.406Zm6.553,9.17a1.24,1.24,0,0,0,2.48,0,1.24,1.24,0,1,0-2.48,0Z" transform="translate(375 3370)" fill="#687992"/>
    <path id="_06" data-name="06" d="M1672.449,1483.25a43.014,43.014,0,0,0-37.049-21.209c-.2,0-.394.012-.593.015a42.99,42.99,0,0,0,0,85.971c.2,0,.394.015.593.015a42.972,42.972,0,0,0,37.049-64.792Zm-37.049,55.895c-.2,0-.394-.012-.593-.015a34.094,34.094,0,0,1,0-68.178c.2,0,.394-.015.593-.015a34.1,34.1,0,0,1,0,68.208Z" transform="translate(-1105.4 1801.96)" fill="#1f8aff"/>
  </g>
</svg>
