<svg xmlns="http://www.w3.org/2000/svg" xmlns:xlink="http://www.w3.org/1999/xlink" width="599" height="1444.708" viewBox="0 0 599 1444.708">
  <defs>
    <filter id="椭圆_414" x="472.461" y="262.708" width="124" height="124" filterUnits="userSpaceOnUse">
      <feOffset dy="3" input="SourceAlpha"/>
      <feGaussianBlur stdDeviation="3" result="blur"/>
      <feFlood flood-color="#9bcaff" flood-opacity="0.149"/>
      <feComposite operator="in" in2="blur"/>
      <feComposite in="SourceGraphic"/>
    </filter>
    <filter id="椭圆_450" x="473.461" y="521.708" width="124" height="124" filterUnits="userSpaceOnUse">
      <feOffset dy="3" input="SourceAlpha"/>
      <feGaussianBlur stdDeviation="3" result="blur-2"/>
      <feFlood flood-color="#9bcaff" flood-opacity="0.149"/>
      <feComposite operator="in" in2="blur-2"/>
      <feComposite in="SourceGraphic"/>
    </filter>
    <filter id="椭圆_452" x="474.461" y="799.708" width="124" height="124" filterUnits="userSpaceOnUse">
      <feOffset dy="3" input="SourceAlpha"/>
      <feGaussianBlur stdDeviation="3" result="blur-3"/>
      <feFlood flood-color="#9bcaff" flood-opacity="0.149"/>
      <feComposite operator="in" in2="blur-3"/>
      <feComposite in="SourceGraphic"/>
    </filter>
    <filter id="椭圆_453" x="472.461" y="1320.708" width="124" height="124" filterUnits="userSpaceOnUse">
      <feOffset dy="3" input="SourceAlpha"/>
      <feGaussianBlur stdDeviation="3" result="blur-4"/>
      <feFlood flood-color="#9bcaff" flood-opacity="0.149"/>
      <feComposite operator="in" in2="blur-4"/>
      <feComposite in="SourceGraphic"/>
    </filter>
    <filter id="椭圆_451" x="472.461" y="1059.708" width="124" height="124" filterUnits="userSpaceOnUse">
      <feOffset dy="3" input="SourceAlpha"/>
      <feGaussianBlur stdDeviation="3" result="blur-5"/>
      <feFlood flood-color="#9bcaff" flood-opacity="0.149"/>
      <feComposite operator="in" in2="blur-5"/>
      <feComposite in="SourceGraphic"/>
    </filter>
    <filter id="矩形_770" x="240" y="279.708" width="218" height="86" filterUnits="userSpaceOnUse">
      <feOffset dy="3" input="SourceAlpha"/>
      <feGaussianBlur stdDeviation="3" result="blur-6"/>
      <feFlood flood-color="#9bcaff" flood-opacity="0.149"/>
      <feComposite operator="in" in2="blur-6"/>
      <feComposite in="SourceGraphic"/>
    </filter>
    <filter id="矩形_770-2" x="0" y="279.708" width="218" height="86" filterUnits="userSpaceOnUse">
      <feOffset dy="3" input="SourceAlpha"/>
      <feGaussianBlur stdDeviation="3" result="blur-7"/>
      <feFlood flood-color="#9bcaff" flood-opacity="0.149"/>
      <feComposite operator="in" in2="blur-7"/>
      <feComposite in="SourceGraphic"/>
    </filter>
    <filter id="矩形_770-3" x="1" y="1078.708" width="218" height="86" filterUnits="userSpaceOnUse">
      <feOffset dy="3" input="SourceAlpha"/>
      <feGaussianBlur stdDeviation="3" result="blur-8"/>
      <feFlood flood-color="#9bcaff" flood-opacity="0.149"/>
      <feComposite operator="in" in2="blur-8"/>
      <feComposite in="SourceGraphic"/>
    </filter>
    <filter id="矩形_770-4" x="250" y="1078.708" width="218" height="86" filterUnits="userSpaceOnUse">
      <feOffset dy="3" input="SourceAlpha"/>
      <feGaussianBlur stdDeviation="3" result="blur-9"/>
      <feFlood flood-color="#9bcaff" flood-opacity="0.149"/>
      <feComposite operator="in" in2="blur-9"/>
      <feComposite in="SourceGraphic"/>
    </filter>
  </defs>
  <g id="KONGTALK_uses_the_RSA_algorithm_in_asymmetric_encryption_technology" data-name="KONGTALK uses the RSA algorithm in asymmetric  encryption technology" transform="translate(3841.461 -377.292) rotate(90)">
    <g id="组_1296" data-name="组 1296" transform="translate(-0.5 67.961)">
      <path id="路径_10004" data-name="路径 10004" d="M3178,2239.6v530.2" transform="translate(-2217.5 934.899)" fill="none" stroke="#cce3ff" stroke-width="1" stroke-dasharray="4"/>
      <path id="路径_9998" data-name="路径 9998" d="M3178,2239.6v530.2" transform="translate(-1941 935)" fill="none" stroke="#cce3ff" stroke-width="1" stroke-dasharray="4"/>
      <path id="路径_9999" data-name="路径 9999" d="M0,0V1388.765" transform="translate(1812.56 3374.239) rotate(90)" fill="none" stroke="#cce3ff" stroke-width="1" stroke-dasharray="4"/>
      <path id="路径_10000" data-name="路径 10000" d="M0,0V1434.769" transform="translate(1812.56 3519.72) rotate(90)" fill="none" stroke="#cce3ff" stroke-width="1" stroke-dasharray="4"/>
      <path id="路径_10003" data-name="路径 10003" d="M3178,2239.6v530.2" transform="translate(-2481 935)" fill="none" stroke="#cce3ff" stroke-width="1" stroke-dasharray="4"/>
      <path id="路径_10329" data-name="路径 10329" d="M0,0V1434.769" transform="translate(1812.56 3239.72) rotate(90)" fill="none" stroke="#cce3ff" stroke-width="1" stroke-dasharray="4"/>
      <path id="路径_10333" data-name="路径 10333" d="M3178,2239.6v530.2" transform="translate(-1681 935)" fill="none" stroke="#cce3ff" stroke-width="1" stroke-dasharray="4"/>
      <path id="路径_10339" data-name="路径 10339" d="M3178,2239.6v530.2" transform="translate(-1421 935)" fill="none" stroke="#cce3ff" stroke-width="1" stroke-dasharray="4"/>
      <path id="路径_10340" data-name="路径 10340" d="M0,0V1434.769" transform="translate(1812.56 3664.72) rotate(90)" fill="none" stroke="#cce3ff" stroke-width="1" stroke-dasharray="4"/>
      <path id="路径_10342" data-name="路径 10342" d="M3178,2239.6v530.2" transform="translate(-2741 935)" fill="none" stroke="#cce3ff" stroke-width="1" stroke-dasharray="4"/>
    </g>
    <g id="组_1382" data-name="组 1382" transform="translate(138 1614.461)">
      <path id="路径_10343" data-name="路径 10343" d="M7422.07,2033.823h254.708v290.539H6356.517V1898.851H6575.4" transform="translate(-6058 -206)" fill="none" stroke="#042e7a" stroke-width="3"/>
      <path id="路径_10344" data-name="路径 10344" d="M6611.53,2179.081h545.334V2033.3h248.821" transform="translate(-6058 -206)" fill="none" stroke="#042e7a" stroke-width="3"/>
      <path id="路径_10345" data-name="路径 10345" d="M6616.236,1943.9v239.737" transform="translate(-6058 -206)" fill="none" stroke="#9bcaff" stroke-width="3"/>
      <path id="路径_10346" data-name="路径 10346" d="M6616.236,2033.3H7157.31V1897.452H6900.642" transform="translate(-6058 -206)" fill="none" stroke="#9bcaff" stroke-width="3"/>
      <path id="路径_10347" data-name="路径 10347" d="M7676.778,2033.3V1898.776H7449.463" transform="translate(-6058 -206)" fill="none" stroke="#9bcaff" stroke-width="3"/>
    </g>
    <g transform="matrix(0, -1, 1, 0, 377.29, 3841.46)" filter="url(#椭圆_414)">
      <circle id="椭圆_414-2" data-name="椭圆 414" cx="53" cy="53" r="53" transform="translate(587.46 268.71) rotate(90)" fill="#fff"/>
    </g>
    <g transform="matrix(0, -1, 1, 0, 377.29, 3841.46)" filter="url(#椭圆_450)">
      <circle id="椭圆_450-2" data-name="椭圆 450" cx="53" cy="53" r="53" transform="translate(588.46 527.71) rotate(90)" fill="#fff"/>
    </g>
    <g transform="matrix(0, -1, 1, 0, 377.29, 3841.46)" filter="url(#椭圆_452)">
      <circle id="椭圆_452-2" data-name="椭圆 452" cx="53" cy="53" r="53" transform="translate(589.46 805.71) rotate(90)" fill="#1f8aff"/>
    </g>
    <g transform="matrix(0, -1, 1, 0, 377.29, 3841.46)" filter="url(#椭圆_453)">
      <circle id="椭圆_453-2" data-name="椭圆 453" cx="53" cy="53" r="53" transform="translate(587.46 1326.71) rotate(90)" fill="#1f8aff"/>
    </g>
    <g transform="matrix(0, -1, 1, 0, 377.29, 3841.46)" filter="url(#椭圆_451)">
      <circle id="椭圆_451-2" data-name="椭圆 451" cx="53" cy="53" r="53" transform="translate(587.46 1065.71) rotate(90)" fill="#fff"/>
    </g>
    <path id="路径_10362" data-name="路径 10362" d="M-17.48,0V-16.65h-1.782v7.19h-8.789v-7.19h-1.782V0h1.782V-7.849h8.789V0Zm9.363.208C-5,.208-3.491-1.721-3.3-3.04H-5.164C-5.4-2.2-6.445-1.355-8.13-1.355c-2.307,0-3.54-1.672-3.54-3.906v-.671h8.557V-7.361c0-3.467-2.148-5.627-5.164-5.627s-5.164,2.161-5.164,5.627v1.978C-13.44-1.978-11.487.208-8.118.208Zm-3.552-7.52V-7.52c0-2.38,1.355-3.894,3.394-3.894S-4.883-9.9-4.883-7.52v.208ZM.793,0h1.77V-17.542H.793ZM7.251,0h1.77V-17.542H7.251ZM18.4-12.988A5.218,5.218,0,0,0,13-7.4v2.014C13-1.77,15.283.208,18.4.208c3.052,0,5.383-2.014,5.383-5.591V-7.4C23.779-10.974,21.436-12.988,18.4-12.988Zm.012,1.575c2.173,0,3.6,1.66,3.6,4.224v1.624c0,2.625-1.367,4.211-3.6,4.211-2.258,0-3.65-1.6-3.65-4.211V-7.19C14.758-9.753,16.223-11.414,18.408-11.414Zm8.875,10.1A1.516,1.516,0,0,0,28.8.208a1.533,1.533,0,0,0,1.587-1.526A1.544,1.544,0,0,0,28.8-2.893,1.528,1.528,0,0,0,27.283-1.318Zm.549-15.332.22,10.84h1.563l.22-10.84Z" transform="translate(708 3307) rotate(-90)" fill="#687992"/>
    <path id="路径_10363" data-name="路径 10363" d="M-6.61-16.65H-8.771l-7.544,8.276H-16.4V-16.65h-1.782V0H-16.4V-6.018l2.112-2.258L-8.563,0h2.295l-6.689-9.521ZM1.068.208C4.181.208,5.695-1.721,5.89-3.04H4.022C3.79-2.2,2.74-1.355,1.056-1.355c-2.307,0-3.54-1.672-3.54-3.906v-.671H6.073V-7.361c0-3.467-2.148-5.627-5.164-5.627s-5.164,2.161-5.164,5.627v1.978C-4.254-1.978-2.3.208,1.068.208Zm-3.552-7.52V-7.52c0-2.38,1.355-3.894,3.394-3.894S4.3-9.9,4.3-7.52v.208Zm22.144-5.469H17.78L14.13-1.831h-.085l-3.662-10.95H8.417L13.177.2l-.2.647a2.44,2.44,0,0,1-2.6,2.075,7.318,7.318,0,0,1-.916-.073v1.5a6.63,6.63,0,0,0,1.123.1c2,0,3.2-.989,4.138-3.5l.317-.83Z" transform="translate(967 3306) rotate(-90)" fill="#687992"/>
    <path id="路径_10366" data-name="路径 10366" d="M-19.72-17.542A16.412,16.412,0,0,0-23.114-7.08c0,4.358,1.318,8.362,3.394,10.815h1.489A18.609,18.609,0,0,1-21.356-7.1a18.866,18.866,0,0,1,3.125-10.437Zm4.077,13.794c.171,2.307,2.283,4.1,5.3,4.1A5.463,5.463,0,0,0-4.6-5.359a5.1,5.1,0,0,0-5.31-5.347,4.2,4.2,0,0,0-3.442,1.5h-.1l.488-5.847H-5.4v-1.6h-9.106l-.745,9.485h1.514a3.967,3.967,0,0,1,3.5-1.965A3.7,3.7,0,0,1-6.415-5.322a3.854,3.854,0,0,1-3.8,4.1c-1.733,0-3.369-.793-3.687-2.527ZM-1.508-1.318A1.519,1.519,0,0,0,.018.208,1.53,1.53,0,0,0,1.593-1.318,1.541,1.541,0,0,0,.018-2.893,1.53,1.53,0,0,0-1.508-1.318ZM11.542-16.65C9.43-13.318,6.256-8.533,4.4-5.225V-3.6h8.105V0h1.709V-3.6h2.234V-5.212H14.215V-16.65ZM6.256-5.212v-.11c1.575-2.734,4.382-7.1,6.14-9.717h.11v9.827ZM18.231-17.542A18.866,18.866,0,0,1,21.356-7.1a18.609,18.609,0,0,1-3.125,10.84h1.5C21.8,1.282,23.114-2.722,23.114-7.08a16.479,16.479,0,0,0-3.381-10.461Z" transform="translate(1245 3305) rotate(-90)" fill="#fff"/>
    <path id="路径_10365" data-name="路径 10365" d="M-22.955-17.542A16.412,16.412,0,0,0-26.349-7.08c0,4.358,1.318,8.362,3.394,10.815h1.489A18.609,18.609,0,0,1-24.591-7.1a18.866,18.866,0,0,1,3.125-10.437ZM-14.008,0V-16.65h-1.758l-4,2.942v1.88l3.906-2.808h.1V0ZM-2.9,0V-16.65H-4.657l-4,2.942v1.88l3.906-2.808h.1V0ZM1.727-1.318A1.519,1.519,0,0,0,3.253.208,1.53,1.53,0,0,0,4.828-1.318,1.541,1.541,0,0,0,3.253-2.893,1.53,1.53,0,0,0,1.727-1.318ZM14.777-16.65C12.665-13.318,9.491-8.533,7.635-5.225V-3.6h8.105V0H17.45V-3.6h2.234V-5.212H17.45V-16.65ZM9.491-5.212v-.11c1.575-2.734,4.382-7.1,6.14-9.717h.11v9.827ZM21.466-17.542A18.866,18.866,0,0,1,24.591-7.1a18.609,18.609,0,0,1-3.125,10.84h1.5c2.063-2.454,3.381-6.458,3.381-10.815a16.479,16.479,0,0,0-3.381-10.461Z" transform="translate(1766 3307) rotate(-90)" fill="#fff"/>
    <path id="路径_10364" data-name="路径 10364" d="M-6.61-16.65H-8.771l-7.544,8.276H-16.4V-16.65h-1.782V0H-16.4V-6.018l2.112-2.258L-8.563,0h2.295l-6.689-9.521ZM1.068.208C4.181.208,5.695-1.721,5.89-3.04H4.022C3.79-2.2,2.74-1.355,1.056-1.355c-2.307,0-3.54-1.672-3.54-3.906v-.671H6.073V-7.361c0-3.467-2.148-5.627-5.164-5.627s-5.164,2.161-5.164,5.627v1.978C-4.254-1.978-2.3.208,1.068.208Zm-3.552-7.52V-7.52c0-2.38,1.355-3.894,3.394-3.894S4.3-9.9,4.3-7.52v.208Zm22.144-5.469H17.78L14.13-1.831h-.085l-3.662-10.95H8.417L13.177.2l-.2.647a2.44,2.44,0,0,1-2.6,2.075,7.318,7.318,0,0,1-.916-.073v1.5a6.63,6.63,0,0,0,1.123.1c2,0,3.2-.989,4.138-3.5l.317-.83Z" transform="translate(1505 3307) rotate(-90)" fill="#687992"/>
    <g id="组_1378" data-name="组 1378" transform="translate(-2745.461 4189.461) rotate(-90)">
      <g transform="matrix(1, 0, 0, 1, 348, 3122.75)" filter="url(#矩形_770)">
        <rect id="矩形_770-5" data-name="矩形 770" width="200" height="68" rx="8" transform="translate(249 285.71)" fill="#fff"/>
      </g>
      <path id="路径_10361" data-name="路径 10361" d="M2.566-8.763v-.044a2.272,2.272,0,0,1,2.408-2.3A2.149,2.149,0,0,1,7.313-8.93a4.319,4.319,0,0,1-1.406,2.8L1.327-.835V0h7.55V-1.151h-5.7v-.088l3.472-4C7.743-6.5,8.631-7.532,8.631-9c0-1.846-1.406-3.252-3.63-3.252A3.423,3.423,0,0,0,1.31-8.807v.044Z" transform="translate(631 3449.461)" fill="#687992"/>
      <path id="路径_10360" data-name="路径 10360" d="M.668-1.349A1.742,1.742,0,0,0,2.575.127a1.967,1.967,0,0,0,2.07-2.057A1.837,1.837,0,0,0,2.733-3.854a1.51,1.51,0,0,0-1.239.541H1.459l.176-2.1h2.72v-.576H1.077L.809-2.58h.545a1.428,1.428,0,0,1,1.261-.708A1.333,1.333,0,0,1,3.99-1.916,1.387,1.387,0,0,1,2.624-.439,1.224,1.224,0,0,1,1.3-1.349Z" transform="translate(643 3443.461)" fill="#687992"/>
      <path id="路径_10359" data-name="路径 10359" d="M1.626,0H2.892V-5.915a2.149,2.149,0,0,1,2.162-2.3,1.993,1.993,0,0,1,2.1,2.153V0H8.429V-5.924a2.189,2.189,0,0,1,2.2-2.294,1.91,1.91,0,0,1,2.065,2.092V0h1.266V-6.469a2.7,2.7,0,0,0-3.032-2.883A2.843,2.843,0,0,0,8.112-7.585H8.06A2.517,2.517,0,0,0,5.467-9.352a2.355,2.355,0,0,0-2.5,1.626h-.07V-9.2H1.626ZM20.6-9.352a3.757,3.757,0,0,0-3.885,4.025v1.45A3.688,3.688,0,0,0,20.6.149a3.717,3.717,0,0,0,3.876-4.025v-1.45A3.722,3.722,0,0,0,20.6-9.352Zm.009,1.134c1.564,0,2.593,1.2,2.593,3.041v1.169c0,1.89-.984,3.032-2.593,3.032-1.626,0-2.628-1.151-2.628-3.032V-5.177C17.982-7.022,19.037-8.218,20.61-8.218Zm9.809-1.134a3.5,3.5,0,0,0-3.595,3.806v1.89a3.461,3.461,0,0,0,3.551,3.8,2.833,2.833,0,0,0,2.83-1.661h.062V0h1.213V-12.63H33.205v4.852h-.062A2.762,2.762,0,0,0,30.419-9.352Zm.158,1.134a2.562,2.562,0,0,1,2.628,2.681v1.7A2.566,2.566,0,0,1,30.621-.984C29.074-.984,28.1-2.1,28.1-3.99V-5.229C28.1-7.128,29.074-8.218,30.577-8.218Zm22.8-7.1A13.73,13.73,0,0,0,49.939-10.9a9.884,9.884,0,0,0-.791,4.061A9.742,9.742,0,0,0,50.2-2.232a14.554,14.554,0,0,0,3.173,3.876l-.264.281a13.6,13.6,0,0,1-3.779-4.377,9.865,9.865,0,0,1-.94-4.386,9.617,9.617,0,0,1,1.257-4.939A14.317,14.317,0,0,1,53.112-15.6ZM59.687,0V-11.988H58.421L55.538-9.87v1.354l2.813-2.021h.07V0Zm8.49-11.988c-1.521,2.4-3.806,5.845-5.142,8.227v1.169h5.836V0H70.1V-2.593H71.71v-1.16H70.1v-8.235ZM64.371-3.753v-.079c1.134-1.969,3.155-5.115,4.421-7h.079v7.075Zm8.851-11.566.272-.281a13.632,13.632,0,0,1,3.762,4.386,9.8,9.8,0,0,1,.949,4.377A9.657,9.657,0,0,1,76.957-1.89a14.184,14.184,0,0,1-3.463,3.814l-.272-.281a13.73,13.73,0,0,0,3.437-4.421,9.884,9.884,0,0,0,.791-4.061A9.809,9.809,0,0,0,76.4-11.443,14.722,14.722,0,0,0,73.222-15.319ZM99-2.7V-3.735H91.793V-2.7Zm0-3.138V-6.882H91.793v1.046Zm7.374-6.152c-1.521,2.4-3.806,5.845-5.142,8.227v1.169h5.836V0h1.23V-2.593h1.608v-1.16H108.3v-8.235Zm-3.806,8.235v-.079c1.134-1.969,3.155-5.115,4.421-7h.079v7.075Z" transform="translate(652 3449.461)" fill="#687992"/>
    </g>
    <g id="组_1380" data-name="组 1380" transform="translate(-2745.461 4444.461) rotate(-90)">
      <g transform="matrix(1, 0, 0, 1, 603, 3122.75)" filter="url(#矩形_770-2)">
        <rect id="矩形_770-6" data-name="矩形 770" width="200" height="68" rx="8" transform="translate(9 285.71)" fill="#fff"/>
      </g>
    </g>
    <g id="组_1381" data-name="组 1381" transform="translate(799 159)">
      <g transform="matrix(0, -1, 1, 0, -421.71, 3682.46)" filter="url(#矩形_770-3)">
        <rect id="矩形_770-7" data-name="矩形 770" width="200" height="68" rx="8" transform="translate(10 1084.71)" fill="#fff"/>
      </g>
    </g>
    <g id="组_1379" data-name="组 1379" transform="translate(799)">
      <g transform="matrix(0, -1, 1, 0, -421.71, 3841.46)" filter="url(#矩形_770-4)">
        <rect id="矩形_770-8" data-name="矩形 770" width="200" height="68" rx="8" transform="translate(259 1084.71)" fill="#fff"/>
      </g>
      <g id="组_1207" data-name="组 1207" transform="translate(-133 4631.461) rotate(-90)">
        <path id="路径_10369" data-name="路径 10369" d="M2.777,0V-5.994H2.145L.7-4.935v.677L2.109-5.269h.035V0Zm4,0V-5.994H6.144L4.7-4.935v.677L6.108-5.269h.035V0Z" transform="translate(1096 831)" fill="#687992"/>
        <path id="路径_10368" data-name="路径 10368" d="M1.626,0H2.892V-5.915a2.149,2.149,0,0,1,2.162-2.3,1.993,1.993,0,0,1,2.1,2.153V0H8.429V-5.924a2.189,2.189,0,0,1,2.2-2.294,1.91,1.91,0,0,1,2.065,2.092V0h1.266V-6.469a2.7,2.7,0,0,0-3.032-2.883A2.843,2.843,0,0,0,8.112-7.585H8.06A2.517,2.517,0,0,0,5.467-9.352a2.355,2.355,0,0,0-2.5,1.626h-.07V-9.2H1.626ZM20.6-9.352a3.757,3.757,0,0,0-3.885,4.025v1.45A3.688,3.688,0,0,0,20.6.149a3.717,3.717,0,0,0,3.876-4.025v-1.45A3.722,3.722,0,0,0,20.6-9.352Zm.009,1.134c1.564,0,2.593,1.2,2.593,3.041v1.169c0,1.89-.984,3.032-2.593,3.032-1.626,0-2.628-1.151-2.628-3.032V-5.177C17.982-7.022,19.037-8.218,20.61-8.218Zm9.809-1.134a3.5,3.5,0,0,0-3.595,3.806v1.89a3.461,3.461,0,0,0,3.551,3.8,2.833,2.833,0,0,0,2.83-1.661h.062V0h1.213V-12.63H33.205v4.852h-.062A2.762,2.762,0,0,0,30.419-9.352Zm.158,1.134a2.562,2.562,0,0,1,2.628,2.681v1.7A2.566,2.566,0,0,1,30.621-.984C29.074-.984,28.1-2.1,28.1-3.99V-5.229C28.1-7.128,29.074-8.218,30.577-8.218Zm22.8-7.1A13.73,13.73,0,0,0,49.939-10.9a9.884,9.884,0,0,0-.791,4.061A9.742,9.742,0,0,0,50.2-2.232a14.554,14.554,0,0,0,3.173,3.876l-.264.281a13.6,13.6,0,0,1-3.779-4.377,9.865,9.865,0,0,1-.94-4.386,9.617,9.617,0,0,1,1.257-4.939A14.317,14.317,0,0,1,53.112-15.6ZM59.687,0V-11.988H58.421L55.538-9.87v1.354l2.813-2.021h.07V0Zm8.49-11.988c-1.521,2.4-3.806,5.845-5.142,8.227v1.169h5.836V0H70.1V-2.593H71.71v-1.16H70.1v-8.235ZM64.371-3.753v-.079c1.134-1.969,3.155-5.115,4.421-7h.079v7.075Zm8.851-11.566.272-.281a13.632,13.632,0,0,1,3.762,4.386,9.8,9.8,0,0,1,.949,4.377A9.657,9.657,0,0,1,76.957-1.89a14.184,14.184,0,0,1-3.463,3.814l-.272-.281a13.73,13.73,0,0,0,3.437-4.421,9.884,9.884,0,0,0,.791-4.061A9.809,9.809,0,0,0,76.4-11.443,14.722,14.722,0,0,0,73.222-15.319ZM99-2.7V-3.735H91.793V-2.7Zm0-3.138V-6.882H91.793v1.046Zm3.894-2.927v-.044a2.272,2.272,0,0,1,2.408-2.3,2.149,2.149,0,0,1,2.338,2.18,4.319,4.319,0,0,1-1.406,2.8L101.654-.835V0h7.55V-1.151h-5.7v-.088l3.472-4c1.1-1.266,1.986-2.294,1.986-3.762,0-1.846-1.406-3.252-3.63-3.252a3.423,3.423,0,0,0-3.691,3.445v.044Z" transform="translate(1105 837)" fill="#687992"/>
        <path id="路径_10367" data-name="路径 10367" d="M6.047-11.988C4.526-9.589,2.241-6.144.905-3.762v1.169H6.741V0h1.23V-2.593H9.58v-1.16H7.972v-8.235ZM2.241-3.753v-.079c1.134-1.969,3.155-5.115,4.421-7h.079v7.075Z" transform="translate(1084 837)" fill="#687992"/>
      </g>
    </g>
    <path id="路径_10358" data-name="路径 10358" d="M8.8-1.178H3.015V-5.546H8.481V-6.715H3.015v-4.1H8.8v-1.169H1.731V0H8.8ZM11.575,0h1.266V-5.186c0-1.661.844-3.032,2.619-3.032A2.044,2.044,0,0,1,17.613-5.88V0h1.274V-6.284a2.848,2.848,0,0,0-3.146-3.067,2.638,2.638,0,0,0-2.83,1.863h-.07V-9.2H11.575ZM21.639-3.814c0,2.452,1.441,3.964,3.744,3.964,2.4,0,3.445-1.354,3.507-2.584H27.624c-.176.721-.729,1.424-2.215,1.424-1.556,0-2.5-1.072-2.5-2.8V-5.344c0-1.749.87-2.848,2.5-2.848a1.955,1.955,0,0,1,2.162,1.547h1.266c-.044-1.283-1.178-2.707-3.445-2.707a3.584,3.584,0,0,0-3.744,3.938ZM31.667,0h1.266V-5.792a2.276,2.276,0,0,1,2.514-2.364,4.8,4.8,0,0,1,.721.044V-9.3a5.6,5.6,0,0,0-.571-.044,2.541,2.541,0,0,0-2.6,1.617h-.062V-9.2H31.667ZM45.624-9.2H44.271L41.643-1.318h-.062L38.944-9.2H37.529L40.957.141l-.141.466A1.757,1.757,0,0,1,38.944,2.1a5.269,5.269,0,0,1-.659-.053V3.129a4.774,4.774,0,0,0,.809.07c1.441,0,2.3-.712,2.979-2.522l.229-.6ZM51.961.149c2.162,0,3.595-1.477,3.595-3.9V-5.458c0-2.382-1.4-3.894-3.542-3.894A2.845,2.845,0,0,0,49.2-7.682h-.07V-9.211h-1.2V3.041h1.266V-1.415h.07A2.746,2.746,0,0,0,51.961.149ZM51.794-.976a2.527,2.527,0,0,1-2.6-2.681V-5.37c0-1.723.967-2.848,2.558-2.848s2.531,1.107,2.531,3.076v1.09C54.281-2.074,53.323-.976,51.794-.976ZM58.843-9.2H57.375v1.063h1.468V-2.5c0,1.767.413,2.584,2.514,2.584A10.364,10.364,0,0,0,62.42.018V-1.046c-.158.018-.536.044-.756.044-1.187,0-1.556-.3-1.556-1.433v-5.7h2.162V-9.2H60.108v-2.3H58.843ZM68.335.149c2.241,0,3.331-1.389,3.472-2.338H70.462A2.068,2.068,0,0,1,68.326-.976a2.511,2.511,0,0,1-2.549-2.812v-.483h6.161V-5.3c0-2.5-1.547-4.052-3.718-4.052S64.5-7.8,64.5-5.3v1.424C64.5-1.424,65.909.149,68.335.149ZM65.777-5.265v-.149c0-1.714.976-2.8,2.443-2.8s2.443,1.09,2.443,2.8v.149Zm12.05-4.087a3.5,3.5,0,0,0-3.595,3.806v1.89a3.461,3.461,0,0,0,3.551,3.8,2.833,2.833,0,0,0,2.83-1.661h.062V0h1.213V-12.63H80.613v4.852h-.062A2.762,2.762,0,0,0,77.827-9.352Zm.158,1.134a2.562,2.562,0,0,1,2.628,2.681v1.7A2.566,2.566,0,0,1,78.029-.984c-1.547,0-2.522-1.116-2.522-3.006V-5.229C75.507-7.128,76.482-8.218,77.985-8.218ZM90.571,0V-9.176h.062L94.2-.923H95.37l3.56-8.253H99V0h1.178V-11.988H98.93l-4.113,9.7h-.053l-4.122-9.7H89.394V0Zm16.383.149c2.241,0,3.331-1.389,3.472-2.338h-1.345a2.068,2.068,0,0,1-2.136,1.213A2.511,2.511,0,0,1,104.4-3.788v-.483h6.161V-5.3c0-2.5-1.547-4.052-3.718-4.052S103.122-7.8,103.122-5.3v1.424C103.122-1.424,104.528.149,106.954.149ZM104.4-5.265v-.149c0-1.714.976-2.8,2.443-2.8s2.443,1.09,2.443,2.8v.149Zm8.464-1.362c0,1.767,1.38,2.153,3.12,2.522,1.31.264,2.364.492,2.364,1.6,0,.914-.712,1.6-2.241,1.6-1.468,0-2.065-.624-2.18-1.468h-1.248c0,1.573,1.336,2.522,3.375,2.522,2.065,0,3.56-.993,3.56-2.8s-1.485-2.232-3.208-2.558c-1.134-.22-2.294-.413-2.294-1.556,0-.984.87-1.512,2.013-1.512,1.389,0,2.013.782,2.065,1.45h1.2c0-1.424-1.2-2.522-3.208-2.522C114.434-9.352,112.86-8.508,112.86-6.627Zm9.009,0c0,1.767,1.38,2.153,3.12,2.522,1.31.264,2.364.492,2.364,1.6,0,.914-.712,1.6-2.241,1.6-1.468,0-2.065-.624-2.18-1.468h-1.248c0,1.573,1.336,2.522,3.375,2.522,2.065,0,3.56-.993,3.56-2.8s-1.485-2.232-3.208-2.558c-1.134-.22-2.294-.413-2.294-1.556,0-.984.87-1.512,2.013-1.512,1.389,0,2.013.782,2.065,1.45h1.2c0-1.424-1.2-2.522-3.208-2.522C123.442-9.352,121.869-8.508,121.869-6.627ZM133.787.149a2.985,2.985,0,0,0,2.707-1.433h.062V0h1.23V-6.354c0-2.171-1.494-3-3.331-3-1.934,0-3.173.817-3.313,2.312h1.239c.193-.65.721-1.178,2.013-1.178s2.109.589,2.109,1.89v.993h-2.514c-2.1,0-3.208,1.09-3.208,2.672A2.758,2.758,0,0,0,133.787.149Zm.308-1.125a1.761,1.761,0,0,1-2-1.714c0-.9.554-1.582,1.916-1.582H136.5v1.116A2.255,2.255,0,0,1,134.095-.976ZM144.2,2.215c-1.345,0-2.127-.65-2.241-1.336h-1.327c.132,1.283,1.257,2.461,3.516,2.461,2.364,0,3.92-1.169,3.92-3.612V-9.2h-1.213v1.441H146.8a2.936,2.936,0,0,0-2.733-1.591,3.576,3.576,0,0,0-3.647,3.832V-4a3.569,3.569,0,0,0,3.656,3.814,2.821,2.821,0,0,0,2.646-1.521h.07V-.229A2.276,2.276,0,0,1,144.2,2.215Zm.105-10.433a2.559,2.559,0,0,1,2.487,2.751v1.441a2.51,2.51,0,0,1-2.47,2.707A2.687,2.687,0,0,1,141.7-4.3v-.923C141.7-7.04,142.734-8.218,144.308-8.218Zm10.4,8.367c2.241,0,3.331-1.389,3.472-2.338h-1.345A2.068,2.068,0,0,1,154.7-.976a2.511,2.511,0,0,1-2.549-2.812v-.483h6.161V-5.3c0-2.5-1.547-4.052-3.718-4.052S150.873-7.8,150.873-5.3v1.424C150.873-1.424,152.279.149,154.705.149Zm-2.558-5.414v-.149c0-1.714.976-2.8,2.443-2.8s2.443,1.09,2.443,2.8v.149Z" transform="translate(704 3811.461) rotate(-90)" fill="#687992"/>
    <path id="路径_10370" data-name="路径 10370" d="M1.731-11.988V0H5.405C8.912,0,10.67-2.083,10.67-5.994S8.9-11.988,5.405-11.988Zm1.283,1.169H5.361c2.672,0,3.981,1.644,3.981,4.825S8.051-1.178,5.361-1.178H3.015ZM17.007.149c2.241,0,3.331-1.389,3.472-2.338H19.134A2.068,2.068,0,0,1,17-.976a2.511,2.511,0,0,1-2.549-2.812v-.483H20.61V-5.3c0-2.5-1.547-4.052-3.718-4.052S13.175-7.8,13.175-5.3v1.424C13.175-1.424,14.581.149,17.007.149ZM14.449-5.265v-.149c0-1.714.976-2.8,2.443-2.8s2.443,1.09,2.443,2.8v.149Zm8.464,1.45c0,2.452,1.441,3.964,3.744,3.964,2.4,0,3.445-1.354,3.507-2.584H28.9c-.176.721-.729,1.424-2.215,1.424-1.556,0-2.5-1.072-2.5-2.8V-5.344c0-1.749.87-2.848,2.5-2.848a1.955,1.955,0,0,1,2.162,1.547H30.1c-.044-1.283-1.178-2.707-3.445-2.707a3.584,3.584,0,0,0-3.744,3.938ZM32.941,0h1.266V-5.792a2.276,2.276,0,0,1,2.514-2.364,4.8,4.8,0,0,1,.721.044V-9.3a5.6,5.6,0,0,0-.571-.044,2.541,2.541,0,0,0-2.6,1.617h-.062V-9.2H32.941ZM46.9-9.2H45.545L42.917-1.318h-.062L40.219-9.2H38.8L42.231.141l-.141.466A1.757,1.757,0,0,1,40.219,2.1a5.269,5.269,0,0,1-.659-.053V3.129a4.774,4.774,0,0,0,.809.07c1.441,0,2.3-.712,2.979-2.522l.229-.6ZM53.235.149c2.162,0,3.595-1.477,3.595-3.9V-5.458c0-2.382-1.4-3.894-3.542-3.894a2.845,2.845,0,0,0-2.812,1.67h-.07V-9.211H49.2V3.041h1.266V-1.415h.07A2.746,2.746,0,0,0,53.235.149ZM53.068-.976a2.527,2.527,0,0,1-2.6-2.681V-5.37c0-1.723.967-2.848,2.558-2.848s2.531,1.107,2.531,3.076v1.09C55.556-2.074,54.6-.976,53.068-.976ZM60.117-9.2H58.649v1.063h1.468V-2.5c0,1.767.413,2.584,2.514,2.584a10.364,10.364,0,0,0,1.063-.07V-1.046c-.158.018-.536.044-.756.044-1.187,0-1.556-.3-1.556-1.433v-5.7h2.162V-9.2H61.383v-2.3H60.117ZM69.609.149c2.241,0,3.331-1.389,3.472-2.338H71.736A2.068,2.068,0,0,1,69.6-.976a2.511,2.511,0,0,1-2.549-2.812v-.483h6.161V-5.3c0-2.5-1.547-4.052-3.718-4.052S65.777-7.8,65.777-5.3v1.424C65.777-1.424,67.184.149,69.609.149ZM67.052-5.265v-.149c0-1.714.976-2.8,2.443-2.8s2.443,1.09,2.443,2.8v.149ZM79.1-9.352a3.5,3.5,0,0,0-3.595,3.806v1.89a3.461,3.461,0,0,0,3.551,3.8,2.833,2.833,0,0,0,2.83-1.661h.062V0h1.213V-12.63H81.888v4.852h-.062A2.762,2.762,0,0,0,79.1-9.352Zm.158,1.134a2.562,2.562,0,0,1,2.628,2.681v1.7A2.566,2.566,0,0,1,79.3-.984c-1.547,0-2.522-1.116-2.522-3.006V-5.229C76.781-7.128,77.757-8.218,79.26-8.218ZM91.846,0V-9.176h.062L95.476-.923h1.169l3.56-8.253h.07V0h1.178V-11.988H100.2l-4.113,9.7h-.053l-4.122-9.7H90.668V0Zm16.383.149c2.241,0,3.331-1.389,3.472-2.338h-1.345A2.068,2.068,0,0,1,108.22-.976a2.511,2.511,0,0,1-2.549-2.812v-.483h6.161V-5.3c0-2.5-1.547-4.052-3.718-4.052S104.4-7.8,104.4-5.3v1.424C104.4-1.424,105.8.149,108.229.149Zm-2.558-5.414v-.149c0-1.714.976-2.8,2.443-2.8s2.443,1.09,2.443,2.8v.149Zm8.464-1.362c0,1.767,1.38,2.153,3.12,2.522,1.31.264,2.364.492,2.364,1.6,0,.914-.712,1.6-2.241,1.6-1.468,0-2.065-.624-2.18-1.468H113.95c0,1.573,1.336,2.522,3.375,2.522,2.065,0,3.56-.993,3.56-2.8s-1.485-2.232-3.208-2.558c-1.134-.22-2.294-.413-2.294-1.556,0-.984.87-1.512,2.013-1.512,1.389,0,2.013.782,2.065,1.45h1.2c0-1.424-1.2-2.522-3.208-2.522C115.708-9.352,114.135-8.508,114.135-6.627Zm9.009,0c0,1.767,1.38,2.153,3.12,2.522,1.31.264,2.364.492,2.364,1.6,0,.914-.712,1.6-2.241,1.6-1.468,0-2.065-.624-2.18-1.468h-1.248c0,1.573,1.336,2.522,3.375,2.522,2.065,0,3.56-.993,3.56-2.8s-1.485-2.232-3.208-2.558c-1.134-.22-2.294-.413-2.294-1.556,0-.984.87-1.512,2.013-1.512,1.389,0,2.013.782,2.065,1.45h1.2c0-1.424-1.2-2.522-3.208-2.522C124.717-9.352,123.144-8.508,123.144-6.627ZM135.062.149a2.985,2.985,0,0,0,2.707-1.433h.062V0h1.23V-6.354c0-2.171-1.494-3-3.331-3-1.934,0-3.173.817-3.313,2.312h1.239c.193-.65.721-1.178,2.013-1.178s2.109.589,2.109,1.89v.993h-2.514c-2.1,0-3.208,1.09-3.208,2.672A2.758,2.758,0,0,0,135.062.149Zm.308-1.125a1.761,1.761,0,0,1-2-1.714c0-.9.554-1.582,1.916-1.582h2.487v1.116A2.255,2.255,0,0,1,135.369-.976Zm10.107,3.19c-1.345,0-2.127-.65-2.241-1.336h-1.327c.132,1.283,1.257,2.461,3.516,2.461,2.364,0,3.92-1.169,3.92-3.612V-9.2h-1.213v1.441h-.053a2.936,2.936,0,0,0-2.733-1.591A3.576,3.576,0,0,0,141.7-5.52V-4a3.569,3.569,0,0,0,3.656,3.814A2.821,2.821,0,0,0,148-1.705h.07V-.229A2.276,2.276,0,0,1,145.477,2.215Zm.105-10.433a2.559,2.559,0,0,1,2.487,2.751v1.441a2.51,2.51,0,0,1-2.47,2.707A2.687,2.687,0,0,1,142.972-4.3v-.923C142.972-7.04,144.009-8.218,145.582-8.218Zm10.4,8.367c2.241,0,3.331-1.389,3.472-2.338h-1.345a2.068,2.068,0,0,1-2.136,1.213,2.511,2.511,0,0,1-2.549-2.812v-.483h6.161V-5.3c0-2.5-1.547-4.052-3.718-4.052S152.147-7.8,152.147-5.3v1.424C152.147-1.424,153.554.149,155.979.149Zm-2.558-5.414v-.149c0-1.714.976-2.8,2.443-2.8s2.443,1.09,2.443,2.8v.149Z" transform="translate(1503 3810.461) rotate(-90)" fill="#687992"/>
    <circle id="椭圆_459" data-name="椭圆 459" cx="4" cy="4" r="4" transform="translate(889.292 3437.461)" fill="#042e7a"/>
    <circle id="椭圆_460" data-name="椭圆 460" cx="4" cy="4" r="4" transform="translate(1233.292 3437.461)" fill="#042e7a"/>
    <circle id="椭圆_461" data-name="椭圆 461" cx="4" cy="4" r="4" transform="translate(1089.292 3301.461)" fill="#042e7a"/>
    <circle id="椭圆_462" data-name="椭圆 462" cx="4" cy="4" r="4" transform="translate(1627.292 3302.461)" fill="#042e7a"/>
    <circle id="椭圆_463" data-name="椭圆 463" cx="4" cy="4" r="4" transform="translate(1753.292 3437.461)" fill="#042e7a"/>
    <circle id="椭圆_464" data-name="椭圆 464" cx="4" cy="4" r="4" transform="translate(1753.292 3728.461)" fill="#042e7a"/>
    <circle id="椭圆_465" data-name="椭圆 465" cx="4" cy="4" r="4" transform="translate(1383.292 3728.461)" fill="#042e7a"/>
    <circle id="椭圆_466" data-name="椭圆 466" cx="4" cy="4" r="4" transform="translate(875.292 3728.461)" fill="#042e7a"/>
    <circle id="椭圆_467" data-name="椭圆 467" cx="4" cy="4" r="4" transform="translate(432.292 3583.461)" fill="#042e7a"/>
  </g>
</svg>
