<svg xmlns="http://www.w3.org/2000/svg" xmlns:xlink="http://www.w3.org/1999/xlink" width="653.229" height="468" viewBox="0 0 653.229 468">
  <defs>
    <filter id="椭圆_428" x="16" y="30" width="74" height="74" filterUnits="userSpaceOnUse">
      <feOffset dy="3" input="SourceAlpha"/>
      <feGaussianBlur stdDeviation="3" result="blur"/>
      <feFlood flood-color="#9bcaff" flood-opacity="0.149"/>
      <feComposite operator="in" in2="blur"/>
      <feComposite in="SourceGraphic"/>
    </filter>
    <filter id="椭圆_428-2" x="540" y="30" width="74" height="74" filterUnits="userSpaceOnUse">
      <feOffset dy="3" input="SourceAlpha"/>
      <feGaussianBlur stdDeviation="3" result="blur-2"/>
      <feFlood flood-color="#9bcaff" flood-opacity="0.149"/>
      <feComposite operator="in" in2="blur-2"/>
      <feComposite in="SourceGraphic"/>
    </filter>
    <filter id="椭圆_414" x="254" y="4.539" width="124" height="124" filterUnits="userSpaceOnUse">
      <feOffset dy="3" input="SourceAlpha"/>
      <feGaussianBlur stdDeviation="3" result="blur-3"/>
      <feFlood flood-color="#9bcaff" flood-opacity="0.149"/>
      <feComposite operator="in" in2="blur-3"/>
      <feComposite in="SourceGraphic"/>
    </filter>
    <filter id="椭圆_454" x="541" y="315" width="74" height="74" filterUnits="userSpaceOnUse">
      <feOffset dy="3" input="SourceAlpha"/>
      <feGaussianBlur stdDeviation="3" result="blur-4"/>
      <feFlood flood-color="#9bcaff" flood-opacity="0.149"/>
      <feComposite operator="in" in2="blur-4"/>
      <feComposite in="SourceGraphic"/>
    </filter>
    <filter id="椭圆_455" x="16" y="315" width="74" height="74" filterUnits="userSpaceOnUse">
      <feOffset dy="3" input="SourceAlpha"/>
      <feGaussianBlur stdDeviation="3" result="blur-5"/>
      <feFlood flood-color="#9bcaff" flood-opacity="0.149"/>
      <feComposite operator="in" in2="blur-5"/>
      <feComposite in="SourceGraphic"/>
    </filter>
    <filter id="椭圆_456" x="254" y="289.539" width="124" height="124" filterUnits="userSpaceOnUse">
      <feOffset dy="3" input="SourceAlpha"/>
      <feGaussianBlur stdDeviation="3" result="blur-6"/>
      <feFlood flood-color="#9bcaff" flood-opacity="0.149"/>
      <feComposite operator="in" in2="blur-6"/>
      <feComposite in="SourceGraphic"/>
    </filter>
  </defs>
  <g id="KongTalk_encryption_principle_explained_in_detail" data-name="KongTalk encryption principle explained in detail" transform="translate(-119.812 -3242.461)">
    <g id="组_1296" data-name="组 1296" transform="translate(-0.5 67.961)">
      <path id="路径_9999" data-name="路径 9999" d="M2.679,0V653.228" transform="translate(773.54 3367.806) rotate(90)" fill="none" stroke="#cce3ff" stroke-width="1" stroke-dasharray="4"/>
      <path id="路径_10000" data-name="路径 10000" d="M0,0V646.609" transform="translate(766.921 3521.575) rotate(90)" fill="none" stroke="#cce3ff" stroke-width="1" stroke-dasharray="4"/>
      <path id="路径_10003" data-name="路径 10003" d="M3178,2239.6v467.9" transform="translate(-2481 935)" fill="none" stroke="#cce3ff" stroke-width="1" stroke-dasharray="4"/>
      <path id="路径_10329" data-name="路径 10329" d="M0,0V646.609" transform="translate(766.921 3237.498) rotate(90)" fill="none" stroke="#cce3ff" stroke-width="1" stroke-dasharray="4"/>
      <path id="路径_10348" data-name="路径 10348" d="M3178,2239.6v467.9" transform="translate(-2741.5 934.899)" fill="none" stroke="#cce3ff" stroke-width="1" stroke-dasharray="4"/>
      <path id="路径_10349" data-name="路径 10349" d="M3178,2239.6v467.9" transform="translate(-3005 935)" fill="none" stroke="#cce3ff" stroke-width="1" stroke-dasharray="4"/>
    </g>
    <path id="路径_10350" data-name="路径 10350" d="M6353,3192l523.658.18v132.964" transform="translate(-6180.436 114.461)" fill="none" stroke="#9bcaff" stroke-width="3"/>
    <path id="路径_10354" data-name="路径 10354" d="M6353,3341.145l523.658-.18V3192" transform="translate(-6180.436 247.461)" fill="none" stroke="#042e7a" stroke-width="3"/>
    <g transform="matrix(1, 0, 0, 1, 119.81, 3242.46)" filter="url(#椭圆_428)">
      <circle id="椭圆_428-3" data-name="椭圆 428" cx="28" cy="28" r="28" transform="translate(25 36)" fill="#1f8aff"/>
    </g>
    <g transform="matrix(1, 0, 0, 1, 119.81, 3242.46)" filter="url(#椭圆_428-2)">
      <circle id="椭圆_428-4" data-name="椭圆 428" cx="28" cy="28" r="28" transform="translate(549 36)" fill="#1f8aff"/>
    </g>
    <g id="组_1355" data-name="组 1355" transform="translate(-137.08 2031.791)">
      <rect id="矩形_727" data-name="矩形 727" width="18" height="14" rx="2" transform="translate(824.892 1272.67)" fill="#fff"/>
      <g id="矩形_728" data-name="矩形 728" transform="translate(826.892 1262.67)" fill="none" stroke="#fff" stroke-width="4">
        <rect width="14" height="19" rx="7" stroke="none"/>
        <rect x="2" y="2" width="10" height="15" rx="5" fill="none"/>
      </g>
      <path id="联合_3" data-name="联合 3" d="M.637,5.3a.5.5,0,0,1-.446-.724l.875-1.75a1.767,1.767,0,1,1,2.827,0l.875,1.751a.5.5,0,0,1-.447.724Z" transform="translate(831.412 1276.438)" fill="#1f8aff"/>
    </g>
    <g id="组_1383" data-name="组 1383" transform="translate(-1 98)">
      <g transform="matrix(1, 0, 0, 1, 120.81, 3144.46)" filter="url(#椭圆_414)">
        <circle id="椭圆_414-2" data-name="椭圆 414" cx="53" cy="53" r="53" transform="translate(263 10.54)" fill="#1f8aff"/>
      </g>
      <path id="路径_10358" data-name="路径 10358" d="M-17.48,0V-16.65h-1.782v7.19h-8.789v-7.19h-1.782V0h1.782V-7.849h8.789V0Zm9.363.208C-5,.208-3.491-1.721-3.3-3.04H-5.164C-5.4-2.2-6.445-1.355-8.13-1.355c-2.307,0-3.54-1.672-3.54-3.906v-.671h8.557V-7.361c0-3.467-2.148-5.627-5.164-5.627s-5.164,2.161-5.164,5.627v1.978C-13.44-1.978-11.487.208-8.118.208Zm-3.552-7.52V-7.52c0-2.38,1.355-3.894,3.394-3.894S-4.883-9.9-4.883-7.52v.208ZM.793,0h1.77V-17.542H.793ZM7.251,0h1.77V-17.542H7.251ZM18.4-12.988A5.218,5.218,0,0,0,13-7.4v2.014C13-1.77,15.283.208,18.4.208c3.052,0,5.383-2.014,5.383-5.591V-7.4C23.779-10.974,21.436-12.988,18.4-12.988Zm.012,1.575c2.173,0,3.6,1.66,3.6,4.224v1.624c0,2.625-1.367,4.211-3.6,4.211-2.258,0-3.65-1.6-3.65-4.211V-7.19C14.758-9.753,16.223-11.414,18.408-11.414Zm8.875,10.1A1.516,1.516,0,0,0,28.8.208a1.533,1.533,0,0,0,1.587-1.526A1.544,1.544,0,0,0,28.8-2.893,1.528,1.528,0,0,0,27.283-1.318Zm.549-15.332.22,10.84h1.563l.22-10.84Z" transform="translate(436.812 3217)" fill="#fff"/>
    </g>
    <g transform="matrix(1, 0, 0, 1, 119.81, 3242.46)" filter="url(#椭圆_454)">
      <circle id="椭圆_454-2" data-name="椭圆 454" cx="28" cy="28" r="28" transform="translate(550 321)" fill="#042e7a"/>
    </g>
    <g id="组_1384" data-name="组 1384" transform="translate(-136.08 2184.791)">
      <rect id="矩形_727-2" data-name="矩形 727" width="18" height="14" rx="2" transform="translate(824.892 1404.67)" fill="#fff"/>
      <g id="矩形_728-2" data-name="矩形 728" transform="translate(826.892 1394.67)" fill="none" stroke="#fff" stroke-width="4">
        <rect width="14" height="19" rx="7" stroke="none"/>
        <rect x="2" y="2" width="10" height="15" rx="5" fill="none"/>
      </g>
      <path id="联合_3-2" data-name="联合 3" d="M.637,5.3a.5.5,0,0,1-.446-.724l.875-1.75a1.767,1.767,0,1,1,2.827,0l.875,1.751a.5.5,0,0,1-.447.724Z" transform="translate(831.412 1408.438)" fill="#042e7a"/>
    </g>
    <circle id="椭圆_457" data-name="椭圆 457" cx="4" cy="4" r="4" transform="translate(691.812 3435.461)" fill="#042e7a"/>
    <circle id="椭圆_479" data-name="椭圆 479" cx="4" cy="4" r="4" transform="translate(554.812 3302.461)" fill="#042e7a"/>
    <circle id="椭圆_480" data-name="椭圆 480" cx="4" cy="4" r="4" transform="translate(305.812 3583.461)" fill="#042e7a"/>
    <path id="路径_10360" data-name="路径 10360" d="M-4.974,0-3.2-5.2H3.2L4.974,0h1.88L.873-16.65H-.873L-6.854,0Zm5-14.441L2.692-6.677H-2.7l2.661-7.764Z" transform="translate(172.812 3315.461)" fill="#fff"/>
    <g transform="matrix(1, 0, 0, 1, 119.81, 3242.46)" filter="url(#椭圆_455)">
      <circle id="椭圆_455-2" data-name="椭圆 455" cx="28" cy="28" r="28" transform="translate(25 321)" fill="#042e7a"/>
    </g>
    <g transform="matrix(1, 0, 0, 1, 119.81, 3242.46)" filter="url(#椭圆_456)">
      <circle id="椭圆_456-2" data-name="椭圆 456" cx="53" cy="53" r="53" transform="translate(263 295.54)" fill="#042e7a"/>
    </g>
    <path id="路径_10359" data-name="路径 10359" d="M-17.48,0V-16.65h-1.782v7.19h-8.789v-7.19h-1.782V0h1.782V-7.849h8.789V0Zm9.363.208C-5,.208-3.491-1.721-3.3-3.04H-5.164C-5.4-2.2-6.445-1.355-8.13-1.355c-2.307,0-3.54-1.672-3.54-3.906v-.671h8.557V-7.361c0-3.467-2.148-5.627-5.164-5.627s-5.164,2.161-5.164,5.627v1.978C-13.44-1.978-11.487.208-8.118.208Zm-3.552-7.52V-7.52c0-2.38,1.355-3.894,3.394-3.894S-4.883-9.9-4.883-7.52v.208ZM.793,0h1.77V-17.542H.793ZM7.251,0h1.77V-17.542H7.251ZM18.4-12.988A5.218,5.218,0,0,0,13-7.4v2.014C13-1.77,15.283.208,18.4.208c3.052,0,5.383-2.014,5.383-5.591V-7.4C23.779-10.974,21.436-12.988,18.4-12.988Zm.012,1.575c2.173,0,3.6,1.66,3.6,4.224v1.624c0,2.625-1.367,4.211-3.6,4.211-2.258,0-3.65-1.6-3.65-4.211V-7.19C14.758-9.753,16.223-11.414,18.408-11.414Zm8.875,10.1A1.516,1.516,0,0,0,28.8.208a1.533,1.533,0,0,0,1.587-1.526A1.544,1.544,0,0,0,28.8-2.893,1.528,1.528,0,0,0,27.283-1.318Zm.549-15.332.22,10.84h1.563l.22-10.84Z" transform="translate(435.812 3600)" fill="#fff"/>
    <path id="路径_10361" data-name="路径 10361" d="M-4.974,0-3.2-5.2H3.2L4.974,0h1.88L.873-16.65H-.873L-6.854,0Zm5-14.441L2.692-6.677H-2.7l2.661-7.764Z" transform="translate(172.812 3600.461)" fill="#fff"/>
  </g>
</svg>
