<svg xmlns="http://www.w3.org/2000/svg" xmlns:xlink="http://www.w3.org/1999/xlink" width="535.4" height="541.001" viewBox="0 0 535.4 541.001">
  <defs>
    <filter id="椭圆_400" x="25.5" y="130" width="98" height="98" filterUnits="userSpaceOnUse">
      <feOffset dy="3" input="SourceAlpha"/>
      <feGaussianBlur stdDeviation="3" result="blur"/>
      <feFlood flood-color="#5aa7fe" flood-opacity="0.149"/>
      <feComposite operator="in" in2="blur"/>
      <feComposite in="SourceGraphic"/>
    </filter>
    <filter id="椭圆_401" x="425.5" y="327" width="98" height="98" filterUnits="userSpaceOnUse">
      <feOffset dy="3" input="SourceAlpha"/>
      <feGaussianBlur stdDeviation="3" result="blur-2"/>
      <feFlood flood-color="#5aa7fe" flood-opacity="0.149"/>
      <feComposite operator="in" in2="blur-2"/>
      <feComposite in="SourceGraphic"/>
    </filter>
    <filter id="椭圆_402" x="425.5" y="130" width="98" height="98" filterUnits="userSpaceOnUse">
      <feOffset dy="3" input="SourceAlpha"/>
      <feGaussianBlur stdDeviation="3" result="blur-3"/>
      <feFlood flood-color="#5aa7fe" flood-opacity="0.149"/>
      <feComposite operator="in" in2="blur-3"/>
      <feComposite in="SourceGraphic"/>
    </filter>
  </defs>
  <g id="Collaborative_work" data-name="Collaborative work" transform="translate(-1025.5 -2028)">
    <path id="路径_9993" data-name="路径 9993" d="M3178,2239.6V2775" transform="translate(-1678 -206)" fill="none" stroke="#cce3ff" stroke-width="1" stroke-dasharray="4"/>
    <path id="路径_9994" data-name="路径 9994" d="M3178,2239.6V2775" transform="translate(3800.501 -977) rotate(90)" fill="none" stroke="#cce3ff" stroke-width="1" stroke-dasharray="4"/>
    <path id="路径_9995" data-name="路径 9995" d="M3178,2239.6V2775" transform="translate(3800.501 -777) rotate(90)" fill="none" stroke="#cce3ff" stroke-width="1" stroke-dasharray="4"/>
    <path id="路径_9996" data-name="路径 9996" d="M3178,2407h193.23v199.946h207.426V2407H3369.932" transform="translate(-2078 -206)" fill="none" stroke="#9bcaff" stroke-linecap="round" stroke-width="3"/>
    <path id="路径_9997" data-name="路径 9997" d="M3579,2409.649V2238.64l-401.33-.307v142.392" transform="translate(-2078 -206)" fill="none" stroke="#9bcaff" stroke-width="3"/>
    <path id="路径_9991" data-name="路径 9991" d="M3178,2239.6V2775" transform="translate(-2078 -206)" fill="none" stroke="#cce3ff" stroke-width="1" stroke-dasharray="4"/>
    <path id="路径_9992" data-name="路径 9992" d="M3178,2239.6V2775" transform="translate(-1884.5 -206.101)" fill="none" stroke="#cce3ff" stroke-width="1" stroke-dasharray="4"/>
    <g transform="matrix(1, 0, 0, 1, 1025.5, 2028)" filter="url(#椭圆_400)">
      <circle id="椭圆_400-2" data-name="椭圆 400" cx="40" cy="40" r="40" transform="translate(34.5 136)" fill="#fff"/>
    </g>
    <g transform="matrix(1, 0, 0, 1, 1025.5, 2028)" filter="url(#椭圆_401)">
      <circle id="椭圆_401-2" data-name="椭圆 401" cx="40" cy="40" r="40" transform="translate(434.5 333)" fill="#31deaf"/>
    </g>
    <g transform="matrix(1, 0, 0, 1, 1025.5, 2028)" filter="url(#椭圆_402)">
      <circle id="椭圆_402-2" data-name="椭圆 402" cx="40" cy="40" r="40" transform="translate(434.5 136)" fill="#1f8aff"/>
    </g>
    <g id="web端" transform="translate(-2643.951 937.293)">
      <path id="矩形_150" data-name="矩形 150" d="M0,0H36.107a0,0,0,0,1,0,0V22.066A1.438,1.438,0,0,1,34.669,23.5H1.438A1.438,1.438,0,0,1,0,22.066V0A0,0,0,0,1,0,0Z" transform="translate(3725.704 1258.696)" fill="#1f8aff"/>
      <path id="路径_315" data-name="路径 315" d="M3761.054,1251h-34.023a1.023,1.023,0,0,0-1.031,1.014v6.085h36.085v-6.085A1.023,1.023,0,0,0,3761.054,1251Zm-31.291,4.209h-1.34v-1.318h1.34Zm3.092,0h-1.34v-1.318h1.34Zm3.093,0h-1.34v-1.318h1.34Zm24.075,1.369h-21.651v-4.056h21.651Z" transform="translate(-0.285 -0.278)" fill="#1f8aff"/>
    </g>
    <g id="Group" transform="translate(1483.204 2183)">
      <path id="Shape" d="M27.751,15.921a9.4,9.4,0,0,1,4.391-7.874A9.389,9.389,0,0,0,24.7,3.955C21.576,3.62,18.541,5.86,16.947,5.86c-1.626,0-4.08-1.873-6.725-1.818A9.881,9.881,0,0,0,1.888,9.216C-1.716,15.566.972,24.9,4.425,30.032c1.727,2.514,3.746,5.321,6.388,5.222,2.585-.108,3.55-1.677,6.669-1.677,3.09,0,4,1.677,6.691,1.614,2.774-.045,4.52-2.525,6.187-5.062a20.943,20.943,0,0,0,2.83-5.865,9.048,9.048,0,0,1-5.44-8.343Z" transform="translate(-0.177 6.041)" fill="#fff" fill-rule="evenodd"/>
      <path id="Shape-2" data-name="Shape" d="M12.492,6.753A9.345,9.345,0,0,0,14.569.134,9.192,9.192,0,0,0,8.592,3.28,8.887,8.887,0,0,0,6.46,9.655a7.585,7.585,0,0,0,6.031-2.9Z" transform="translate(9.993 -0.134)" fill="#fff" fill-rule="evenodd"/>
    </g>
    <g id="Page-1" transform="translate(1483.204 2381.663)">
      <g id="组_8" data-name="组 8" transform="translate(0 0)">
        <path id="Fill-1" d="M33.7,14.826a2.458,2.458,0,0,0-4.914,0l0,9.951a2.459,2.459,0,0,0,4.914,0ZM5.869,12.9l0,15.422a2.576,2.576,0,0,0,2.622,2.535H10.28l0,5.265a2.458,2.458,0,0,0,4.914,0V30.86h3.318v5.265a2.459,2.459,0,0,0,4.915,0l0-5.264H25.22a2.581,2.581,0,0,0,2.623-2.536l0-15.422ZM21.891,8.2a.9.9,0,1,1,.927-.9.913.913,0,0,1-.927.9Zm-10.08,0a.9.9,0,1,1,.93-.9.913.913,0,0,1-.93.9Zm10.465-4.68L23.991.489a.325.325,0,0,0-.135-.449.348.348,0,0,0-.462.132l-1.733,3.06a12.351,12.351,0,0,0-9.62,0L10.307.175A.345.345,0,0,0,9.846.043.32.32,0,0,0,9.71.49l1.716,3.027a9.688,9.688,0,0,0-5.648,8.559l22.137,0a9.691,9.691,0,0,0-5.64-8.556ZM2.457,12.454A2.418,2.418,0,0,0,0,14.83l0,9.951A2.417,2.417,0,0,0,2.46,27.158a2.415,2.415,0,0,0,2.457-2.377V14.829a2.419,2.419,0,0,0-2.459-2.375Z" transform="translate(0 0)" fill="#fff" fill-rule="evenodd"/>
      </g>
    </g>
    <circle id="椭圆_403" data-name="椭圆 403" cx="4" cy="4" r="4" transform="translate(1186 2197)" fill="#042e7a"/>
    <circle id="椭圆_404" data-name="椭圆 404" cx="4" cy="4" r="4" transform="translate(1289 2197)" fill="#042e7a"/>
    <circle id="椭圆_405" data-name="椭圆 405" cx="4" cy="4" r="4" transform="translate(1289 2300)" fill="#042e7a"/>
    <circle id="椭圆_406" data-name="椭圆 406" cx="4" cy="4" r="4" transform="translate(1316 2397)" fill="#042e7a"/>
    <circle id="椭圆_407" data-name="椭圆 407" cx="4" cy="4" r="4" transform="translate(1432 2397)" fill="#042e7a"/>
    <circle id="椭圆_408" data-name="椭圆 408" cx="4" cy="4" r="4" transform="translate(1497 2296)" fill="#042e7a"/>
    <circle id="椭圆_409" data-name="椭圆 409" cx="4" cy="4" r="4" transform="translate(1389 2197)" fill="#042e7a"/>
    <circle id="椭圆_410" data-name="椭圆 410" cx="4" cy="4" r="4" transform="translate(1497 2028)" fill="#042e7a"/>
    <circle id="椭圆_411" data-name="椭圆 411" cx="4" cy="4" r="4" transform="translate(1381 2028)" fill="#042e7a"/>
    <circle id="椭圆_412" data-name="椭圆 412" cx="4" cy="4" r="4" transform="translate(1227 2028)" fill="#042e7a"/>
    <circle id="椭圆_413" data-name="椭圆 413" cx="4" cy="4" r="4" transform="translate(1096 2083)" fill="#042e7a"/>
  </g>
</svg>
