<svg xmlns="http://www.w3.org/2000/svg" xmlns:xlink="http://www.w3.org/1999/xlink" width="663" height="440.04" viewBox="0 0 663 440.04">
  <defs>
    <filter id="椭圆_414" x="0" y="257" width="124" height="124" filterUnits="userSpaceOnUse">
      <feOffset dy="3" input="SourceAlpha"/>
      <feGaussianBlur stdDeviation="3" result="blur"/>
      <feFlood flood-color="#9bcaff" flood-opacity="0.149"/>
      <feComposite operator="in" in2="blur"/>
      <feComposite in="SourceGraphic"/>
    </filter>
    <filter id="椭圆_415" x="539" y="257" width="124" height="124" filterUnits="userSpaceOnUse">
      <feOffset dy="3" input="SourceAlpha"/>
      <feGaussianBlur stdDeviation="3" result="blur-2"/>
      <feFlood flood-color="#9bcaff" flood-opacity="0.149"/>
      <feComposite operator="in" in2="blur-2"/>
      <feComposite in="SourceGraphic"/>
    </filter>
    <filter id="矩形_755" x="225" y="0" width="206" height="86" filterUnits="userSpaceOnUse">
      <feOffset dy="3" input="SourceAlpha"/>
      <feGaussianBlur stdDeviation="3" result="blur-3"/>
      <feFlood flood-color="#9bcaff" flood-opacity="0.149"/>
      <feComposite operator="in" in2="blur-3"/>
      <feComposite in="SourceGraphic"/>
    </filter>
  </defs>
  <g id="Security_privacy" data-name="Security privacy" transform="translate(-636 -3273)">
    <g id="组_1296" data-name="组 1296" transform="translate(-0.5 67.961)">
      <path id="路径_10004" data-name="路径 10004" d="M3178,2239.6v399.478" transform="translate(-2217.5 1005.899)" fill="none" stroke="#cce3ff" stroke-width="1" stroke-dasharray="4"/>
      <path id="路径_9998" data-name="路径 9998" d="M3178,2239.6v399.478" transform="translate(-1941 1006)" fill="none" stroke="#cce3ff" stroke-width="1" stroke-dasharray="4"/>
      <path id="路径_9999" data-name="路径 9999" d="M0,0V535.4" transform="translate(1227.9 3370.485) rotate(90)" fill="none" stroke="#cce3ff" stroke-width="1" stroke-dasharray="4"/>
      <path id="路径_10000" data-name="路径 10000" d="M0,0V535.4" transform="translate(1227.9 3519.72) rotate(90)" fill="none" stroke="#cce3ff" stroke-width="1" stroke-dasharray="4"/>
      <path id="路径_10003" data-name="路径 10003" d="M3178,2239.6v399.478" transform="translate(-2481 1006)" fill="none" stroke="#cce3ff" stroke-width="1" stroke-dasharray="4"/>
    </g>
    <path id="路径_10005" data-name="路径 10005" d="M2775.231,3794.083V3518.692h539.562V3849.7" transform="translate(-2078 -206)" fill="none" stroke="#9bcaff" stroke-width="3"/>
    <path id="路径_10006" data-name="路径 10006" d="M2692,4213v181.311" transform="translate(-1733 -885)" fill="none" stroke="#fd7482" stroke-width="3"/>
    <g transform="matrix(1, 0, 0, 1, 636, 3273)" filter="url(#椭圆_414)">
      <circle id="椭圆_414-2" data-name="椭圆 414" cx="53" cy="53" r="53" transform="translate(9 263)" fill="#fff"/>
    </g>
    <g transform="matrix(1, 0, 0, 1, 636, 3273)" filter="url(#椭圆_415)">
      <circle id="椭圆_415-2" data-name="椭圆 415" cx="53" cy="53" r="53" transform="translate(548 263)" fill="#1f8aff"/>
    </g>
    <text id="Hello_" data-name="Hello!" transform="translate(698 3598)" fill="#687992" font-size="25" font-family="SFCompactText-Light, SF Text" font-weight="300"><tspan x="-32.239" y="0">Hello!</tspan></text>
    <rect id="矩形_756" data-name="矩形 756" width="105" height="44" rx="10" transform="translate(907 3500)" fill="#fd7482"/>
    <text id="Error" transform="translate(960 3531)" fill="#fff" font-size="25" font-family="SFCompactText-Light, SF Text" font-weight="300"><tspan x="-28.143" y="0">Error</tspan></text>
    <text id="Hello_2" data-name="Hello!" transform="translate(1237 3598)" fill="#fff" font-size="25" font-family="SFCompactText-Light, SF Text" font-weight="300"><tspan x="-32.239" y="0">Hello!</tspan></text>
    <g transform="matrix(1, 0, 0, 1, 636, 3273)" filter="url(#矩形_755)">
      <rect id="矩形_755-2" data-name="矩形 755" width="188" height="68" rx="10" transform="translate(234 6)" fill="#1f8aff"/>
    </g>
    <circle id="椭圆_420" data-name="椭圆 420" cx="4" cy="4" r="4" transform="translate(693 3309)" fill="#042e7a"/>
    <circle id="椭圆_422" data-name="椭圆 422" cx="4" cy="4" r="4" transform="translate(1097 3309)" fill="#042e7a"/>
    <circle id="椭圆_423" data-name="椭圆 423" cx="4" cy="4" r="4" transform="translate(1233 3401)" fill="#042e7a"/>
    <circle id="椭圆_424" data-name="椭圆 424" cx="11" cy="11" r="11" transform="translate(948 3404)" fill="#fd7482"/>
    <circle id="椭圆_421" data-name="椭圆 421" cx="4" cy="4" r="4" transform="translate(693 3454)" fill="#042e7a"/>
    <rect id="矩形_757" data-name="矩形 757" width="4" height="28" transform="translate(945.876 3409.732) rotate(-60)" fill="#fff"/>
    <text id="Data" transform="translate(964 3322)" fill="#fff" font-size="25" font-family="SFCompactText-Light, SF Text" font-weight="300"><tspan x="-26.172" y="0">Data</tspan></text>
  </g>
</svg>
