<svg xmlns="http://www.w3.org/2000/svg" width="345.096" height="253.694" viewBox="0 0 345.096 253.694">
  <g id="Encrypted_information" data-name="Encrypted information" transform="translate(-787.172 -1393.982)">
    <rect id="矩形_727" data-name="矩形 727" width="146.196" height="111.797" rx="2" transform="translate(886.729 1475.68)" fill="#1f8aff"/>
    <g id="矩形_728" data-name="矩形 728" transform="translate(903.929 1393.982)" fill="none" stroke="#1f8aff" stroke-width="8">
      <rect width="111.797" height="152.646" rx="55.899" stroke="none"/>
      <rect x="4" y="4" width="103.797" height="144.646" rx="51.899" fill="none"/>
    </g>
    <path id="联合_3" data-name="联合 3" d="M.146,42.279A.5.5,0,0,1-.3,41.556L9.2,22.55a14.094,14.094,0,1,1,22.55,0l9.5,19.006a.5.5,0,0,1-.447.724Z" transform="translate(939.377 1505.342)" fill="#fff"/>
    <path id="路径_10352" data-name="路径 10352" d="M82.959,135.4H45.582a21.68,21.68,0,1,0-21.047,26.49,21.131,21.131,0,0,0,21.047-17.055H82.959a4.193,4.193,0,0,0,4.355-4.355A4.249,4.249,0,0,0,82.959,135.4ZM24.535,152.453a12.7,12.7,0,0,1,0-25.4,12.7,12.7,0,0,1,0,25.4ZM82.959,97.3H43.768A14.716,14.716,0,0,1,28.89,82.418v-22.5A21.68,21.68,0,1,0,2.4,38.873,21.131,21.131,0,0,0,19.455,59.919v22.5A23.54,23.54,0,0,0,43.042,106H82.233a4.193,4.193,0,0,0,4.355-4.355C86.587,99.11,85.5,97.3,82.959,97.3ZM11.835,38.873a12.857,12.857,0,0,1,12.7-12.7,12.7,12.7,0,1,1,0,25.4A12.857,12.857,0,0,1,11.835,38.873ZM43.768,182.209H82.959a4.355,4.355,0,1,0,0-8.709H43.768a23.54,23.54,0,0,0-23.587,23.587v22.5a21.68,21.68,0,1,0,26.49,21.047,21.131,21.131,0,0,0-17.055-21.047v-22.5C28.89,188.741,35.785,182.209,43.768,182.209Zm-6.532,58.423a12.857,12.857,0,0,1-12.7,12.7,12.622,12.622,0,0,1-12.7-12.7,12.857,12.857,0,0,1,12.7-12.7A12.857,12.857,0,0,1,37.236,240.632Zm288.487-122.29A21.131,21.131,0,0,0,304.677,135.4H267.3a4.355,4.355,0,0,0,0,8.709h37.376a21.615,21.615,0,1,0,21.047-25.764Zm0,34.11a12.7,12.7,0,1,1,12.7-12.7A12.857,12.857,0,0,1,325.723,152.453Zm-21.773,88.179a21.773,21.773,0,0,0,43.545,0,21.131,21.131,0,0,0-17.055-21.047v-22.5A23.54,23.54,0,0,0,306.854,173.5H267.3a4.355,4.355,0,0,0,0,8.709h39.191a14.715,14.715,0,0,1,14.878,14.878v22.5C311.571,221.763,303.951,230.472,303.951,240.632Zm34.473,0a12.857,12.857,0,0,1-12.7,12.7,12.622,12.622,0,0,1-12.7-12.7,12.7,12.7,0,0,1,25.4,0ZM325.723,17.1a21.837,21.837,0,0,0-21.773,21.773,21.131,21.131,0,0,0,17.055,21.047v22.5A14.716,14.716,0,0,1,306.128,97.3H267.3a4.355,4.355,0,0,0,0,8.709h39.191a23.54,23.54,0,0,0,23.587-23.587v-22.5A21.658,21.658,0,0,0,325.723,17.1Zm0,34.473a12.7,12.7,0,1,1,12.7-12.7A12.857,12.857,0,0,1,325.723,51.573Z" transform="translate(784.772 1385.271)" fill="#9bcaff"/>
  </g>
</svg>
