<svg xmlns="http://www.w3.org/2000/svg" width="289.748" height="236.744" viewBox="0 0 289.748 236.744">
  <g id="Instant_messaging" data-name="Instant messaging" transform="translate(-1053.065 -784.531)">
    <path id="路径_400" data-name="路径 400" d="M1139.585,816.972h-75.342c-6.185,0-11.175,5.559-11.175,12.39V953.2h0c0,6.826,4.99,12.39,11.175,12.39h75.346c6.136,0,11.127-5.564,11.127-12.39V911.655h0V829.362C1150.713,822.531,1145.721,816.972,1139.585,816.972Zm-37.7,133.141c-3.851,0-6.967-3.467-6.967-7.76,0-4.241,3.117-7.71,6.967-7.71s6.965,3.469,6.965,7.71C1108.855,946.646,1105.736,950.113,1101.89,950.113Zm34.894-38.458v3.769c0,3.8-2.76,6.826-6.142,6.826h-57.5c-3.382,0-6.139-3.026-6.139-6.826V839.272c0-3.8,2.757-6.829,6.139-6.829h57.5c3.382,0,6.142,3.03,6.142,6.825Z" transform="translate(0 52.864)" fill="#007aff"/>
    <path id="路径_401" data-name="路径 401" d="M1232.9,898.4h-134.15c.008-.3.023-.6.023-.9V881.372h14.458l7.139-11.348c0-6.266,4.8-11.351,10.716-11.351h26.8c5.917,0,10.714,5.085,10.714,11.351l7.137,11.348H1232.9a8.528,8.528,0,0,1,0,17.027Z" transform="translate(69.726 122.876)" fill="#9bcaff"/>
    <path id="路径_402" data-name="路径 402" d="M1323.038,932.07c0,18.806-14.386,34.05-32.13,34.05H1148.836V885.187c0-19.143-14.78-34.8-32.843-34.8h-50v-31.8c0-18.805,14.385-34.049,32.128-34.049h192.785c17.746,0,32.132,15.243,32.132,34.049V932.07Z" transform="translate(19.775)" fill="#9bcaff"/>
  </g>
</svg>
