<svg xmlns="http://www.w3.org/2000/svg" width="195" height="281" viewBox="0 0 195 281">
  <g id="Simple_UI" data-name="Simple UI" transform="translate(2633.964 4039.548)">
    <g id="矩形_682" data-name="矩形 682" transform="translate(-2633.964 -4039.548)" fill="none" stroke="#9bcaff" stroke-width="4">
      <rect width="195" height="281" rx="10" stroke="none"/>
      <rect x="2" y="2" width="191" height="277" rx="8" fill="none"/>
    </g>
    <rect id="矩形_683" data-name="矩形 683" width="157" height="214" rx="2" transform="translate(-2614.964 -4020.548)" fill="#1f8aff"/>
    <circle id="椭圆_257" data-name="椭圆 257" cx="9.5" cy="9.5" r="9.5" transform="translate(-2545.964 -3795.548)" fill="#1f8aff"/>
    <g id="noun_Star_1696190" transform="translate(-2591.882 -3964.421)">
      <path id="路径_9378" data-name="路径 9378" d="M92.02,33.6C73.9,28.392,70.1,24.588,64.887,6.467a2.027,2.027,0,0,0-3.9,0C55.782,24.589,51.978,28.392,33.858,33.6a2.027,2.027,0,0,0,0,3.9c18.12,5.208,21.924,9.012,27.132,27.132a2.027,2.027,0,0,0,3.9,0C70.095,46.509,73.9,42.706,92.02,37.5a2.028,2.028,0,0,0,0-3.9Z" transform="translate(-7.936 -5)" fill="#9bcaff"/>
      <path id="路径_9379" data-name="路径 9379" d="M8.191,66.281c6.932,1.992,8.387,3.447,10.379,10.379a1.171,1.171,0,0,0,2.25,0c1.992-6.932,3.447-8.387,10.379-10.379a1.171,1.171,0,0,0,0-2.25c-6.932-1.992-8.387-3.447-10.379-10.379a1.171,1.171,0,0,0-2.25,0c-1.992,6.932-3.447,8.387-10.379,10.379a1.171,1.171,0,0,0,0,2.25Z" transform="translate(-7.343 18.941)" fill="#9bcaff"/>
      <path id="路径_9380" data-name="路径 9380" d="M8.819,76.272c12.071,3.469,14.6,6,18.073,18.073a2.039,2.039,0,0,0,3.919,0c3.468-12.071,6-14.6,18.073-18.073a2.039,2.039,0,0,0,0-3.919c-12.071-3.468-14.6-6-18.073-18.073a2.039,2.039,0,0,0-3.919,0c-3.469,12.071-6,14.6-18.073,18.073a2.038,2.038,0,0,0,0,3.919Z" transform="translate(62.129 16.105)" fill="#9bcaff"/>
    </g>
  </g>
</svg>
