<svg xmlns="http://www.w3.org/2000/svg" width="256" height="256" viewBox="0 0 256 256">
  <g id="Version_maintenance" data-name="Version maintenance" transform="translate(-894 -1740)">
    <path id="路径_619" data-name="路径 619" d="M3487.414,3012.583h-26.577a12.726,12.726,0,0,1-11.278-8.13l-3.631-8.606a12.518,12.518,0,0,1,2.142-13.678l18.905-18.917a8.586,8.586,0,0,0,0-12.121l-16.964-16.966a8.582,8.582,0,0,0-12.121,0l-19.053,19.047a12.679,12.679,0,0,1-13.718,2.2l-8.413-3.464a12.587,12.587,0,0,1-8.147-11.214v-27.011a8.6,8.6,0,0,0-8.578-8.574h-24a8.6,8.6,0,0,0-8.566,8.574v27.011a12.6,12.6,0,0,1-8.153,11.214l-8.413,3.464a12.673,12.673,0,0,1-13.714-2.2l-19.049-19.047a8.585,8.585,0,0,0-12.123,0l-16.971,16.966a8.589,8.589,0,0,0,0,12.121l18.913,18.917a12.534,12.534,0,0,1,2.136,13.678l-3.625,8.606a12.729,12.729,0,0,1-11.284,8.13h-26.576a8.6,8.6,0,0,0-8.57,8.574v24a8.6,8.6,0,0,0,8.57,8.568h26.3a12.527,12.527,0,0,1,11.178,8.167l3.644,8.968a12.681,12.681,0,0,1-2.212,13.715l-18.479,18.479a8.59,8.59,0,0,0,0,12.123l16.971,16.974a8.6,8.6,0,0,0,12.123,0l18.335-18.348a12.571,12.571,0,0,1,13.691-2.142l9.153,3.813a12.641,12.641,0,0,1,8.149,11.24v25.871a8.6,8.6,0,0,0,8.566,8.57h24a8.6,8.6,0,0,0,8.578-8.57v-25.871a12.639,12.639,0,0,1,8.147-11.24l6.663-2.779-12.934-12.937a69.589,69.589,0,1,1,43.748-44.062l12.983,12.987,2.767-6.79a12.525,12.525,0,0,1,11.176-8.167h26.311a8.6,8.6,0,0,0,8.568-8.568v-24a8.6,8.6,0,0,0-8.568-8.574Zm-66.867,48.668c-2.743-2.682-4.023-4.851-2.487-9.178,8.078-22.75.686-46.1-19.106-59.929-12.49-8.726-26.439-11.237-41.831-6.654,5.752,6.756,12.225,12.39,18.3,18.415,11.918,11.829,12.095,26.473.72,37.661-11.015,10.856-25.9,10.494-37.335-1.045-6-6.059-11.792-12.326-17.68-18.5q-1.065.636-2.129,1.263c-3.4,18.576.814,35.168,14.771,48.48,14.856,14.174,32.632,18.178,52.123,11.616,4.978-1.674,7.621-.79,10.994,2.636,14.528,14.757,40.85,39.759,55.665,54.24,7.157,7,15.956,7.229,23.013,1.106,8.767-7.6,9.206-17.659.807-26.066-14.632-14.646-41.036-39.564-55.825-54.047Zm42.719,73.867a8.147,8.147,0,1,1,8.142-8.149,8.148,8.148,0,0,1-8.142,8.149Z" transform="translate(-2345.989 -1165.154)" fill="#9bcaff"/>
    <path id="路径_10353" data-name="路径 10353" d="M3379.551,2946.612Zm3.265,76.818c-2.743-2.682-4.023-4.851-2.487-9.178,8.078-22.75.686-46.1-19.106-59.929-12.49-8.726-26.439-11.237-41.831-6.654,5.752,6.756,12.225,12.39,18.3,18.415,11.918,11.829,12.095,26.473.72,37.661-11.015,10.856-25.9,10.494-37.335-1.045-6-6.059-11.792-12.326-17.68-18.5q-1.065.636-2.129,1.263c-3.4,18.576.814,35.168,14.771,48.48,14.856,14.174,32.632,18.178,52.123,11.616,4.978-1.674,7.621-.79,10.994,2.636,14.528,14.757,40.85,39.759,55.665,54.24,7.157,7,15.956,7.229,23.013,1.106,8.767-7.6,9.206-17.659.807-26.066-14.632-14.646-41.036-39.564-55.825-54.047Zm42.719,73.867a8.147,8.147,0,1,1,8.142-8.149,8.148,8.148,0,0,1-8.142,8.149Z" transform="translate(-2308.256 -1127.332)" fill="#fff"/>
  </g>
</svg>
