<svg xmlns="http://www.w3.org/2000/svg" xmlns:xlink="http://www.w3.org/1999/xlink" width="663" height="411.539" viewBox="0 0 663 411.539">
  <defs>
    <filter id="椭圆_414" x="0" y="66.539" width="124" height="124" filterUnits="userSpaceOnUse">
      <feOffset dy="3" input="SourceAlpha"/>
      <feGaussianBlur stdDeviation="3" result="blur"/>
      <feFlood flood-color="#9bcaff" flood-opacity="0.149"/>
      <feComposite operator="in" in2="blur"/>
      <feComposite in="SourceGraphic"/>
    </filter>
    <filter id="椭圆_415" x="539" y="287.539" width="124" height="124" filterUnits="userSpaceOnUse">
      <feOffset dy="3" input="SourceAlpha"/>
      <feGaussianBlur stdDeviation="3" result="blur-2"/>
      <feFlood flood-color="#9bcaff" flood-opacity="0.149"/>
      <feComposite operator="in" in2="blur-2"/>
      <feComposite in="SourceGraphic"/>
    </filter>
    <filter id="矩形_754" x="190" y="159.539" width="268" height="86" filterUnits="userSpaceOnUse">
      <feOffset dy="3" input="SourceAlpha"/>
      <feGaussianBlur stdDeviation="3" result="blur-3"/>
      <feFlood flood-color="#9bcaff" flood-opacity="0.149"/>
      <feComposite operator="in" in2="blur-3"/>
      <feComposite in="SourceGraphic"/>
    </filter>
  </defs>
  <g id="Notification" transform="translate(-636 -3313.461)">
    <g id="组_1296" data-name="组 1296" transform="translate(-0.5 67.961)">
      <path id="路径_10004" data-name="路径 10004" d="M3178,2239.6v399.478" transform="translate(-2217.5 1005.899)" fill="none" stroke="#cce3ff" stroke-width="1" stroke-dasharray="4"/>
      <path id="路径_9998" data-name="路径 9998" d="M3178,2239.6v399.478" transform="translate(-1941 1006)" fill="none" stroke="#cce3ff" stroke-width="1" stroke-dasharray="4"/>
      <path id="路径_9999" data-name="路径 9999" d="M0,0V535.4" transform="translate(1227.9 3370.485) rotate(90)" fill="none" stroke="#cce3ff" stroke-width="1" stroke-dasharray="4"/>
      <path id="路径_10000" data-name="路径 10000" d="M0,0V535.4" transform="translate(1227.9 3519.72) rotate(90)" fill="none" stroke="#cce3ff" stroke-width="1" stroke-dasharray="4"/>
      <path id="路径_10003" data-name="路径 10003" d="M3178,2239.6v399.478" transform="translate(-2481 1006)" fill="none" stroke="#cce3ff" stroke-width="1" stroke-dasharray="4"/>
    </g>
    <path id="路径_10005" data-name="路径 10005" d="M2777.1,3645.384h261.311v148.7h276.381V3849.7" transform="translate(-2078 -206)" fill="none" stroke="#9bcaff" stroke-width="3"/>
    <g transform="matrix(1, 0, 0, 1, 636, 3313.46)" filter="url(#椭圆_414)">
      <circle id="椭圆_414-2" data-name="椭圆 414" cx="53" cy="53" r="53" transform="translate(9 72.54)" fill="#fff"/>
    </g>
    <g transform="matrix(1, 0, 0, 1, 636, 3313.46)" filter="url(#椭圆_415)">
      <circle id="椭圆_415-2" data-name="椭圆 415" cx="53" cy="53" r="53" transform="translate(548 293.54)" fill="#1f8aff"/>
    </g>
    <path id="路径_10358" data-name="路径 10358" d="M-17.48,0V-16.65h-1.782v7.19h-8.789v-7.19h-1.782V0h1.782V-7.849h8.789V0Zm9.363.208C-5,.208-3.491-1.721-3.3-3.04H-5.164C-5.4-2.2-6.445-1.355-8.13-1.355c-2.307,0-3.54-1.672-3.54-3.906v-.671h8.557V-7.361c0-3.467-2.148-5.627-5.164-5.627s-5.164,2.161-5.164,5.627v1.978C-13.44-1.978-11.487.208-8.118.208Zm-3.552-7.52V-7.52c0-2.38,1.355-3.894,3.394-3.894S-4.883-9.9-4.883-7.52v.208ZM.793,0h1.77V-17.542H.793ZM7.251,0h1.77V-17.542H7.251ZM18.4-12.988A5.218,5.218,0,0,0,13-7.4v2.014C13-1.77,15.283.208,18.4.208c3.052,0,5.383-2.014,5.383-5.591V-7.4C23.779-10.974,21.436-12.988,18.4-12.988Zm.012,1.575c2.173,0,3.6,1.66,3.6,4.224v1.624c0,2.625-1.367,4.211-3.6,4.211-2.258,0-3.65-1.6-3.65-4.211V-7.19C14.758-9.753,16.223-11.414,18.408-11.414Zm8.875,10.1A1.516,1.516,0,0,0,28.8.208a1.533,1.533,0,0,0,1.587-1.526A1.544,1.544,0,0,0,28.8-2.893,1.528,1.528,0,0,0,27.283-1.318Zm.549-15.332.22,10.84h1.563l.22-10.84Z" transform="translate(698 3448)" fill="#687992"/>
    <path id="路径_10359" data-name="路径 10359" d="M-17.48,0V-16.65h-1.782v7.19h-8.789v-7.19h-1.782V0h1.782V-7.849h8.789V0Zm9.363.208C-5,.208-3.491-1.721-3.3-3.04H-5.164C-5.4-2.2-6.445-1.355-8.13-1.355c-2.307,0-3.54-1.672-3.54-3.906v-.671h8.557V-7.361c0-3.467-2.148-5.627-5.164-5.627s-5.164,2.161-5.164,5.627v1.978C-13.44-1.978-11.487.208-8.118.208Zm-3.552-7.52V-7.52c0-2.38,1.355-3.894,3.394-3.894S-4.883-9.9-4.883-7.52v.208ZM.793,0h1.77V-17.542H.793ZM7.251,0h1.77V-17.542H7.251ZM18.4-12.988A5.218,5.218,0,0,0,13-7.4v2.014C13-1.77,15.283.208,18.4.208c3.052,0,5.383-2.014,5.383-5.591V-7.4C23.779-10.974,21.436-12.988,18.4-12.988Zm.012,1.575c2.173,0,3.6,1.66,3.6,4.224v1.624c0,2.625-1.367,4.211-3.6,4.211-2.258,0-3.65-1.6-3.65-4.211V-7.19C14.758-9.753,16.223-11.414,18.408-11.414Zm8.875,10.1A1.516,1.516,0,0,0,28.8.208a1.533,1.533,0,0,0,1.587-1.526A1.544,1.544,0,0,0,28.8-2.893,1.528,1.528,0,0,0,27.283-1.318Zm.549-15.332.22,10.84h1.563l.22-10.84Z" transform="translate(1237 3669)" fill="#fff"/>
    <g transform="matrix(1, 0, 0, 1, 636, 3313.46)" filter="url(#矩形_754)">
      <rect id="矩形_754-2" data-name="矩形 754" width="250" height="68" rx="10" transform="translate(199 165.54)" fill="#1f8aff"/>
    </g>
    <path id="路径_10357" data-name="路径 10357" d="M-76.062-5.3c0,3.406,2,5.505,5.2,5.505,3.333,0,4.785-1.88,4.871-3.589h-1.758c-.244,1-1.013,1.978-3.076,1.978C-72.986-1.4-74.3-2.893-74.3-5.3V-7.422c0-2.429,1.208-3.955,3.467-3.955a2.715,2.715,0,0,1,3,2.148h1.758c-.061-1.782-1.636-3.76-4.785-3.76-3.186,0-5.2,2.124-5.2,5.469Zm14.075-5.811v-1.025h11.072v1.025Zm0,8.765V-3.369h11.072v1.025Zm0-4.431V-7.8h11.072v1.025ZM-40.405,0h1.758V-8.215a2.984,2.984,0,0,1,3-3.2,2.768,2.768,0,0,1,2.917,2.991V0h1.77V-8.228a3.04,3.04,0,0,1,3.052-3.186,2.653,2.653,0,0,1,2.869,2.905V0h1.758V-8.984c0-2.6-1.624-4-4.211-4A3.949,3.949,0,0,0-31.4-10.535h-.073a3.5,3.5,0,0,0-3.6-2.454A3.271,3.271,0,0,0-38.55-10.73h-.1v-2.051h-1.758ZM-12.7-9.7l-2.966-6.958h-1.746L-20.386-9.7h1.5l2.319-5.481h.049L-14.2-9.7ZM-5,.208C-1.892.208-.378-1.721-.183-3.04H-2.051c-.232.842-1.282,1.685-2.966,1.685-2.307,0-3.54-1.672-3.54-3.906v-.671H0V-7.361c0-3.467-2.148-5.627-5.164-5.627s-5.164,2.161-5.164,5.627v1.978C-10.327-1.978-8.374.208-5,.208Zm-3.552-7.52V-7.52c0-2.38,1.355-3.894,3.394-3.894S-1.77-9.9-1.77-7.52v.208ZM9.5,0h1.758V-8.215a2.984,2.984,0,0,1,3-3.2,2.768,2.768,0,0,1,2.917,2.991V0h1.77V-8.228A3.04,3.04,0,0,1,22-11.414a2.653,2.653,0,0,1,2.869,2.905V0h1.758V-8.984c0-2.6-1.624-4-4.211-4a3.949,3.949,0,0,0-3.906,2.454h-.073a3.5,3.5,0,0,0-3.6-2.454,3.271,3.271,0,0,0-3.479,2.258h-.1v-2.051H9.5ZM35.852-12.988a5.218,5.218,0,0,0-5.4,5.591v2.014c0,3.613,2.283,5.591,5.4,5.591,3.052,0,5.383-2.014,5.383-5.591V-7.4C41.235-10.974,38.892-12.988,35.852-12.988Zm.012,1.575c2.173,0,3.6,1.66,3.6,4.224v1.624c0,2.625-1.367,4.211-3.6,4.211-2.258,0-3.65-1.6-3.65-4.211V-7.19C32.214-9.753,33.679-11.414,35.864-11.414Zm13.623-1.575c-2.942,0-4.993,2.051-4.993,5.286v2.625C44.495-1.88,46.46.2,49.426.2c2.026,0,3.589-1.086,3.931-2.307h.085V0h1.685V-17.542h-1.77V-10.8h-.085A3.836,3.836,0,0,0,49.487-12.988Zm.22,1.575a3.559,3.559,0,0,1,3.65,3.723v2.356c0,2.356-1.379,3.967-3.589,3.967-2.148,0-3.5-1.55-3.5-4.175V-7.263C46.265-9.9,47.62-11.414,49.707-11.414ZM65.356,0h1.758V-7.2c0-2.307,1.172-4.211,3.638-4.211,1.917,0,2.991,1.184,2.991,3.247V0h1.77V-8.728c0-2.844-1.794-4.26-4.37-4.26-2.686,0-3.6,1.526-3.931,2.588h-.1v-2.38H65.356Z" transform="translate(962 3519)" fill="#fff"/>
    <circle id="椭圆_416" data-name="椭圆 416" cx="4" cy="4" r="4" transform="translate(841 3436)" fill="#042e7a"/>
    <circle id="椭圆_417" data-name="椭圆 417" cx="4" cy="4" r="4" transform="translate(956 3436)" fill="#042e7a"/>
    <circle id="椭圆_418" data-name="椭圆 418" cx="4" cy="4" r="4" transform="translate(1076 3584)" fill="#042e7a"/>
    <circle id="椭圆_419" data-name="椭圆 419" cx="4" cy="4" r="4" transform="translate(1233 3584)" fill="#042e7a"/>
  </g>
</svg>
