<svg xmlns="http://www.w3.org/2000/svg" width="160.514" height="118" viewBox="0 0 160.514 118">
  <g id="Encrypted_information" data-name="Encrypted information" transform="translate(-787.172 -1393.982)">
    <rect id="矩形_727" data-name="矩形 727" width="68" height="52" rx="2" transform="translate(833.479 1431.982)" fill="#1f8aff"/>
    <g id="矩形_728" data-name="矩形 728" transform="translate(841.479 1393.982)" fill="none" stroke="#1f8aff" stroke-width="8">
      <rect width="52" height="71" rx="26" stroke="none"/>
      <rect x="4" y="4" width="44" height="63" rx="22" fill="none"/>
    </g>
    <path id="联合_3" data-name="联合 3" d="M.425,19.665a.5.5,0,0,1-.447-.724L4.2,10.488a6.555,6.555,0,1,1,10.489,0l4.227,8.453a.5.5,0,0,1-.447.724Z" transform="translate(858.043 1445.779)" fill="#fff"/>
    <path id="路径_10352" data-name="路径 10352" d="M39.87,72.124H22.485A10.084,10.084,0,1,0,12.7,84.445a9.829,9.829,0,0,0,9.79-7.933H39.87A1.95,1.95,0,0,0,41.9,74.487,1.977,1.977,0,0,0,39.87,72.124ZM12.7,80.057a5.907,5.907,0,0,1,0-11.815,5.907,5.907,0,0,1,0,11.815ZM39.87,54.4H21.641a6.845,6.845,0,0,1-6.92-6.92V37.017A10.084,10.084,0,1,0,2.4,27.227a9.829,9.829,0,0,0,7.933,9.79V47.481A10.949,10.949,0,0,0,21.3,58.452H39.533a1.95,1.95,0,0,0,2.025-2.025C41.558,55.245,41.052,54.4,39.87,54.4ZM6.788,27.227A5.98,5.98,0,0,1,12.7,21.32a5.907,5.907,0,1,1,0,11.815A5.98,5.98,0,0,1,6.788,27.227ZM21.641,93.9H39.87a2.025,2.025,0,1,0,0-4.051H21.641A10.949,10.949,0,0,0,10.67,100.817v10.465a10.084,10.084,0,1,0,12.321,9.79,9.829,9.829,0,0,0-7.933-9.79V100.817A6.471,6.471,0,0,1,21.641,93.9ZM18.6,121.071a5.98,5.98,0,0,1-5.907,5.907,5.871,5.871,0,0,1-5.907-5.907,5.98,5.98,0,0,1,5.907-5.907A5.98,5.98,0,0,1,18.6,121.071Zm134.184-56.88A9.829,9.829,0,0,0,143,72.124H125.613a2.025,2.025,0,0,0,0,4.051H143a10.054,10.054,0,1,0,9.789-11.984Zm0,15.866a5.907,5.907,0,1,1,5.907-5.907A5.98,5.98,0,0,1,152.787,80.057ZM142.66,121.071a10.127,10.127,0,1,0,20.254,0,9.829,9.829,0,0,0-7.933-9.79V100.817A10.949,10.949,0,0,0,144.01,89.846h-18.4a2.025,2.025,0,0,0,0,4.051h18.229a6.845,6.845,0,0,1,6.92,6.92v10.465A10.259,10.259,0,0,0,142.66,121.071Zm16.035,0a5.98,5.98,0,0,1-5.907,5.907,5.871,5.871,0,0,1-5.907-5.907,5.907,5.907,0,1,1,11.815,0ZM152.787,17.1A10.157,10.157,0,0,0,142.66,27.227a9.829,9.829,0,0,0,7.933,9.79V47.481a6.845,6.845,0,0,1-6.92,6.92h-18.06a2.025,2.025,0,0,0,0,4.051h18.229a10.949,10.949,0,0,0,10.971-10.971V37.017A10.074,10.074,0,0,0,152.787,17.1Zm0,16.035a5.907,5.907,0,1,1,5.907-5.907A5.98,5.98,0,0,1,152.787,33.135Z" transform="translate(784.772 1380.784)" fill="#9bcaff"/>
  </g>
</svg>
