<svg id="Free_to_use" data-name="Free to use" xmlns="http://www.w3.org/2000/svg" width="160" height="135" viewBox="0 0 160 135">
  <g id="椭圆_260" data-name="椭圆 260" transform="translate(25)" fill="none" stroke="#9bcaff" stroke-width="4">
    <circle cx="67.5" cy="67.5" r="67.5" stroke="none"/>
    <circle cx="67.5" cy="67.5" r="65.5" fill="none"/>
  </g>
  <path id="联合_24" data-name="联合 24" d="M-7443.021,3689.9a2,2,0,0,1-2-2v-12.029a2,2,0,0,1,.1-.634c-12.125-.878-19.848-8.057-20.707-17.651h7.251c1.257,6.528,7.3,11.313,16.87,11.313,9.766,0,15.952-4.883,15.952-12.424,0-5.945-3.625-9.233-11.6-11.311l-11.311-3.046c-9.717-2.561-15.178-8.555-15.178-17.063,0-9.773,7.524-17.106,18.622-18.441v-7.81a2,2,0,0,1,2-2h3.759a2,2,0,0,1,2,2v7.845c10.352,1.333,17.281,7.805,18.14,16.57h-7.3c-1.208-6.188-6.575-10.346-15.083-10.346-8.943,0-14.937,4.834-14.937,11.94,0,5.22,3.481,8.7,9.91,10.393l11.069,3c11.794,3.189,17.209,8.459,17.209,17.788,0,10.37-7.42,17.5-19.2,19.028a1.987,1.987,0,0,1,.19.851V3687.9a2,2,0,0,1-2,2Z" transform="translate(7535.261 -3575.923)" fill="#fff" stroke="rgba(0,0,0,0)" stroke-miterlimit="10" stroke-width="1"/>
  <g id="椭圆_267" data-name="椭圆 267" transform="translate(0 40)" fill="#1f8aff" stroke="#fff" stroke-width="4">
    <ellipse cx="29" cy="29.5" rx="29" ry="29.5" stroke="none"/>
    <ellipse cx="29" cy="29.5" rx="27" ry="27.5" fill="none"/>
  </g>
  <rect id="矩形_738" data-name="矩形 738" width="4" height="54.944" transform="translate(46.9 48.438) rotate(45)" fill="#fff"/>
</svg>
