<svg xmlns="http://www.w3.org/2000/svg" width="142.226" height="116.209" viewBox="0 0 142.226 116.209">
  <g id="Instant_messaging" data-name="Instant messaging" transform="translate(-1053.065 -784.531)">
    <path id="路径_400" data-name="路径 400" d="M1095.534,816.972h-36.982c-3.036,0-5.485,2.729-5.485,6.082V883.84h0c0,3.351,2.45,6.082,5.485,6.082h36.984c3.012,0,5.462-2.731,5.462-6.082V863.448h0V823.054C1101,819.7,1098.546,816.972,1095.534,816.972Zm-18.5,65.354a3.818,3.818,0,1,1,3.419-3.809A3.627,3.627,0,0,1,1077.031,882.326Zm17.128-18.878v1.85a3.19,3.19,0,0,1-3.015,3.351h-28.227a3.189,3.189,0,0,1-3.014-3.351v-37.38a3.191,3.191,0,0,1,3.014-3.352h28.227a3.191,3.191,0,0,1,3.015,3.35Z" transform="translate(0 9.432)" fill="#007aff"/>
    <path id="路径_401" data-name="路径 401" d="M1164.6,878.173h-65.849c0-.147.011-.294.011-.442v-7.916h7.1l3.5-5.57a5.425,5.425,0,0,1,5.26-5.572h13.154a5.423,5.423,0,0,1,5.259,5.572l3.5,5.57H1164.6a4.186,4.186,0,0,1,0,8.358Z" transform="translate(10.965 22.567)" fill="#9bcaff"/>
    <path id="路径_402" data-name="路径 402" d="M1192.167,856.952c0,9.231-7.062,16.714-15.771,16.714h-69.738V833.939c0-9.4-7.255-17.084-16.121-17.084h-24.543V801.244c0-9.231,7.061-16.713,15.771-16.713h94.631c8.711,0,15.772,7.482,15.772,16.713v55.708Z" transform="translate(3.125)" fill="#9bcaff"/>
  </g>
</svg>
