<svg xmlns="http://www.w3.org/2000/svg" width="104" height="150" viewBox="0 0 104 150">
  <g id="Simple_UI" data-name="Simple UI" transform="translate(2633.964 4039.548)">
    <g id="矩形_682" data-name="矩形 682" transform="translate(-2633.964 -4039.548)" fill="none" stroke="#9bcaff" stroke-width="4">
      <rect width="104" height="150" rx="10" stroke="none"/>
      <rect x="2" y="2" width="100" height="146" rx="8" fill="none"/>
    </g>
    <rect id="矩形_683" data-name="矩形 683" width="84" height="114" rx="2" transform="translate(-2623.964 -4029.548)" fill="#1f8aff"/>
    <circle id="椭圆_257" data-name="椭圆 257" cx="5" cy="5" r="5" transform="translate(-2586.964 -3909.548)" fill="#1f8aff"/>
    <g id="noun_Star_1696190" transform="translate(-2611.52 -3999.48)">
      <path id="路径_9378" data-name="路径 9378" d="M64.192,20.253C54.528,17.476,52.5,15.447,49.722,5.782a1.081,1.081,0,0,0-2.078,0c-2.777,9.665-4.806,11.693-14.47,14.471a1.081,1.081,0,0,0,0,2.078c9.664,2.777,11.693,4.806,14.47,14.47a1.081,1.081,0,0,0,2.078,0c2.777-9.664,4.806-11.693,14.471-14.47a1.082,1.082,0,0,0,0-2.079Z" transform="translate(-19.348 -5)" fill="#9bcaff"/>
      <path id="路径_9379" data-name="路径 9379" d="M7.8,59.992c3.7,1.063,4.473,1.838,5.535,5.535a.624.624,0,0,0,1.2,0c1.062-3.7,1.838-4.473,5.535-5.535a.624.624,0,0,0,0-1.2c-3.7-1.062-4.473-1.838-5.535-5.535a.624.624,0,0,0-1.2,0c-1.063,3.7-1.838,4.473-5.535,5.535a.624.624,0,0,0,0,1.2Z" transform="translate(-7.343 -14.54)" fill="#9bcaff"/>
      <path id="路径_9380" data-name="路径 9380" d="M8.13,65.32c6.438,1.85,7.789,3.2,9.639,9.639a1.087,1.087,0,0,0,2.09,0c1.85-6.438,3.2-7.789,9.639-9.639a1.087,1.087,0,0,0,0-2.09c-6.438-1.85-7.789-3.2-9.639-9.639a1.087,1.087,0,0,0-2.09,0c-1.85,6.438-3.2,7.789-9.639,9.639a1.087,1.087,0,0,0,0,2.09Z" transform="translate(29.709 -16.052)" fill="#9bcaff"/>
    </g>
  </g>
</svg>
