<svg xmlns="http://www.w3.org/2000/svg" width="132.001" height="132.001" viewBox="0 0 132.001 132.001">
  <g id="Version_maintenance" data-name="Version maintenance" transform="translate(-894 -1740)">
    <path id="路径_619" data-name="路径 619" d="M3367.568,2960.548h-13.7a6.562,6.562,0,0,1-5.815-4.192l-1.872-4.437a6.454,6.454,0,0,1,1.1-7.053l9.748-9.754a4.427,4.427,0,0,0,0-6.25l-8.747-8.748a4.425,4.425,0,0,0-6.25,0l-9.824,9.821a6.538,6.538,0,0,1-7.073,1.137l-4.338-1.786a6.49,6.49,0,0,1-4.2-5.782v-13.928a4.433,4.433,0,0,0-4.423-4.421H3299.8a4.432,4.432,0,0,0-4.417,4.421V2923.5a6.5,6.5,0,0,1-4.2,5.782l-4.338,1.786a6.534,6.534,0,0,1-7.071-1.137l-9.822-9.821a4.426,4.426,0,0,0-6.251,0l-8.751,8.748a4.429,4.429,0,0,0,0,6.25l9.752,9.754a6.463,6.463,0,0,1,1.1,7.053l-1.869,4.438a6.564,6.564,0,0,1-5.818,4.192h-13.7a4.433,4.433,0,0,0-4.419,4.421v12.375a4.432,4.432,0,0,0,4.419,4.418h13.563a6.46,6.46,0,0,1,5.764,4.211l1.879,4.624a6.539,6.539,0,0,1-1.141,7.072l-9.528,9.528a4.43,4.43,0,0,0,0,6.251l8.751,8.752a4.435,4.435,0,0,0,6.251,0l9.454-9.461a6.482,6.482,0,0,1,7.06-1.1l4.72,1.966a6.518,6.518,0,0,1,4.2,5.8v13.34a4.432,4.432,0,0,0,4.417,4.419h12.374a4.433,4.433,0,0,0,4.423-4.419V3019.4a6.518,6.518,0,0,1,4.2-5.8l3.436-1.433-6.669-6.671a35.882,35.882,0,1,1,22.558-22.72l6.694,6.7,1.427-3.5a6.458,6.458,0,0,1,5.763-4.211h13.566a4.432,4.432,0,0,0,4.418-4.418v-12.375a4.433,4.433,0,0,0-4.418-4.421Zm-34.479,25.095c-1.414-1.383-2.074-2.5-1.282-4.732a26.07,26.07,0,0,0-9.852-30.9,23.986,23.986,0,0,0-21.569-3.431c2.966,3.483,6.3,6.389,9.437,9.5,6.146,6.1,6.236,13.65.371,19.419-5.68,5.6-13.353,5.411-19.251-.539-3.095-3.124-6.08-6.355-9.116-9.538q-.549.328-1.1.651c-1.751,9.578.42,18.134,7.616,25,7.66,7.309,16.826,9.373,26.876,5.989,2.566-.863,3.93-.407,5.669,1.359,7.491,7.609,21.063,20.5,28.7,27.968,3.69,3.611,8.228,3.728,11.866.57,4.521-3.92,4.747-9.105.416-13.44-7.545-7.552-21.159-20.4-28.785-27.868Zm22.027,38.088a4.2,4.2,0,1,1,4.2-4.2,4.2,4.2,0,0,1-4.2,4.2Z" transform="translate(-2345.989 -1165.154)" fill="#9bcaff"/>
    <path id="路径_10353" data-name="路径 10353" d="M3331.406,2946.033Zm1.684,39.609c-1.414-1.383-2.074-2.5-1.282-4.732a26.07,26.07,0,0,0-9.852-30.9,23.986,23.986,0,0,0-21.569-3.431c2.966,3.483,6.3,6.389,9.437,9.5,6.146,6.1,6.236,13.65.371,19.419-5.68,5.6-13.353,5.411-19.251-.539-3.095-3.124-6.08-6.355-9.116-9.538q-.549.328-1.1.651c-1.751,9.578.42,18.134,7.616,25,7.66,7.309,16.826,9.373,26.876,5.989,2.566-.863,3.93-.407,5.669,1.359,7.491,7.609,21.063,20.5,28.7,27.968,3.69,3.611,8.228,3.728,11.866.57,4.521-3.92,4.747-9.105.416-13.44-7.545-7.552-21.159-20.4-28.785-27.868Zm22.027,38.088a4.2,4.2,0,1,1,4.2-4.2,4.2,4.2,0,0,1-4.2,4.2Z" transform="translate(-2345.989 -1165.154)" fill="#fff"/>
  </g>
</svg>
