<svg id="logo" xmlns="http://www.w3.org/2000/svg" width="215.662" height="200.76" viewBox="0 0 215.662 200.76">
  <g id="路径_224" data-name="路径 224" transform="translate(0 0)">
    <g id="路径_226" data-name="路径 226" transform="matrix(0.966, 0.259, -0.259, 0.966, 41.273, 0)" fill="none" stroke-miterlimit="10">
      <path d="M115.531,8.364C78.158-10.051,29.059,2.561,9.325,40.1c-20.681,39.343-6.048,93.534,34.83,111.893,35.711,16.034,67.426,4.458,88.262-17.605l48.125,2.928L154.759,94.976A74.445,74.445,0,0,0,155.8,55.983,76.273,76.273,0,0,0,115.531,8.364Z" stroke="none"/>
      <path d="M 79.10359191894531 9.999984741210938 L 79.10433959960938 9.999984741210938 C 52.79164123535156 9.999984741210938 29.44549560546875 23.31694030761719 18.1766357421875 44.75383758544922 C 8.936187744140625 62.33293914794922 7.46429443359375 84.54634094238281 14.23934936523438 104.1746368408203 C 20.40914916992188 122.0494918823242 32.48829650878906 135.7924346923828 48.25079345703125 142.8715362548828 C 57.99739074707031 147.2477874755859 67.7513427734375 149.4666900634766 77.24169158935547 149.4666900634766 C 94.76984405517578 149.4666900634766 111.7826385498047 141.673583984375 125.1460876464844 127.5230407714844 L 128.3565979003906 124.1234436035156 L 133.0238952636719 124.4074401855469 L 162.04736328125 126.173583984375 L 146.2174987792969 100.1768951416016 L 143.9028472900391 96.37564086914063 L 145.1776885986328 92.11154174804688 C 148.4700469970703 81.09954071044922 148.7824859619141 69.42588806152344 146.1805877685547 58.72763824462891 C 141.0466003417969 40.74208831787109 128.2846984863281 25.664794921875 111.111442565918 17.33448791503906 C 101.3753433227539 12.53709411621094 90.30718994140625 10.00083923339844 79.10359191894531 9.999984741210938 M 79.11084747314453 0 C 91.56195831298828 0.000946044921875 104.0985641479492 2.7308349609375 115.5314407348633 8.364334106445313 C 135.2627410888672 17.93524169921875 149.8674926757813 35.21204376220703 155.7964935302734 55.9827880859375 C 158.9240417480469 68.80403900146484 158.5651397705078 82.24429321289063 154.7586364746094 94.97604370117188 L 180.5411376953125 137.3174896240234 L 132.4164886474609 134.3889923095703 C 118.3027496337891 149.3340301513672 99.19920349121094 159.4667205810547 77.24169921875 159.4667205810547 C 66.78329467773438 159.4667205810547 55.67627716064453 157.1673278808594 44.15473937988281 151.9941864013672 C 3.276641845703125 133.6353912353516 -11.35545349121094 79.44368743896484 9.325042724609375 40.10099029541016 C 23.02210998535156 14.04481506347656 50.85982513427734 -0.0021514892578125 79.11084747314453 0 Z" stroke="none" fill="#fff"/>
    </g>
  </g>
  <text id="M" transform="translate(63 130.028)" fill="#fff" font-size="83" font-family="JCuYuan, 迷你简粗圆"><tspan x="0" y="0">M</tspan></text>
</svg>
